<svg width="655" height="573" viewBox="0 0 655 573" fill="none" xmlns="http://www.w3.org/2000/svg">
<path d="M327.499 55L50 535H605L327.499 55Z" fill="#FFC500"/>
<path d="M2.70376 562.903C6.30878 569.151 12.9696 573 20.1809 573H634.822C642.03 573 648.694 569.151 652.296 562.903C655.901 556.655 655.901 548.958 652.296 542.711L344.977 10.0956C341.373 3.84793 334.709 0 327.501 0C320.291 0 313.628 3.85044 310.025 10.0956L2.70376 542.711C-0.901253 548.957 -0.901253 556.655 2.70376 562.903ZM327.501 100.962L564.913 512.422H90.0883L327.501 100.962Z" fill="#CC0000"/>
<path fill-rule="evenodd" clip-rule="evenodd" d="M354.5 341L406 341.5H413H418L422 342.5C422 342.5 429.5 344 423 348L378.242 374.735C354.291 367.508 338.5 360 315 354.5C308.567 352.994 311 357.5 312.5 358.5C314 359.5 345.84 369.034 371.182 378.026L244.165 453.141C235.785 459.792 226.591 469.831 229.575 483.132C231.474 491.748 234.402 493.882 240 500.5L241.5 502L245.386 502.297C246.336 497.513 246.843 497.309 242.5 493C238 485.5 239.5 489.632 237 483.132C234.18 472.378 241.246 464.538 250.646 457.887L378.309 381.112C391.915 389.121 400.022 398.686 391.538 413.171C379.088 434.547 333.085 459.791 357.412 488.56C365.313 497.89 374.543 499.007 386.148 498.123L386.026 491.511C373.809 490.796 362 490.5 357.412 472.5C357.412 442.073 410.112 428.916 399.901 394.854C397.663 387.424 389.926 383.556 384.869 377.823L429 349.5C432.5 344.5 428.5 339 426 338.5C426 338.5 424.5 336 393 336L354.5 336.5" fill="black"/>
<path fill-rule="evenodd" clip-rule="evenodd" d="M339.313 333.488L295.877 347.601L299.491 358.724C300.367 361.42 298.9 364.312 296.216 365.184L289.316 367.426C286.631 368.298 283.745 366.82 282.869 364.125L279.255 353.002L275.009 354.382L258.284 321.896C255.746 316.966 255.514 311.167 257.65 306.059L259.64 301.302L267.635 271.322C268.306 268.808 270.199 266.808 272.667 266.006L313.116 252.863L313.359 252.784L353.892 239.614C356.364 238.811 359.076 239.32 361.097 240.965L385.123 260.53L389.529 263.219C394.242 266.096 397.451 270.913 398.297 276.378L403.884 312.508L399.652 313.883L403.266 325.006C404.141 327.701 402.675 330.593 399.99 331.466L393.147 333.689C390.462 334.561 387.575 333.084 386.7 330.389L383.086 319.266L339.556 333.409L339.313 333.488ZM265.703 295.516L376.787 259.422L356.679 243.025L272.333 270.431L265.703 295.516Z" fill="black"/>
</svg>
