<svg width="655" height="573" viewBox="0 0 655 573" fill="none" xmlns="http://www.w3.org/2000/svg">
<g clip-path="url(#clip0_3_17)">
<path d="M327.499 33L50 538H605L327.499 33Z" fill="#FFC500"/>
<path d="M2.70376 562.564C6.30878 568.808 12.9696 572.655 20.1809 572.655H634.822C642.03 572.655 648.694 568.808 652.296 562.564C655.901 556.32 655.901 548.628 652.296 542.384L344.977 10.0895C341.373 3.84561 334.709 0 327.501 0C320.291 0 313.628 3.84812 310.025 10.0895L2.70376 542.384C-0.901254 548.627 -0.901254 556.32 2.70376 562.564ZM327.501 100.901L564.913 512.114H90.0883L327.501 100.901Z" fill="#CC0000"/>
<path fill-rule="evenodd" clip-rule="evenodd" d="M424.56 391.383L419.486 387.464L325.38 498.221" fill="black"/>
<path fill-rule="evenodd" clip-rule="evenodd" d="M326.664 501.742L479.551 467.154L477.804 460.284" fill="black"/>
<path fill-rule="evenodd" clip-rule="evenodd" d="M425.314 380.537L432.509 382.443L438.711 376.348C435.276 372.991 434.309 369.284 429.556 371.863C425.45 374.117 426.118 376.158 425.314 380.537Z" fill="black"/>
<path fill-rule="evenodd" clip-rule="evenodd" d="M427.944 410.016L435.114 407.467V402.983C428.455 396.43 426.549 403.282 427.944 410.016Z" fill="black"/>
<path fill-rule="evenodd" clip-rule="evenodd" d="M464.513 426.076L465.164 415.79C459.094 415.011 449.078 413.564 454.073 422.531C456.895 427.607 458.989 426.076 464.516 426.076" fill="black"/>
<path fill-rule="evenodd" clip-rule="evenodd" d="M329.943 496.61L439.115 433.592L433.315 426.771" fill="black"/>
<path fill-rule="evenodd" clip-rule="evenodd" d="M475.63 451.072C481.914 451.072 483.284 449.514 488.036 445.298C479.336 439.097 475.63 440.144 475.63 451.072Z" fill="black"/>
<path fill-rule="evenodd" clip-rule="evenodd" d="M506.53 478.349C513.484 475.881 514.64 474.242 518.343 467.879C512.008 466.536 508.84 464.174 503.657 468.413C498.045 473.029 502.45 473.835 506.53 478.347" fill="black"/>
<path fill-rule="evenodd" clip-rule="evenodd" d="M246.845 484.292H193.046V497.99C193.046 501.309 190.35 504 187.025 504H178.48C175.154 504 172.458 501.309 172.458 497.99V484.292H167.199L160.288 442.052C159.239 435.642 161.09 429.097 165.342 424.181L169.302 419.602L189.173 389.101C190.839 386.543 193.688 385 196.745 385H246.845H247.146H297.35C300.412 385 303.265 386.548 304.93 389.112L324.725 419.602L328.682 424.192C332.915 429.103 334.757 435.63 333.714 442.023L326.822 484.292H321.58V497.99C321.58 501.309 318.884 504 315.559 504H307.083C303.758 504 301.062 501.309 301.062 497.99V484.292H247.146H246.845ZM329.639 441.795C329.639 447.604 324.921 452.313 319.101 452.313C313.282 452.313 308.564 447.604 308.564 441.795C308.564 435.987 313.282 431.278 319.101 431.278C324.921 431.278 329.639 435.987 329.639 441.795ZM175.191 452.313C181.011 452.313 185.729 447.604 185.729 441.795C185.729 435.987 181.011 431.278 175.191 431.278C169.372 431.278 164.654 435.987 164.654 441.795C164.654 447.604 169.372 452.313 175.191 452.313ZM228.48 442.697V467.939H265.21V442.697H228.48ZM222.308 467.939V442.697H200.933L193.255 467.939H222.308ZM271.232 442.697V467.939H300.285L292.607 442.697H271.232ZM178.202 415.351H315.789L299.231 389.808H194.761L178.202 415.351Z" fill="black"/>
</g>
<defs>
<clipPath id="clip0_3_17">
<rect width="655" height="573" fill="white"/>
</clipPath>
</defs>
</svg>
