<svg width="655" height="573" viewBox="0 0 655 573" fill="none" xmlns="http://www.w3.org/2000/svg">
<path d="M327.499 33L50 538H605L327.499 33Z" fill="#FFC500"/>
<path d="M391 201L401 215.5L573 512L568 520.5L254.5 518.5L296.5 471.476L299 468L301 465.5L303.5 463.5L307 462L314 459.345L327.5 452.813L338.5 444.5L348 436L349.5 432L350 429.5L349.5 427.5L338.5 408.5L334 400L333 397.5L332.5 395V393L333 391.5L333.5 390.5L335 389L346.5 383.5L360 376L359.5 369L358 366L359 358.5V350L357 339.5L360 328L371.5 306L372 305V304L371.5 303.5L369.5 301.5L366 297.5L364.5 295L364 293.5L357 275.5L355.5 272L353.5 269.5L350 267.5L343.5 263.5L337 254.5L338 250V245L334 235V234.5L340 224.5L351.5 218L361.5 215.5L367 214.389L368.5 213.5L365 203.5L365.5 198L365 194L370.5 175L369 170.5L370.5 169L372 168.5L373.5 169.5L374.5 172L377.5 175L381.5 181.5L385 190L391 201Z" fill="black"/>
<path d="M2.70376 562.564C6.30878 568.808 12.9696 572.655 20.1809 572.655H634.822C642.03 572.655 648.694 568.808 652.296 562.564C655.901 556.32 655.901 548.628 652.296 542.384L344.977 10.0895C341.373 3.84561 334.709 0 327.501 0C320.291 0 313.628 3.84812 310.025 10.0895L2.70376 542.384C-0.901255 548.627 -0.901255 556.32 2.70376 562.564ZM327.501 100.901L564.913 512.114H90.0883L327.501 100.901Z" fill="#CC0000"/>
<path d="M357.938 195.981L358.812 199.019L360.562 203.358L358.375 205.962L356.188 207.698L353.125 209L348.75 208.566L346.125 206.83L343.938 204.226L341.312 201.189L340 197.283L340.438 193.811L342.625 190.774L345.25 188.604L347.875 186.434L349.625 186L353.125 186.434L355.75 187.736L357.938 189.038L359.688 190.774L361 192.509L360.562 192.943L359.25 193.377L358.375 194.679L357.938 195.981Z" fill="black"/>
<path d="M315.5 290.5L319 311L313 312L309.5 316.5L307 322.5L301.5 324.5L292 320.5L290 308L286.5 305.5L286 304.5V303L290 288.5L296 286H303L309.5 287.5L315.5 290.5Z" fill="black"/>
<path d="M305 342.122V341.244L305.863 334.22L308.451 327.634L308.882 327.195L309.745 326.756L313.196 327.634H314.49L320.961 325.439L322.255 325L323.118 325.439L326.569 329.39L327 330.268L325.275 339.049L317.078 342.122L305.863 343L305 342.122Z" fill="black"/>
<path d="M229 428.5L232.5 415.5L230 413.5L233.5 402.5V399L230 398L234.5 387.5L239.5 372.5H243.5L258 356L267.5 359.5L270 364.5L278.5 372.5L277 393L275 410L264 412.5L258 414L255 415.5L252 418L244.5 427.5L229 428.5Z" fill="black"/>
<path d="M229 468V459L230.224 456L245.531 450L244.306 453.6L244.918 454.2L259 453.6L256.551 465.6L241.857 474L229 468Z" fill="black"/>
<circle cx="173" cy="509" r="2" fill="black"/>
<path d="M175.5 500.362L188.5 508.872L175 509.723V511H212L222 508.021L223.5 509.723L226 507.17L222 505.043L213 508.021L214.5 501.638L213 495.681L205.5 491H197.5L191.5 493.128L190.5 498.66L194.5 506.319V508.021H193L180.5 499.936L178 499.511L176 499.936L175.5 500.362Z" fill="black"/>
<circle cx="173" cy="509" r="2" fill="black"/>
<circle cx="179.8" cy="497.5" r="1.8" fill="black"/>
<circle cx="173.5" cy="498.5" r="1.5" fill="black"/>
<circle cx="228.5" cy="509.5" r="1.5" fill="black"/>
<circle cx="229.5" cy="505.5" r="1.5" fill="black"/>
<path d="M221.442 501.748C221.124 502.777 220.892 503.619 219.863 503.302C218.834 502.984 218.258 501.892 218.575 500.863C218.893 499.834 219.985 499.258 221.014 499.575C222.043 499.893 222.347 500.51 221.442 501.748Z" fill="black"/>
</svg>
