<svg width="655" height="573" viewBox="0 0 655 573" fill="none" xmlns="http://www.w3.org/2000/svg">
<path d="M327.499 33L50 538H605L327.499 33Z" fill="#FFC500"/>
<path d="M2.70376 562.564C6.30878 568.808 12.9696 572.655 20.1809 572.655H634.822C642.03 572.655 648.694 568.808 652.296 562.564C655.901 556.32 655.901 548.628 652.296 542.384L344.977 10.0895C341.373 3.84561 334.709 0 327.501 0C320.291 0 313.628 3.84812 310.025 10.0895L2.70376 542.384C-0.901253 548.627 -0.901253 556.32 2.70376 562.564ZM327.501 100.901L564.913 512.114H90.0883L327.501 100.901Z" fill="#CC0000"/>
<path d="M160.282 489.136H130.398V497H160.282V489.136Z" fill="black"/>
<path d="M471.699 489.136H441.816V497H471.699V489.136Z" fill="black"/>
<path d="M523.602 489.136H493.718V497H523.602V489.136Z" fill="black"/>
<path d="M264.087 489.136H234.204V497H264.087V489.136Z" fill="black"/>
<path d="M315.99 489.136H286.107V497H315.99V489.136Z" fill="black"/>
<path d="M367.893 489.136H338.01V497H367.893V489.136Z" fill="black"/>
<path d="M419.796 489.136H389.913V497H419.796V489.136Z" fill="black"/>
<path d="M212.184 489.136H182.301V497H212.184V489.136Z" fill="black"/>
<path d="M471.699 416H441.816V423.864H471.699V416Z" fill="black"/>
<path d="M256.223 416H226.34V423.864H256.223V416Z" fill="black"/>
<path d="M340.369 416H310.485V423.864H340.369V416Z" fill="black"/>
<path d="M429.233 416H399.35V423.864H429.233V416Z" fill="black"/>
<path d="M212.184 416H182.301V423.864H212.184V416Z" fill="black"/>
<path fill-rule="evenodd" clip-rule="evenodd" d="M322.439 229.006C322.817 230.896 322.817 232.786 322.062 236.188C316.4 238.456 308.987 239.867 305.077 242.236C301.167 244.605 295.111 252.663 294.131 254.332C276.549 284.301 282.431 273.988 277.304 284.301C264.85 299.804 237.138 311.788 236.383 312.544C235.629 313.3 235.628 318.214 232.356 318.113C230.722 318.113 226.741 320.867 225.438 323.507C224.378 325.661 221.634 329.462 222.041 332.957C222.286 335.064 223.173 336.481 224.305 337.871C226.943 341.634 231.055 343.576 235.571 342.029C237.601 341.36 238.903 340.056 238.175 337.748C237.083 334.473 237.661 333.136 240.177 331.225C242.207 329.645 241.115 329.828 243.359 330.406C245.963 331.042 258.21 325.909 260.333 324.576C264.816 321.721 261.029 324.576 271.121 317.412C282.395 309.431 292.625 302.05 300.17 290.242C302.867 285.995 303.736 287.985 303.945 289.864C304.7 296.668 306.964 317.412 306.964 317.412C307.342 320.104 308.007 334.469 298.661 349.589C293.988 357.149 282.863 377.06 280.166 382.097C277.469 387.168 272.823 395.705 271.863 403.265C271.863 403.265 267.19 428.824 259.703 444.713C258.859 446.504 257.493 448.005 254.796 452.651C252.1 457.296 255.258 455.977 254.419 457.565C253.639 459.041 251.022 460.211 251.022 460.211C246.669 462.617 244.984 461.551 239.74 461.856C237.377 461.976 228.039 461.888 228.039 465.258C227.243 468.527 237.826 471.031 240.494 471.306C246.911 472.062 253.705 472.44 256.724 472.44C259.744 472.44 257.29 475.01 258.989 475.464C260.687 475.918 275.09 479.289 276.729 479.622C279.371 480.159 280.125 476.976 281.258 468.66C281.258 467.148 283.069 467.497 284.614 467.771C285.646 467.954 287.297 464.88 288.429 460.722C288.429 460.722 300.17 414.227 306.587 392.681C318.419 380.224 328.544 367.278 332.061 362.677C332.583 361.995 333.669 362.242 333.851 363.081L342.066 400.997C343.576 410.069 344.008 411.829 348.86 418.385C348.86 418.385 363.58 440.688 374.148 458.454C375.498 460.723 381.083 457.703 379.81 460.344C378.536 462.985 377.168 465.636 373.016 468.282C368.455 471.188 364.225 471.306 362.825 475.464C362.07 478.11 364.712 480 368.864 480C378.677 480 382.074 479.622 384.339 477.732C386.226 476.765 387.359 475.842 388.113 474.708C388.868 473.574 392.643 467.526 394.53 466.392C395.285 466.392 396.039 467.904 397.549 467.904C399.059 467.904 400.467 465.815 402.456 463.783C403.588 462.626 407.843 459.143 408.117 456.319C408.392 453.496 400.465 450.623 399.059 445.224C398.476 442.984 400.952 444.545 398.284 439.689C395.616 434.834 381.26 414.682 375.28 394.571C370.374 370.001 371.506 362.441 368.109 344.675C369.996 344.297 372.261 342.785 372.261 340.139C373.016 331.823 371.185 321.419 369.619 309.52C368.073 297.778 364.335 283.06 365.09 279.658C386.981 301.582 390.638 308.979 401.324 330.689C402.719 333.523 402.87 334.796 403.966 336.359C404.461 337.064 405.475 337.871 407.363 337.871C408.872 337.871 407.199 347.881 411.137 349.914C413.898 351.311 420.896 350.35 423.592 349.589C427.684 348.406 435.988 344.178 431.896 338.627C430.764 337.493 427.553 336.987 424.491 337.23C420.573 337.23 422.838 328.799 422.838 327.287C422.838 319.726 418.686 317.08 417.095 314.133C402.502 287.104 372.261 250.93 372.261 250.93C369.657 247.5 365.13 242.849 362.825 240.724C358.98 237.204 353.996 238.66 349.237 236.566C346.218 234.676 345.84 232.253 345.84 229.762C345.356 223.181 345.84 221.171 345.84 217.287C345.84 214.641 350.747 202.923 350.747 198.387C350.747 193.851 349.219 194.858 348.482 193.473C347.63 191.87 348.204 191.205 346.702 189.315C343.023 184.687 338.144 182.619 333.385 182.133C328.626 181.647 324.157 182.511 320.175 184.401C316.388 186.198 311.871 190.449 311.494 191.205C311.116 191.961 312.248 194.607 311.871 194.985C311.871 194.985 309.323 199.766 309.565 202.034C310.14 207.404 312.626 207.081 310.361 209.727C307.719 212.814 306.174 216.153 306.912 216.531C309.188 217.154 309.565 217.532 309.565 220.556C309.566 223.58 308.811 223.713 308.811 225.092C308.811 226.226 308.433 228.628 311.116 228.628C314.902 228.354 319.797 228.25 322.439 229.006Z" fill="black"/>
</svg>
