<svg width="655" height="573" viewBox="0 0 655 573" fill="none" xmlns="http://www.w3.org/2000/svg">
<g clip-path="url(#clip0_1_5)">
<path d="M327.499 33L50 538H605L327.499 33Z" fill="#FFC500"/>
<path d="M2.70376 562.564C6.30878 568.808 12.9696 572.655 20.1809 572.655H634.822C642.03 572.655 648.694 568.808 652.296 562.564C655.901 556.32 655.901 548.628 652.296 542.384L344.977 10.0895C341.373 3.84561 334.709 0 327.501 0C320.291 0 313.628 3.84812 310.025 10.0895L2.70376 542.384C-0.901254 548.627 -0.901254 556.32 2.70376 562.564ZM327.501 100.901L564.913 512.114H90.0883L327.501 100.901Z" fill="#CC0000"/>
<path fill-rule="evenodd" clip-rule="evenodd" d="M306.869 327.564C308.091 328.93 301.916 333.238 299.429 336.073C295.656 329.038 293.334 322.755 286.072 319.233C282.5 317.5 280 316.942 277 316.942C274 316.942 274.412 310.61 275 306.5C275.332 304.177 276 301.5 284.249 294.012C286.671 292.749 290.775 296.53 290.775 296.53L286.934 302.265L290 303.5L292.215 297.008C292.215 297.008 295.095 295.097 298.936 300.354L300.856 297.008C293.655 296.306 293.175 294.619 293.175 294.619L296.536 288.406L293.655 286.972L291.735 294.141L287.165 292.476C285.934 291.18 285.557 290.84 285.5 290.087C285.5 289.334 285.695 287.922 285.695 285.211C285.695 282.5 286.072 278.337 282 273.5C275.293 264.716 264.665 264.309 255.06 268.782C252.217 270.108 244.226 273.457 248.873 278.337C251.609 281.204 250.125 278.956 249.229 286.745C248.935 289.22 248.996 293.922 249.069 295.381C249.175 297.102 250.935 302.866 252.143 306.988C252.425 307.954 253.376 308.566 254.371 308.417L259.113 307.707C259.743 307.613 260.292 308.124 260.213 308.756C259.97 310.693 259.305 314.483 257.65 316.942C256.262 319.005 253.707 320.307 251.373 321.109C248.382 322.137 245.699 324.234 244.741 327.249L238.457 347.018C237.877 348.843 236.786 350.46 235.316 351.686C227.613 358.111 213.964 369.7 213.964 371.564C213.964 374.431 214.595 373.751 209.478 376.184C206.042 377.826 203.879 381.266 203.144 384.588L203.434 393.195C203.465 394.122 204.129 394.906 205.038 395.089L214.477 396.988C215.683 397.23 216.82 396.337 216.87 395.108L217.239 386.036L221.012 381.936L223.71 383.448L244.723 368.125L231.099 403.426L243.401 409.437C236.411 422.865 239.073 419.051 240.11 442.31C240.734 455.989 245.366 474.783 228.5 477.5C226.829 477.769 224.525 478.5 224.525 480V483.587H189V492H466V483.587H397.83C408 472.5 407.067 461.84 409.966 464.891L416.938 461.137C409.966 441 405 450.5 401.289 429.802C399.357 408.924 392.777 402.699 387.716 394.298L395.154 392.998L386.359 359.745C391.116 359.198 394.5 359.5 396.5 360C399.293 360.931 399.052 360.995 400.619 361.806C400.871 361.937 401.135 362.045 401.405 362.135L402.828 362.609C404.592 363.197 406.455 363.437 408.311 363.315V363.315C408.777 363.285 409.238 363.188 409.662 362.994C412.876 361.522 415.612 358.737 419.905 358.239V328.424H407.927L397.303 289.437L392.059 279.307C389.339 274.052 384.618 270.115 378.96 268.383L371.731 266.171C370.89 265.914 370.316 265.135 370.316 264.255C370.315 256.026 370.409 252.552 374.325 244.335C380.134 232.138 379.107 225.798 375.267 220.541C369.026 211.998 360.554 215.11 352.561 218.17L345.035 221.059C344.542 221.497 344.062 224.364 345.503 224.842C345.745 229.999 343.582 234.401 342.622 237.268C341.662 240.136 340.702 241.092 339.742 243.481C341.971 247.364 343.696 252.85 344.752 256.771C345.418 259.245 348.148 260.624 350.484 259.573L355.155 257.473L354.872 259.854C354.495 263.027 352.463 265.762 349.535 267.041L339.076 271.606C337.592 272.254 336.432 273.476 335.862 274.992C330.122 290.281 325.623 302.499 315.245 315.429L306.5 326.5L306.881 327.58L306.869 327.564ZM344.048 339.878L329.453 390.326L334.98 393.221C328.239 408.754 330.688 407.592 329.453 433.141L328 466.382C328 471.198 320.5 479.5 309.5 479.5C307.5 480 307 479.5 306.617 483.587H284.054L300 472C298.121 467.566 296.745 464.722 294 460.479C288.5 451.979 292.612 443.177 289 433.141C287.21 428.168 280.446 423.943 284 414C285.251 410.5 287.285 409.744 291.903 409.062C295.945 408.454 296.247 411.498 298.341 414.791C303.239 411.713 307.905 406.849 313.79 407.531C317.545 407.969 320.872 407.374 322.177 403.33C323.375 399.549 326.865 398.662 330.028 396.759L317.545 373.208L312.988 376.075L304.67 347.521C306.551 345.85 312.915 337.193 315.311 338.865L316 340C324.725 333.903 335.605 325.153 338.949 314.647C344.311 312.78 343.636 336.203 344.048 339.878ZM391.598 328.573C391.785 329.243 391.287 329.937 390.592 329.937H383.209L384.788 319.161C384.994 317.756 386.305 316.644 387.347 317.609C389.64 319.731 390.679 325.264 391.598 328.573ZM301.305 382.534L290.737 388.071C288.216 379.231 283.191 370.616 287.715 362.069L287.873 361.77C288.644 360.319 290.738 360.365 291.445 361.848L301.305 382.534ZM395.43 458.068C394.95 463.803 393.81 469.255 393 472C390.311 481.117 381.419 479.855 381.242 483.587H342V477.676C338.609 468.067 348 454.5 349.5 436C351 417.5 347.154 408.948 352.072 402.943C354.661 399.777 353.16 400.036 356.074 400.653C361.602 401.795 362.676 386.87 365.554 394.922C366.006 396.165 367.469 400.983 369.578 399.885C371.294 398.987 370.275 399.217 370.667 402.943C371.31 409.062 370.508 405.366 383.057 430.084C390.266 444.276 395.91 452.333 395.43 458.068ZM282.551 460.479C283.737 467.928 280.888 473.245 275.257 477.676C273.012 479.096 271.692 477.533 272.532 483.587H254.911C254.911 483.587 254.911 480 254.5 476.5C251.5 468.5 252.439 459.182 253.528 454.335C254.617 449.488 255.689 445.8 254.617 439.429C253.096 430.473 252.331 427.458 258.5 418C264.311 409.077 266.006 408.994 266.006 416.15C266.006 431.228 280.173 445.544 282.551 460.479Z" fill="black"/>
</g>
<defs>
<clipPath id="clip0_1_5">
<rect width="655" height="573" fill="white"/>
</clipPath>
</defs>
</svg>
