<svg width="655" height="573" viewBox="0 0 655 573" fill="none" xmlns="http://www.w3.org/2000/svg">
<path d="M327.499 33L50 538H605L327.499 33Z" fill="#FFC500"/>
<path d="M2.70376 562.564C6.30878 568.808 12.9696 572.655 20.1809 572.655H634.822C642.03 572.655 648.694 568.808 652.296 562.564C655.901 556.32 655.901 548.628 652.296 542.384L344.977 10.0895C341.373 3.84561 334.709 0 327.501 0C320.291 0 313.628 3.84812 310.025 10.0895L2.70376 542.384C-0.901255 548.627 -0.901255 556.32 2.70376 562.564ZM327.501 100.901L564.913 512.114H90.0883L327.501 100.901Z" fill="#CC0000"/>
<path fill-rule="evenodd" clip-rule="evenodd" d="M345.576 229.576C344.41 238.948 342.007 236.725 346.717 239.319C351.211 241.752 347.724 250.819 356.016 250.079C364.081 249.337 359.371 255.812 356.78 260.158L332.671 311.187C322.882 317.911 314.352 326.823 302.311 327.654C292.242 328.36 296.957 326.541 288.673 334.253C274.353 347.631 272.137 375.168 266.874 393.572C260.498 391.875 242.919 388.456 233.833 390.583C218.164 394.253 211.974 398.784 204.583 406.245C176.689 434.518 191.069 484.776 228.569 494.118C253.232 500.287 285.102 485.422 293.198 460.878C302.068 434.027 290.953 416.263 273.402 398.259L275.863 392.37L305.947 426.257C306.469 439.575 305.607 445.218 314.566 454.835C309.917 458.971 300.557 463.778 301.053 470.471C301.757 479.749 322.602 472.164 328.083 467.879C337.812 476.85 351.265 467.603 362.906 464.273C373.62 482.618 383.815 494.704 405.765 496.773C425.38 498.59 445.734 489.462 452.539 471.302C455.094 464.489 460.418 465.935 462.299 458.971C471.105 425.887 444.469 393.819 411.341 392.647C401.795 392.311 395.02 394.404 385.875 396.962L375.471 375.719L395.791 368.97L406.135 349.944C403.86 322.566 402.84 291.054 392.34 265.525C387.571 253.995 372.266 251.004 378.056 237.037C381.906 227.754 383.721 212.183 372.36 208.517C366.325 206.54 340.707 210.365 344.801 217.765C347.976 223.533 346.741 219.798 345.566 229.576H345.576ZM328.151 355.402C314.725 361.755 319.126 357.59 312.907 365.329C306.257 373.595 292.497 369.555 282.613 369.491L290.802 339.956C295.666 344.302 295.172 346.058 301.763 343.316C308.506 340.48 308.661 342.789 313.987 347.044L344.006 328.945C345.641 345.568 344.006 347.941 328.151 355.431V355.406V355.402ZM305.026 409.821L302.747 411.241C291.572 399.676 274.913 391.816 278.671 375.318L304.716 376.214L305.02 409.82L305.026 409.821ZM353.795 398.044L348.316 385.958C352.445 382.658 352.811 381.641 358.416 381.826C368.825 382.197 356.756 392.987 353.795 398.044ZM378.305 401.188L366.02 411.948C358.325 401.313 362.51 397.984 368.455 386.113C373.041 386.975 376.275 397.427 378.305 401.188V401.188ZM414.579 450.245C414.737 445.218 416.394 442.288 411.96 439.299C403.464 433.562 396.564 415.864 391.456 407.107C405.924 403.996 416.641 401.618 430.159 408.959C455.068 422.557 459.379 458.075 438.934 477.16C419.875 494.98 394.255 490.91 377.165 472.415L372.054 461.099L414.579 450.245V450.245ZM240.059 437.016C233.348 439.265 235.288 449.379 243.017 447.93C256.133 445.493 264.261 417.87 269.218 407.971C293.172 431.003 292.647 468.278 260.041 483.234C217.059 502.905 176.784 447.93 209.423 412.784C221.403 399.831 238.583 395.575 255.302 400.697C267.863 404.517 264.538 400.782 256.623 416.019C252.808 423.389 248.832 434.057 240.059 437.016V437.016ZM401.861 439.234L381.444 439.356L372.301 423.354L384.591 410.126L401.861 439.23V439.234ZM346.191 439.605L337.817 439.3L334.645 419.999" fill="black"/>
</svg>
