<svg width="655" height="573" viewBox="0 0 655 573" fill="none" xmlns="http://www.w3.org/2000/svg">
<path d="M327.499 33L50 538H605L327.499 33Z" fill="#FFC500"/>
<path d="M2.70376 562.564C6.30878 568.808 12.9696 572.655 20.1809 572.655H634.822C642.03 572.655 648.694 568.808 652.296 562.564C655.901 556.32 655.901 548.628 652.296 542.384L344.977 10.0895C341.373 3.84561 334.709 0 327.501 0C320.291 0 313.628 3.84812 310.025 10.0895L2.70376 542.384C-0.901255 548.627 -0.901255 556.32 2.70376 562.564ZM327.501 100.901L564.913 512.114H90.0883L327.501 100.901Z" fill="#CC0000"/>
<path fill-rule="evenodd" clip-rule="evenodd" d="M268.919 320.009C268.401 318.832 266.307 319.484 265.004 319.223C265.004 319.223 265.004 319.223 265.393 318.045C265.781 316.866 266.571 314.512 266.958 313.333C267.347 312.124 267.644 307.482 266.57 306.629C265.495 305.779 265.495 308.788 264.252 312.322C263.047 315.886 259.687 317.488 256.686 317.488C253.653 317.488 241.613 317.033 238.842 317C231.042 316.87 229.249 310.293 231.111 306.63C232.937 302.963 231.111 306.63 230.813 306.63C230.554 306.63 229.02 306.266 228.203 309.115C227.814 310.555 227.944 315.299 235.837 325.504C235.837 325.504 235.837 325.504 235.41 326.029C235.022 326.553 234.232 327.598 233.194 329.986C232.146 332.341 230.812 336.008 228.854 339.672C226.895 343.334 224.257 346.997 222.036 349.518C219.783 352.003 217.044 352.591 216.002 354.423C214.953 356.259 214.662 359.627 215.445 360.51C220.534 366.003 221.023 363.059 222.199 363.879C223.378 364.729 221.474 365.581 225.916 367.936C228.754 369.441 230.287 367.214 233.193 366.79C236.092 366.431 238.703 367.282 240.011 367.609C247.641 369.408 244.576 369.242 254.853 368C254.853 368 254.853 368 255.773 369.568C256.653 371.143 258.449 374.28 260.665 377.027C262.886 379.778 265.527 382.135 268.657 388.972C271.823 395.773 275.507 407.059 278.641 414.914C281.803 422.763 284.446 427.245 286.795 430.125C289.175 433.006 291.264 434.312 292.7 435.619C294.167 436.931 294.953 438.237 295.604 440.33C296.252 442.456 296.783 445.336 296.783 449.395C296.783 453.448 296.265 458.685 296.524 462.251C296.783 465.785 297.828 467.616 298.349 470.625C298.906 473.633 298.906 477.858 298.349 481.387C297.831 484.921 296.785 487.8 295.221 489.894C293.651 491.988 291.532 493.295 290.489 493.952C289.44 494.606 289.44 494.606 288.664 496.994L301.254 496.968C301.254 496.968 301.254 496.994 301.254 496.443C301.254 495.919 301.254 494.874 301.901 493.825C302.549 492.781 303.892 491.731 304.415 488.985C304.933 486.238 304.674 481.789 305.334 477.044C305.982 472.332 307.55 467.359 308.105 463.043C308.623 458.691 308.105 455.027 307.808 453.197C307.549 451.361 307.549 451.361 313.323 437.948C313.323 437.922 313.323 437.948 313.944 440.958C314.566 443.972 315.802 450.022 316.293 454.503C316.746 458.952 316.487 461.866 317.005 464.484C317.562 467.098 318.864 469.453 319.776 472.724C320.696 475.996 321.214 480.214 321.214 483.357C321.214 486.499 320.696 488.593 320.437 489.639C320.178 490.687 319.919 491.502 313.587 497L325.685 496.974C325.685 496.974 325.685 497 325.685 496.449C325.685 495.925 325.685 494.88 325.685 494.355C325.685 493.831 325.685 493.831 329.635 490.694C329.635 490.694 329.635 490.694 329.117 488.728C328.599 486.764 327.554 482.839 327.258 477.442C327 472.077 327.556 465.271 327.388 460.4C327.258 455.555 326.469 452.678 326.469 450.188C326.469 447.705 327.258 445.611 327.673 444.567C328.061 443.517 328.061 443.517 328.061 428.83C328.061 428.83 328.061 428.83 335.142 430.367C342.252 431.905 356.445 434.945 366.946 436.219C377.455 437.467 384.272 436.942 387.696 436.68C391.123 436.418 391.123 436.418 404.53 430.924C404.53 430.924 404.854 430.794 405.449 432.622C407.275 438.446 407.633 438.185 409.102 439.427C413.245 442.993 409.102 449.343 411.354 449.669C413.539 449.995 413.57 443.223 416.086 443.78C418.594 444.305 418.989 451.924 420.292 452.154C421.561 452.385 422.642 447.442 423.849 445.087C423.849 445.087 423.849 445.087 424.302 448.096C424.755 451.109 425.668 457.127 425.481 462C425.286 466.841 423.98 470.508 422.901 473.126C421.852 475.739 421.075 477.314 419.767 478.748C418.432 480.221 416.606 481.532 415.694 482.578C414.774 483.626 414.774 484.413 414.774 484.803C414.774 485.194 414.774 485.194 404.331 495.599L418.721 495.69C418.721 495.69 418.721 494.613 418.721 494.089C418.721 493.563 418.721 492.52 418.721 491.995C418.721 491.471 418.721 491.471 423.45 488.333C423.45 488.333 423.45 488.333 423.282 487.808C423.152 487.283 422.893 486.24 424.622 482.834C426.316 479.433 430.004 473.64 433.395 469.063C436.821 464.485 439.987 461.08 441.553 459.377C443.15 457.647 443.15 457.647 442.33 450.579L443.931 449.794C443.931 449.794 443.931 449.794 444.837 450.579C445.756 451.361 447.576 452.936 448.654 455.029C449.703 457.123 449.957 459.741 449.302 465.138C448.654 470.502 447.049 478.648 446.268 482.706C445.478 486.759 445.478 486.759 438.405 493.826H451.78C451.78 493.826 451.78 493.826 451.78 493.045C451.78 492.258 451.78 490.689 451.78 489.902C451.78 489.115 451.78 489.115 454.944 485.977C454.944 485.977 454.944 485.977 454.685 485.324C454.426 484.666 453.895 483.358 454.037 480.612C454.167 477.828 454.957 473.64 456.516 468.672C458.116 463.698 460.467 457.905 461.641 453.98C462.845 450.055 462.845 447.961 461.771 445.343C460.722 442.725 458.637 439.555 456.911 436.151C455.213 432.75 453.905 429.084 453.777 424.639C453.648 420.153 454.684 414.921 455.213 412.303C455.731 409.685 455.731 409.685 457.333 408.902C457.333 408.902 457.333 408.902 457.203 411.387C457.074 413.871 456.776 418.846 457.721 422.771C458.641 426.731 460.722 429.608 461.768 431.048C462.843 432.487 462.843 432.487 463.888 440.959C463.888 440.959 463.888 440.959 464.509 439.946C465.131 438.897 466.335 436.873 465.912 432.322C465.459 427.777 461.183 421.299 460.952 410.337C460.719 399.184 460.201 384.235 459.029 375.336C457.851 366.438 455.993 363.263 450.349 359.601C444.706 355.934 435.251 351.746 420.272 350.964C405.302 350.177 384.777 352.795 372.188 354.102C359.565 355.413 354.836 355.413 349.058 354.627C343.287 353.841 336.437 352.271 329.618 351.618C322.8 350.964 315.95 351.227 311.476 351.093C307.006 350.964 304.919 350.439 303.877 350.177C302.803 349.916 302.803 349.916 268.122 326.298C268.381 324.204 269.46 321.194 268.912 320.016" fill="black"/>
</svg>
