<svg width="655" height="573" viewBox="0 0 655 573" fill="none" xmlns="http://www.w3.org/2000/svg">
<path d="M327.499 33L50 538H605L327.499 33Z" fill="#FFC500"/>
<path d="M2.70376 562.564C6.30878 568.808 12.9696 572.655 20.1809 572.655H634.822C642.03 572.655 648.694 568.808 652.296 562.564C655.901 556.32 655.901 548.628 652.296 542.384L344.977 10.0895C341.373 3.84561 334.709 0 327.501 0C320.291 0 313.628 3.84812 310.025 10.0895L2.70376 542.384C-0.901255 548.627 -0.901255 556.32 2.70376 562.564ZM327.501 100.901L564.913 512.114H90.0883L327.501 100.901Z" fill="#CC0000"/>
<path fill-rule="evenodd" clip-rule="evenodd" d="M338.5 376.823C333.358 376.301 328.422 374.64 323.503 373.222C320.214 372.279 318.594 371.652 316.207 369.25C310.77 363.802 314.673 367.884 305.709 356.072C296.357 343.775 299.053 349.265 295.522 340.629C292.217 332.501 291.431 323.701 289.886 315.147C294.216 313.458 297.952 311.746 301.317 308.619C304.645 305.582 302.319 303.934 298.704 302.574C294.238 300.862 289.749 301.051 284.973 300.732C285.625 296.217 285.295 292.003 288.373 288.372C292.266 283.739 289.413 286.518 298.566 281.792C307.24 277.331 303.838 278.401 308.21 277.151C310.728 276.413 313.393 277.426 315.924 277.873C316.709 273.988 314.077 270.644 310.353 268.967C310.776 266.186 311.144 264.084 312.339 261.462C312.783 260.485 314.641 256.953 311.77 257.208C308.584 257.512 306.255 265.005 305.514 267.057C303.588 272.39 305.211 270.653 301.908 273.096C298.444 275.661 300.745 274.202 294.571 276.809C291.661 278.022 287.099 280.854 286.887 276.149C286.789 274.029 290.081 268.073 288.248 267.249C284.769 265.705 282.273 273.411 281.699 275.249C280.225 280.044 280.7 284.447 277.816 288.742C273.514 295.098 266.294 301.983 258.438 303.992C251.931 305.653 247.233 309.504 240.828 311.666C235.376 313.493 231.24 314.193 231.925 320.226C232.261 323.378 234.147 328.244 237.788 328.86C241.715 329.489 244.487 327.798 248.316 329.294C251.895 330.657 255.994 330.108 259.246 331.922C261.985 333.404 260.695 332.229 261.8 336.381C264.065 344.775 270.662 351.424 272.272 359.981C274.64 372.734 273.239 385.616 277.013 398.149C279.121 405.106 277.79 402.689 279.741 405.881C281.462 408.653 275.957 407.868 274.157 407.891C266.066 407.992 271.159 408.103 258.905 406.704C250.639 405.742 231.901 401.613 230.558 413.903C229.965 419.226 235.524 422.409 239.513 425.188C248.824 431.636 253.688 437.436 260.877 446.376C267.325 454.383 266.993 458.723 275.648 458.458C282.189 458.231 283.208 459.888 288.209 464.575C293.09 469.159 292.677 469.389 297.61 471.12C299.19 466.736 295.971 462.592 296.164 457.904C296.32 454.116 297.3 455.213 294.594 453.829C291.24 452.102 287.683 453.942 285.025 451.256C283.025 449.247 282.28 446.944 281.142 444.442C278.065 444.315 276.669 444.258 273.799 442.984C268.029 440.381 262.927 433.583 260.006 428.3C258.297 425.241 257.993 426.504 259.168 424.501C260.97 421.464 270.083 425.261 272.413 426.078C280.32 428.829 287.628 429.627 296.057 430.379C306.34 431.299 302.428 431.917 307.987 430.622C313.574 429.329 309.629 430.006 320.019 430.683C331.248 431.393 329.193 430.65 340.191 429.427C350.999 428.256 346.443 429.474 354.08 426.671C362.732 423.516 357.181 424.717 371.218 426.595C385.109 428.443 379.442 428.584 388.178 427.852C395.576 427.225 391.59 426.563 399.315 432.32C406.735 437.881 414.867 442.103 424.273 443.92C432.948 445.553 427.295 444.641 441.332 445.867C451.836 446.772 454.61 445.818 461.338 451.636C465.844 455.523 471.306 455.717 475.527 459.777C481.121 465.14 485.311 470.598 487.975 477.614C490.051 483.138 492.67 486.014 498.892 486.676C504.124 487.239 504.808 488.037 508.475 491.89C510.95 494.418 514.23 497.819 518.458 497.121C521.338 496.643 519.073 493.511 518.293 492.048C516.157 488.008 516.602 490.143 516.938 485.708C517.255 481.772 518.102 483.114 515.756 481.183C512.268 478.239 507.438 480.84 503.474 478.127C498.115 474.55 501.825 477.338 494.445 467.804C487.894 459.26 482.905 451.19 479.399 441.247C477.088 434.681 478.175 434.726 471.508 434.268C464.002 433.748 453.423 430.164 449.322 423.93C446.281 419.36 447.862 422.409 446.242 414.195C444.134 403.504 445.575 409.254 441.601 397.023C438.237 386.559 440.681 389.863 437.247 385.712C434.048 381.848 424.343 381.105 419.71 380.293C410.977 378.716 414.434 380.076 408.887 377.295C403.495 374.618 399.316 373.388 393.247 374.256C385.143 375.415 377.68 379.246 369.54 379.813C363.02 380.265 367.473 380.2 356.312 378.585C343.665 376.759 349.558 377.959 338.5 376.82" fill="black"/>
</svg>
