<svg width="655" height="573" viewBox="0 0 655 573" fill="none" xmlns="http://www.w3.org/2000/svg">
<g clip-path="url(#clip0_0_3)">
<path d="M327.499 33L50 538H605L327.499 33Z" fill="#FFC500"/>
<path d="M2.70376 562.564C6.30878 568.808 12.9696 572.655 20.1809 572.655H634.822C642.03 572.655 648.694 568.808 652.296 562.564C655.901 556.32 655.901 548.628 652.296 542.384L344.977 10.0895C341.373 3.84561 334.709 0 327.501 0C320.291 0 313.628 3.84812 310.025 10.0895L2.70376 542.384C-0.901254 548.627 -0.901254 556.32 2.70376 562.564ZM327.501 100.901L564.913 512.114H90.0883L327.501 100.901Z" fill="#CC0000"/>
<path d="M384.572 489.903L384.782 363.065C384.782 362.171 384.278 361.477 383.485 361.065C382.793 360.777 381.996 360.97 381.399 361.361L349.662 385.914C332.847 398.88 309.964 400.589 291.466 390.315C274.532 380.935 264.193 363.763 264 344.4V236.986L291.107 209L318.214 237.295V337.421C318.214 338.309 318.718 339.203 319.508 339.609C320.399 340.019 321.308 339.804 322.004 339.319L352.54 314.861C369.958 300.886 394.328 299.296 413.43 310.964C429.258 320.653 439 337.926 439 356.571V490L411.786 461.811L384.572 489.903Z" fill="black"/>
</g>
<defs>
<clipPath id="clip0_0_3">
<rect width="655" height="573" fill="white"/>
</clipPath>
</defs>
</svg>
