<svg width="655" height="573" viewBox="0 0 655 573" fill="none" xmlns="http://www.w3.org/2000/svg">
<path d="M327.499 33L50 538H605L327.499 33Z" fill="#FFC500"/>
<path d="M2.70376 562.564C6.30878 568.808 12.9696 572.655 20.1809 572.655H634.822C642.03 572.655 648.694 568.808 652.296 562.564C655.901 556.32 655.901 548.628 652.296 542.384L344.977 10.0895C341.373 3.84561 334.709 0 327.501 0C320.291 0 313.628 3.84812 310.025 10.0895L2.70376 542.384C-0.901255 548.627 -0.901255 556.32 2.70376 562.564ZM327.501 100.901L564.913 512.114H90.0883L327.501 100.901Z" fill="#CC0000"/>
<path fill-rule="evenodd" clip-rule="evenodd" d="M410.679 402.445C407.755 404.959 406.93 409.363 405.068 412.836L403.658 417.272L397.29 424.841L386.101 409.844L360.07 394.263L348.81 386.11L349.498 383.153L346.71 377.201L348.81 375L353.009 353.471L357.246 343.083L357.933 337.168L359.348 334.928L360.756 326.78L362.858 323.063L368.505 298.575V284.473L357.246 263.701L360.07 259.984L364.994 260.744L377.802 255.689L381.142 241.446L382.551 239.965H384.687L388.198 234.052L386.101 228.1L380.449 220.672L369.919 214.755L364.272 214L353.009 219.193L348.81 223.629L346.71 230.336V245.162L343.165 249.599L340.377 250.355L329.117 246.638H319.268L278.469 265.18L275.68 267.416L263.7 271.888L258.776 284.473L256.674 302.292L264.041 334.174L256.674 329.737L254.577 332.693V334.928L261.598 340.126L258.088 353.472V365.336L263.012 380.918L269.345 410.601L267.931 432.134L262.321 458.82L259.496 466.974V470.69L258.088 472.926V475.161L257.367 479.598L248.926 475.881L236.98 476.637L234.878 474.402L231.368 466.252L226.443 461.056L214.465 460.3L215.186 450.671L213.084 446.2L208.165 442.517L196.181 441.763L188.466 444.718L175.8 460.3L170.876 461.055L162.44 465.492L159.618 469.963L158.204 477.362L152.591 478.117L147.667 486.271L135 487.746V496.655L519 497V482.554H511.253L507.054 475.881L498.619 472.925L494.382 468.453L488.77 449.916L477.512 441.007L468.354 418.754L460.642 412.08L456.405 410.6H447.282L443.737 406.884L440.949 400.21L435.297 394.263L427.589 393.543C421.942 396.498 415.569 398.252 410.679 402.445V402.445ZM291.828 288.189L292.549 289.665L286.216 298.575L280.571 309.717L278.469 310.445L277.06 302.291V292.628L291.829 288.19L291.828 288.189ZM343.886 313.434V318.592L338.961 336.409L331.942 370.12L321.37 354.226L324.193 347.554L327.704 329.737L343.886 313.434V313.434ZM293.412 371.323L315.758 397.255L319.167 402.621L310.112 422.465L293.965 449.189L293.242 452.151L290.039 454.387L297.473 423.224V416.551L298.889 414.315L296.753 387.591L295.373 384.634L293.412 371.323V371.323ZM347.539 393.61L377.627 412.836L388.198 432.854L381.142 443.242L375.53 460.3L370.605 466.973L367.783 468.453L360.07 469.209L353.009 471.444L338.961 482.554L329.117 483.309L327.017 480.354L317.168 475.161L315.037 471.445L338.961 422.465L343.886 407.644L346.71 402.446L347.539 393.611L347.539 393.61ZM289.726 459.58V461.781L289.04 460.3L289.726 459.579V459.58ZM308.494 484.034H298.889L294.651 478.838H291.14L284.183 476.12L286.216 472.925V469.963L288.318 468.453L296.753 474.401H300.263" fill="black"/>
</svg>
