<svg width="655" height="573" viewBox="0 0 655 573" fill="none" xmlns="http://www.w3.org/2000/svg">
<path d="M327.499 33L50 538H605L327.499 33Z" fill="#FFC500"/>
<path d="M187.769 294.311L583.004 522.5L374.5 522.5L57.758 519.497L187.769 294.311Z" fill="black"/>
<path d="M2.70376 562.564C6.30878 568.808 12.9696 572.655 20.1809 572.655H634.822C642.03 572.655 648.694 568.808 652.296 562.564C655.901 556.32 655.901 548.628 652.296 542.384L344.977 10.0895C341.373 3.84561 334.709 0 327.501 0C320.291 0 313.628 3.84812 310.025 10.0895L2.70376 542.384C-0.901255 548.627 -0.901255 556.32 2.70376 562.564ZM327.501 100.901L564.913 512.114H90.0883L327.501 100.901Z" fill="#CC0000"/>
<rect x="272.046" y="219" width="13.9265" height="96.0926" rx="1" transform="rotate(30 272.046 219)" fill="black"/>
<rect x="439.189" y="320.793" width="9.25328" height="132.418" rx="2" transform="rotate(80 439.189 320.793)" fill="black"/>
<path d="M302.72 244.792L318.797 254.075C321.667 255.732 322.65 259.401 320.994 262.271L285.947 322.973C284.29 325.843 280.621 326.826 277.751 325.169L261.674 315.887C258.804 314.23 257.821 310.56 259.477 307.69L294.524 246.989C296.181 244.119 299.85 243.135 302.72 244.792Z" stroke="black" stroke-width="14"/>
<circle cx="390.979" cy="373.698" r="15.586" transform="rotate(30 390.979 373.698)" stroke="black" stroke-width="12"/>
<circle cx="361.96" cy="295.837" r="15.586" transform="rotate(30 361.96 295.837)" stroke="black" stroke-width="12"/>
</svg>
