<svg width="655" height="573" viewBox="0 0 655 573" fill="none" xmlns="http://www.w3.org/2000/svg">
<g clip-path="url(#clip0_5_67)">
<path d="M327.499 33L50 538H605L327.499 33Z" fill="#FFC500"/>
<path d="M2.70376 562.564C6.30878 568.808 12.9696 572.655 20.1809 572.655H634.822C642.03 572.655 648.694 568.808 652.296 562.564C655.901 556.32 655.901 548.628 652.296 542.384L344.977 10.0895C341.373 3.84561 334.709 0 327.501 0C320.291 0 313.628 3.84812 310.025 10.0895L2.70376 542.384C-0.901254 548.627 -0.901254 556.32 2.70376 562.564ZM327.501 100.901L564.913 512.114H90.0883L327.501 100.901Z" fill="#CC0000"/>
<path fill-rule="evenodd" clip-rule="evenodd" d="M319.916 290.743C294.478 297.286 271.88 313.373 258.637 337.855C250.156 353.506 246.55 370.653 247.241 387.481H262.065L228.848 431.4L195.373 387.481H210.308C209.534 364.497 214.418 341.306 225.961 319.965C233.33 306.364 242.829 294.536 253.85 284.65C266.076 273.7 280.16 265.139 295.261 259.251C295.552 259.13 295.859 259.006 296.17 258.903C299.204 257.734 302.273 256.676 305.38 255.748L306.058 255.53" fill="black"/>
<path fill-rule="evenodd" clip-rule="evenodd" d="M253.692 427.78C273.241 445.323 299.158 455.21 326.875 452.658C344.602 451.038 360.872 444.533 374.493 434.628L366.274 422.291L421.242 425.585L403.25 477.794L394.97 465.365C376.271 478.752 354.263 487.545 330.103 489.77C314.698 491.178 299.588 489.831 285.25 486.14C269.359 482.037 254.426 475.062 241.153 465.759C240.891 465.584 240.618 465.397 240.359 465.195C237.704 463.318 235.122 461.351 232.627 459.28L232.069 458.836" fill="black"/>
<path fill-rule="evenodd" clip-rule="evenodd" d="M399.984 412.115C408.31 387.203 407.08 359.492 393.72 335.074C385.187 319.451 372.749 307.108 358.246 298.547L350.193 310.993L331.364 259.245L386.423 255L378.31 267.539C398.027 279.375 414.844 296.074 426.49 317.358C433.906 330.934 438.677 345.334 440.99 359.958C443.542 376.171 443.078 392.646 439.818 408.524C439.762 408.834 439.699 409.158 439.617 409.476C438.949 412.658 438.171 415.81 437.262 418.922L437.077 419.61" fill="black"/>
</g>
<defs>
<clipPath id="clip0_5_67">
<rect width="655" height="573" fill="white"/>
</clipPath>
</defs>
</svg>
