<svg width="655" height="573" viewBox="0 0 655 573" fill="none" xmlns="http://www.w3.org/2000/svg">
<path d="M327.499 33L50 538H605L327.499 33Z" fill="#FFC500"/>
<path d="M2.70376 562.564C6.30878 568.808 12.9696 572.655 20.1809 572.655H634.822C642.03 572.655 648.694 568.808 652.296 562.564C655.901 556.32 655.901 548.628 652.296 542.384L344.977 10.0895C341.373 3.84561 334.709 0 327.501 0C320.291 0 313.628 3.84812 310.025 10.0895L2.70376 542.384C-0.901255 548.627 -0.901255 556.32 2.70376 562.564ZM327.501 100.901L564.913 512.114H90.0883L327.501 100.901Z" fill="#CC0000"/>
<path d="M196.186 448.065H457.905C458.008 448.065 458.091 448.148 458.091 448.251V470.826C458.091 470.93 458.008 471.013 457.905 471.013H196.186C196.083 471.013 196 470.93 196 470.826V448.251C196 448.148 196.083 448.065 196.186 448.065V448.065Z" fill="black"/>
<path d="M196.186 359.896H457.905C458.008 359.896 458.091 359.979 458.091 360.083V382.658C458.091 382.761 458.008 382.844 457.905 382.844H196.186C196.083 382.844 196 382.761 196 382.658V360.083C196 359.979 196.083 359.896 196.186 359.896V359.896Z" fill="black"/>
<path d="M209.286 499.806L209.429 331.153L220.93 314L231.836 331.153L232.234 499.806C232.234 499.914 232.17 500 232.091 500H209.429L209.286 499.806Z" fill="black"/>
<path d="M262.429 499.806L262.572 331.153L274.073 314L284.979 331.153L285.377 499.806C285.377 499.914 285.313 500 285.234 500H262.572L262.429 499.806Z" fill="black"/>
<path d="M315.571 499.806L315.715 331.153L327.215 314L338.122 331.153L338.519 499.806C338.52 499.914 338.456 500 338.376 500H315.715L315.571 499.806Z" fill="black"/>
<path d="M368.714 499.806L368.857 331.153L380.358 314L391.265 331.153L391.662 499.806C391.663 499.914 391.599 500 391.519 500H368.857L368.714 499.806Z" fill="black"/>
<path d="M421.857 499.806L422 331.153L433.501 314L444.408 331.153L444.805 499.806C444.805 499.914 444.742 500 444.662 500H422L421.857 499.806Z" fill="black"/>
</svg>
