<svg width="655" height="573" viewBox="0 0 655 573" fill="none" xmlns="http://www.w3.org/2000/svg">
<g clip-path="url(#clip0_1_2)">
<path d="M327.499 33L50 538H605L327.499 33Z" fill="#FFC500"/>
<path d="M2.70376 562.564C6.30878 568.808 12.9696 572.655 20.1809 572.655H634.822C642.03 572.655 648.694 568.808 652.296 562.564C655.901 556.32 655.901 548.628 652.296 542.384L344.977 10.0895C341.373 3.84561 334.709 0 327.501 0C320.291 0 313.628 3.84812 310.025 10.0895L2.70376 542.384C-0.901254 548.627 -0.901254 556.32 2.70376 562.564ZM327.501 100.901L564.913 512.114H90.0883L327.501 100.901Z" fill="#CC0000"/>
<path d="M231.047 355.144H211.379L203.479 389.322L213.636 423.5V458.646H270.062L318.427 451.874H340.03L401.616 458.646H453.528V371.911H435.471V348.05H441.92V321.611H369.695V355.144H252.328V324.835H231.047V355.144Z" fill="black"/>
<rect x="303.273" y="323.545" width="34.823" height="49.655" rx="17.4115" fill="black"/>
<rect x="418.705" y="435.753" width="34.823" height="49.655" rx="17.4115" fill="black"/>
<rect x="213.636" y="435.753" width="34.823" height="49.655" rx="17.4115" fill="black"/>
<path d="M451.528 439.207H467.285V435.753H474.163V451.874H467.285V448.42H451.528V439.207Z" fill="black"/>
<path d="M215.636 439.207H199.879V435.753H193V451.874H199.879V448.42H215.636V439.207Z" fill="black"/>
<rect x="381.947" y="348.05" width="41.2717" height="23.8602" fill="#FFC500"/>
<circle cx="291.343" cy="454.132" r="33.8557" fill="black"/>
<circle cx="375.821" cy="454.132" r="33.8557" fill="black"/>
<path d="M260.711 321.611H223.309L235.278 331.284H248.743L260.711 321.611Z" fill="black"/>
<path d="M351.187 279.774L346.185 276.8C345 276 344.5 276 343.386 277.342L340.8 280.732C337.171 285.487 332.033 288.868 326.229 290.319C320.348 291.789 314.14 291.188 308.65 288.619L301.983 285.498L290.875 279.266C289 278 288.5 278.5 288.025 280.388L287.175 283.044C286.519 285.097 285.538 287.031 284.27 288.774L283.142 290.326C280.179 294.4 275.499 296.875 270.465 297.033C268.914 297.081 267.365 296.908 265.864 296.519L261.456 295.376C260.191 295.048 258.845 295.395 257.896 296.294L250.583 303.222C248.394 305.296 247.097 308.141 246.969 311.155L246.524 323.611H237.496V311.25C237.496 306.609 238.537 302.026 240.543 297.841L242.339 294.092C244.011 290.602 244.532 286.672 243.828 282.868C242.524 275.828 245.452 268.676 251.317 264.571L257.467 260.265C257.679 260.117 257.796 259.867 257.774 259.61C256.666 246.684 264.731 234.739 277.133 230.936L279.732 230.139C279.843 230.105 279.944 230.048 280.03 229.973C280.18 229.841 280.243 229.64 280.298 229.448L280.751 227.876C282.858 220.563 285.336 213.135 290.563 207.603C302.432 195.038 321.876 189.244 338.778 193.261C341.534 193.916 344.234 194.832 346.819 195.991L350.115 197.469C351.52 198.098 353.095 198.241 354.59 197.875C368.082 194.568 380.042 207.21 375.992 220.498L375.44 222.311C375.183 223.154 374.832 223.639 375.117 224.493C375.467 225.54 376.36 226.295 377.184 227.031V227.031C382.082 231.405 386.832 236.205 389.322 242.281C390.797 245.883 391.583 249.681 391.5 254.5C391.393 260.705 390.269 265.225 387 270.5C380.039 281.734 361.124 285.683 351.187 279.774Z" fill="black"/>
</g>
<defs>
<clipPath id="clip0_1_2">
<rect width="655" height="573" fill="white"/>
</clipPath>
</defs>
</svg>
