<svg width="655" height="590" viewBox="0 0 655 590" fill="none" xmlns="http://www.w3.org/2000/svg">
<path d="M333.701 429.488L327.456 425.887L321.211 429.489L67.6083 575.801L15.4212 562.19L29.7614 510.21L327.459 338.431L625.321 510.208L639.595 562.19L587.476 575.8L333.701 429.488Z" fill="#FFC500" stroke="#CC0000" stroke-width="25"/>
<path d="M232.93 218.366L251.706 207.541L232.934 196.71L29.677 79.4295L15.4083 27.4917L67.574 13.8904L321.129 160.207L327.374 163.811L333.621 160.209L587.367 13.8885L639.534 27.4904L625.265 79.4282L422.01 196.71L403.238 207.541L422.014 218.366L625.384 335.613L639.574 383.734L586.982 400.889L333.635 254.791L327.389 251.189L321.143 254.793L67.5908 401.109L15.42 387.483L29.6787 335.543L232.93 218.366Z" fill="#FFC500" stroke="#CC0000" stroke-width="25"/>
</svg>
