<svg width="655" height="573" viewBox="0 0 655 573" fill="none" xmlns="http://www.w3.org/2000/svg">
<path d="M327.499 33L50 538H605L327.499 33Z" fill="#FFC500"/>
<path d="M2.70376 562.564C6.30878 568.808 12.9696 572.655 20.1809 572.655H634.822C642.03 572.655 648.694 568.808 652.296 562.564C655.901 556.32 655.901 548.628 652.296 542.384L344.977 10.0895C341.373 3.84561 334.709 0 327.501 0C320.291 0 313.628 3.84812 310.025 10.0895L2.70376 542.384C-0.901253 548.627 -0.901253 556.32 2.70376 562.564ZM327.501 100.901L564.913 512.114H90.0883L327.501 100.901Z" fill="#CC0000"/>
<path d="M491 464H327V493H491V464Z" fill="black"/>
<path d="M317 491H334V493H317V491Z" fill="black"/>
<path d="M207 491H217V493H207V491Z" fill="black"/>
<path d="M229 491H239V493H229V491Z" fill="black"/>
<path d="M251 491H261V493H251V491Z" fill="black"/>
<path d="M273 491H283V493H273V491Z" fill="black"/>
<path d="M295 491H305V493H295V491Z" fill="black"/>
<path d="M163 491H173V493H163V491Z" fill="black"/>
<path d="M185 491H195V493H185V491Z" fill="black"/>
<path d="M317 464H334V466H317V464Z" fill="black"/>
<path d="M207 464H217V466H207V464Z" fill="black"/>
<path d="M229 464H239V466H229V464Z" fill="black"/>
<path d="M251 464H261V466H251V464Z" fill="black"/>
<path d="M273 464H283V466H273V464Z" fill="black"/>
<path d="M295 464H305V466H295V464Z" fill="black"/>
<path d="M163 464H173V466H163V464Z" fill="black"/>
<path d="M185 464H195V466H185V464Z" fill="black"/>
<path d="M344.731 453.039L342.678 451.89L341.758 449.82L342.112 444.832L344.449 441.991L347.776 440.222L353.156 439.602L366.889 441.581L370.075 441.808L372.128 442.956L374.18 444.105L374.746 451.163L373.542 453.082L371.347 453.929L344.731 453.039Z" fill="black"/>
<path d="M322.15 450.675L323.919 448.357L327.73 445.764L330.053 444.84L331.352 445.4L334.684 451.069L334.589 452.183L333.845 453.018L325.947 456.16L324.184 455.785L322.61 453.183L322.15 450.675Z" fill="black"/>
<path d="M410 447.5C410 449.985 409.761 452 407 452C404.239 452 401 449.985 401 447.5C401 445.015 403.239 443.41 406 443.41C408.761 443.41 410 445.015 410 447.5Z" fill="black"/>
<path fill-rule="evenodd" clip-rule="evenodd" d="M334.591 428.243L281.968 439.428L284.816 452.827C285.506 456.074 283.429 459.266 280.176 459.957L271.817 461.734C268.564 462.425 265.368 460.354 264.678 457.107L261.83 443.709L256.685 444.802L241.143 404.922C238.784 398.87 239.234 392.084 242.371 386.391L245.293 381.088L258.388 347.122C259.486 344.274 261.952 342.172 264.942 341.537L313.947 331.12L314.242 331.058L363.349 320.62C366.344 319.983 369.456 320.904 371.618 323.067L397.32 348.774L402.144 352.441C407.306 356.365 410.465 362.366 410.774 368.837L412.821 411.615L407.693 412.704L410.541 426.103C411.231 429.35 409.154 432.542 405.901 433.234L397.61 434.996C394.358 435.687 391.161 433.616 390.471 430.369L387.623 416.97L334.886 428.18L334.591 428.243ZM406.74 369.461C407.948 375.143 404.312 380.73 398.62 381.94C392.927 383.15 387.334 379.525 386.126 373.843C384.918 368.161 388.554 362.574 394.246 361.364C399.939 360.154 405.532 363.779 406.74 369.461ZM257.855 411.86C263.547 410.65 267.183 405.063 265.975 399.382C264.767 393.7 259.174 390.075 253.481 391.285C247.789 392.495 244.153 398.082 245.361 403.763C246.569 409.445 252.162 413.07 257.855 411.86ZM307.98 391.375L313.228 416.066L349.155 408.429L343.907 383.738L307.98 391.375ZM307.191 417.349L301.943 392.658L281.034 397.102L278.773 423.389L307.191 417.349ZM349.797 382.486L355.045 407.177L383.463 401.137L370.705 378.042L349.797 382.486ZM253.115 375.08L387.695 346.474L366.188 324.932L264.001 346.652L253.115 375.08Z" fill="black"/>
</svg>
