<svg width="655" height="573" viewBox="0 0 655 573" fill="none" xmlns="http://www.w3.org/2000/svg">
<g clip-path="url(#clip0_6_20)">
<path d="M327.499 33L50 538H605L327.499 33Z" fill="#FFC500"/>
<path d="M2.70376 562.564C6.30878 568.808 12.9696 572.655 20.1809 572.655H634.822C642.03 572.655 648.694 568.808 652.296 562.564C655.901 556.32 655.901 548.628 652.296 542.384L344.977 10.0895C341.373 3.84561 334.709 0 327.501 0C320.291 0 313.628 3.84812 310.025 10.0895L2.70376 542.384C-0.901253 548.627 -0.901253 556.32 2.70376 562.564ZM327.501 100.901L564.913 512.114H90.0883L327.501 100.901Z" fill="#CC0000"/>
<path fill-rule="evenodd" clip-rule="evenodd" d="M295.717 364.12V377.242C295.717 380.422 293.129 383 289.938 383H281.736C278.544 383 275.957 380.422 275.957 377.242V364.12H270.909L264.276 323.655C263.269 317.514 265.046 311.244 269.127 306.535L272.928 302.148L291.999 272.928C293.598 270.478 296.333 269 299.267 269H395.825C398.763 269 401.501 270.483 403.099 272.94L422.098 302.148L425.896 306.545C429.958 311.25 431.727 317.502 430.726 323.628L424.111 364.12H419.08V377.242C419.08 380.422 416.492 383 413.301 383H405.166C401.974 383 399.387 380.422 399.387 377.242V364.12H295.717ZM426.814 323.409C426.814 328.974 422.286 333.485 416.701 333.485C411.115 333.485 406.587 328.974 406.587 323.409C406.587 317.844 411.115 313.333 416.701 313.333C422.286 313.333 426.814 317.844 426.814 323.409ZM278.58 333.485C284.166 333.485 288.694 328.974 288.694 323.409C288.694 317.844 284.166 313.333 278.58 313.333C272.995 313.333 268.467 317.844 268.467 323.409C268.467 328.974 272.995 333.485 278.58 333.485ZM329.725 324.273V348.455H364.978V324.273H329.725ZM323.802 348.455V324.273H303.286L295.918 348.455H323.802ZM370.757 324.273V348.455H398.641L391.273 324.273H370.757ZM281.47 298.076H413.522L397.63 273.606H297.362L281.47 298.076Z" fill="black"/>
<path d="M218.909 423.62H221.457V434.242C221.457 438.811 225.172 442.5 229.736 442.5H237.938C242.501 442.5 246.217 438.811 246.217 434.242V423.62H344.887V434.242C344.887 438.811 348.602 442.5 353.166 442.5H361.301C365.864 442.5 369.58 438.811 369.58 434.242V423.62H372.111H374.236L374.578 421.523L381.193 381.031C382.314 374.173 380.333 367.175 375.788 361.911L375.788 361.911L372.101 357.642L353.195 328.577C353.195 328.577 353.195 328.577 353.195 328.577C351.134 325.409 347.606 323.5 343.825 323.5H247.267C243.492 323.5 239.968 325.402 237.906 328.562C237.906 328.562 237.906 328.562 237.906 328.562L218.927 357.639L215.238 361.898C215.238 361.898 215.238 361.898 215.238 361.898C210.671 367.167 208.682 374.185 209.809 381.059C209.809 381.059 209.809 381.059 209.809 381.06L216.442 421.524L216.786 423.62H218.909Z" fill="#FFC500" stroke="#FFC500" stroke-width="5"/>
<path fill-rule="evenodd" clip-rule="evenodd" d="M243.717 421.12V434.242C243.717 437.422 241.129 440 237.938 440H229.736C226.544 440 223.957 437.422 223.957 434.242V421.12H218.909L212.276 380.655C211.269 374.514 213.046 368.244 217.127 363.535L220.928 359.148L239.999 329.928C241.598 327.478 244.333 326 247.267 326H343.825C346.763 326 349.501 327.483 351.099 329.94L370.098 359.148L373.896 363.545C377.958 368.25 379.727 374.502 378.726 380.628L372.111 421.12H367.08V434.242C367.08 437.422 364.492 440 361.301 440H353.166C349.974 440 347.387 437.422 347.387 434.242V421.12H243.717ZM374.814 380.409C374.814 385.974 370.286 390.485 364.701 390.485C359.115 390.485 354.587 385.974 354.587 380.409C354.587 374.844 359.115 370.333 364.701 370.333C370.286 370.333 374.814 374.844 374.814 380.409ZM226.58 390.485C232.166 390.485 236.694 385.974 236.694 380.409C236.694 374.844 232.166 370.333 226.58 370.333C220.995 370.333 216.467 374.844 216.467 380.409C216.467 385.974 220.995 390.485 226.58 390.485ZM277.725 381.273V405.455H312.978V381.273H277.725ZM271.802 405.455V381.273H251.286L243.918 405.455H271.802ZM318.757 381.273V405.455H346.641L339.273 381.273H318.757ZM229.47 355.076H361.522L345.63 330.606H245.362L229.47 355.076Z" fill="black"/>
<path d="M166.909 480.62H169.457V491.242C169.457 495.811 173.172 499.5 177.736 499.5H185.938C190.501 499.5 194.217 495.811 194.217 491.242V480.62H292.887V491.242C292.887 495.811 296.602 499.5 301.166 499.5H309.301C313.864 499.5 317.58 495.811 317.58 491.242V480.62H320.111H322.236L322.578 478.523L329.193 438.031C330.314 431.173 328.333 424.175 323.788 418.911L323.788 418.911L320.101 414.642L301.195 385.577C301.195 385.577 301.195 385.577 301.195 385.577C299.134 382.409 295.606 380.5 291.825 380.5H195.267C191.492 380.5 187.968 382.402 185.906 385.562C185.906 385.562 185.906 385.562 185.906 385.562L166.927 414.639L163.238 418.898C163.238 418.898 163.238 418.898 163.238 418.898C158.671 424.167 156.682 431.185 157.809 438.059C157.809 438.059 157.809 438.059 157.809 438.06L164.442 478.524L164.786 480.62H166.909Z" fill="#FFC500" stroke="#FFC500" stroke-width="5"/>
<path fill-rule="evenodd" clip-rule="evenodd" d="M191.717 478.12V491.242C191.717 494.422 189.129 497 185.938 497H177.736C174.544 497 171.957 494.422 171.957 491.242V478.12H166.909L160.276 437.655C159.269 431.514 161.046 425.244 165.127 420.535L168.928 416.148L187.999 386.928C189.598 384.478 192.333 383 195.267 383H291.825C294.763 383 297.501 384.483 299.099 386.94L318.098 416.148L321.896 420.545C325.958 425.25 327.727 431.502 326.726 437.628L320.111 478.12H315.08V491.242C315.08 494.422 312.492 497 309.301 497H301.166C297.974 497 295.387 494.422 295.387 491.242V478.12H191.717ZM322.814 437.409C322.814 442.974 318.286 447.485 312.701 447.485C307.115 447.485 302.587 442.974 302.587 437.409C302.587 431.844 307.115 427.333 312.701 427.333C318.286 427.333 322.814 431.844 322.814 437.409ZM174.58 447.485C180.166 447.485 184.694 442.974 184.694 437.409C184.694 431.844 180.166 427.333 174.58 427.333C168.995 427.333 164.467 431.844 164.467 437.409C164.467 442.974 168.995 447.485 174.58 447.485ZM225.725 438.273V462.455H260.978V438.273H225.725ZM219.802 462.455V438.273H199.286L191.918 462.455H219.802ZM266.757 438.273V462.455H294.641L287.273 438.273H266.757ZM177.47 412.076H309.522L293.63 387.606H193.362L177.47 412.076Z" fill="black"/>
</g>
<defs>
<clipPath id="clip0_6_20">
<rect width="655" height="573" fill="white"/>
</clipPath>
</defs>
</svg>
