<svg width="655" height="573" viewBox="0 0 655 573" fill="none" xmlns="http://www.w3.org/2000/svg">
<path d="M327.499 33L50 538H605L327.499 33Z" fill="#FFC500"/>
<path d="M449.993 304.311L54.758 532.5L263.262 532.5L580.004 529.497L449.993 304.311Z" fill="black"/>
<path d="M2.70376 562.564C6.30878 568.808 12.9696 572.655 20.1809 572.655H634.822C642.03 572.655 648.694 568.808 652.296 562.564C655.901 556.32 655.901 548.628 652.296 542.384L344.977 10.0895C341.373 3.84561 334.709 0 327.501 0C320.291 0 313.628 3.84812 310.025 10.0895L2.70376 542.384C-0.901255 548.627 -0.901255 556.32 2.70376 562.564ZM327.501 100.901L564.913 512.114H90.0883L327.501 100.901Z" fill="#CC0000"/>
<rect x="208.023" y="320.142" width="13.9265" height="96.0926" rx="1" transform="rotate(-30 208.023 320.142)" fill="black"/>
<rect x="379.75" y="226.288" width="9.25328" height="132.418" rx="2" transform="rotate(20 379.75 226.288)" fill="black"/>
<path d="M245.697 306.474L261.774 297.191C264.644 295.535 268.314 296.518 269.97 299.388L305.017 360.089C306.674 362.959 305.69 366.629 302.821 368.286L286.743 377.568C283.873 379.225 280.204 378.242 278.547 375.372L243.501 314.67C241.844 311.8 242.827 308.131 245.697 306.474Z" stroke="black" stroke-width="14"/>
<circle cx="401.462" cy="294.492" r="15.586" transform="rotate(-30 401.462 294.492)" stroke="black" stroke-width="12"/>
<circle cx="319.523" cy="280.693" r="15.586" transform="rotate(-30 319.523 280.693)" stroke="black" stroke-width="12"/>
</svg>
