<svg width="655" height="573" viewBox="0 0 655 573" fill="none" xmlns="http://www.w3.org/2000/svg">
<path d="M327.499 33L50 538H605L327.499 33Z" fill="#FFC500"/>
<path d="M2.70376 562.564C6.30878 568.808 12.9696 572.655 20.1809 572.655H634.822C642.03 572.655 648.694 568.808 652.296 562.564C655.901 556.32 655.901 548.628 652.296 542.384L344.977 10.0895C341.373 3.84561 334.709 0 327.501 0C320.291 0 313.628 3.84812 310.025 10.0895L2.70376 542.384C-0.901253 548.627 -0.901253 556.32 2.70376 562.564ZM327.501 100.901L564.913 512.114H90.0883L327.501 100.901Z" fill="#CC0000"/>
<path d="M498.72 480.8H156V492H498.72V480.8Z" fill="black"/>
<path d="M255.68 426.96V471.84H399.04V426.96C399.04 399.346 376.654 376.96 349.04 376.96H305.68C278.066 376.96 255.68 399.346 255.68 426.96Z" fill="black"/>
<path d="M469.6 423.68H410.24V440.48H469.6V423.68Z" fill="black"/>
<path d="M469.6 451.68H410.24V471.84H469.6V451.68Z" fill="black"/>
<path d="M469.6 423.68H410.24V440.48H469.6V423.68Z" fill="black"/>
<path d="M371.877 300.48L352 356.413L374.839 364.529L394.716 308.596L371.877 300.48Z" fill="black"/>
<path d="M383.425 372.041L415.662 322.198L438.8 344.72L397.62 381.222L383.425 372.041Z" fill="black"/>
<path d="M409.12 405.76L468.48 395.68V414.72H409.12V405.76Z" fill="black"/>
<path d="M404.615 390.114L452.296 358.96L463.596 378.927L407.58 398.57L404.615 390.114Z" fill="black"/>
<path d="M185.12 451.68H244.48V471.84H185.12V451.68Z" fill="black"/>
<path d="M185.12 423.68H244.48V440.48H185.12V423.68Z" fill="black"/>
<path d="M282.843 300.48L302.72 356.413L279.881 364.529L260.004 308.596L282.843 300.48Z" fill="black"/>
<path d="M271.295 372.041L239.058 322.198L215.92 344.72L257.1 381.222L271.295 372.041Z" fill="black"/>
<path d="M245.6 405.76L186.24 395.68V414.72H245.6V405.76Z" fill="black"/>
<path d="M250.105 390.114L205.424 358.96L191.124 378.927L247.14 398.57L250.105 390.114Z" fill="black"/>
<path d="M306.08 296H348.64L339.68 355.36H315.04L306.08 296Z" fill="black"/>
</svg>
