<svg width="655" height="573" viewBox="0 0 655 573" fill="none" xmlns="http://www.w3.org/2000/svg">
<path d="M327.499 33L50 538H605L327.499 33Z" fill="#FFC500"/>
<path d="M2.70376 562.564C6.30878 568.808 12.9696 572.655 20.1809 572.655H634.822C642.03 572.655 648.694 568.808 652.296 562.564C655.901 556.32 655.901 548.628 652.296 542.384L344.977 10.0895C341.373 3.84561 334.709 0 327.501 0C320.291 0 313.628 3.84812 310.025 10.0895L2.70376 542.384C-0.901255 548.627 -0.901255 556.32 2.70376 562.564ZM327.501 100.901L564.913 512.114H90.0883L327.501 100.901Z" fill="#CC0000"/>
<path fill-rule="evenodd" clip-rule="evenodd" d="M167.768 397.316L223.216 397.182L225.855 394.477L249.977 394.256L214.46 370.91L258.402 341L301.57 370.09L267.405 394.542L289.308 394.321L293.787 397.403L485.855 396.826L485.562 406.783L480.196 406.829L501.148 449.066C501.07 457.867 501.017 466.646 500.947 475.427C500.346 481.034 496.936 484.382 490.681 485.449C381.69 485.433 272.698 485.433 163.682 485.403C157.188 487.112 151.975 478.465 152 475.605L152.201 449.244L173.262 408.381L167.875 408.428L167.767 397.32L167.768 397.316ZM222.952 370.376L258.47 346.811L293.544 370.156L258.025 394.165L222.952 370.376ZM204.083 408.09L217.497 407.955C220.446 407.94 222.886 410.395 222.907 413.411L223.463 472.54C223.463 475.579 221.111 478.083 218.163 478.105L204.75 478.239C201.799 478.255 199.363 475.801 199.338 472.784L198.783 413.633C198.783 410.616 201.132 408.111 204.08 408.09H204.083ZM237.606 407.781L277.801 407.404C281.993 407.357 285.428 410.75 285.474 414.918L285.736 442.611C285.736 446.799 282.389 450.237 278.198 450.281L238.001 450.659C233.813 450.705 230.375 447.309 230.331 443.141L230.069 415.429C229.992 411.258 233.417 407.802 237.606 407.781ZM299.264 407.646L339.46 407.247C343.649 407.232 347.086 410.595 347.131 414.786L347.394 442.478C347.394 446.666 344.045 450.104 339.856 450.148L299.661 450.525C295.469 450.571 292.034 447.178 291.987 443.011L291.725 415.295C291.647 411.128 295.073 407.669 299.264 407.647V407.646ZM361.806 407.048L402.005 406.67C406.173 406.624 409.632 410.018 409.676 414.187L409.938 441.9C409.938 446.068 406.59 449.525 402.399 449.548L362.203 449.926C358.014 449.972 354.576 446.579 354.533 442.411L354.27 414.718C354.193 410.529 357.617 407.091 361.785 407.048H361.806ZM422.556 407.359L445.349 407.159C449.271 407.113 452.531 410.307 452.554 414.232L453.109 470.965C453.109 474.914 449.958 478.15 446.013 478.193L423.244 478.393C419.299 478.439 416.061 475.245 416.017 471.322L415.484 414.587C415.407 410.639 418.631 407.404 422.556 407.359V407.359ZM179.961 407.868L191.58 407.756L191.982 449.771C185.862 449.817 179.742 449.882 173.646 449.926C166.064 445.537 163.98 442.764 165.907 434.807L179.963 407.868L179.961 407.868ZM471.887 407.799L460.268 407.909L460.669 449.901C466.768 449.855 472.889 449.791 479.006 449.722C486.479 445.177 488.518 442.361 486.435 434.469" fill="black"/>
<path fill-rule="evenodd" clip-rule="evenodd" d="M280.573 489.148C281.175 489.148 280.704 490.321 280.704 490.92C280.704 498.68 273.587 505 264.875 505C256.159 505 248.379 498.659 249.044 490.92L249.221 488.792" fill="black"/>
<path fill-rule="evenodd" clip-rule="evenodd" d="M215.412 488.703C216.006 488.725 215.543 489.899 215.543 490.498C215.543 498.259 208.43 504.579 199.714 504.579C191.002 504.579 183.219 498.215 183.883 490.498L184.061 488.349" fill="black"/>
<path fill-rule="evenodd" clip-rule="evenodd" d="M221.354 488.926H243.261L245.81 498.768H218.693" fill="black"/>
<path fill-rule="evenodd" clip-rule="evenodd" d="M404.398 488.703C404.999 488.725 404.529 489.899 404.529 490.498C404.529 498.259 397.411 504.579 388.698 504.579C379.986 504.579 372.204 498.215 372.868 490.498L373.045 488.349" fill="black"/>
<path fill-rule="evenodd" clip-rule="evenodd" d="M410.34 488.926H432.222L434.796 498.768H407.68" fill="black"/>
<path fill-rule="evenodd" clip-rule="evenodd" d="M469.56 489.148C470.162 489.148 469.691 490.321 469.691 490.92C469.691 498.68 462.576 505 453.861 505C445.148 505 437.365 498.659 438.033 490.92L438.21 488.792" fill="black"/>
</svg>
