<svg width="655" height="573" viewBox="0 0 655 573" fill="none" xmlns="http://www.w3.org/2000/svg">
<g clip-path="url(#clip0_1_2)">
<path d="M327.499 33L50 538H605L327.499 33Z" fill="#FFC500"/>
<path d="M2.70376 562.564C6.30878 568.808 12.9696 572.655 20.1809 572.655H634.822C642.03 572.655 648.694 568.808 652.296 562.564C655.901 556.32 655.901 548.628 652.296 542.384L344.977 10.0895C341.373 3.84561 334.709 0 327.501 0C320.291 0 313.628 3.84812 310.025 10.0895L2.70376 542.384C-0.901254 548.627 -0.901254 556.32 2.70376 562.564ZM327.501 100.901L564.913 512.114H90.0883L327.501 100.901Z" fill="#CC0000"/>
<path d="M526 469H326V474H526V469Z" fill="black"/>
<path d="M390 242H265V246H390V242Z" fill="black"/>
<path d="M447 333H306V336H447V333Z" fill="black"/>
<path d="M472 376H326V379H472V376Z" fill="black"/>
<path d="M420 286H235V291H420V286Z" fill="black"/>
<path d="M501 426H333V429H501V426Z" fill="black"/>
<path d="M179.471 479.039C179.469 485.392 181.985 491.485 186.466 495.978C190.948 500.472 197.027 502.998 203.366 503C209.706 503.002 215.787 500.481 220.272 495.991C224.756 491.501 227.277 485.41 227.279 479.058V479.039C227.282 472.687 224.766 466.594 220.284 462.1C215.803 457.607 209.724 455.081 203.384 455.079C197.045 455.076 190.964 457.598 186.479 462.088C181.995 466.578 179.474 472.669 179.471 479.021V479.039Z" fill="black"/>
<path d="M156.218 433.965C156.448 432.841 156.823 431.751 157.335 430.724L214.807 385H309V432.093V478.994H232.353C232.353 439.299 173.905 439.38 173.905 478.994H160.566C158.325 478.788 157.068 476.805 156 474.483L156.218 433.965ZM280.344 432.088L309 432.093V397.211L280.344 397.205V432.088ZM201.901 432.093H270.827V397.211H227.737C226.609 397.043 226.098 397.805 225.448 398.358L200.763 423.267C196.359 427.929 198.389 432.093 201.901 432.093Z" fill="black"/>
</g>
<defs>
<clipPath id="clip0_1_2">
<rect width="655" height="573" fill="white"/>
</clipPath>
</defs>
</svg>
