<svg width="655" height="573" viewBox="0 0 655 573" fill="none" xmlns="http://www.w3.org/2000/svg">
<g clip-path="url(#clip0_1_26)">
<path d="M327.499 33L50 538H605L327.499 33Z" fill="#FFC500"/>
<path d="M2.70376 562.564C6.30878 568.808 12.9696 572.655 20.1809 572.655H634.822C642.03 572.655 648.694 568.808 652.296 562.564C655.901 556.32 655.901 548.628 652.296 542.384L344.977 10.0895C341.373 3.84561 334.709 0 327.501 0C320.291 0 313.628 3.84812 310.025 10.0895L2.70376 542.384C-0.901254 548.627 -0.901254 556.32 2.70376 562.564ZM327.501 100.901L564.913 512.114H90.0883L327.501 100.901Z" fill="#CC0000"/>
<path d="M228.25 491.25H195V500H228.25V491.25Z" fill="black"/>
<path d="M343.75 491.25H310.5V500H343.75V491.25Z" fill="black"/>
<path d="M401.5 491.25H368.25V500H401.5V491.25Z" fill="black"/>
<path d="M459.25 491.25H426V500H459.25V491.25Z" fill="black"/>
<path d="M286 491.25H252.75V500H286V491.25Z" fill="black"/>
<path d="M265.875 286.5H232.625V295.25H265.875V286.5Z" fill="black"/>
<path d="M369.125 286.5H335.875V295.25H369.125V286.5Z" fill="black"/>
<path d="M420.75 286.5H387.5V295.25H420.75V286.5Z" fill="black"/>
<path d="M317.5 286.5H284.25V295.25H317.5V286.5Z" fill="black"/>
<path fill-rule="evenodd" clip-rule="evenodd" d="M287.942 390.125L322.564 422.411C321.373 424.397 320.677 426.71 320.677 429.164C320.677 436.385 326.643 442.413 333.767 442.413C334.504 442.413 335.226 442.342 335.934 442.228L336.529 444.299H333.711L334.093 446.144H342.961V444.299H339.576L338.57 441.463C342.565 439.846 345.639 436.257 346.574 431.93L357.595 431.947C359.223 448.686 373.303 462.12 389.962 462.12C407.697 462.12 422.5 446.913 422.5 428.686C422.5 410.456 407.697 395.25 389.962 395.25C384.962 395.25 380.189 396.456 375.91 398.611L364.79 378.553L367.453 372.681H377.369C377.668 372.681 379.111 368.496 377.327 368.496C370.91 368.496 368.545 369.716 358.048 368.496C355.285 368.17 349.96 372.029 350.753 372.681H362.864L360.187 376.993H293.185L295.863 369.943C293.935 368.509 288.341 361.659 289.572 359.56C291.315 356.58 301.782 360.878 306.118 362.453L305.862 363.006L312.08 365.488C314.136 366.34 314.76 364.453 312.776 363.504L307.024 360.694L306.755 361.29C301.473 359.886 291.542 354.977 288.823 358.807C286.909 361.517 289.375 364.424 290.891 366.354C293.298 369.404 292.816 368.127 287.348 381.887L280.932 397.705C276.3 395.263 271.087 393.889 265.591 393.889C247.148 393.889 231.75 409.464 231.75 428.131C231.75 446.784 247.148 462.375 265.591 462.375C284.034 462.375 299.417 446.784 299.417 428.131C299.417 416.515 293.455 406.088 284.488 399.873L287.944 390.128L287.942 390.125ZM341.827 418.696L362.282 382.962L372.241 400.977C363.627 406.879 357.664 416.738 357.423 427.945L346.799 427.928L357.423 427.945L346.799 427.928C346.446 424.197 344.632 420.793 341.827 418.694V418.696ZM330.239 416.425L329.375 413.29H331.94L331.784 411.389L323.015 411.489L323.397 413.221L325.862 413.195L327.676 417.494C326.825 417.947 326.018 418.515 325.295 419.152L290.01 386.002L291.923 380.78H358.06L337.819 416.599C336.544 416.16 335.184 415.919 333.767 415.919C332.549 415.919 331.373 416.102 330.239 416.428V416.425ZM283.225 404.797C290.082 410.187 294.571 418.599 294.571 427.905C294.571 443.863 281.398 457.183 265.633 457.183C249.866 457.183 236.706 443.863 236.706 427.905C236.706 411.947 249.866 398.627 265.633 398.627C270.589 398.627 275.292 399.945 279.401 402.243L269.938 422.642C267.601 426.472 268.238 426.202 265.433 425.323C263.477 424.714 262.415 425.28 262.897 428.275C263.184 429.948 264.285 430.047 264.667 430.231C268.039 431.962 274.301 424.131 282.9 404.343L283.227 404.797H283.225ZM392.653 431.054C392.397 428.586 393.047 427.507 390.996 426.004L377.651 402.697C386.816 400.442 391.435 398.838 400.132 402.428C421.069 411.038 424.355 440.516 403.928 452.772C387.694 462.504 368.105 454.361 363.33 436.346L361.956 431.153L392.653 431.055V431.054ZM386.888 428.146H362.099C362.099 421.919 366.489 409.762 374.464 405.505L386.888 428.146ZM337.054 419.323L333.172 425.282L331.061 419.223C332.294 417.876 337.166 418.414 337.054 419.323ZM343.881 428.245L336.288 427.536L340.339 421.282C342.394 421.592 344.505 426.571 343.881 428.245ZM332.734 432.26L334.829 439.311C324.942 439.778 321.797 430.444 324.588 424.417L332.734 432.26ZM338.158 438.629L335.494 431.85L343.556 431.832C343.358 434.131 340.212 437.251 338.158 438.627V438.629ZM328.356 419.961L327.166 421.053L330.778 426.245" fill="black"/>
<path fill-rule="evenodd" clip-rule="evenodd" d="M324.598 184.973C324.814 186.058 324.814 187.142 324.381 189.094C321.135 190.396 316.884 191.205 314.641 192.565C312.399 193.924 308.926 198.548 308.364 199.506C298.282 216.703 301.655 210.785 298.715 216.703C291.573 225.599 275.681 232.476 275.248 232.91C274.816 233.344 274.815 236.163 272.939 236.105C272.002 236.105 269.719 237.685 268.971 239.2C268.364 240.437 266.79 242.617 267.023 244.623C267.164 245.832 267.673 246.645 268.322 247.443C269.834 249.602 272.193 250.716 274.782 249.829C275.947 249.445 276.693 248.697 276.276 247.372C275.65 245.493 275.981 244.726 277.424 243.629C278.588 242.723 277.961 242.827 279.248 243.159C280.742 243.524 287.765 240.579 288.982 239.814C291.553 238.176 289.382 239.814 295.169 235.703C301.634 231.123 307.501 226.888 311.828 220.112C313.374 217.675 313.872 218.817 313.992 219.895C314.425 223.8 315.724 235.703 315.724 235.703C315.94 237.248 316.321 245.49 310.962 254.167C308.282 258.505 301.902 269.93 300.356 272.821C298.81 275.73 296.145 280.629 295.594 284.968C295.594 284.968 292.915 299.634 288.621 308.751C288.137 309.779 287.354 310.641 285.807 313.306C284.261 315.972 286.072 315.215 285.591 316.126C285.143 316.973 283.643 317.644 283.643 317.644C281.146 319.025 280.18 318.413 277.173 318.588C275.818 318.657 270.463 318.607 270.463 320.541C270.007 322.416 276.075 323.853 277.606 324.011C281.285 324.445 285.181 324.662 286.913 324.662C288.645 324.662 287.238 326.137 288.212 326.397C289.186 326.658 297.445 328.592 298.385 328.783C299.9 329.091 300.333 327.265 300.982 322.493C300.982 321.625 302.021 321.825 302.907 321.983C303.498 322.088 304.445 320.324 305.094 317.938C305.094 317.938 311.828 291.258 315.507 278.894C321.735 272.333 327.138 265.536 329.543 262.422C330.069 261.742 331.159 261.988 331.341 262.828L335.853 283.666C336.719 288.872 336.967 289.882 339.749 293.644C339.749 293.644 348.19 306.442 354.251 316.636C355.025 317.938 358.228 316.205 357.497 317.721C356.767 319.236 355.982 320.757 353.601 322.276C350.986 323.944 348.56 324.011 347.757 326.397C347.325 327.915 348.84 329 351.221 329C356.848 329 358.796 328.783 360.095 327.699C361.177 327.144 361.826 326.614 362.259 325.963C362.692 325.313 364.857 321.842 365.939 321.191C366.372 321.191 366.805 322.059 367.67 322.059C368.536 322.059 369.344 320.86 370.484 319.694C371.134 319.03 373.573 317.031 373.731 315.411C373.888 313.791 369.343 312.143 368.536 309.044C368.202 307.76 369.622 308.655 368.092 305.869C366.562 303.083 358.329 291.519 354.9 279.979C352.086 265.88 352.736 261.542 350.788 251.347C351.87 251.13 353.169 250.262 353.169 248.744C353.601 243.972 352.552 238.002 351.653 231.174C350.767 224.437 348.623 215.991 349.056 214.039C361.61 226.619 363.707 230.864 369.835 243.321C370.635 244.948 370.722 245.678 371.35 246.575C371.634 246.98 372.216 247.443 373.298 247.443C374.164 247.443 373.204 253.187 375.462 254.353C377.046 255.155 381.059 254.603 382.605 254.167C384.952 253.488 389.714 251.062 387.367 247.876C386.718 247.226 384.876 246.936 383.121 247.075C380.874 247.075 382.172 242.237 382.172 241.369C382.172 237.031 379.791 235.513 378.879 233.821C370.51 218.311 353.169 197.554 353.169 197.554C351.675 195.585 349.079 192.917 347.757 191.697C345.552 189.678 342.694 190.513 339.965 189.311C338.234 188.227 338.017 186.837 338.017 185.407C337.74 181.631 338.017 180.477 338.017 178.249C338.017 176.73 340.831 170.006 340.831 167.403C340.831 164.801 339.955 165.378 339.533 164.584C339.044 163.664 339.373 163.282 338.512 162.198C336.402 159.542 333.604 158.355 330.875 158.076C328.146 157.798 325.583 158.293 323.299 159.378C321.128 160.409 318.537 162.848 318.321 163.282C318.104 163.716 318.754 165.234 318.537 165.451C318.537 165.451 317.076 168.195 317.215 169.496C317.545 172.578 318.97 172.392 317.672 173.911C316.156 175.682 315.27 177.598 315.694 177.815C316.999 178.172 317.215 178.389 317.215 180.125C317.215 181.86 316.782 181.936 316.782 182.728C316.782 183.378 316.566 184.756 318.104 184.756C320.275 184.599 323.083 184.539 324.598 184.973Z" fill="black"/>
</g>
<defs>
<clipPath id="clip0_1_26">
<rect width="655" height="573" fill="white"/>
</clipPath>
</defs>
</svg>
