<svg width="655" height="573" viewBox="0 0 655 573" fill="none" xmlns="http://www.w3.org/2000/svg">
<path d="M327.499 33L50 538H605L327.499 33Z" fill="#FFC500"/>
<path fill-rule="evenodd" clip-rule="evenodd" d="M87 515L148.373 409.01H211.038V463.721C223.292 462.924 235.522 448.623 247.747 448.623C260.33 448.623 272.942 463.75 285.525 463.75C298.108 463.75 310.69 448.623 323.303 448.623C335.885 448.623 348.464 463.75 361.076 463.75C373.659 463.75 386.241 448.623 398.824 448.623C410.667 448.623 422.539 462.036 434.379 463.605V409.01H505.612L566.984 515" fill="black"/>
<path fill-rule="evenodd" clip-rule="evenodd" d="M211.304 480.154V474.796C223.5 473.995 235.73 459.698 247.926 459.698C260.479 459.698 273.062 474.826 285.613 474.826C298.166 474.826 310.749 459.698 323.303 459.698C335.852 459.698 348.434 474.826 360.988 474.826C373.543 474.826 386.124 459.698 398.675 459.698C410.488 459.698 422.304 473.078 434.114 474.676V480.038C422.304 478.438 410.488 465.054 398.675 465.054C386.124 465.054 373.543 480.183 360.988 480.183C348.434 480.183 335.852 465.054 323.303 465.054C310.749 465.054 298.166 480.183 285.613 480.183C273.062 480.183 260.479 465.054 247.926 465.054C235.73 465.054 223.5 479.357 211.304 480.154ZM211.304 496.586V491.225C223.5 490.398 235.73 476.097 247.926 476.097C260.479 476.097 273.062 491.258 285.613 491.258C298.166 491.258 310.749 476.097 323.303 476.097C335.852 476.097 348.434 491.258 360.988 491.258C373.543 491.258 386.124 476.097 398.675 476.097C410.488 476.097 422.304 489.511 434.114 491.109V496.466C422.304 494.867 410.488 481.458 398.675 481.458C386.124 481.458 373.543 496.616 360.988 496.616C348.434 496.616 335.852 481.458 323.303 481.458C310.749 481.458 298.166 496.616 285.613 496.616C273.062 496.616 260.479 481.458 247.926 481.458C235.73 481.458 223.5 495.756 211.304 496.586ZM211.304 512.986V507.628C223.5 506.831 235.73 492.528 247.926 492.528C260.479 492.528 273.062 507.687 285.613 507.687C298.166 507.687 310.749 492.528 323.303 492.528C335.852 492.528 348.434 507.687 360.988 507.687C373.543 507.687 386.124 492.528 398.675 492.528C410.488 492.528 422.304 505.942 434.114 507.512V512.868C422.304 511.299 410.488 497.89 398.675 497.89C386.124 497.89 373.543 513.047 360.988 513.047C348.434 513.047 335.852 497.89 323.303 497.89C310.749 497.89 298.166 513.047 285.613 513.047C273.062 513.047 260.479 497.89 247.926 497.89C235.73 497.89 223.5 512.189 211.304 512.986V512.986ZM231.615 515C237.059 511.802 242.478 508.961 247.926 508.961C253.374 508.961 258.79 511.802 264.239 515H231.615ZM306.99 515C312.435 511.802 317.854 508.961 323.303 508.961C328.746 508.961 334.165 511.802 339.614 515H306.99ZM382.362 515C387.81 511.802 393.231 508.961 398.675 508.961C404.123 508.961 409.542 511.802 414.99 515" fill="#FFC500"/>
<path fill-rule="evenodd" clip-rule="evenodd" d="M197.3 384.824L211.304 409.01L405.103 297.218L391.129 273" fill="black"/>
<path d="M2.70376 562.564C6.30878 568.808 12.9696 572.655 20.1809 572.655H634.822C642.03 572.655 648.694 568.808 652.296 562.564C655.901 556.32 655.901 548.628 652.296 542.384L344.977 10.0895C341.373 3.84561 334.709 0 327.501 0C320.291 0 313.628 3.84812 310.025 10.0895L2.70376 542.384C-0.901255 548.627 -0.901255 556.32 2.70376 562.564ZM327.501 100.901L564.913 512.114H90.0883L327.501 100.901Z" fill="#CC0000"/>
</svg>
