<svg width="655" height="573" viewBox="0 0 655 573" fill="none" xmlns="http://www.w3.org/2000/svg">
<path d="M327.499 33L50 538H605L327.499 33Z" fill="#FFC500"/>
<path fill-rule="evenodd" clip-rule="evenodd" d="M66 524H264V314H187.134" fill="black"/>
<path fill-rule="evenodd" clip-rule="evenodd" d="M285.263 513H260V507.666C268.342 507.928 276.684 511.077 285.263 513Z" fill="black"/>
<path fill-rule="evenodd" clip-rule="evenodd" d="M360.458 513H307.817C316.544 510.99 325.271 507.639 334.003 507.639C342.76 507.639 351.487 510.99 360.458 513Z" fill="black"/>
<path fill-rule="evenodd" clip-rule="evenodd" d="M435.649 513H382.979C391.735 510.99 400.467 507.639 409.194 507.639C417.922 507.639 426.684 510.99 435.649 513Z" fill="black"/>
<path fill-rule="evenodd" clip-rule="evenodd" d="M510.846 513H458.171C466.932 510.99 475.66 507.639 484.388 507.639C493.12 507.639 501.875 510.99 510.846 513Z" fill="black"/>
<path fill-rule="evenodd" clip-rule="evenodd" d="M567.96 507.842L571 513H533.368C540.994 511.253 560.332 508.485 567.96 507.842Z" fill="black"/>
<path fill-rule="evenodd" clip-rule="evenodd" d="M260 473.221C272.124 473.626 284.278 480.096 296.403 480.096C308.945 480.096 321.49 473.221 334.003 473.221C346.542 473.221 359.086 480.096 371.598 480.096C384.143 480.096 396.681 473.221 409.194 473.221C421.739 473.221 434.248 480.096 446.792 480.096C459.334 480.096 471.878 473.221 484.388 473.221C496.93 473.221 509.444 480.096 521.987 480.096C527.409 480.096 544.22 478.816 549.643 477.359L554.019 484.759C547.137 486.626 528.87 488.696 521.987 488.696C509.444 488.696 496.93 481.816 484.388 481.816C471.878 481.816 459.334 488.696 446.792 488.696C434.248 488.696 421.739 481.816 409.194 481.816C396.681 481.816 384.143 488.696 371.598 488.696C359.086 488.696 346.542 481.816 334.003 481.816C321.49 481.816 308.945 488.696 296.403 488.696C284.278 488.696 272.124 482.254 260 481.845" fill="black"/>
<path fill-rule="evenodd" clip-rule="evenodd" d="M260 456C272.124 456.405 284.278 462.876 296.403 462.876C308.945 462.876 321.49 456 334.003 456C346.542 456 359.086 462.876 371.598 462.876C384.143 462.876 396.681 456 409.194 456C421.739 456 434.248 462.876 446.792 462.876C459.334 462.876 471.878 456 484.388 456C496.93 456 509.444 462.876 521.987 462.876C527.409 462.876 544.22 461.595 549.643 460.138L554.019 467.538C547.137 469.405 528.87 471.476 521.987 471.476C509.444 471.476 496.93 464.595 484.388 464.595C471.878 464.595 459.334 471.476 446.792 471.476C434.248 471.476 421.739 464.595 409.194 464.595C396.681 464.595 384.143 471.476 371.598 471.476C359.086 471.476 346.542 464.595 334.003 464.595C321.49 464.595 308.945 471.476 296.403 471.476C284.278 471.476 272.124 465.033 260 464.624" fill="black"/>
<path fill-rule="evenodd" clip-rule="evenodd" d="M260 490.443C272.124 490.853 284.278 497.319 296.403 497.319C308.945 497.319 321.49 490.415 334.003 490.415C346.542 490.415 359.086 497.319 371.598 497.319C384.143 497.319 396.681 490.415 409.194 490.415C421.739 490.415 434.248 497.319 446.792 497.319C459.334 497.319 471.878 490.415 484.388 490.415C496.93 490.415 509.444 497.319 521.987 497.319C530.326 497.319 550.09 494.262 558.432 492.219L562.929 499.858C553.098 501.663 531.82 505.919 521.987 505.919C509.444 505.919 496.93 499.043 484.388 499.043C471.878 499.043 459.334 505.919 446.792 505.919C434.248 505.919 421.739 499.043 409.194 499.043C396.681 499.043 384.143 505.919 371.598 505.919C359.086 505.919 346.542 499.043 334.003 499.043C321.49 499.043 308.945 505.919 296.403 505.919C284.278 505.919 272.124 499.448 260 499.043" fill="black"/>
<path d="M2.70376 562.564C6.30878 568.808 12.9696 572.655 20.1809 572.655H634.822C642.03 572.655 648.694 568.808 652.296 562.564C655.901 556.32 655.901 548.628 652.296 542.384L344.977 10.0895C341.373 3.84561 334.709 0 327.501 0C320.291 0 313.628 3.84812 310.025 10.0895L2.70376 542.384C-0.901255 548.627 -0.901255 556.32 2.70376 562.564ZM327.501 100.901L564.913 512.114H90.0883L327.501 100.901Z" fill="#CC0000"/>
<path fill-rule="evenodd" clip-rule="evenodd" d="M397.181 329.588L376.789 345.496L350.024 311.278C345.48 305.397 354.113 299.274 358.895 297.953C363.557 296.63 371.104 296.271 375.467 301.882L397.181 329.588V329.588ZM319.256 326.975C317.482 324.754 314.144 324.337 311.89 326.107C309.664 327.848 309.241 331.178 310.984 333.429C312.759 335.651 316.099 336.071 318.356 334.33C320.58 332.56 320.998 329.226 319.25 326.975L319.256 326.975ZM400.486 333.82L418.259 356.511C420.849 359.841 419.705 362.601 418.533 364.917L410.838 383.403C410.361 384.214 408.911 386.523 406.475 383.38L380.162 349.792L400.49 333.825L400.486 333.82ZM321.481 343.486L389.87 430.884C385.841 436.077 385.628 443.702 389.87 449.076C394.08 454.447 401.509 456.099 407.554 453.427L417.391 466L438.741 447.723C443.221 443.103 445.417 440.819 438.955 430.648L416.491 394.569C414.868 391.417 415.11 391.176 415.199 389.647L424.162 365.937C425.393 362.243 425.575 359.389 421.542 353.539L376.705 296.36C365.154 282.375 339.711 295.85 336.585 295.61C333.456 295.371 330.988 286.787 317.608 293.149L294 308.336L303.773 320.855C299.532 326.045 299.233 333.82 303.535 339.284C307.804 344.747 315.415 346.365 321.518 343.486L321.481 343.486ZM405.842 437.067C404.098 434.845 400.758 434.429 398.502 436.169C396.247 437.94 395.854 441.269 397.596 443.521C399.341 445.742 402.682 446.163 404.937 444.424C407.194 442.653 407.614 439.319 405.843 437.067" fill="black"/>
</svg>
