<?xml version="1.0" encoding="UTF-8" standalone="no"?>
<!-- Created with Inkscape (http://www.inkscape.org/) -->

<svg
   xmlns:dc="http://purl.org/dc/elements/1.1/"
   xmlns:cc="http://creativecommons.org/ns#"
   xmlns:rdf="http://www.w3.org/1999/02/22-rdf-syntax-ns#"
   xmlns:svg="http://www.w3.org/2000/svg"
   xmlns="http://www.w3.org/2000/svg"
   xmlns:sodipodi="http://sodipodi.sourceforge.net/DTD/sodipodi-0.dtd"
   xmlns:inkscape="http://www.inkscape.org/namespaces/inkscape"
   width="865.17029"
   height="236.46516"
   id="svg4764"
   version="1.1"
   inkscape:version="0.47 r22583"
   sodipodi:docname="Traffic Sign GR - KOK 2009 - P-10.svg">
  <defs
     id="defs4766">
    <inkscape:perspective
       sodipodi:type="inkscape:persp3d"
       inkscape:vp_x="0 : 526.18109 : 1"
       inkscape:vp_y="0 : 1000 : 0"
       inkscape:vp_z="744.09448 : 526.18109 : 1"
       inkscape:persp3d-origin="372.04724 : 350.78739 : 1"
       id="perspective4772" />
    <inkscape:perspective
       id="perspective4743"
       inkscape:persp3d-origin="0.5 : 0.33333333 : 1"
       inkscape:vp_z="1 : 0.5 : 1"
       inkscape:vp_y="0 : 1000 : 0"
       inkscape:vp_x="0 : 0.5 : 1"
       sodipodi:type="inkscape:persp3d" />
    <inkscape:perspective
       id="perspective5239"
       inkscape:persp3d-origin="0.5 : 0.33333333 : 1"
       inkscape:vp_z="1 : 0.5 : 1"
       inkscape:vp_y="0 : 1000 : 0"
       inkscape:vp_x="0 : 0.5 : 1"
       sodipodi:type="inkscape:persp3d" />
    <inkscape:perspective
       id="perspective5543"
       inkscape:persp3d-origin="0.5 : 0.33333333 : 1"
       inkscape:vp_z="1 : 0.5 : 1"
       inkscape:vp_y="0 : 1000 : 0"
       inkscape:vp_x="0 : 0.5 : 1"
       sodipodi:type="inkscape:persp3d" />
    <inkscape:perspective
       id="perspective5737"
       inkscape:persp3d-origin="0.5 : 0.33333333 : 1"
       inkscape:vp_z="1 : 0.5 : 1"
       inkscape:vp_y="0 : 1000 : 0"
       inkscape:vp_x="0 : 0.5 : 1"
       sodipodi:type="inkscape:persp3d" />
    <clipPath
       clipPathUnits="userSpaceOnUse"
       id="clipPath2880">
      <path
         d="m 179.69,552.76 226.77,0 0,-226.78 -226.77,0 0,226.78 z"
         clip-rule="evenodd"
         id="path2882" />
    </clipPath>
    <inkscape:perspective
       id="perspective6014"
       inkscape:persp3d-origin="0.5 : 0.33333333 : 1"
       inkscape:vp_z="1 : 0.5 : 1"
       inkscape:vp_y="0 : 1000 : 0"
       inkscape:vp_x="0 : 0.5 : 1"
       sodipodi:type="inkscape:persp3d" />
  </defs>
  <sodipodi:namedview
     id="base"
     pagecolor="#ffffff"
     bordercolor="#666666"
     borderopacity="1.0"
     inkscape:pageopacity="0.0"
     inkscape:pageshadow="2"
     inkscape:zoom="0.83535156"
     inkscape:cx="713.45429"
     inkscape:cy="-7.8993402"
     inkscape:document-units="px"
     inkscape:current-layer="layer1"
     showgrid="false"
     inkscape:window-width="1600"
     inkscape:window-height="838"
     inkscape:window-x="-8"
     inkscape:window-y="-8"
     inkscape:window-maximized="1" />
  <metadata
     id="metadata4769">
    <rdf:RDF>
      <cc:Work
         rdf:about="">
        <dc:format>image/svg+xml</dc:format>
        <dc:type
           rdf:resource="http://purl.org/dc/dcmitype/StillImage" />
        <dc:title></dc:title>
      </cc:Work>
    </rdf:RDF>
  </metadata>
  <g
     inkscape:label="Livello 1"
     inkscape:groupmode="layer"
     id="layer1"
     transform="translate(235.06351,596.80669)">
    <path
       d="m -198.82353,-595.78357 c -19.41861,0 -35.21686,16.01353 -35.21686,35.69188 l 0,163.03517 c 0,19.68224 15.79825,35.69187 35.21686,35.69187 l 739.9122,0 c 20.10026,0 30.74158,-18.125 31.88928,-20.19353 -0.11924,0.21451 -0.24279,0.42151 -0.36588,0.62837 l 53.88057,-88.29494 c 3.45467,-5.66698 3.45467,-13.03173 0,-18.69092 l -53.88057,-88.30273 c 0.23109,0.38248 0.44676,0.76883 0.64703,1.16305 -4.88738,-9.56206 -16.24504,-20.72822 -32.17043,-20.72822 l -739.9122,0 z"
       style="fill:#ffffff;fill-opacity:1;fill-rule:nonzero;stroke:#231f20;stroke-width:2.04624987;stroke-linecap:round;stroke-linejoin:round;stroke-miterlimit:4;stroke-opacity:1;stroke-dasharray:none"
       id="path5847" />
    <path
       d="m -198.82353,-578.2089 739.91219,0 c 11.03029,0 16.77268,11.2325 16.77268,11.2325 l 53.88441,88.30274 0,0.2067 -53.88441,88.29494 c 0,0 -6.23535,11.23247 -16.77268,11.23247 l -739.91219,0 c -9.83255,0 -17.87417,-8.15309 -17.87417,-18.11715 l 0,-163.03518 c 0,-9.96405 8.04162,-18.11718 17.87417,-18.11718"
       style="fill:#0071bc;fill-opacity:1;fill-rule:nonzero;stroke:none"
       id="path5849" />
    <path
       d="m 518.67372,-478.48632 -41.54079,72.90587 53.4261,0 41.53695,-72.90587 0,-0.16798 -41.53695,-72.90977 -53.4261,0 41.54079,72.90977 0,0.16798"
       style="fill:#ffffff;fill-opacity:1;fill-rule:nonzero;stroke:none"
       id="path5851" />
    <path
       d="m -189.54948,-483.89571 5.11847,1.28404 -4.07856,24.42035 6.19298,0.28882 11.85446,-22.64454 64.71063,3.85605 -3.60873,65.27963 8.06091,0.68301 37.338959,-64.15171 31.46178,-3.84434 c 0,0 18.7754,-2.0295 26.2393298,-6.93151 l 0.0185,-0.0428 c -7.5178598,-4.81616 -26.3086598,-6.6466 -26.3086598,-6.6466 l -31.49643,-3.5126 -38.005249,-63.7458 -8.05705,0.76886 4.28657,65.2289 -64.66438,4.54296 -12.09331,-22.51184 -6.18911,0.34736 4.33663,24.37742 -5.10305,1.34259 -0.0154,1.61189"
       style="fill:#ffffff;fill-opacity:1;fill-rule:nonzero;stroke:none"
       id="path5857" />
    <g
       style="font-size:113.83409882px;font-style:normal;font-variant:normal;font-weight:normal;font-stretch:normal;text-align:start;line-height:100%;writing-mode:lr-tb;text-anchor:start;fill:#ffcb04;fill-opacity:1;stroke:none;font-family:Transport Heavy;-inkscape-font-specification:'Transport Heavy,'"
       id="text4815">
      <path
         d="m 82.939635,-527.88237 18.008915,0 0.44466,1.77866 c 0.14817,0.25948 0.25007,0.51887 0.30571,0.77816 0.0555,0.25949 0.10185,0.51887 0.13895,0.77817 l 0.44467,0.88933 0.667,2.22332 0.22233,0.44466 0.22233,0.88933 0.22233,0.667 0.22233,0.88933 0.667,1.55632 0.22233,0.44467 0,0.66699 c 0.29639,0.51886 0.52799,1.02837 0.69479,1.52854 0.1667,0.50033 0.30565,0.95426 0.41687,1.36178 l 0.22234,0.88933 0.22233,0.44467 0,0.66699 c 0.29639,0.51886 0.52798,1.02837 0.69479,1.52854 0.16669,0.50032 0.30565,0.95425 0.41687,1.36178 l 0.44466,1.77866 c 0.55578,0.96351 0.85222,1.85284 0.88933,2.66799 l 0.667,1.55632 0.44466,1.77866 0.44467,1.55632 c 0.14816,0.18535 0.22227,0.40768 0.22233,0.667 l 0.44467,0.667 0.22233,0.88933 c 0.074,0.37062 0.18521,0.70411 0.3335,1.00049 0.14816,0.29651 0.25932,0.5559 0.33349,0.77816 l 0,0.667 c 0.74105,1.37111 1.18571,2.7051 1.334,4.00198 0.25932,0.48178 0.40754,0.92644 0.44466,1.33399 0.25933,0.48178 0.40755,0.92645 0.44467,1.334 l 0.88933,2.66799 0.22233,0.44466 0.22233,0.88933 0.22233,0.667 0.22233,0.88932 0.667,1.55633 0.22233,0.44466 0,0.667 c 0.29638,0.51882 0.53724,1.02833 0.72258,1.52853 0.18521,0.5003 0.31491,0.95423 0.38908,1.36179 l 0.22234,1.33399 c 0.59281,1.14876 0.96337,2.18631 1.11166,3.11265 0.70398,1.59342 1.14864,3.00153 1.33399,4.22432 0.25932,0.48175 0.40754,0.92642 0.44467,1.33399 l 0.66699,1.33399 0.44467,1.334 c 0.1852,0.88936 0.40753,1.63046 0.66699,2.22332 l 0.44467,2.00099 0.66699,1.33399 0.44467,2.00099 0.44466,0.88933 0.22234,0.88933 c 0.40753,0.96346 0.74103,1.87132 1.00049,2.72357 0.25931,0.85229 0.44459,1.64898 0.55583,2.39007 l 0.44467,0.667 0,0.66699 c 0.14814,0.1853 0.22225,0.40763 0.22233,0.667 0.40753,0.62996 0.62986,1.22284 0.66699,1.77866 0.48165,1.03756 0.77809,1.92689 0.88933,2.66799 l -14.67392,0 -0.22234,-0.88933 -0.44466,-0.88933 -0.22233,-1.334 c -0.14829,-0.18526 -0.2224,-0.40759 -0.22233,-0.66699 -0.70412,-1.40809 -1.14878,-2.74208 -1.334,-4.00198 l -0.44466,-0.667 -0.22233,-0.88933 c -0.0742,-0.37053 -0.17608,-0.70403 -0.30571,-1.00049 -0.12975,-0.29642 -0.25018,-0.55581 -0.36129,-0.77817 l 0,-0.66699 c -0.70411,-1.40808 -1.14878,-2.74207 -1.33399,-4.00198 l -33.794503,0 -0.222332,0.88933 -0.444665,0.88933 -0.222332,1.11166 -0.222332,0.88933 c -0.1853,0.40763 -0.361313,0.81524 -0.528039,1.22282 -0.166772,0.40763 -0.287201,0.81524 -0.36129,1.22283 l -0.222332,0.667 -0.444665,0.88933 c -0.07413,0.40762 -0.148242,0.70407 -0.222332,0.88932 l -0.222332,0.88933 -0.222332,0.667 -0.222332,0.44466 -1.556326,5.11365 -14.673927,0 0,-0.667 0.444665,-1.33399 0.222332,-0.88933 c 0.333493,-0.7411 0.555825,-1.33398 0.666997,-1.77866 l 0.222332,-0.44467 0.444664,-1.77865 0.444665,-1.55633 1.333993,-3.77965 0.666997,-2.22332 0.444664,-1.33399 c 0.333489,-0.74108 0.555821,-1.33397 0.666997,-1.77866 l 0.889329,-2.66799 1.778657,-5.5583 1.333994,-4.22431 c 0.370539,-0.81518 0.648454,-1.55629 0.833746,-2.22333 0.185262,-0.66695 0.352011,-1.25983 0.500247,-1.77865 l 0.222332,-0.88933 0.444665,-0.667 c 0.11115,-0.85223 0.333482,-1.66744 0.666997,-2.44565 l 0.444664,-1.334 0.222332,-0.88933 c 0.333481,-0.74105 0.555813,-1.33394 0.666997,-1.77865 l 0.222332,-0.44467 0.444665,-1.77866 0.444664,-1.55632 0.666997,-1.55633 0.666996,-2.22332 0.666997,-2.00099 0.222332,-0.44467 1.333994,-4.22431 0.222332,-0.88933 1.778658,-5.5583 c 0.481694,-1.00042 0.778137,-1.88975 0.889328,-2.66799 l 2.445655,-6.8923 0,-0.66699 0.444664,-1.11167 0.222333,-0.66699 0.222332,-0.88933 0.444664,-0.88933 0.222333,-0.667 0.222332,-0.88933 0.222332,-0.66699 0.222332,-0.88933 0.666997,-1.55633 0.666997,-2.66798 z m 8.893289,18.67591 -1.333993,3.77965 -0.444665,1.55632 -0.666997,1.55633 -0.222332,1.33399 -0.444664,1.334 -0.666997,1.33399 -0.222332,1.33399 -0.666997,1.334 0,0.66699 -0.444664,0.667 c -0.370589,1.92694 -0.815253,3.48326 -1.333994,4.66898 l -0.222332,0.88932 -0.444664,1.11167 -1.333994,3.77964 -0.666996,2.44566 -0.444665,1.11166 -0.222332,0.88933 -0.444664,1.11166 -0.222333,0.88933 -0.666996,2.00099 -0.222332,0.44466 c -0.444694,1.70459 -0.889358,3.03858 -1.333994,4.00198 l 25.568203,0 -0.44466,-1.77865 -0.667,-1.55633 -0.44466,-1.55633 -0.667,-1.55632 -1.11166,-3.77965 -0.44466,-1.77866 -0.667,-1.55632 -0.22233,-1.11166 c -0.25944,-0.44461 -0.407662,-0.81517 -0.444668,-1.11166 l -1.111661,-3.11266 -0.222333,-0.88933 -0.444664,-0.88932 0,-0.667 -1.333993,-3.55732 -0.222333,-1.33399 c -0.259432,-0.48165 -0.407654,-0.92632 -0.444664,-1.33399 l -0.666997,-1.334 -0.444664,-2.00099 c -0.148265,-0.1852 -0.222376,-0.40753 -0.222332,-0.66699 -0.148265,-0.18521 -0.222376,-0.40754 -0.222333,-0.667 l -0.444664,-0.667 0,-0.66699 c -0.370596,-0.81515 -0.592928,-1.55625 -0.666997,-2.22333 -0.07415,-0.074 -0.129736,-0.13888 -0.166749,-0.19454 -0.0371,-0.0555 -0.05563,-0.12035 -0.05558,-0.19454 l 0,-0.0556 -1.111661,-2.66799 z"
         style="font-family:Transport Gr;-inkscape-font-specification:Transport Gr"
         id="path6407" />
      <path
         d="m 155.69785,-479.80302 c 2.63091,15.74856 9.28234,23.91926 19.95432,24.51212 9.78257,-0.37052 16.84161,-8.54123 21.17714,-24.51212 z m 0.16675,-12.33944 40.63122,0 c -3.52032,-16.56367 -10.35703,-24.58615 -20.51015,-24.06746 -10.15321,0.51886 -16.86022,8.54134 -20.12107,24.06746 z m 19.95432,-37.51856 c 4.26132,9e-5 8.569,1.00059 12.92306,3.00148 4.35395,2.00108 8.14285,5.00257 11.36673,9.00446 3.22375,4.00206 5.68793,8.85631 7.39255,14.56276 1.70447,5.70659 2.55674,11.59839 2.55682,17.67541 -8e-5,6.11418 -0.8894,11.88555 -2.66798,17.31412 -1.77874,5.42864 -4.27997,10.14394 -7.50372,14.14589 -3.22388,4.002 -6.97573,7.13317 -11.25557,9.39353 -4.27994,2.26039 -8.55057,3.39058 -12.81189,3.39057 -4.29846,10e-6 -8.52277,-1.05607 -12.67294,-3.16823 -4.15022,-2.11214 -7.83723,-5.16921 -11.06103,-9.17121 -3.22383,-4.00195 -5.78991,-8.79135 -7.69825,-14.36822 -1.90836,-5.57679 -2.86253,-11.42227 -2.86253,-17.53645 0,-6.07702 0.8708,-11.88545 2.61241,-17.42529 1.74159,-5.5397 4.22429,-10.31057 7.44813,-14.31264 3.22379,-4.00189 6.99417,-7.08674 11.31115,-9.25458 4.31692,-2.16764 8.6246,-3.25151 12.92306,-3.2516 z"
         style="font-family:Transport Gr;-inkscape-font-specification:Transport Gr"
         id="path6409" />
      <path
         d="m 249.07739,-542.00046 13.67343,0 -6.8923,22.01089 -9.11562,0 z m 28.68086,49.13542 0,0.667 c 0.48166,0.88938 0.7781,1.77871 0.88933,2.66798 l 0,65.58801 -13.56227,0 0,-58.47338 -0.22233,-1.33399 c -1.85282,-5.5953 -4.96546,-8.39298 -9.33796,-8.39304 -1.33403,6e-5 -2.81624,0.27797 -4.44664,0.83374 -3.70557,1.59344 -6.37355,4.11321 -8.00396,7.5593 l -0.88933,3.77965 0,36.90715 -13.33993,0 0.0556,-47.30118 c -1.334,-1.4451 -2.40861,-2.01946 -3.22382,-1.72308 l -3.44615,-0.0556 0,-11.95036 5.16923,-0.50025 c 2.8903,-0.29636 6.41056,1.6861 10.56078,5.94739 4.15018,-3.70546 10.07903,-5.92878 17.78658,-6.66997 l 1.00049,0 c 9.93079,8e-5 16.93425,4.15028 21.0104,12.45061 z"
         style="font-family:Transport Gr;-inkscape-font-specification:Transport Gr"
         id="path6411" />
      <path
         d="m 287.31854,-504.31515 14.22926,0 13.33994,41.35379 10.94986,-34.96174 -0.0556,-6.33647 13.95134,0 -0.0556,7.8928 -16.78608,52.52598 -16.45259,0 z"
         style="font-family:Transport Gr;-inkscape-font-specification:Transport Gr"
         id="path6413" />
      <path
         d="m 395.09406,-495.69978 0,-9.33795 11.89478,0 0,46.13394 c -0.2224,3.11267 1.37098,4.81722 4.78014,5.11364 l -2.55682,12.7841 c -7.26291,-0.48171 -11.59839,-4.5578 -13.00644,-12.22827 -1.92693,4.52077 -5.22485,7.83722 -9.89378,9.94936 -1.40815,0.66701 -2.90889,1.18579 -4.50223,1.55633 -1.59342,0.37056 -3.09416,0.57437 -4.50223,0.61141 -5.48422,10e-6 -10.50522,-1.50073 -15.063,-4.50222 -8.5598,-5.9659 -13.08056,-13.89574 -13.56227,-23.78955 -0.0371,-0.51874 -0.0556,-1.02825 -0.0556,-1.52854 -10e-6,-0.5002 -10e-6,-0.99119 0,-1.47295 -10e-6,-18.52762 8.46714,-29.68128 25.40145,-33.461 0.33347,-0.037 0.66697,-0.0555 1.0005,-0.0556 0.33347,8e-5 0.66696,8e-5 1.00049,0 12.0059,8e-5 18.36089,3.40917 19.06499,10.22728 z m -32.62725,25.17913 c 1.22281,9.93087 6.26233,15.34095 15.11859,16.23025 9.07852,-0.85225 14.11805,-5.59533 15.11859,-14.22926 0.14817,-1.11162 0.27787,-2.18623 0.38908,-3.22382 0.11112,-1.03751 0.14817,-2.038 0.11117,-3.00148 -5e-5,-11.22773 -5.57688,-17.23069 -16.7305,-18.00892 -9.44914,2.33455 -14.1737,8.61543 -14.17368,18.84266 -2e-5,1.07465 0.0556,2.20484 0.16675,3.39057 z"
         style="font-family:Transport Gr;-inkscape-font-specification:Transport Gr"
         id="path6415" />
    </g>
  </g>
</svg>
