<svg width="655" height="475" viewBox="0 0 655 475" fill="none" xmlns="http://www.w3.org/2000/svg">
<rect width="655" height="475" rx="30" fill="#0C479D"/>
<path d="M231 273.913V304H63.0277C62.7966 296.464 64.01 289.217 66.6679 282.261C70.9438 270.783 77.791 259.478 87.2095 248.348C96.6279 237.217 110.235 224.348 128.032 209.739C155.652 187.015 174.316 169.015 184.023 155.739C193.73 142.464 198.584 129.913 198.584 118.087C198.584 105.681 194.164 95.2176 185.323 86.6957C176.482 78.1742 164.955 73.9133 150.741 73.9131C135.717 73.9133 123.699 78.4351 114.685 87.4783C105.671 96.522 101.106 109.044 100.99 125.043L68.9215 121.739C71.1172 97.7394 79.38 79.4496 93.7099 66.8697C108.04 54.2902 127.281 48.0002 151.434 48C175.818 48.0002 195.117 54.7829 209.332 68.3479C223.546 81.9133 230.653 98.7248 230.653 118.783C230.653 128.986 228.573 139.015 224.413 148.87C220.252 158.725 213.347 169.102 203.698 180C194.048 190.899 178.014 205.855 155.594 224.87C136.873 240.638 124.854 251.333 119.538 256.957C114.223 262.58 109.831 268.232 106.364 273.913H231Z" fill="white"/>
<path d="M244 232.821L276.861 230.037C279.295 246.048 284.946 258.085 293.813 266.148C302.681 274.212 313.373 278.243 325.892 278.243C340.96 278.243 353.711 272.558 364.143 261.188C374.575 249.818 379.791 234.736 379.791 215.94C379.791 198.073 374.778 183.977 364.752 173.651C354.725 163.325 341.598 158.162 325.37 158.162C315.286 158.162 306.187 160.453 298.073 165.036C289.959 169.619 283.584 175.565 278.947 182.874L249.564 179.046L274.253 48H401.003V77.9334H299.29L285.555 146.502C300.855 135.828 316.909 130.491 333.716 130.491C355.971 130.491 374.749 138.206 390.049 153.637C405.35 169.068 413 188.907 413 213.156C413 236.244 406.277 256.199 392.831 273.022C376.488 293.674 354.174 304 325.892 304C302.709 304 283.787 297.503 269.124 284.508C254.461 271.514 246.086 254.285 244 232.821Z" fill="white"/>
<path d="M473.711 163.773C460.943 159.099 451.48 152.429 445.324 143.765C439.168 135.101 436.089 124.726 436.09 112.641C436.089 94.4005 442.645 79.0669 455.756 66.64C468.866 54.2136 486.309 48.0002 508.084 48C529.973 48.0002 547.587 54.356 560.926 67.0675C574.264 79.7793 580.934 95.2556 580.934 113.496C580.934 125.125 577.884 135.243 571.785 143.85C565.685 152.458 556.422 159.099 543.996 163.773C559.387 168.789 571.101 176.884 579.138 188.056C587.175 199.229 591.194 212.567 591.194 228.072C591.194 249.505 583.613 267.518 568.45 282.111C553.287 296.704 533.336 304 508.597 304C483.858 304 463.907 296.675 448.744 282.025C433.581 267.376 426 249.106 426 227.217C426 210.914 430.133 197.262 438.398 186.26C446.664 175.259 458.435 167.763 473.711 163.773ZM467.555 111.615C467.555 123.472 471.374 133.162 479.013 140.687C486.651 148.211 496.57 151.973 508.768 151.973C520.625 151.973 530.344 148.24 537.925 140.772C545.506 133.305 549.297 124.156 549.297 113.325C549.297 102.039 545.392 92.548 537.583 84.8524C529.774 77.1572 520.055 73.3095 508.426 73.3093C496.684 73.3095 486.936 77.0717 479.184 84.5959C471.431 92.1204 467.555 101.127 467.555 111.615ZM457.637 227.388C457.637 236.167 459.717 244.66 463.878 252.868C468.04 261.077 474.224 267.433 482.433 271.936C490.641 276.439 499.477 278.691 508.939 278.691C523.646 278.691 535.787 273.959 545.364 264.497C554.94 255.034 559.729 243.007 559.729 228.414C559.729 213.594 554.798 201.338 544.937 191.647C535.075 181.957 522.734 177.112 507.913 177.112C493.434 177.112 481.435 181.9 471.916 191.476C462.396 201.053 457.637 213.023 457.637 227.388Z" fill="white"/>
<path fill-rule="evenodd" clip-rule="evenodd" d="M557.66 426.081H536.923V375.08C536.923 371.562 535.897 368.693 533.808 366.523C531.719 364.325 528.953 363.225 525.475 363.225C521.408 363.225 518.154 364.691 515.684 367.641C513.229 370.536 511.983 374.065 511.983 378.198V426.095H491.679V375.263C491.679 371.635 490.653 368.744 488.564 366.534C486.475 364.336 483.665 363.236 480.084 363.236C476.123 363.236 472.953 364.666 470.579 367.575C468.234 370.47 467.025 374.003 467.025 378.224V426.11H446.431V346.945H466.152V355.746C469.633 352.229 472.917 349.634 476.006 347.97C479.769 345.919 483.848 344.892 488.186 344.892C492.642 344.892 496.6 345.845 500.081 347.751C503.562 349.656 506.805 352.514 509.806 356.329C513.104 352.514 516.322 349.719 519.517 347.97C523.189 345.919 527.399 344.892 532.141 344.892C539.473 344.892 545.575 347.348 550.408 352.243C555.234 357.135 557.652 363.306 557.652 370.745" fill="white"/>
<path fill-rule="evenodd" clip-rule="evenodd" d="M433.103 426.081H406.705L372.194 377.172L360.885 388.48V426.081H339.137V319H360.885V363.068L402.212 319H429.336L387.28 362.339" fill="white"/>
<path fill-rule="evenodd" clip-rule="evenodd" d="M272.895 432.402H255.199V425.212C253.001 428.071 250.644 430.145 248.175 431.533C245.719 432.889 242.788 433.585 239.409 433.585C236.991 433.585 234.657 433.072 232.44 432.046C230.204 431.02 228.086 429.628 226.064 427.851V464H205.327V353.244H226.064V399.649C226.064 404.454 226.907 408.283 228.702 411.112C230.937 414.63 234.374 416.399 238.97 416.399C243.371 416.399 246.749 414.677 249.098 411.269C251.15 408.228 252.176 404.362 252.176 399.649V353.244H272.913" fill="white"/>
<path fill-rule="evenodd" clip-rule="evenodd" d="M190.395 432.402H165.308L143.56 395.241L121.958 432.402H97L130.057 377.766L97 325.325H121.958L143.56 362.643L165.15 325.325H190.395L157.338 377.469" fill="white"/>
</svg>
