<svg width="655" height="370" viewBox="0 0 655 370" fill="none" xmlns="http://www.w3.org/2000/svg">
<rect width="655" height="370" rx="50" fill="#0C479D"/>
<rect y="68" width="655" height="234" fill="white"/>
<path d="M82.2106 204.66V269.004H74.6059V204.66H54V197.866H102.814V204.66H82.2106Z" fill="black" stroke="black" stroke-width="2"/>
<path d="M146.409 269.004V238.635C146.409 234.304 145.344 231.057 143.211 228.894C141.075 226.728 138.144 225.644 134.406 225.644C130.672 225.644 127.686 226.743 125.453 228.941C123.217 231.137 122.102 234.369 122.102 238.635V269.004H114.9V197.868H122.102V225.244C125.636 221.248 130.237 219.252 135.906 219.252C141.508 219.252 145.859 220.883 148.962 224.148C152.061 227.412 153.611 231.841 153.611 237.434V269.006H146.409V269.004Z" fill="black" stroke="black" stroke-width="2"/>
<path d="M201.675 240.928C201.613 239.934 201.545 239.065 201.478 238.333C201.413 237.601 201.325 236.932 201.227 236.335C201.127 235.735 200.992 235.151 200.827 234.586C200.662 234.022 200.445 233.402 200.177 232.738C199.242 230.475 197.741 228.674 195.673 227.343C193.605 226.011 191.272 225.342 188.674 225.342C186.073 225.342 183.737 226.011 181.669 227.343C179.601 228.674 178.101 230.475 177.166 232.738C176.633 234.069 176.268 235.271 176.068 236.335C175.868 237.399 175.733 238.932 175.67 240.928H201.675ZM175.67 246.326C175.67 251.721 176.903 255.9 179.369 258.865C181.837 261.83 185.438 263.311 190.169 263.311C193.038 263.311 195.423 262.859 197.321 261.96C199.222 261.063 201.137 259.647 203.073 257.716L207.977 262.012C206.707 263.279 205.456 264.378 204.223 265.309C202.991 266.241 201.673 267.025 200.272 267.657C198.872 268.289 197.321 268.771 195.621 269.106C193.92 269.438 192.037 269.606 189.972 269.606C186.703 269.606 183.752 269.106 181.119 268.104C178.483 267.108 176.233 265.574 174.367 263.508C172.499 261.445 171.049 258.83 170.016 255.663C168.981 252.501 168.466 248.754 168.466 244.423C168.466 236.432 170.266 230.235 173.867 225.841C177.466 221.445 182.402 219.247 188.674 219.247C195.073 219.247 200.042 221.38 203.576 225.642C207.112 229.905 208.877 235.698 208.877 243.024V246.323H175.67V246.326Z" fill="black" stroke="black" stroke-width="2"/>
<path d="M259.624 254.616C259.624 257.014 259.142 259.13 258.174 260.961C257.206 262.792 255.838 264.358 254.07 265.656C252.305 266.955 250.204 267.94 247.768 268.606C245.335 269.273 242.617 269.606 239.616 269.606C235.415 269.606 231.681 269.071 228.415 268.004C225.149 266.938 222.146 265.107 219.41 262.509L224.212 257.713C226.145 259.777 228.413 261.245 231.014 262.11C233.614 262.979 236.45 263.411 239.514 263.411C243.582 263.411 246.783 262.697 249.119 261.263C251.454 259.832 252.62 257.651 252.62 254.719C252.62 252.588 251.967 250.922 250.669 249.725C249.366 248.526 247.283 247.795 244.417 247.525L236.315 246.828C231.516 246.428 227.865 245.144 225.362 242.979C222.861 240.816 221.611 237.701 221.611 233.637C221.611 231.374 222.064 229.358 222.961 227.592C223.862 225.829 225.112 224.328 226.715 223.099C228.315 221.865 230.231 220.918 232.467 220.249C234.7 219.584 237.115 219.252 239.716 219.252C243.25 219.252 246.536 219.684 249.569 220.553C252.602 221.418 255.221 222.749 257.421 224.547L252.72 229.243C250.987 227.912 249.001 226.93 246.766 226.296C244.53 225.661 242.147 225.344 239.616 225.344C236.015 225.344 233.282 226.061 231.416 227.492C229.548 228.924 228.615 230.907 228.615 233.442C228.615 235.57 229.266 237.236 230.563 238.435C231.866 239.632 234.082 240.366 237.215 240.633L245.115 241.33C247.251 241.533 249.219 241.902 251.017 242.432C252.815 242.961 254.35 243.763 255.618 244.827C256.889 245.894 257.869 247.225 258.572 248.824C259.274 250.422 259.624 252.353 259.624 254.616Z" fill="black" stroke="black" stroke-width="2"/>
<path d="M309.246 254.616C309.246 257.014 308.764 259.13 307.796 260.961C306.828 262.792 305.46 264.358 303.692 265.656C301.927 266.955 299.826 267.94 297.39 268.606C294.957 269.273 292.239 269.606 289.238 269.606C285.037 269.606 281.303 269.071 278.037 268.004C274.771 266.938 271.768 265.107 269.032 262.509L273.833 257.713C275.766 259.777 278.035 261.245 280.635 262.11C283.236 262.979 286.072 263.411 289.135 263.411C293.204 263.411 296.405 262.697 298.741 261.263C301.076 259.832 302.242 257.651 302.242 254.719C302.242 252.588 301.589 250.922 300.291 249.725C298.988 248.526 296.905 247.795 294.039 247.525L285.937 246.828C281.138 246.428 277.487 245.144 274.984 242.979C272.483 240.816 271.233 237.701 271.233 233.637C271.233 231.374 271.685 229.358 272.583 227.592C273.483 225.829 274.734 224.328 276.337 223.099C277.937 221.865 279.853 220.918 282.088 220.249C284.321 219.584 286.737 219.252 289.338 219.252C292.871 219.252 296.157 219.684 299.191 220.553C302.224 221.418 304.842 222.749 307.043 224.547L302.342 229.243C300.609 227.912 298.623 226.93 296.387 226.296C294.152 225.661 291.769 225.344 289.238 225.344C285.637 225.344 282.904 226.061 281.038 227.492C279.17 228.924 278.237 230.907 278.237 233.442C278.237 235.57 278.887 237.236 280.185 238.435C281.488 239.632 283.704 240.366 286.837 240.633L294.737 241.33C296.873 241.533 298.841 241.902 300.639 242.432C302.437 242.961 303.972 243.763 305.24 244.827C306.51 245.894 307.491 247.225 308.193 248.824C308.899 250.422 309.246 252.353 309.246 254.616Z" fill="black" stroke="black" stroke-width="2"/>
<path d="M351.266 246.326H337.462C330.127 246.326 326.461 249.221 326.461 255.016C326.461 257.878 327.359 259.996 329.162 261.363C330.962 262.727 333.828 263.408 337.764 263.408C339.897 263.408 341.881 263.241 343.716 262.909C345.549 262.574 347.232 261.643 348.768 260.114C350.433 258.513 351.266 255.683 351.266 251.619V246.326ZM351.266 269.004V264.31C349.265 266.308 347.217 267.692 345.116 268.457C343.016 269.221 340.33 269.606 337.062 269.606C333.663 269.606 330.877 269.256 328.709 268.554C326.544 267.855 324.693 266.706 323.16 265.107C321.96 263.911 321.04 262.427 320.407 260.661C319.772 258.897 319.454 257.052 319.454 255.116C319.454 250.787 320.905 247.34 323.805 244.775C326.706 242.21 330.925 240.926 336.461 240.926H351.263V236.232C351.263 232.638 350.298 229.938 348.365 228.139C346.432 226.341 343.198 225.442 338.662 225.442C335.464 225.442 332.96 225.856 331.16 226.691C329.357 227.522 327.724 228.971 326.256 231.037L321.357 226.541C323.558 223.678 326.006 221.745 328.707 220.748C331.408 219.749 334.758 219.247 338.76 219.247C345.429 219.247 350.38 220.631 353.616 223.391C356.85 226.156 358.465 230.235 358.465 235.63V268.999H351.266V269.004Z" fill="black" stroke="black" stroke-width="2"/>
<path d="M388.219 269.004C383.885 269.004 380.717 267.755 378.714 265.257C376.713 262.759 375.715 259.647 375.715 255.915V197.868H382.915V255.618C382.915 258.016 383.383 259.814 384.318 261.013C385.251 262.21 386.984 262.809 389.519 262.809H393.423V269.004H388.219Z" fill="black" stroke="black" stroke-width="2"/>
<path d="M436.02 244.425C436.02 243.026 435.988 241.63 435.92 240.229C435.855 238.83 435.685 237.466 435.42 236.132C435.155 234.799 434.752 233.55 434.222 232.386C433.69 231.219 432.989 230.168 432.122 229.236C429.721 226.84 426.72 225.642 423.119 225.642C419.583 225.642 416.615 226.84 414.211 229.236C413.279 230.168 412.561 231.219 412.063 232.386C411.563 233.55 411.163 234.801 410.865 236.132C410.565 237.464 410.38 238.83 410.313 240.229C410.245 241.63 410.213 243.026 410.213 244.425C410.213 245.826 410.245 247.223 410.313 248.621C410.378 250.023 410.565 251.386 410.865 252.72C411.163 254.052 411.563 255.318 412.063 256.517C412.561 257.716 413.279 258.753 414.211 259.614C416.615 262.012 419.58 263.209 423.119 263.209C426.717 263.209 429.721 262.012 432.122 259.614C432.989 258.75 433.69 257.716 434.222 256.517C434.755 255.321 435.155 254.054 435.42 252.72C435.685 251.386 435.855 250.023 435.92 248.621C435.988 247.223 436.02 245.826 436.02 244.425ZM443.222 244.425C443.222 248.224 442.84 251.804 442.072 255.168C441.304 258.53 439.689 261.478 437.223 264.01C435.49 265.741 433.454 267.108 431.121 268.107C428.786 269.106 426.12 269.608 423.121 269.608C420.118 269.608 417.45 269.108 415.117 268.107C412.781 267.11 410.748 265.744 409.015 264.01C407.75 262.744 406.734 261.36 405.967 259.862C405.196 258.363 404.599 256.797 404.164 255.168C403.731 253.537 403.431 251.821 403.263 250.02C403.098 248.219 403.013 246.356 403.013 244.425C403.013 242.562 403.096 240.713 403.263 238.88C403.431 237.049 403.733 235.316 404.164 233.684C404.599 232.053 405.196 230.49 405.967 228.989C406.734 227.49 407.75 226.109 409.015 224.845C410.748 223.114 412.783 221.747 415.117 220.748C417.452 219.749 420.118 219.247 423.121 219.247C426.12 219.247 428.788 219.747 431.121 220.748C433.457 221.745 435.49 223.111 437.223 224.845C439.689 227.375 441.307 230.32 442.072 233.684C442.837 237.049 443.222 240.631 443.222 244.425Z" fill="black" stroke="black" stroke-width="2"/>
<path d="M490.063 269.004V238.733C490.063 234.336 488.98 231.057 486.812 228.894C484.647 226.728 481.693 225.644 477.96 225.644C474.226 225.644 471.258 226.743 469.057 228.941C466.854 231.137 465.756 234.401 465.756 238.733V269.004H458.554V219.847H465.756V225.242C467.489 223.246 469.525 221.747 471.856 220.748C474.191 219.749 476.757 219.247 479.558 219.247C484.894 219.247 489.096 220.778 492.161 223.843C495.562 227.173 497.263 231.734 497.263 237.529V269.001H490.063V269.004Z" fill="black" stroke="black" stroke-width="2"/>
<path d="M514.42 205.861V197.768H522.523V205.861H514.42ZM514.82 269.004V219.847H522.023V269.004H514.82Z" fill="black" stroke="black" stroke-width="2"/>
<path d="M572.63 269.004L557.025 243.826L547.422 254.816V269.004H540.22V197.868H547.422V245.427L569.629 219.849H578.634L561.929 238.635L581.532 269.004H572.63V269.004Z" fill="black" stroke="black" stroke-width="2"/>
<path d="M593.351 205.861V197.768H601.453V205.861H593.351ZM593.751 269.004V219.847H600.953V269.004H593.751Z" fill="black" stroke="black" stroke-width="2"/>
<path d="M96.2122 133.553C96.2122 130.553 96.1297 127.972 95.9621 125.807C95.7946 123.641 95.547 121.778 95.2119 120.212C94.8793 118.648 94.3791 117.282 93.7115 116.115C93.0438 114.951 92.2085 113.835 91.2107 112.771C89.6753 111.172 87.8248 109.923 85.6566 109.024C83.4885 108.125 81.2379 107.673 78.9072 107.673C76.5715 107.673 74.3234 108.122 72.1552 109.024C69.9896 109.923 68.1391 111.172 66.6011 112.771C65.6033 113.835 64.7706 114.951 64.1029 116.115C63.4327 117.282 62.9326 118.648 62.6 120.212C62.2674 121.778 62.0198 123.644 61.8498 125.807C61.6847 127.972 61.5997 130.553 61.5997 133.553H96.2122ZM61.6047 140.244C61.6047 143.309 61.6872 145.939 61.8548 148.137C62.0223 150.335 62.2724 152.234 62.605 153.832C62.9376 155.431 63.4377 156.812 64.1079 157.979C64.7756 159.143 65.6083 160.259 66.6061 161.323C68.1416 162.924 69.9921 164.173 72.1602 165.07C74.3284 165.967 76.579 166.419 78.9122 166.419C81.2454 166.419 83.4935 165.969 85.6616 165.07C87.8273 164.171 89.6778 162.922 91.2157 161.323C92.2135 160.259 93.0488 159.143 93.7164 157.979C94.3841 156.812 94.8843 155.428 95.2169 153.832C95.552 152.234 95.7996 150.335 95.9671 148.137C96.1322 145.939 96.2172 143.307 96.2172 140.244H61.6047V140.244ZM103.817 137.05C103.817 140.846 103.782 144.158 103.717 146.988C103.649 149.821 103.397 152.351 102.964 154.582C102.529 156.815 101.866 158.828 100.964 160.626C100.066 162.425 98.7804 164.158 97.1124 165.822C94.7117 168.217 91.9785 170.048 88.9126 171.317C85.8417 172.583 82.5082 173.215 78.9097 173.215C71.7076 173.215 65.6384 170.75 60.7044 165.822C59.039 164.156 57.7536 162.425 56.8533 160.626C55.9531 158.828 55.2854 156.812 54.8527 154.582C54.4176 152.351 54.17 149.821 54.1 146.988C54.035 144.158 54 140.844 54 137.05C54 133.253 54.035 129.938 54.1 127.108C54.1675 124.278 54.4176 121.748 54.8527 119.515C55.2854 117.282 55.9506 115.269 56.8533 113.47C57.7536 111.672 59.039 109.941 60.7044 108.272C65.6409 103.344 71.7076 100.881 78.9097 100.881C86.1118 100.881 92.181 103.344 97.1124 108.272C98.7804 109.938 100.066 111.672 100.964 113.47C101.864 115.269 102.529 117.284 102.964 119.515C103.397 121.748 103.647 124.278 103.717 127.108C103.782 129.938 103.817 133.253 103.817 137.05Z" fill="black" stroke="black" stroke-width="2"/>
<path d="M156.47 165.322C153.134 168.452 149.8 170.55 146.464 171.617C143.131 172.683 139.462 173.215 135.463 173.215C133.128 173.215 130.895 172.916 128.759 172.316C126.623 171.717 124.725 170.832 123.06 169.666C121.392 168.502 120.077 167.036 119.109 165.27C118.141 163.504 117.661 161.423 117.661 159.025C117.661 155.958 118.376 153.51 119.809 151.679C121.242 149.848 123.195 148.432 125.661 147.433C123.525 146.566 121.807 145.25 120.507 143.486C119.206 141.72 118.559 139.475 118.559 136.742C118.559 134.544 119.059 132.578 120.062 130.847C121.059 129.116 122.377 127.65 124.01 126.451C125.643 125.252 127.509 124.353 129.612 123.754C131.712 123.154 133.863 122.857 136.064 122.857C138.199 122.857 140.132 122.972 141.863 123.207C143.596 123.439 145.231 123.839 146.764 124.403C148.3 124.97 149.75 125.704 151.116 126.601C152.483 127.5 153.866 128.617 155.267 129.948L150.765 134.744C148.562 132.746 146.329 131.28 144.061 130.348C141.793 129.416 139.225 128.949 136.359 128.949C135.093 128.949 133.843 129.149 132.61 129.549C131.375 129.951 130.259 130.498 129.257 131.2C128.259 131.899 127.456 132.731 126.856 133.697C126.256 134.664 125.956 135.746 125.956 136.945C125.956 139.275 126.723 141.158 128.259 142.59C129.792 144.023 132.06 144.738 135.061 144.738H143.763V150.433H135.261C133.33 150.433 131.712 150.665 130.412 151.13C129.112 151.597 128.076 152.211 127.311 152.978C126.543 153.745 125.993 154.627 125.661 155.626C125.326 156.625 125.161 157.656 125.161 158.723C125.161 161.188 126.176 163.189 128.211 164.72C130.244 166.251 132.763 167.016 135.766 167.016C138.102 167.016 140.635 166.616 143.368 165.819C146.102 165.023 148.802 163.386 151.468 160.924L156.47 165.322Z" fill="black" stroke="black" stroke-width="2"/>
<path d="M200.2 148.037C200.2 144.84 199.95 142.043 199.449 139.645C198.952 137.247 197.934 135.181 196.399 133.45C195.266 132.251 193.898 131.317 192.297 130.653C190.694 129.988 188.961 129.656 187.096 129.656C185.228 129.656 183.527 130.006 181.994 130.705C180.462 131.404 179.129 132.354 177.993 133.553C176.458 135.284 175.458 137.332 174.99 139.695C174.522 142.06 174.292 144.84 174.292 148.037C174.292 151.235 174.507 154.067 174.942 156.53C175.375 158.995 176.358 161.093 177.896 162.824C179.029 164.023 180.379 164.99 181.944 165.722C183.512 166.454 185.228 166.818 187.098 166.818C188.964 166.818 190.697 166.454 192.3 165.722C193.9 164.99 195.268 164.026 196.401 162.824C197.934 161.093 198.954 158.995 199.452 156.53C199.95 154.067 200.2 151.235 200.2 148.037ZM200.302 129.853C202.635 131.519 204.386 133.965 205.554 137.197C206.722 140.427 207.304 144.041 207.304 148.037C207.304 152.366 206.904 156.08 206.104 159.178C205.304 162.275 203.738 165.023 201.405 167.42C199.802 169.086 197.834 170.468 195.501 171.567C193.165 172.666 190.367 173.215 187.101 173.215C183.9 173.215 181.132 172.666 178.799 171.567C176.463 170.468 174.497 169.084 172.899 167.42C170.634 165.087 169.098 162.357 168.298 159.228C167.498 156.098 167.098 152.366 167.098 148.037C167.098 143.774 167.48 140.127 168.248 137.097C169.016 134.067 170.566 131.352 172.899 128.954C174.5 127.288 176.465 125.957 178.799 124.958C181.134 123.958 183.9 123.459 187.101 123.459H209.307V129.853H200.302V129.853Z" fill="black" stroke="black" stroke-width="2"/>
<path d="M254.903 148.037C254.903 144.84 254.653 142.043 254.153 139.645C253.655 137.247 252.637 135.181 251.102 133.45C249.969 132.251 248.601 131.317 247.001 130.653C245.398 129.988 243.665 129.656 241.799 129.656C239.931 129.656 238.231 130.006 236.698 130.705C235.165 131.404 233.832 132.354 232.697 133.553C231.161 135.284 230.161 137.332 229.693 139.695C229.226 142.06 228.996 144.84 228.996 148.037C228.996 151.235 229.211 154.067 229.646 156.53C230.078 158.995 231.061 161.093 232.599 162.824C233.732 164.023 235.082 164.99 236.648 165.722C238.216 166.454 239.931 166.818 241.802 166.818C243.667 166.818 245.4 166.454 247.003 165.722C248.604 164.99 249.972 164.026 251.104 162.824C252.637 161.093 253.658 158.995 254.155 156.53C254.653 154.067 254.903 151.235 254.903 148.037ZM255.006 129.853C257.339 131.519 259.089 133.965 260.257 137.197C261.425 140.427 262.008 144.041 262.008 148.037C262.008 152.366 261.607 156.08 260.807 159.178C260.007 162.275 258.442 165.023 256.108 167.42C254.505 169.086 252.537 170.468 250.204 171.567C247.868 172.666 245.07 173.215 241.804 173.215C238.603 173.215 235.835 172.666 233.502 171.567C231.166 170.468 229.201 169.084 227.603 167.42C225.337 165.087 223.802 162.357 223.001 159.228C222.201 156.098 221.801 152.366 221.801 148.037C221.801 143.774 222.184 140.127 222.951 137.097C223.719 134.067 225.269 131.352 227.603 128.954C229.203 127.288 231.169 125.957 233.502 124.958C235.837 123.958 238.603 123.459 241.804 123.459H264.011V129.853H255.006V129.853Z" fill="black" stroke="black" stroke-width="2"/>
<path d="M308.406 148.037C308.406 145.639 308.271 143.307 308.006 141.044C307.741 138.78 307.173 136.78 306.305 135.049C305.437 133.318 304.187 131.919 302.554 130.852C300.921 129.788 298.768 129.254 296.105 129.254C293.437 129.254 291.283 129.786 289.65 130.852C288.017 131.919 286.767 133.315 285.899 135.049C285.032 136.782 284.449 138.78 284.149 141.044C283.849 143.309 283.699 145.639 283.699 148.037C283.699 150.435 283.849 152.768 284.149 155.031C284.449 157.297 285.034 159.295 285.899 161.026C286.765 162.757 288.017 164.156 289.65 165.222C291.283 166.289 293.437 166.821 296.105 166.821C298.768 166.821 300.921 166.289 302.554 165.222C304.187 164.158 305.437 162.76 306.305 161.026C307.173 159.293 307.738 157.297 308.006 155.031C308.271 152.768 308.406 150.435 308.406 148.037ZM308.506 172.616V166.721C306.44 169.319 304.287 171.05 302.054 171.916C299.821 172.783 297.305 173.215 294.499 173.215C291.966 173.215 289.665 172.833 287.6 172.066C285.532 171.3 283.831 170.25 282.496 168.919C281.231 167.653 280.215 166.219 279.447 164.62C278.677 163.022 278.08 161.306 277.644 159.475C277.212 157.644 276.912 155.763 276.744 153.83C276.579 151.897 276.494 149.966 276.494 148.035C276.494 146.172 276.577 144.256 276.744 142.29C276.912 140.324 277.214 138.426 277.644 136.595C278.08 134.764 278.677 133.048 279.447 131.449C280.215 129.851 281.231 128.42 282.496 127.153C283.831 125.819 285.532 124.77 287.6 124.006C289.665 123.242 291.966 122.859 294.499 122.859C297.303 122.859 299.803 123.277 302.004 124.108C304.205 124.94 306.335 126.621 308.406 129.154V123.459H315.608V172.616H308.506V172.616Z" fill="black" stroke="black" stroke-width="2"/>
<path d="M370.519 172.616C368.786 172.616 367.235 172.384 365.867 171.916C364.5 171.449 363.182 170.65 361.914 169.519C361.181 168.854 360.513 168.02 359.913 167.021C359.313 166.022 358.78 164.823 358.313 163.424L348.61 133.25L348.51 133.353L334.003 172.618H326.201L345.309 124.361L341.61 112.671C340.943 110.605 340.108 109.224 339.11 108.524C338.109 107.825 336.542 107.475 334.406 107.475H332.605V101.283H334.906C338.107 101.283 340.743 101.9 342.808 103.132C344.876 104.363 346.479 106.644 347.612 109.973L364.317 160.631C365.582 164.493 367.816 166.424 371.016 166.424H373.32V172.618H370.519V172.616Z" fill="black" stroke="black" stroke-width="2"/>
<path d="M411.881 148.037C411.881 146.639 411.848 145.24 411.781 143.841C411.713 142.442 411.546 141.078 411.281 139.745C411.015 138.411 410.613 137.162 410.083 135.998C409.548 134.831 408.85 133.782 407.982 132.851C405.579 130.455 402.581 129.256 398.979 129.256C395.443 129.256 392.475 130.455 390.072 132.851C389.139 133.785 388.421 134.831 387.924 135.998C387.424 137.164 387.024 138.413 386.723 139.745C386.423 141.076 386.241 142.442 386.173 143.841C386.106 145.24 386.071 146.639 386.071 148.037C386.071 149.436 386.106 150.835 386.173 152.234C386.238 153.632 386.423 154.996 386.723 156.33C387.024 157.664 387.424 158.928 387.924 160.129C388.421 161.328 389.139 162.362 390.072 163.227C392.475 165.622 395.441 166.821 398.979 166.821C402.578 166.821 405.579 165.625 407.982 163.227C408.85 162.36 409.548 161.328 410.083 160.129C410.615 158.93 411.015 157.664 411.281 156.33C411.546 154.996 411.713 153.632 411.781 152.234C411.846 150.835 411.881 149.436 411.881 148.037ZM419.083 148.037C419.083 151.837 418.7 155.416 417.932 158.778C417.165 162.143 415.549 165.09 413.084 167.623C411.351 169.354 409.315 170.72 406.982 171.719C404.646 172.718 401.98 173.218 398.982 173.218C395.979 173.218 393.31 172.718 390.977 171.719C388.642 170.72 386.608 169.356 384.875 167.623C383.61 166.356 382.595 164.973 381.827 163.474C381.057 161.975 380.459 160.409 380.024 158.778C379.591 157.147 379.291 155.433 379.124 153.633C378.959 151.834 378.874 149.968 378.874 148.037C378.874 146.174 378.956 144.326 379.124 142.492C379.291 140.661 379.594 138.928 380.024 137.297C380.459 135.666 381.057 134.1 381.827 132.601C382.595 131.102 383.61 129.721 384.875 128.455C386.608 126.724 388.644 125.357 390.977 124.358C393.313 123.359 395.979 122.859 398.982 122.859C401.98 122.859 404.649 123.359 406.982 124.358C409.318 125.357 411.351 126.724 413.084 128.455C415.549 130.985 417.167 133.932 417.932 137.297C418.698 140.661 419.083 144.241 419.083 148.037Z" fill="black" stroke="black" stroke-width="2"/>
<path d="M450.922 172.616H444.618L426.615 123.459H434.317L447.821 162.927L461.222 123.459H468.925L450.922 172.616Z" fill="black" stroke="black" stroke-width="2"/>
<path d="M478.958 115.166V101.478H486.557V111.369L478.958 115.166ZM491.461 172.616C487.127 172.616 483.957 171.382 481.956 168.919C479.955 166.454 478.958 163.324 478.958 159.525V123.459H486.157V159.228C486.157 161.626 486.625 163.424 487.558 164.623C488.49 165.822 490.226 166.421 492.762 166.421H496.665V172.616H491.461Z" fill="black" stroke="black" stroke-width="2"/>
<path d="M541.261 172.616L525.656 147.435L516.053 158.326V172.613H508.851V123.456H516.053V149.034L538.26 123.456H547.162L530.56 142.242L550.163 172.616H541.261Z" fill="black" stroke="black" stroke-width="2"/>
<path d="M593.891 172.616V142.342C593.891 137.949 592.808 134.669 590.64 132.503C588.474 130.338 585.521 129.256 581.787 129.256C578.054 129.256 575.085 130.355 572.882 132.553C570.682 134.749 569.584 138.014 569.584 142.342V172.618H562.382V123.461H569.584V128.859C571.317 126.861 573.35 125.362 575.683 124.363C578.019 123.364 580.584 122.864 583.385 122.864C588.722 122.864 592.92 124.396 595.989 127.458C599.39 130.787 601.09 135.351 601.09 141.146V172.618H593.891V172.616Z" fill="black" stroke="black" stroke-width="2"/>
</svg>
