<svg width="655" height="370" viewBox="0 0 655 370" fill="none" xmlns="http://www.w3.org/2000/svg">
<path d="M605 0H50C22.3858 0 0 22.3858 0 50V320C0 347.614 22.3858 370 50 370H605C632.614 370 655 347.614 655 320V50C655 22.3858 632.614 0 605 0Z" fill="#0C479D"/>
<path d="M655 68H0V302H655V68Z" fill="white"/>
<path d="M624.5 4L628.5 6.00002L633.5 9.00002L638 12.5L642 16.5L645 20L648 24.5L651 30.5L652.5 34.5V35L30.5 366L26.5 364L21.5 361L16.0001 356.5L13 353.5L8.99999 348.5L6.50003 344.5L4.00004 339.5L2.5 335.5V335L624.5 4Z" fill="#CC0000"/>
<path d="M82.2106 204.66V269.004H74.6059V204.66H54V197.866H102.814V204.66H82.2106Z" fill="black" stroke="black" stroke-width="2"/>
<path d="M146.409 269.004V238.635C146.409 234.304 145.344 231.057 143.211 228.894C141.075 226.728 138.144 225.644 134.406 225.644C130.672 225.644 127.686 226.743 125.453 228.941C123.217 231.137 122.102 234.369 122.102 238.635V269.004H114.9V197.868H122.102V225.244C125.636 221.248 130.237 219.252 135.906 219.252C141.508 219.252 145.859 220.883 148.962 224.148C152.061 227.412 153.611 231.841 153.611 237.434V269.006H146.409V269.004Z" fill="black" stroke="black" stroke-width="2"/>
<path d="M201.676 240.928C201.614 239.934 201.546 239.065 201.479 238.333C201.414 237.601 201.326 236.932 201.228 236.335C201.128 235.735 200.993 235.151 200.828 234.586C200.663 234.022 200.446 233.402 200.178 232.738C199.243 230.475 197.742 228.674 195.674 227.343C193.606 226.011 191.273 225.342 188.675 225.342C186.074 225.342 183.738 226.011 181.67 227.343C179.602 228.674 178.102 230.475 177.167 232.738C176.634 234.069 176.269 235.271 176.069 236.335C175.869 237.399 175.734 238.932 175.671 240.928H201.676ZM175.671 246.326C175.671 251.721 176.904 255.9 179.37 258.865C181.838 261.83 185.439 263.311 190.17 263.311C193.039 263.311 195.424 262.859 197.322 261.96C199.223 261.063 201.138 259.647 203.074 257.716L207.978 262.012C206.708 263.279 205.457 264.378 204.224 265.309C202.992 266.241 201.674 267.025 200.273 267.657C198.873 268.289 197.322 268.771 195.622 269.106C193.921 269.438 192.038 269.606 189.973 269.606C186.704 269.606 183.753 269.106 181.12 268.104C178.484 267.108 176.234 265.574 174.368 263.508C172.5 261.445 171.05 258.83 170.017 255.663C168.982 252.501 168.467 248.754 168.467 244.423C168.467 236.432 170.267 230.235 173.868 225.841C177.467 221.445 182.403 219.247 188.675 219.247C195.074 219.247 200.043 221.38 203.577 225.642C207.113 229.905 208.878 235.698 208.878 243.024V246.323H175.671V246.326Z" fill="black" stroke="black" stroke-width="2"/>
<path d="M259.624 254.616C259.624 257.014 259.142 259.13 258.174 260.961C257.206 262.792 255.838 264.358 254.07 265.656C252.305 266.955 250.204 267.94 247.768 268.606C245.335 269.273 242.617 269.606 239.616 269.606C235.415 269.606 231.681 269.071 228.415 268.004C225.149 266.938 222.146 265.107 219.41 262.509L224.212 257.713C226.145 259.777 228.413 261.245 231.014 262.11C233.614 262.979 236.45 263.411 239.514 263.411C243.582 263.411 246.783 262.697 249.119 261.263C251.454 259.832 252.62 257.651 252.62 254.719C252.62 252.588 251.967 250.922 250.669 249.725C249.366 248.526 247.283 247.795 244.417 247.525L236.315 246.828C231.516 246.428 227.865 245.144 225.362 242.979C222.861 240.816 221.611 237.701 221.611 233.637C221.611 231.374 222.064 229.358 222.961 227.592C223.862 225.829 225.112 224.328 226.715 223.099C228.315 221.865 230.231 220.918 232.467 220.249C234.7 219.584 237.115 219.252 239.716 219.252C243.25 219.252 246.536 219.684 249.569 220.553C252.602 221.418 255.221 222.749 257.421 224.547L252.72 229.243C250.987 227.912 249.001 226.93 246.766 226.296C244.53 225.661 242.147 225.344 239.616 225.344C236.015 225.344 233.282 226.061 231.416 227.492C229.548 228.924 228.615 230.907 228.615 233.442C228.615 235.57 229.266 237.236 230.563 238.435C231.866 239.632 234.082 240.366 237.215 240.633L245.115 241.33C247.251 241.533 249.219 241.902 251.017 242.432C252.815 242.961 254.35 243.763 255.618 244.827C256.889 245.894 257.869 247.225 258.572 248.824C259.274 250.422 259.624 252.353 259.624 254.616Z" fill="black" stroke="black" stroke-width="2"/>
<path d="M309.245 254.616C309.245 257.014 308.763 259.13 307.795 260.961C306.827 262.792 305.459 264.358 303.691 265.656C301.926 266.955 299.825 267.94 297.389 268.606C294.956 269.273 292.238 269.606 289.237 269.606C285.036 269.606 281.302 269.071 278.036 268.004C274.77 266.938 271.767 265.107 269.031 262.509L273.832 257.713C275.765 259.777 278.034 261.245 280.634 262.11C283.235 262.979 286.071 263.411 289.134 263.411C293.203 263.411 296.404 262.697 298.74 261.263C301.075 259.832 302.241 257.651 302.241 254.719C302.241 252.588 301.588 250.922 300.29 249.725C298.987 248.526 296.904 247.795 294.038 247.525L285.936 246.828C281.137 246.428 277.486 245.144 274.983 242.979C272.482 240.816 271.232 237.701 271.232 233.637C271.232 231.374 271.684 229.358 272.582 227.592C273.482 225.829 274.733 224.328 276.336 223.099C277.936 221.865 279.852 220.918 282.087 220.249C284.32 219.584 286.736 219.252 289.337 219.252C292.87 219.252 296.156 219.684 299.19 220.553C302.223 221.418 304.841 222.749 307.042 224.547L302.341 229.243C300.608 227.912 298.622 226.93 296.386 226.296C294.151 225.661 291.768 225.344 289.237 225.344C285.636 225.344 282.903 226.061 281.037 227.492C279.169 228.924 278.236 230.907 278.236 233.442C278.236 235.57 278.886 237.236 280.184 238.435C281.487 239.632 283.703 240.366 286.836 240.633L294.736 241.33C296.872 241.533 298.84 241.902 300.638 242.432C302.436 242.961 303.971 243.763 305.239 244.827C306.509 245.894 307.49 247.225 308.192 248.824C308.898 250.422 309.245 252.353 309.245 254.616Z" fill="black" stroke="black" stroke-width="2"/>
<path d="M351.265 246.326H337.461C330.126 246.326 326.46 249.221 326.46 255.016C326.46 257.878 327.358 259.996 329.161 261.363C330.961 262.727 333.827 263.408 337.763 263.408C339.896 263.408 341.88 263.241 343.715 262.909C345.548 262.574 347.231 261.643 348.767 260.114C350.432 258.513 351.265 255.683 351.265 251.619V246.326ZM351.265 269.004V264.31C349.264 266.308 347.216 267.692 345.115 268.457C343.015 269.221 340.329 269.606 337.061 269.606C333.662 269.606 330.876 269.256 328.708 268.554C326.543 267.855 324.692 266.706 323.159 265.107C321.959 263.911 321.039 262.427 320.406 260.661C319.771 258.897 319.453 257.052 319.453 255.116C319.453 250.787 320.904 247.34 323.804 244.775C326.705 242.21 330.924 240.926 336.46 240.926H351.262V236.232C351.262 232.638 350.297 229.938 348.364 228.139C346.431 226.341 343.197 225.442 338.661 225.442C335.463 225.442 332.959 225.856 331.159 226.691C329.356 227.522 327.723 228.971 326.255 231.037L321.356 226.541C323.557 223.678 326.005 221.745 328.706 220.748C331.407 219.749 334.757 219.247 338.759 219.247C345.428 219.247 350.379 220.631 353.615 223.391C356.849 226.156 358.464 230.235 358.464 235.63V268.999H351.265V269.004Z" fill="black" stroke="black" stroke-width="2"/>
<path d="M388.219 269.004C383.885 269.004 380.717 267.755 378.714 265.257C376.713 262.759 375.715 259.647 375.715 255.915V197.868H382.915V255.618C382.915 258.016 383.383 259.814 384.318 261.013C385.251 262.21 386.984 262.809 389.519 262.809H393.423V269.004H388.219Z" fill="black" stroke="black" stroke-width="2"/>
<path d="M436.021 244.425C436.021 243.026 435.989 241.63 435.921 240.229C435.856 238.83 435.686 237.466 435.421 236.132C435.156 234.799 434.753 233.55 434.223 232.386C433.691 231.219 432.99 230.168 432.123 229.236C429.722 226.84 426.721 225.642 423.12 225.642C419.584 225.642 416.616 226.84 414.212 229.236C413.28 230.168 412.562 231.219 412.064 232.386C411.564 233.55 411.164 234.801 410.866 236.132C410.566 237.464 410.381 238.83 410.314 240.229C410.246 241.63 410.214 243.026 410.214 244.425C410.214 245.826 410.246 247.223 410.314 248.621C410.379 250.023 410.566 251.386 410.866 252.72C411.164 254.052 411.564 255.318 412.064 256.517C412.562 257.716 413.28 258.753 414.212 259.614C416.616 262.012 419.581 263.209 423.12 263.209C426.718 263.209 429.722 262.012 432.123 259.614C432.99 258.75 433.691 257.716 434.223 256.517C434.756 255.321 435.156 254.054 435.421 252.72C435.686 251.386 435.856 250.023 435.921 248.621C435.989 247.223 436.021 245.826 436.021 244.425ZM443.223 244.425C443.223 248.224 442.841 251.804 442.073 255.168C441.305 258.53 439.69 261.478 437.224 264.01C435.491 265.741 433.455 267.108 431.122 268.107C428.787 269.106 426.121 269.608 423.122 269.608C420.119 269.608 417.451 269.108 415.118 268.107C412.782 267.11 410.749 265.744 409.016 264.01C407.751 262.744 406.735 261.36 405.968 259.862C405.197 258.363 404.6 256.797 404.165 255.168C403.732 253.537 403.432 251.821 403.264 250.02C403.099 248.219 403.014 246.356 403.014 244.425C403.014 242.562 403.097 240.713 403.264 238.88C403.432 237.049 403.734 235.316 404.165 233.684C404.6 232.053 405.197 230.49 405.968 228.989C406.735 227.49 407.751 226.109 409.016 224.845C410.749 223.114 412.784 221.747 415.118 220.748C417.453 219.749 420.119 219.247 423.122 219.247C426.121 219.247 428.789 219.747 431.122 220.748C433.458 221.745 435.491 223.111 437.224 224.845C439.69 227.375 441.308 230.32 442.073 233.684C442.838 237.049 443.223 240.631 443.223 244.425Z" fill="black" stroke="black" stroke-width="2"/>
<path d="M490.064 269.004V238.733C490.064 234.336 488.981 231.057 486.813 228.894C484.648 226.728 481.694 225.644 477.961 225.644C474.227 225.644 471.259 226.743 469.058 228.941C466.855 231.137 465.757 234.401 465.757 238.733V269.004H458.555V219.847H465.757V225.242C467.49 223.246 469.526 221.747 471.857 220.748C474.192 219.749 476.758 219.247 479.559 219.247C484.895 219.247 489.097 220.778 492.162 223.843C495.563 227.173 497.264 231.734 497.264 237.529V269.001H490.064V269.004Z" fill="black" stroke="black" stroke-width="2"/>
<path d="M514.42 205.861V197.768H522.523V205.861H514.42ZM514.82 269.004V219.847H522.023V269.004H514.82Z" fill="black" stroke="black" stroke-width="2"/>
<path d="M572.631 269.004L557.026 243.826L547.423 254.816V269.004H540.221V197.868H547.423V245.427L569.63 219.849H578.635L561.93 238.635L581.533 269.004H572.631Z" fill="black" stroke="black" stroke-width="2"/>
<path d="M593.352 205.861V197.768H601.454V205.861H593.352ZM593.752 269.004V219.847H600.954V269.004H593.752Z" fill="black" stroke="black" stroke-width="2"/>
<path d="M96.2122 133.553C96.2122 130.553 96.1297 127.972 95.9621 125.807C95.7946 123.641 95.547 121.778 95.2119 120.212C94.8793 118.648 94.3791 117.282 93.7115 116.115C93.0438 114.951 92.2085 113.835 91.2107 112.771C89.6753 111.172 87.8248 109.923 85.6566 109.024C83.4885 108.125 81.2379 107.673 78.9072 107.673C76.5715 107.673 74.3234 108.122 72.1552 109.024C69.9896 109.923 68.1391 111.172 66.6011 112.771C65.6033 113.835 64.7706 114.951 64.1029 116.115C63.4327 117.282 62.9326 118.648 62.6 120.212C62.2674 121.778 62.0198 123.644 61.8498 125.807C61.6847 127.972 61.5997 130.553 61.5997 133.553H96.2122ZM61.6047 140.244C61.6047 143.309 61.6872 145.939 61.8548 148.137C62.0223 150.335 62.2724 152.234 62.605 153.832C62.9376 155.431 63.4377 156.812 64.1079 157.979C64.7756 159.143 65.6083 160.259 66.6061 161.323C68.1416 162.924 69.9921 164.173 72.1602 165.07C74.3284 165.967 76.579 166.419 78.9122 166.419C81.2454 166.419 83.4935 165.969 85.6616 165.07C87.8273 164.171 89.6778 162.922 91.2157 161.323C92.2135 160.259 93.0488 159.143 93.7164 157.979C94.3841 156.812 94.8843 155.428 95.2169 153.832C95.552 152.234 95.7996 150.335 95.9671 148.137C96.1322 145.939 96.2172 143.307 96.2172 140.244H61.6047ZM103.817 137.05C103.817 140.846 103.782 144.158 103.717 146.988C103.649 149.821 103.397 152.351 102.964 154.582C102.529 156.815 101.866 158.828 100.964 160.626C100.066 162.425 98.7804 164.158 97.1124 165.822C94.7117 168.217 91.9785 170.048 88.9126 171.317C85.8417 172.583 82.5082 173.215 78.9097 173.215C71.7076 173.215 65.6384 170.75 60.7044 165.822C59.039 164.156 57.7536 162.425 56.8533 160.626C55.9531 158.828 55.2854 156.812 54.8527 154.582C54.4176 152.351 54.17 149.821 54.1 146.988C54.035 144.158 54 140.844 54 137.05C54 133.253 54.035 129.938 54.1 127.108C54.1675 124.278 54.4176 121.748 54.8527 119.515C55.2854 117.282 55.9506 115.269 56.8533 113.47C57.7536 111.672 59.039 109.941 60.7044 108.272C65.6409 103.344 71.7076 100.881 78.9097 100.881C86.1118 100.881 92.181 103.344 97.1124 108.272C98.7804 109.938 100.066 111.672 100.964 113.47C101.864 115.269 102.529 117.284 102.964 119.515C103.397 121.748 103.647 124.278 103.717 127.108C103.782 129.938 103.817 133.253 103.817 137.05Z" fill="black" stroke="black" stroke-width="2"/>
<path d="M156.469 165.322C153.133 168.452 149.799 170.55 146.463 171.617C143.13 172.683 139.461 173.215 135.462 173.215C133.127 173.215 130.894 172.916 128.758 172.316C126.622 171.717 124.724 170.832 123.059 169.666C121.391 168.502 120.076 167.036 119.108 165.27C118.14 163.504 117.66 161.423 117.66 159.025C117.66 155.958 118.375 153.51 119.808 151.679C121.241 149.848 123.194 148.432 125.66 147.433C123.524 146.566 121.806 145.25 120.506 143.486C119.205 141.72 118.558 139.475 118.558 136.742C118.558 134.544 119.058 132.578 120.061 130.847C121.058 129.116 122.376 127.65 124.009 126.451C125.642 125.252 127.508 124.353 129.611 123.754C131.711 123.154 133.862 122.857 136.063 122.857C138.198 122.857 140.131 122.972 141.862 123.207C143.595 123.439 145.23 123.839 146.763 124.403C148.299 124.97 149.749 125.704 151.115 126.601C152.482 127.5 153.865 128.617 155.266 129.948L150.764 134.744C148.561 132.746 146.328 131.28 144.06 130.348C141.792 129.416 139.224 128.949 136.358 128.949C135.092 128.949 133.842 129.149 132.609 129.549C131.374 129.951 130.258 130.498 129.256 131.2C128.258 131.899 127.455 132.731 126.855 133.697C126.255 134.664 125.955 135.746 125.955 136.945C125.955 139.275 126.722 141.158 128.258 142.59C129.791 144.023 132.059 144.738 135.06 144.738H143.762V150.433H135.26C133.329 150.433 131.711 150.665 130.411 151.13C129.111 151.597 128.075 152.211 127.31 152.978C126.542 153.745 125.992 154.627 125.66 155.626C125.325 156.625 125.16 157.656 125.16 158.723C125.16 161.188 126.175 163.189 128.21 164.72C130.243 166.251 132.762 167.016 135.765 167.016C138.101 167.016 140.634 166.616 143.367 165.819C146.101 165.023 148.801 163.386 151.467 160.924L156.469 165.322Z" fill="black" stroke="black" stroke-width="2"/>
<path d="M200.2 148.037C200.2 144.84 199.95 142.043 199.449 139.645C198.952 137.247 197.934 135.181 196.399 133.45C195.266 132.251 193.898 131.317 192.297 130.653C190.694 129.988 188.961 129.656 187.096 129.656C185.228 129.656 183.527 130.006 181.994 130.705C180.462 131.404 179.129 132.354 177.993 133.553C176.458 135.284 175.458 137.332 174.99 139.695C174.522 142.06 174.292 144.84 174.292 148.037C174.292 151.235 174.507 154.067 174.942 156.53C175.375 158.995 176.358 161.093 177.896 162.824C179.029 164.023 180.379 164.99 181.944 165.722C183.512 166.454 185.228 166.818 187.098 166.818C188.964 166.818 190.697 166.454 192.3 165.722C193.9 164.99 195.268 164.026 196.401 162.824C197.934 161.093 198.954 158.995 199.452 156.53C199.95 154.067 200.2 151.235 200.2 148.037ZM200.302 129.853C202.635 131.519 204.386 133.965 205.554 137.197C206.722 140.427 207.304 144.041 207.304 148.037C207.304 152.366 206.904 156.08 206.104 159.178C205.304 162.275 203.738 165.023 201.405 167.42C199.802 169.086 197.834 170.468 195.501 171.567C193.165 172.666 190.367 173.215 187.101 173.215C183.9 173.215 181.132 172.666 178.799 171.567C176.463 170.468 174.497 169.084 172.899 167.42C170.634 165.087 169.098 162.357 168.298 159.228C167.498 156.098 167.098 152.366 167.098 148.037C167.098 143.774 167.48 140.127 168.248 137.097C169.016 134.067 170.566 131.352 172.899 128.954C174.5 127.288 176.465 125.957 178.799 124.958C181.134 123.958 183.9 123.459 187.101 123.459H209.307V129.853H200.302Z" fill="black" stroke="black" stroke-width="2"/>
<path d="M254.903 148.037C254.903 144.84 254.653 142.043 254.153 139.645C253.655 137.247 252.637 135.181 251.102 133.45C249.969 132.251 248.601 131.317 247.001 130.653C245.398 129.988 243.665 129.656 241.799 129.656C239.931 129.656 238.231 130.006 236.698 130.705C235.165 131.404 233.832 132.354 232.697 133.553C231.161 135.284 230.161 137.332 229.693 139.695C229.226 142.06 228.996 144.84 228.996 148.037C228.996 151.235 229.211 154.067 229.646 156.53C230.078 158.995 231.061 161.093 232.599 162.824C233.732 164.023 235.082 164.99 236.648 165.722C238.216 166.454 239.931 166.818 241.802 166.818C243.667 166.818 245.4 166.454 247.003 165.722C248.604 164.99 249.972 164.026 251.104 162.824C252.637 161.093 253.658 158.995 254.155 156.53C254.653 154.067 254.903 151.235 254.903 148.037ZM255.006 129.853C257.339 131.519 259.089 133.965 260.257 137.197C261.425 140.427 262.008 144.041 262.008 148.037C262.008 152.366 261.607 156.08 260.807 159.178C260.007 162.275 258.442 165.023 256.108 167.42C254.505 169.086 252.537 170.468 250.204 171.567C247.868 172.666 245.07 173.215 241.804 173.215C238.603 173.215 235.835 172.666 233.502 171.567C231.166 170.468 229.201 169.084 227.603 167.42C225.337 165.087 223.802 162.357 223.001 159.228C222.201 156.098 221.801 152.366 221.801 148.037C221.801 143.774 222.184 140.127 222.951 137.097C223.719 134.067 225.269 131.352 227.603 128.954C229.203 127.288 231.169 125.957 233.502 124.958C235.837 123.958 238.603 123.459 241.804 123.459H264.011V129.853H255.006Z" fill="black" stroke="black" stroke-width="2"/>
<path d="M308.406 148.037C308.406 145.639 308.271 143.307 308.006 141.044C307.741 138.78 307.173 136.78 306.305 135.049C305.437 133.318 304.187 131.919 302.554 130.852C300.921 129.788 298.768 129.254 296.105 129.254C293.437 129.254 291.283 129.786 289.65 130.852C288.017 131.919 286.767 133.315 285.899 135.049C285.032 136.782 284.449 138.78 284.149 141.044C283.849 143.309 283.699 145.639 283.699 148.037C283.699 150.435 283.849 152.768 284.149 155.031C284.449 157.297 285.034 159.295 285.899 161.026C286.765 162.757 288.017 164.156 289.65 165.222C291.283 166.289 293.437 166.821 296.105 166.821C298.768 166.821 300.921 166.289 302.554 165.222C304.187 164.158 305.437 162.76 306.305 161.026C307.173 159.293 307.738 157.297 308.006 155.031C308.271 152.768 308.406 150.435 308.406 148.037ZM308.506 172.616V166.721C306.44 169.319 304.287 171.05 302.054 171.916C299.821 172.783 297.305 173.215 294.499 173.215C291.966 173.215 289.665 172.833 287.6 172.066C285.532 171.3 283.831 170.25 282.496 168.919C281.231 167.653 280.215 166.219 279.447 164.62C278.677 163.022 278.08 161.306 277.644 159.475C277.212 157.644 276.912 155.763 276.744 153.83C276.579 151.897 276.494 149.966 276.494 148.035C276.494 146.172 276.577 144.256 276.744 142.29C276.912 140.324 277.214 138.426 277.644 136.595C278.08 134.764 278.677 133.048 279.447 131.449C280.215 129.851 281.231 128.42 282.496 127.153C283.831 125.819 285.532 124.77 287.6 124.006C289.665 123.242 291.966 122.859 294.499 122.859C297.303 122.859 299.803 123.277 302.004 124.108C304.205 124.94 306.335 126.621 308.406 129.154V123.459H315.608V172.616H308.506Z" fill="black" stroke="black" stroke-width="2"/>
<path d="M370.519 172.616C368.786 172.616 367.235 172.384 365.867 171.916C364.5 171.449 363.182 170.65 361.914 169.519C361.181 168.854 360.513 168.02 359.913 167.021C359.313 166.022 358.78 164.823 358.313 163.424L348.61 133.25L348.51 133.353L334.003 172.618H326.201L345.309 124.361L341.61 112.671C340.943 110.605 340.108 109.224 339.11 108.524C338.109 107.825 336.542 107.475 334.406 107.475H332.605V101.283H334.906C338.107 101.283 340.743 101.9 342.808 103.132C344.876 104.363 346.479 106.644 347.612 109.973L364.317 160.631C365.582 164.493 367.816 166.424 371.016 166.424H373.32V172.618H370.519V172.616Z" fill="black" stroke="black" stroke-width="2"/>
<path d="M411.88 148.037C411.88 146.639 411.847 145.24 411.78 143.841C411.712 142.442 411.545 141.078 411.28 139.745C411.014 138.411 410.612 137.162 410.082 135.998C409.547 134.831 408.849 133.782 407.981 132.851C405.578 130.455 402.58 129.256 398.978 129.256C395.442 129.256 392.474 130.455 390.071 132.851C389.138 133.785 388.42 134.831 387.923 135.998C387.423 137.164 387.023 138.413 386.722 139.745C386.422 141.076 386.24 142.442 386.172 143.841C386.105 145.24 386.07 146.639 386.07 148.037C386.07 149.436 386.105 150.835 386.172 152.234C386.237 153.632 386.422 154.996 386.722 156.33C387.023 157.664 387.423 158.928 387.923 160.129C388.42 161.328 389.138 162.362 390.071 163.227C392.474 165.622 395.44 166.821 398.978 166.821C402.577 166.821 405.578 165.625 407.981 163.227C408.849 162.36 409.547 161.328 410.082 160.129C410.614 158.93 411.014 157.664 411.28 156.33C411.545 154.996 411.712 153.632 411.78 152.234C411.845 150.835 411.88 149.436 411.88 148.037ZM419.082 148.037C419.082 151.837 418.699 155.416 417.931 158.778C417.164 162.143 415.548 165.09 413.083 167.623C411.35 169.354 409.314 170.72 406.981 171.719C404.645 172.718 401.979 173.218 398.981 173.218C395.978 173.218 393.309 172.718 390.976 171.719C388.641 170.72 386.607 169.356 384.874 167.623C383.609 166.356 382.594 164.973 381.826 163.474C381.056 161.975 380.458 160.409 380.023 158.778C379.59 157.147 379.29 155.433 379.123 153.633C378.958 151.834 378.873 149.968 378.873 148.037C378.873 146.174 378.955 144.326 379.123 142.492C379.29 140.661 379.593 138.928 380.023 137.297C380.458 135.666 381.056 134.1 381.826 132.601C382.594 131.102 383.609 129.721 384.874 128.455C386.607 126.724 388.643 125.357 390.976 124.358C393.312 123.359 395.978 122.859 398.981 122.859C401.979 122.859 404.648 123.359 406.981 124.358C409.317 125.357 411.35 126.724 413.083 128.455C415.548 130.985 417.166 133.932 417.931 137.297C418.697 140.661 419.082 144.241 419.082 148.037Z" fill="black" stroke="black" stroke-width="2"/>
<path d="M450.922 172.616H444.618L426.615 123.459H434.317L447.821 162.927L461.222 123.459H468.925L450.922 172.616Z" fill="black" stroke="black" stroke-width="2"/>
<path d="M478.957 115.166V101.478H486.556V111.369L478.957 115.166ZM491.46 172.616C487.126 172.616 483.956 171.382 481.955 168.919C479.954 166.454 478.957 163.324 478.957 159.525V123.459H486.156V159.228C486.156 161.626 486.624 163.424 487.557 164.623C488.489 165.822 490.225 166.421 492.761 166.421H496.664V172.616H491.46Z" fill="black" stroke="black" stroke-width="2"/>
<path d="M541.262 172.616L525.657 147.435L516.054 158.326V172.613H508.852V123.456H516.054V149.034L538.261 123.456H547.163L530.561 142.242L550.164 172.616H541.262Z" fill="black" stroke="black" stroke-width="2"/>
<path d="M593.892 172.616V142.342C593.892 137.949 592.809 134.669 590.641 132.503C588.475 130.338 585.522 129.256 581.788 129.256C578.055 129.256 575.086 130.355 572.883 132.553C570.683 134.749 569.585 138.014 569.585 142.342V172.618H562.383V123.461H569.585V128.859C571.318 126.861 573.351 125.362 575.684 124.363C578.02 123.364 580.585 122.864 583.386 122.864C588.723 122.864 592.921 124.396 595.99 127.458C599.391 130.787 601.091 135.351 601.091 141.146V172.618H593.892V172.616Z" fill="black" stroke="black" stroke-width="2"/>
</svg>
