<svg width="655" height="200" viewBox="0 0 655 200" fill="none" xmlns="http://www.w3.org/2000/svg">
<rect x="5" y="5" width="645" height="190" rx="15" fill="#0C479D" stroke="white" stroke-width="10"/>
<path d="M124.948 117.674H154.461V125.052H133.064V136.857C133.085 137.184 133.238 137.348 133.525 137.348H152.616V144.604H133.064V156.9C133.064 157.31 133.228 157.515 133.556 157.515H155.813V164.77H124.948V117.674Z" fill="white"/>
<path d="M161.623 130.708H169.493V131.2L169.739 131.569V131.938C170.046 132.532 170.251 133.065 170.354 133.537V133.905C170.6 134.356 170.763 134.807 170.845 135.258L170.968 135.627C171.194 136.16 171.317 136.611 171.337 136.98C171.686 137.738 171.932 138.394 172.075 138.947L172.198 139.685C172.526 140.32 172.731 140.894 172.813 141.406L172.936 142.021L173.305 142.759L173.551 143.62L173.674 143.866L173.797 144.235L174.043 145.464C174.289 145.854 174.411 146.223 174.411 146.571L175.026 148.17V148.539L175.272 148.907L175.395 149.768C175.477 149.871 175.518 149.994 175.518 150.137L175.764 150.629L176.01 151.613C176.092 151.674 176.133 151.736 176.133 151.797V151.859C176.276 152.535 176.522 153.109 176.871 153.58L177.24 152.105L177.609 150.998L177.732 150.506L178.101 149.645L178.715 147.432L179.207 145.956L179.822 144.235C179.966 143.476 180.17 142.821 180.437 142.267L180.929 140.546L181.052 140.054L181.298 139.685L181.544 138.824L181.667 138.578L182.159 136.611L182.404 136.242V135.873L182.527 135.627L183.265 133.291L183.388 132.799C183.552 132.409 183.685 132.056 183.788 131.738C183.89 131.42 183.962 131.118 184.003 130.831L184.618 130.708H191.996L191.75 131.692C191.565 132.102 191.443 132.43 191.381 132.676L190.889 134.151L190.766 134.643L190.643 135.012L190.52 135.504L190.151 136.365L189.537 138.578C189.434 138.804 189.337 139.029 189.245 139.255C189.152 139.48 189.086 139.705 189.045 139.931L188.43 142.021L188.184 142.759L188.061 143.005C187.815 143.948 187.569 144.686 187.323 145.218L187.077 146.079L186.954 146.448L186.831 146.94L186.462 148.047L186.339 148.539L185.356 151.613L185.233 151.859C184.987 152.801 184.741 153.539 184.495 154.072L184.372 154.81L184.126 155.179L184.003 155.917L183.634 157.023L183.019 158.622L182.896 159.36L182.159 161.45L181.298 164.155H172.198L171.952 163.172C171.706 162.721 171.542 162.27 171.46 161.819L171.337 161.45C171.214 161.02 171.091 160.692 170.968 160.466V160.098L170.6 159.237V158.868C170.374 158.519 170.251 158.192 170.231 157.884L169.985 157.023C169.657 156.245 169.411 155.548 169.247 154.933L169.001 153.949C168.919 153.847 168.878 153.724 168.878 153.58L168.14 151.613V151.244C167.833 150.65 167.669 150.117 167.648 149.645C167.566 149.543 167.525 149.42 167.525 149.276C167.382 148.989 167.259 148.723 167.156 148.477C167.054 148.231 166.972 148.006 166.911 147.801L166.788 146.94C166.644 146.674 166.562 146.428 166.542 146.202C166.46 146.1 166.419 145.977 166.419 145.833C166.378 145.792 166.347 145.756 166.326 145.726C166.306 145.695 166.295 145.659 166.295 145.618V145.587C165.845 144.522 165.558 143.579 165.435 142.759C165.291 142.513 165.209 142.308 165.189 142.144L164.943 141.652L164.451 139.685L164.205 139.193L163.713 137.471L163.467 136.98L163.344 136.488C163.303 136.283 163.247 136.098 163.175 135.934C163.103 135.77 163.037 135.627 162.975 135.504V135.012C162.893 134.91 162.852 134.787 162.852 134.643C162.709 134.356 162.586 134.09 162.483 133.844C162.381 133.598 162.299 133.373 162.237 133.168V132.799C161.848 132.04 161.643 131.344 161.623 130.708H161.623Z" fill="white"/>
<path d="M216.098 130.339V138.209C215.934 138.189 215.76 138.179 215.575 138.179H215.053C210.974 138.179 208.043 139.869 206.26 143.251L205.892 145.218L205.769 146.079V164.524H198.268V131.077H205.769V132.952C205.769 133.526 205.809 134.008 205.892 134.397C208.269 131.692 211.138 130.339 214.499 130.339H216.098Z" fill="white"/>
<path d="M252.742 137.718C254.156 141.099 254.863 144.43 254.863 147.709C254.863 149.717 254.607 151.674 254.095 153.58C252.681 159.688 249.115 163.5 243.397 165.016C242.556 165.242 241.737 165.401 240.937 165.493C240.138 165.585 239.349 165.641 238.57 165.662C235.537 165.662 232.76 164.832 230.239 163.172C225.505 159.872 223.004 155.486 222.738 150.014C222.718 149.727 222.707 149.446 222.707 149.169C222.707 148.892 222.707 148.621 222.707 148.354C222.707 138.107 227.39 131.938 236.756 129.848C236.94 129.827 237.125 129.817 237.309 129.817C237.494 129.817 237.678 129.817 237.863 129.817C244.503 129.817 249.463 132.451 252.742 137.718L252.742 137.718ZM230.362 149.4C231.038 154.892 233.826 157.884 238.724 158.376C243.745 157.905 246.532 155.281 247.086 150.506C247.168 149.891 247.239 149.297 247.301 148.723C247.362 148.149 247.383 147.596 247.362 147.063C247.362 140.853 244.278 137.533 238.109 137.103C232.883 138.394 230.27 141.868 230.27 147.524C230.27 148.119 230.301 148.744 230.362 149.4V149.4Z" fill="white"/>
<path d="M274.754 118.288V131.077H283.608V137.471H274.754V154.687C274.754 155.076 274.764 155.43 274.785 155.747C274.805 156.065 274.836 156.367 274.877 156.654C276.066 157.72 277.47 158.253 279.089 158.253C280.216 158.253 281.435 158.007 282.747 157.515L282.87 157.884V158.622C282.911 158.806 282.942 158.986 282.962 159.16C282.983 159.334 282.993 159.503 282.993 159.667V159.974C283.075 160.2 283.131 160.42 283.162 160.635C283.193 160.851 283.218 161.04 283.239 161.204L283.608 164.278C282.337 164.586 281.143 164.821 280.026 164.985C278.909 165.149 277.859 165.231 276.875 165.231C272.879 165.231 269.999 163.93 268.237 161.327L268.114 161.081L267.868 160.343C267.642 159.811 267.478 159.319 267.376 158.868V158.499C267.335 158.068 267.304 157.674 267.284 157.315C267.263 156.957 267.253 156.624 267.253 156.316V137.471H261.351V131.077H267.253V120.379L267.745 120.133L268.729 119.887L269.098 119.641L269.712 119.518C269.815 119.436 269.938 119.395 270.081 119.395C270.184 119.313 270.307 119.272 270.45 119.272C270.553 119.19 270.676 119.149 270.819 119.149L271.188 118.903L272.172 118.657C272.254 118.575 272.325 118.534 272.387 118.534H272.418C272.5 118.452 272.571 118.411 272.633 118.411H272.664L274.508 117.674C274.672 117.879 274.754 118.084 274.754 118.288V118.288Z" fill="white"/>
<path d="M313.611 134.028L313.98 134.766C314.943 135.955 315.558 137.185 315.825 138.455C315.907 138.988 315.968 139.485 316.009 139.946C316.05 140.407 316.07 140.812 316.07 141.161V157.392C316.829 158.888 317.935 159.79 319.391 160.098L319.145 160.466C319.063 160.61 318.981 160.692 318.899 160.712L318.776 161.081L318.53 161.327C318.325 161.778 318.079 162.147 317.792 162.434C317.505 163.192 317.136 163.766 316.685 164.155C316.501 164.565 316.327 164.919 316.163 165.216C315.999 165.513 315.845 165.775 315.702 166C313.304 165.385 311.418 164.278 310.045 162.68H309.676C307.032 164.586 304.307 165.539 301.499 165.539C299.982 165.539 298.486 165.283 297.01 164.77C292.604 163.192 289.94 160.323 289.018 156.163V156.009C289.018 148.077 293.66 144.112 302.944 144.112H303.036C303.22 144.03 303.425 143.989 303.651 143.989L304.02 143.866H304.88L305.249 143.743H305.618L308.692 143.374C308.733 143.149 308.754 142.944 308.754 142.759V142.144C308.754 138.722 306.94 137.01 303.313 137.01C300.792 137.01 297.338 137.861 292.953 139.562L292.461 138.455L292.215 137.717L291.969 137.471L291.846 137.226L291.6 136.488C291.374 136.119 291.211 135.75 291.108 135.381C290.678 134.807 290.391 134.233 290.247 133.66L290.616 133.537L290.862 133.414L291.231 133.291L291.477 133.045H291.846C291.928 132.963 292 132.922 292.061 132.922H292.092C292.83 132.532 293.485 132.245 294.059 132.061L294.674 131.938C295.125 131.733 295.535 131.61 295.904 131.569L296.887 131.323C297.605 131.036 298.302 130.872 298.978 130.831L301.683 130.339C302.093 130.298 302.488 130.263 302.867 130.232C303.246 130.201 303.62 130.186 303.989 130.186C307.903 130.186 311.111 131.467 313.611 134.028H313.611ZM305.741 149.645H305.003C304.819 149.686 304.64 149.717 304.465 149.738C304.291 149.758 304.122 149.768 303.958 149.768H303.774L303.282 149.891H302.913C302.81 149.973 302.687 150.014 302.544 150.014H302.175L300.208 150.506H299.839C299.265 150.834 298.773 151.039 298.363 151.121C297.031 152.392 296.365 153.621 296.365 154.81C296.365 155.896 296.908 156.962 297.994 158.007C299.572 158.97 301.109 159.452 302.606 159.452C304.512 159.452 306.336 158.683 308.078 157.146C308.242 156.675 308.405 156.347 308.569 156.163L308.692 155.794L308.569 155.302V149.522H306.11C306.008 149.604 305.885 149.645 305.741 149.645V149.645Z" fill="white"/>
<path d="M351.731 135.135L351.362 135.627L350.994 135.996L350.625 136.242L350.133 136.98L349.887 137.226L349.641 137.349C349.374 137.718 349.129 138.004 348.903 138.209L347.305 140.054C343.902 137.861 341.084 136.765 338.851 136.765C336.555 136.765 334.864 137.902 333.778 140.177C333.819 141.509 334.352 142.493 335.377 143.128C335.828 143.251 336.155 143.374 336.36 143.497C337.16 143.62 337.816 143.784 338.328 143.989C346.095 144.563 350.44 147.678 351.362 153.334C351.403 153.58 351.424 153.821 351.424 154.057C351.424 154.293 351.424 154.523 351.424 154.749C351.424 158.868 349.682 161.963 346.198 164.033C343.697 165.16 341.187 165.723 338.666 165.723C333.87 165.723 329.085 163.684 324.31 159.606L324.555 159.114L325.17 158.499C325.58 158.007 325.949 157.638 326.277 157.392C326.359 157.249 326.441 157.167 326.523 157.146L326.769 156.777C326.851 156.634 326.933 156.552 327.015 156.532L327.138 156.286L327.384 156.163L328.982 154.318C332.016 157.187 335.192 158.622 338.512 158.622C339.906 158.622 341.32 158.376 342.755 157.884C343.124 157.392 343.493 157.023 343.861 156.777C343.984 156.286 344.046 155.825 344.046 155.394C344.046 154.328 343.697 153.437 343.001 152.72L340.172 151.736C331.729 151.223 327.138 147.616 326.4 140.915C326.953 134.172 330.765 130.565 337.836 130.094H338.266C343.697 130.094 348.186 131.774 351.731 135.135H351.731Z" fill="white"/>
<path d="M383.334 117.551H397.476C398.193 117.489 398.89 117.459 399.566 117.458C407.334 117.459 412.58 120.85 415.306 127.634C415.859 129.417 416.136 131.149 416.136 132.829C416.136 134.817 415.736 136.734 414.937 138.578C413.503 142.083 411.084 144.337 407.682 145.341L407.928 145.587L408.051 145.956L409.035 147.801L409.404 148.539L409.65 149.276L410.756 151.244L411.248 152.351L411.494 152.719L411.617 153.088L411.986 153.949C412.314 154.441 412.519 154.851 412.601 155.179C412.949 155.65 413.195 156.06 413.339 156.409L413.707 157.146L413.953 157.761C414.281 158.315 414.527 158.847 414.691 159.36C415.245 160.118 415.613 160.856 415.798 161.573L416.044 161.819L416.29 162.311L416.782 163.541C417.069 163.889 417.233 164.258 417.274 164.647H408.666L408.297 163.91C407.785 163.049 407.416 162.27 407.19 161.573L406.452 160.343L406.329 159.852C405.961 159.36 405.715 158.909 405.592 158.499L405.223 157.761L405.1 157.392C405.059 157.351 405.028 157.315 405.008 157.285C404.987 157.254 404.977 157.218 404.977 157.177V157.146L404.731 156.9L404.608 156.654L404.485 156.286L403.747 154.81L403.009 153.457L402.763 152.965L402.64 152.474L402.394 152.228L402.272 151.859L402.026 151.49L401.903 151.244C401.636 150.588 401.39 150.096 401.165 149.768L399.566 146.325H391.45V164.647H383.334V117.551ZM391.45 139.07H402.487C402.897 139.07 403.281 139.06 403.639 139.039C403.998 139.019 404.321 138.988 404.608 138.947C407.19 137.123 408.481 134.93 408.481 132.368C408.481 131.405 408.297 130.401 407.928 129.356C407.088 127.47 405.817 126.118 404.116 125.298L402.886 125.052C402.64 125.011 402.405 124.98 402.179 124.96C401.954 124.939 401.739 124.929 401.534 124.929H391.45V139.07Z" fill="white"/>
<path d="M426.496 131.2H433.997V164.77H426.496V131.2ZM434.735 121.363V121.762C434.735 123.464 434.202 124.847 433.136 125.913C432.009 126.466 430.974 126.743 430.032 126.743C428.392 126.743 427.091 125.851 426.127 124.068C425.943 123.351 425.851 122.715 425.851 122.162C425.851 120.072 427.009 118.658 429.324 117.92H429.632C432.235 117.92 433.936 119.067 434.735 121.363Z" fill="white"/>
<path d="M440.883 130.708H448.753V131.2L448.999 131.569V131.938C449.306 132.532 449.511 133.065 449.614 133.537V133.905C449.859 134.356 450.023 134.807 450.105 135.258L450.228 135.627C450.454 136.16 450.577 136.611 450.597 136.98C450.946 137.738 451.192 138.394 451.335 138.947L451.458 139.685C451.786 140.32 451.991 140.894 452.073 141.406L452.196 142.021L452.565 142.759L452.811 143.62L452.934 143.866L453.057 144.235L453.303 145.464C453.548 145.854 453.671 146.223 453.671 146.571L454.286 148.17V148.539L454.532 148.907L454.655 149.768C454.737 149.871 454.778 149.994 454.778 150.137L455.024 150.629L455.27 151.613C455.352 151.674 455.393 151.736 455.393 151.797V151.859C455.536 152.535 455.782 153.109 456.131 153.58L456.5 152.105L456.869 150.998L456.992 150.506L457.36 149.645L457.975 147.432L458.467 145.956L459.082 144.235C459.225 143.476 459.43 142.821 459.697 142.267L460.189 140.546L460.312 140.054L460.558 139.685L460.804 138.824L460.927 138.578L461.418 136.611L461.664 136.242V135.873L461.787 135.627L462.525 133.291L462.648 132.799C462.812 132.409 462.945 132.056 463.048 131.738C463.15 131.42 463.222 131.118 463.263 130.831L463.878 130.708H471.256L471.01 131.692C470.825 132.102 470.702 132.43 470.641 132.676L470.149 134.151L470.026 134.643L469.903 135.012L469.78 135.504L469.411 136.365L468.796 138.578C468.694 138.804 468.597 139.029 468.504 139.255C468.412 139.48 468.346 139.705 468.305 139.931L467.69 142.021L467.444 142.759L467.321 143.005C467.075 143.948 466.829 144.686 466.583 145.218L466.337 146.079L466.214 146.448L466.091 146.94L465.722 148.047L465.599 148.539L464.616 151.613L464.493 151.859C464.247 152.801 464.001 153.539 463.755 154.072L463.632 154.81L463.386 155.179L463.263 155.917L462.894 157.023L462.279 158.622L462.156 159.36L461.418 161.45L460.558 164.155H451.458L451.212 163.172C450.966 162.721 450.802 162.27 450.72 161.819L450.597 161.45C450.474 161.02 450.351 160.692 450.228 160.466V160.098L449.859 159.237V158.868C449.634 158.519 449.511 158.192 449.491 157.884L449.245 157.023C448.917 156.245 448.671 155.548 448.507 154.933L448.261 153.949C448.179 153.847 448.138 153.724 448.138 153.58L447.4 151.613V151.244C447.093 150.65 446.929 150.117 446.908 149.645C446.826 149.543 446.785 149.42 446.785 149.276C446.642 148.989 446.519 148.723 446.416 148.477C446.314 148.231 446.232 148.006 446.17 147.801L446.047 146.94C445.904 146.674 445.822 146.428 445.802 146.202C445.72 146.1 445.679 145.977 445.679 145.833C445.637 145.792 445.607 145.756 445.586 145.726C445.566 145.695 445.556 145.659 445.556 145.618V145.587C445.105 144.522 444.818 143.579 444.695 142.759C444.551 142.513 444.469 142.308 444.449 142.144L444.203 141.652L443.711 139.685L443.465 139.193L442.973 137.471L442.727 136.98L442.604 136.488C442.563 136.283 442.507 136.098 442.435 135.934C442.364 135.77 442.297 135.627 442.235 135.504V135.012C442.153 134.91 442.113 134.787 442.113 134.643C441.969 134.356 441.846 134.09 441.744 133.844C441.641 133.598 441.559 133.373 441.498 133.168V132.799C441.108 132.04 440.903 131.344 440.883 130.708V130.708Z" fill="white"/>
<path d="M505.318 144.85L505.441 146.694C505.523 146.797 505.564 146.92 505.564 147.063V150.752H483.061C483.533 154.933 485.664 157.392 489.456 158.13C490.07 158.192 490.675 158.222 491.269 158.222C494.364 158.222 496.998 157.208 499.17 155.179C499.436 155.63 499.764 155.999 500.154 156.286L500.277 156.654L500.646 157.023C500.933 157.29 501.178 157.541 501.383 157.777C501.588 158.012 501.752 158.253 501.875 158.499C502.019 158.581 502.101 158.663 502.121 158.745L503.843 160.712C499.949 163.971 495.799 165.6 491.392 165.6C490.634 165.6 489.865 165.549 489.087 165.447C488.308 165.344 487.529 165.201 486.75 165.016C479.659 162.659 475.765 157.577 475.068 149.768C475.068 149.666 475.063 149.461 475.053 149.153C475.043 148.846 475.038 148.651 475.038 148.569C475.038 137.892 479.844 131.815 489.456 130.339C499.006 130.667 504.294 135.504 505.318 144.85V144.85ZM482.938 144.972H497.817V144.604C497.735 144.358 497.694 144.112 497.694 143.866V143.62C497.489 143.169 497.366 142.759 497.326 142.39C495.809 138.886 493.309 137.123 489.824 137.103C485.439 138.148 483.143 140.771 482.938 144.972V144.972Z" fill="white"/>
<path d="M531.634 130.339V138.209C531.47 138.189 531.295 138.179 531.111 138.179H530.588C526.51 138.179 523.579 139.869 521.796 143.251L521.427 145.218L521.304 146.079V164.524H513.803V131.077H521.304V132.952C521.304 133.526 521.345 134.008 521.427 134.397C523.805 131.692 526.674 130.339 530.035 130.339H531.634Z" fill="white"/>
<path d="M38 40.9314H75.1362V87.9051H67.0204V48.1865H46.1159V87.9051H38V40.9314Z" fill="#FFC500"/>
<path d="M116.085 60.8522C117.499 64.2339 118.206 67.5642 118.206 70.8433C118.206 72.8518 117.95 74.8091 117.438 76.715C116.023 82.8225 112.457 86.6344 106.739 88.151C105.899 88.3765 105.079 88.5353 104.28 88.6275C103.481 88.7198 102.692 88.7761 101.913 88.7966C98.8797 88.7966 96.1027 87.9666 93.5819 86.3065C88.8476 83.0069 86.3473 78.6211 86.0809 73.149C86.0604 72.8621 86.0498 72.5803 86.0498 72.3036C86.0498 72.0269 86.0498 71.7554 86.0498 71.4889C86.0498 61.2416 90.7328 55.0728 100.099 52.9823C100.283 52.9618 100.468 52.9516 100.652 52.9515C100.837 52.9516 101.021 52.9516 101.205 52.9515C107.846 52.9516 112.805 55.5851 116.085 60.8522H116.085ZM93.7048 72.5341C94.3812 78.0267 97.1684 81.0189 102.067 81.5108C107.088 81.0394 109.875 78.4161 110.428 73.6409C110.51 73.026 110.582 72.4317 110.644 71.8578C110.705 71.284 110.726 70.7306 110.705 70.1978C110.705 63.9879 107.621 60.6678 101.452 60.2374C96.2255 61.5286 93.6124 65.0024 93.6124 70.6589C93.6124 71.2533 93.6435 71.8783 93.7046 72.5341H93.7048Z" fill="#FFC500"/>
<path d="M125.799 54.3964L146.857 54.335C148.497 54.376 149.87 54.8371 150.977 55.7183V62.5738C150.608 62.2049 149.234 61.795 146.857 61.3441L142.461 61.4056V88.0896H134.96V61.4056L125.737 61.3441L125.799 54.3964Z" fill="#FFC500"/>
<path d="M182.088 58.6081V53.4434H188.667V78.9592C188.543 80.6808 189.425 81.6235 191.31 81.7875L189.896 88.8581C185.879 88.5917 183.481 86.3373 182.703 82.0949C181.637 84.5952 179.813 86.4295 177.231 87.5977C176.452 87.9666 175.622 88.2535 174.74 88.4585C173.859 88.6634 173.029 88.7761 172.25 88.7966C169.217 88.7966 166.44 87.9666 163.919 86.3065C159.185 83.0069 156.685 78.6211 156.418 73.149C156.398 72.8621 156.387 72.5803 156.387 72.3036C156.387 72.0269 156.387 71.7554 156.387 71.4889C156.387 61.2416 161.07 55.0728 170.436 52.9823C170.621 52.9618 170.805 52.9516 170.99 52.9515C171.174 52.9516 171.358 52.9516 171.543 52.9515C178.183 52.9516 181.698 54.8371 182.087 58.6081H182.088ZM164.042 72.5341C164.719 78.0267 167.506 81.0189 172.404 81.5108C177.425 81.0394 180.212 78.4161 180.766 73.6409C180.848 73.026 180.92 72.4317 180.981 71.8578C181.042 71.284 181.063 70.7306 181.042 70.1978C181.042 63.9879 177.958 60.6678 171.789 60.2374C166.563 61.5286 163.95 65.0024 163.95 70.6589C163.95 71.2533 163.981 71.8783 164.042 72.5341H164.042Z" fill="#FFC500"/>
<path d="M208.864 98.2344H201.363V54.1813H208.864V75.9466L208.987 76.6844C210.011 79.7791 211.733 81.3264 214.151 81.3264C214.889 81.3264 215.709 81.1727 216.611 80.8653C218.66 79.984 220.136 78.5904 221.038 76.6844L221.529 74.5939V54.1813H228.908L228.876 80.3426C229.614 81.142 230.209 81.4596 230.66 81.2956L232.566 81.3264V87.9359L229.706 88.2126C228.108 88.3765 226.161 87.2801 223.866 84.9232C221.57 86.9727 218.291 88.2023 214.028 88.6122H213.475C211.753 88.6122 210.216 88.4073 208.863 87.9974L208.864 98.2344Z" fill="#FFC500"/>
<path d="M252.087 33H259.649L255.837 45.1738H250.796L252.087 33ZM267.704 60.8522C269.118 64.2338 269.825 67.5642 269.825 70.8433C269.825 72.8518 269.569 74.809 269.056 76.715C267.642 82.8224 264.076 86.6344 258.358 88.151C257.518 88.3765 256.698 88.5353 255.899 88.6275C255.099 88.7198 254.31 88.7761 253.532 88.7966C250.498 88.7966 247.721 87.9666 245.201 86.3065C240.466 83.0069 237.966 78.621 237.7 73.149C237.679 72.8621 237.668 72.5803 237.668 72.3036C237.668 72.0269 237.668 71.7554 237.668 71.4889C237.668 61.2416 242.351 55.0727 251.718 52.9823C251.902 52.9618 252.086 52.9516 252.271 52.9515C252.455 52.9516 252.64 52.9516 252.824 52.9515C259.464 52.9516 264.424 55.5851 267.703 60.8522H267.704ZM245.323 72.5341C246 78.0267 248.787 81.0189 253.685 81.5108C258.706 81.0394 261.494 78.4161 262.047 73.6408C262.129 73.026 262.201 72.4317 262.262 71.8578C262.324 71.284 262.344 70.7306 262.324 70.1977C262.324 63.9879 259.239 60.6678 253.07 60.2373C247.844 61.5285 245.231 65.0024 245.231 70.6589C245.231 71.2532 245.262 71.8783 245.323 72.5341V72.5341Z" fill="#FFC500"/>
<path d="M309.574 70.1977L302.042 70.2592C301.509 67.6974 300.746 65.5864 299.752 63.9263C298.758 62.2663 296.959 61.1698 294.357 60.6369C291.59 60.2886 288.956 61.5593 286.456 64.449C284.037 68.6504 284.089 72.6161 286.61 76.3461C288.618 79.2973 292.194 81.0291 297.338 81.5415C302.257 82.4637 305.495 83.7651 307.053 85.4457C308.651 86.7369 309.625 89.0835 309.973 92.4856C309.686 96.7895 305.803 99.2898 298.322 99.9866C295.986 99.9866 293.383 99.9866 290.514 99.9866V92.793C291.457 92.793 293.578 92.7828 296.877 92.7623C300.792 92.8237 302.544 92.0962 302.134 90.5796C300.966 89.4934 298.927 88.8581 296.017 88.6736C293.065 88.4892 290.565 88.0178 288.516 87.2595C284.458 85.8658 281.076 82.7404 278.371 77.8832C276.854 74.3171 276.7 69.7981 277.91 64.326C281.332 56.1897 286.569 52.4699 293.619 53.1667C303.661 53.9045 308.979 59.5815 309.574 70.1977V70.1977Z" fill="#FFC500"/>
<path d="M344.036 40.8085H373.548V48.1865H352.152V59.9914C352.172 60.3194 352.326 60.4833 352.613 60.4833H371.703V67.7384H352.152V80.0352C352.152 80.4451 352.315 80.65 352.643 80.65H374.901V87.9051H344.036V40.8085Z" fill="#FFC500"/>
<path d="M385.906 54.2119H393.284V75.4853C393.243 76.6535 393.72 77.8627 394.714 79.1129C395.708 80.3631 397.24 81.0906 399.31 81.2955C401.605 81.1726 403.306 80.5578 404.413 79.451C405.479 78.3853 405.991 76.9405 405.95 75.1164V54.2119H413.451V76.4383C412.959 79.5535 411.688 82.3254 409.639 84.754C407.59 87.1826 404.444 88.5404 400.201 88.8273C395.959 89.1142 392.628 88.356 390.21 86.5524C388.304 85.0973 386.992 83.3758 386.275 81.3878L386.152 80.527C385.968 79.9327 385.875 79.3486 385.875 78.7747V78.498C385.875 78.3956 385.886 78.2931 385.906 78.1906V54.2119Z" fill="#FFC500"/>
<path d="M440.227 53.4741C440.76 53.4742 441.257 53.4998 441.718 53.551C442.179 53.6022 442.584 53.6586 442.933 53.7201C450.864 56.6098 454.83 62.2049 454.83 70.5052C454.83 71.243 454.799 72.0013 454.737 72.7801C454.184 79.9532 450.987 84.8309 445.146 87.4132C443.158 88.151 441.252 88.5199 439.428 88.5199C436.395 88.5199 433.669 87.4952 431.251 85.4457V98.2344H423.873L423.842 66.9083C424.457 62.5225 425.937 59.3817 428.284 57.4859C430.631 55.5902 433.915 54.253 438.137 53.4741H440.227ZM431.343 68.6914C431.22 69.1423 431.174 69.752 431.204 70.5205C431.235 71.2891 431.281 71.8886 431.343 72.3189C431.343 75.2497 432.05 77.5758 433.464 79.2973C435.227 80.527 436.948 81.1419 438.629 81.1419C439.961 81.1419 441.272 80.773 442.564 80.0351C445.576 77.8217 447.083 74.8808 447.083 71.2122C447.103 70.6179 447.052 70.0543 446.929 69.5214C445.453 63.414 442.564 60.6063 438.26 61.0981C434.489 61.3851 432.183 63.9162 431.343 68.6914V68.6914Z" fill="#FFC500"/>
<path d="M484.096 33H491.659L487.847 45.1738H482.805L484.096 33ZM501.557 54.4579C504.857 57.9215 507.081 61.6618 508.228 65.6787C510.36 74.1635 509.11 80.4143 504.478 84.4312C498.78 89.3909 492.222 89.3602 484.803 84.339V73.7023H488C489.455 79.6048 492.601 81.8489 497.438 80.4348C500.881 79.4101 502.254 75.5571 501.557 68.8758C499.672 63.3013 496.464 58.4953 491.935 54.4579H501.557ZM468.049 54.4579H477.763C473.172 58.4953 469.934 63.3013 468.049 68.8758C467.352 75.5571 468.725 79.4101 472.168 80.4348C477.005 81.8489 480.151 79.6048 481.606 73.7023H484.803V84.339C477.384 89.3602 470.826 89.3909 465.128 84.4312C460.496 80.4143 459.246 74.1635 461.378 65.6787C462.525 61.6618 464.749 57.9215 468.049 54.4579V54.4579Z" fill="#FFC500"/>
<path d="M513.885 54.3964L534.943 54.335C536.583 54.376 537.956 54.8371 539.063 55.7183V62.5738C538.694 62.2049 537.321 61.795 534.943 61.3441L530.547 61.4056V88.0896H523.046V61.4056L513.824 61.3441L513.885 54.3964Z" fill="#FFC500"/>
<path d="M570.174 58.6081V53.4434H576.753V78.9592C576.63 80.6808 577.511 81.6235 579.396 81.7875L577.982 88.8581C573.965 88.5917 571.567 86.3373 570.789 82.0949C569.723 84.5952 567.899 86.4295 565.317 87.5977C564.538 87.9666 563.708 88.2535 562.827 88.4585C561.945 88.6634 561.115 88.7761 560.336 88.7966C557.303 88.7966 554.526 87.9666 552.005 86.3065C547.271 83.0069 544.771 78.6211 544.504 73.149C544.484 72.8621 544.474 72.5803 544.474 72.3036C544.474 72.0269 544.474 71.7554 544.474 71.4889C544.474 61.2416 549.157 55.0728 558.523 52.9823C558.707 52.9618 558.892 52.9516 559.076 52.9515C559.26 52.9516 559.445 52.9516 559.629 52.9515C566.27 52.9516 569.784 54.8371 570.174 58.6081V58.6081ZM552.128 72.5341C552.805 78.0267 555.592 81.0189 560.49 81.5108C565.511 81.0394 568.299 78.4161 568.852 73.6409C568.934 73.026 569.006 72.4317 569.067 71.8578C569.129 71.284 569.149 70.7306 569.129 70.1978C569.129 63.9879 566.044 60.6678 559.875 60.2374C554.649 61.5286 552.036 65.0024 552.036 70.6589C552.036 71.2533 552.067 71.8783 552.128 72.5341H552.128Z" fill="#FFC500"/>
<path d="M618.592 70.1977L611.06 70.2592C610.527 67.6974 609.764 65.5864 608.77 63.9263C607.776 62.2663 605.977 61.1698 603.375 60.6369C600.608 60.2886 597.974 61.5593 595.474 64.449C593.056 68.6504 593.107 72.6161 595.628 76.3461C597.636 79.2973 601.212 81.0291 606.357 81.5415C611.275 82.4637 614.513 83.7651 616.071 85.4457C617.67 86.7369 618.643 89.0835 618.991 92.4856C618.705 96.7895 614.821 99.2898 607.34 99.9866C605.004 99.9866 602.401 99.9866 599.532 99.9866V92.793C600.475 92.793 602.596 92.7828 605.895 92.7623C609.81 92.8237 611.562 92.0962 611.152 90.5796C609.984 89.4934 607.945 88.8581 605.035 88.6736C602.083 88.4892 599.583 88.0178 597.534 87.2595C593.476 85.8658 590.094 82.7404 587.389 77.8832C585.872 74.3171 585.718 69.7981 586.928 64.326C590.35 56.1897 595.587 52.4699 602.637 53.1667C612.679 53.9045 617.997 59.5815 618.592 70.1977V70.1977Z" fill="#FFC500"/>
</svg>
