<svg width="655" height="655" viewBox="0 0 655 655" fill="none" xmlns="http://www.w3.org/2000/svg">
<path d="M655 0H0V655H655V0Z" fill="#0C479D"/>
<path d="M328 83L611.19 571.25H44.8096L328 83Z" fill="white"/>
<path d="M125.335 546.438H89V556H125.335V546.438Z" fill="black"/>
<path d="M503.978 546.438H467.645V556H503.978V546.438Z" fill="black"/>
<path d="M567.086 546.438H530.751V556H567.086V546.438Z" fill="black"/>
<path d="M251.549 546.438H215.215V556H251.549V546.438Z" fill="black"/>
<path d="M314.656 546.438H278.322V556H314.656V546.438Z" fill="black"/>
<path d="M377.764 546.438H341.43V556H377.764V546.438Z" fill="black"/>
<path d="M440.872 546.438H404.538V556H440.872V546.438Z" fill="black"/>
<path d="M188.441 546.438H152.107V556H188.441V546.438Z" fill="black"/>
<path d="M503.978 457.514H467.645V467.076H503.978V457.514Z" fill="black"/>
<path d="M241.987 457.514H205.653V467.076H241.987V457.514Z" fill="black"/>
<path d="M344.298 457.514H307.963V467.076H344.298V457.514Z" fill="black"/>
<path d="M452.346 457.514H416.012V467.076H452.346V457.514Z" fill="black"/>
<path d="M188.441 457.514H152.107V467.076H188.441V457.514Z" fill="black"/>
<path fill-rule="evenodd" clip-rule="evenodd" d="M322.498 230.153C322.957 232.451 322.957 234.749 322.039 238.885C315.155 241.643 306.142 243.358 301.388 246.239C296.634 249.12 289.27 258.917 288.079 260.946C266.701 297.385 273.853 284.846 267.619 297.385C252.477 316.235 218.783 330.806 217.865 331.725C216.947 332.645 216.947 338.619 212.968 338.496C210.981 338.496 206.14 341.844 204.556 345.054C203.268 347.674 199.931 352.295 200.426 356.544C200.725 359.107 201.803 360.829 203.18 362.519C206.386 367.094 211.386 369.456 216.877 367.575C219.345 366.762 220.929 365.176 220.044 362.37C218.716 358.388 219.419 356.762 222.477 354.439C224.945 352.518 223.617 352.74 226.346 353.443C229.513 354.216 244.403 347.975 246.984 346.355C252.436 342.883 247.831 346.355 260.102 337.644C273.809 327.94 286.248 318.966 295.422 304.609C298.701 299.444 299.757 301.865 300.011 304.149C300.929 312.422 303.682 337.644 303.682 337.644C304.141 340.917 304.95 358.382 293.586 376.767C287.904 385.959 274.378 410.168 271.099 416.293C267.82 422.458 262.171 432.838 261.003 442.03C261.003 442.03 255.322 473.107 246.219 492.425C245.192 494.603 243.532 496.429 240.253 502.077C236.974 507.725 240.814 506.122 239.794 508.052C238.845 509.846 235.663 511.269 235.663 511.269C230.37 514.195 228.322 512.898 221.946 513.269C219.073 513.415 207.719 513.308 207.719 517.406C206.752 521.38 219.618 524.425 222.863 524.759C230.665 525.678 238.926 526.138 242.597 526.138C246.268 526.138 243.285 529.263 245.35 529.815C247.415 530.367 264.927 534.466 266.919 534.871C270.132 535.523 271.05 531.653 272.426 521.542C272.426 519.704 274.629 520.128 276.507 520.461C277.762 520.684 279.769 516.946 281.146 511.89C281.146 511.89 295.422 455.359 303.223 429.162C317.949 413.657 330.501 397.53 334.487 392.301C335.007 391.618 336.091 391.868 336.273 392.707L346.361 439.273C348.197 450.303 348.723 452.443 354.622 460.415C354.622 460.415 372.52 487.531 385.369 509.133C387.011 511.892 393.802 508.22 392.253 511.431C390.704 514.642 389.041 517.865 383.992 521.082C378.447 524.616 373.304 524.759 371.602 529.815C370.684 533.032 373.896 535.33 378.944 535.33C390.876 535.33 395.006 534.871 397.76 532.573C400.055 531.397 401.431 530.275 402.349 528.896C403.267 527.517 407.856 520.163 410.151 518.784C411.069 518.784 411.986 520.623 413.822 520.623C415.658 520.623 417.37 518.083 419.788 515.612C421.165 514.205 426.338 509.97 426.672 506.538C427.005 503.105 417.368 499.612 415.658 493.047C414.949 490.324 417.96 492.221 414.716 486.317C411.472 480.414 394.016 455.912 386.746 431.46C380.78 401.585 382.157 392.393 378.027 370.792C380.321 370.332 383.075 368.494 383.075 365.277C383.992 355.165 381.767 342.516 379.862 328.049C377.983 313.772 373.437 295.876 374.355 291.74C400.972 318.397 405.419 327.39 418.411 353.786C420.108 357.233 420.291 358.781 421.624 360.68C422.225 361.538 423.459 362.519 425.754 362.519C427.589 362.519 425.554 374.69 430.343 377.162C433.7 378.861 442.208 377.692 445.487 376.767C450.463 375.328 460.559 370.188 455.583 363.438C454.207 362.059 450.303 361.445 446.58 361.74C441.816 361.74 444.569 351.488 444.569 349.65C444.569 340.458 439.521 337.241 437.587 333.657C419.844 300.793 383.075 256.81 383.075 256.81C379.908 252.639 374.405 246.985 371.602 244.401C366.926 240.121 360.867 241.891 355.081 239.345C351.409 237.047 350.951 234.101 350.951 231.072C350.362 223.071 350.951 220.627 350.951 215.905C350.951 212.688 356.916 198.44 356.916 192.925C356.916 187.41 355.058 188.634 354.163 186.95C353.127 185.001 353.825 184.192 351.998 181.894C347.525 176.267 341.592 173.753 335.806 173.162C330.02 172.571 324.587 173.621 319.744 175.92C315.141 178.104 309.648 183.273 309.189 184.192C308.73 185.112 310.107 188.329 309.648 188.788C309.648 188.788 306.55 194.601 306.845 197.359C307.543 203.888 310.566 203.496 307.812 206.713C304.6 210.466 302.721 214.526 303.619 214.986C306.386 215.743 306.845 216.203 306.845 219.88C306.845 223.556 305.927 223.718 305.927 225.395C305.927 226.774 305.468 229.693 308.73 229.693C313.333 229.36 319.285 229.234 322.498 230.153Z" fill="black"/>
</svg>
