<svg width="655" height="655" viewBox="0 0 655 655" fill="none" xmlns="http://www.w3.org/2000/svg">
<path d="M655 0H0V655H655V0Z" fill="#0C479D"/>
<path d="M598.028 475.136L443.931 551.082L59.5581 453.796L214.26 399.568L598.028 475.136Z" fill="white"/>
<path d="M220.476 412.165L587.306 480.747L590.82 461.935L223.995 393.353L220.476 412.165Z" fill="black"/>
<path d="M594.674 416.376L436.779 488.146C433.365 489.699 431.168 493.105 431.168 496.859V604.514H450.307C450.307 604.514 450.307 513.975 450.307 503.018C459.815 498.699 567.324 449.829 589.064 439.951C589.064 462.031 589.064 532.744 589.064 532.744H608.202V425.088C608.202 421.835 606.549 418.803 603.813 417.041C601.077 415.28 597.637 415.032 594.674 416.376Z" fill="black"/>
<path d="M55.9868 469.016L435.744 559.408C437.832 559.904 440.029 559.686 441.982 558.781L600.455 485.415L592.417 468.046C592.417 468.046 442.743 537.337 436.949 540.021C430.607 538.512 60.4193 450.395 60.4193 450.395L55.9868 469.016Z" fill="black"/>
<path d="M211.616 327.18L53.7207 358.281C49.2359 359.164 46 363.101 46 367.672V542.313H65.1389C65.1389 542.313 65.1389 508.984 65.1389 461.55L223.034 401.165V336.571C223.034 333.709 221.755 330.995 219.545 329.177C217.331 327.359 214.426 326.628 211.616 327.18ZM203.895 348.207V394.205L65.1389 439.212V375.541L203.895 348.207Z" fill="black"/>
<path d="M62.7466 428.277L147.275 477.72L292.412 412.326L215.857 377.241L62.7466 428.277Z" fill="white"/>
<path d="M212.834 368.159L59.7233 419.195C56.1566 420.382 53.6162 423.544 53.2289 427.285C52.842 431.021 54.673 434.64 57.9137 436.537L142.446 485.98C145.117 487.542 148.384 487.716 151.207 486.445L296.344 421.052C299.767 419.508 301.972 416.11 301.981 412.357C301.981 408.607 299.811 405.193 296.401 403.627L219.845 368.542C217.64 367.528 215.135 367.393 212.834 368.159ZM215.304 387.511C219.924 389.629 249.036 402.974 269.284 412.252C241.407 424.814 155.143 463.679 147.844 466.967C141.907 463.492 106.792 442.953 85.8042 430.678C115.256 420.86 209.384 389.481 215.304 387.511Z" fill="black"/>
<path d="M434.857 220.143V317H511.143V220.143H608V143.857H511.143V47H434.857V143.857H338V220.143H434.857Z" fill="#CC0000"/>
</svg>
