<svg width="460" height="655" viewBox="0 0 460 655" fill="none" xmlns="http://www.w3.org/2000/svg">
<path d="M30 655C13.4315 655 0 641.569 0 625V30C0 13.4315 13.4315 0 30 0H430C446.569 0 460 13.4315 460 30V625C460 641.569 446.569 655 430 655H30Z" fill="#0C479D"/>
<path d="M382 404.949V422.494H360.768V438.946C360.768 449.739 352.019 458.489 341.225 458.489C330.432 458.489 321.683 449.739 321.683 438.946V422.494H138.317V438.946C138.317 449.739 129.568 458.489 118.775 458.489C107.981 458.489 99.2318 449.739 99.2318 438.946V422.494H78V404.949H382Z" fill="white"/>
<path d="M126.218 210.262L98.437 307.804C86.1424 313.763 78.1592 318.13 78 332.436L78 388.882H382V332.609C381.84 318.13 373.857 313.763 361.563 307.804L336.496 211.797C303.286 202.769 268.16 198 233.193 198C231.597 198 230.16 198 228.882 198C227.287 198 225.529 198 223.935 198C191.202 198 157.99 202.256 126.218 210.262Z" fill="white"/>
<path d="M321.683 372.002V327.081C291.411 319.274 259.92 315.374 228.249 315.374C197.982 315.374 167.886 318.937 138.667 326.23L138.317 372.002H321.683Z" fill="#0C479D"/>
<path d="M347.992 303.545C309.672 289.75 269.118 282.594 228.403 282.594C189.445 282.594 150.646 289.066 113.445 302.012L134.361 220.252C165.495 213.096 197.109 209.348 228.882 209.521C262.731 209.348 296.261 213.607 329.151 221.953L347.992 303.545Z" fill="#0C479D"/>
<path d="M369.817 336.366C369.817 345.178 362.674 352.321 353.863 352.321C345.051 352.321 337.908 345.178 337.908 336.366C337.908 327.555 345.051 320.412 353.863 320.412C362.674 320.412 369.817 327.555 369.817 336.366Z" fill="#0C479D"/>
<path d="M122.092 336.366C122.092 345.178 114.949 352.321 106.137 352.321C97.3261 352.321 90.1832 345.178 90.1832 336.366C90.1832 327.555 97.3261 320.412 106.137 320.412C114.949 320.412 122.092 327.555 122.092 336.366Z" fill="#0C479D"/>
</svg>
