<svg width="655" height="451" viewBox="0 0 655 451" fill="none" xmlns="http://www.w3.org/2000/svg">
<rect width="655" height="451" rx="20" fill="white"/>
<rect x="10" y="157" width="635" height="137" rx="10" fill="#0C479D"/>
<rect x="10" y="304" width="635" height="137" rx="10" fill="#0C479D"/>
<rect x="10" y="10" width="635" height="137" rx="10" fill="#0C479D"/>
<path d="M78.4717 65.5862V132H55.5283V65.5862L35 83.4195L35 53.2874L67 25L99 53.2874V83.4195L78.4717 65.5862Z" fill="white"/>
<path d="M579.414 237.472H513V214.528H579.414L561.58 194H591.713L620 226L591.713 258H561.58L579.414 237.472Z" fill="white"/>
<path d="M75.5862 361.528H142V384.472H75.5862L93.4195 405H63.2874L35 373L63.2874 341H93.4195L75.5862 361.528Z" fill="white"/>
<path d="M124 52.0424H133.225V72.7758H156.881V52.0424H166.015V105.2H156.881V80.9961H133.225V105.2H124V52.0424Z" fill="#FFC500"/>
<path d="M193.896 65.1996C194.444 65.1996 194.992 65.1996 195.631 65.2909C196.18 65.3823 196.636 65.3823 197.002 65.4736C205.953 68.7617 210.428 75.0639 210.428 84.4716C210.428 85.2936 210.428 86.1157 210.337 87.029C209.697 95.158 206.135 100.638 199.468 103.561C197.367 104.383 195.175 104.748 192.983 104.84C189.603 104.84 186.315 103.652 183.758 101.369V115.8H175.446V80.4528C176.177 75.5206 177.821 71.9585 180.47 69.7664C183.118 67.6657 186.863 66.113 191.613 65.1996H193.896ZM183.849 82.4622C183.666 83.1016 183.666 83.8323 183.666 84.563C183.666 85.385 183.758 86.1157 183.849 86.5724C183.849 89.8605 184.671 92.5092 186.224 94.4273C187.868 95.706 189.969 96.4367 192.069 96.5281C193.622 96.5281 195.175 96.0714 196.545 95.2493C199.833 92.9659 201.751 89.2211 201.66 85.2936C201.66 84.6543 201.66 84.0149 201.477 83.3756C199.833 76.434 196.545 73.3285 191.704 73.8766C187.411 74.2419 184.762 77.0733 183.849 82.4622Z" fill="#FFC500"/>
<path d="M249.045 71.045V65.1995H256.443V94.0619C256.261 95.98 257.265 97.076 259.457 97.2587L257.905 105.205C253.338 104.931 250.689 102.374 249.776 97.5327C248.588 100.364 246.396 102.556 243.565 103.744C242.651 104.2 241.738 104.474 240.733 104.748C239.82 104.931 238.907 105.114 237.902 105.114C234.523 105.114 231.234 104.2 228.494 102.282C223.105 98.5374 220.274 93.6052 220 87.3943C220 87.029 220 86.755 220 86.4809V85.5676C220 73.9678 225.298 67.0262 235.893 64.6515C236.075 64.6515 236.349 64.6515 236.532 64.6515H237.171C244.661 64.6515 248.588 66.7522 249.045 71.045ZM228.586 86.755C229.316 92.9658 232.513 96.3453 238.085 96.8933C243.748 96.3453 246.944 93.4225 247.584 87.9423C247.675 87.2116 247.766 86.5723 247.858 85.9329C247.949 85.2936 247.949 84.6542 247.949 84.0149C247.949 76.9819 244.478 73.2371 237.445 72.7804C231.508 74.2418 228.586 78.1693 228.586 84.5629C228.494 85.2936 228.586 86.0243 228.586 86.755ZM236.258 42H244.844L240.551 55.8832H234.797L236.258 42ZM236.258 42H244.844L240.551 55.8832H234.797L236.258 42Z" fill="#FFC500"/>
<path d="M265 66.548H273.494V84.8153L280.436 76.8691C282.171 74.3116 284.181 72.0282 286.373 70.0188C288.474 68.0094 291.122 66.7307 294.045 66.1827L299.525 66V74.3116C297.973 74.129 296.328 74.2203 294.776 74.677C293.314 75.3163 291.944 76.1384 290.848 77.1431C289.478 78.2391 288.2 79.5178 287.012 80.9792L284.089 84.176L298.977 104.453H289.935L279.34 90.5696L273.494 98.2418V104.544L265 104.453V66.548Z" fill="#FFC500"/>
<path d="M319.441 65.892C320.171 63.6086 319.349 61.5992 316.883 59.6811C316.7 58.6764 314.874 58.4937 311.403 58.9504L312.864 50.2734C314.052 49.8167 316.152 49.9081 319.167 50.7301C323.459 51.8261 326.291 54.9316 327.752 60.3205C334.602 83.9766 338.256 95.9417 338.895 96.3984C339.809 96.8551 340.722 97.1291 341.727 97.1291L340.813 105.075C338.347 105.258 335.881 104.984 333.598 104.071C332.228 103.34 331.132 102.061 330.492 100.6L323.733 79.0445L311.951 104.345H303L319.441 65.892Z" fill="#FFC500"/>
<path d="M375.824 72.2156L369.521 77.4218C366.325 73.8597 362.854 72.3983 359.109 72.9463C356.552 73.4943 355.273 74.499 355.182 75.8691C355.09 77.2391 355.912 78.0611 357.465 78.4265H363.128V86.8294H356.186C353.264 87.7428 352.442 89.7522 353.72 92.7663C354.816 95.2324 357.556 96.4198 361.758 96.1458C366.599 95.7804 369.796 93.9537 371.348 90.6656L379.203 95.5064C374.91 101.809 368.791 104.823 361.027 104.64C353.264 104.457 348.331 102.174 346.413 97.8812C343.856 91.2136 344.769 86.1901 349.153 82.7193C345.774 80.0705 344.678 76.5084 346.048 72.3069C347.418 68.1054 351.62 65.6394 358.744 65C366.051 65.1827 371.805 67.6488 375.824 72.2156Z" fill="#FFC500"/>
<path d="M384 66H392.494V89.1082C392.494 92.7616 392.586 94.6797 392.768 94.8624C393.225 95.7757 394.047 96.5064 394.96 96.7804V104.818C389.572 104.818 386.009 102.626 384.091 98.1505C384.091 97.8765 384.091 97.6938 384.091 97.5111C384.091 97.3285 384.091 97.1458 384 97.0545V66Z" fill="#FFC500"/>
<path d="M436.886 73.7762C438.439 77.3383 439.261 81.1744 439.261 85.1019C439.261 87.3853 438.987 89.5774 438.347 91.7695C436.795 98.711 432.684 103.004 426.291 104.739C425.377 105.013 424.464 105.196 423.551 105.287C422.637 105.379 421.724 105.47 420.902 105.47C417.523 105.47 414.234 104.557 411.494 102.639C406.105 98.8937 403.274 93.9615 403 87.7507C403 87.3853 403 87.1113 403 86.8373V85.9239C403 74.3242 408.298 67.3826 418.893 65.0078C419.075 65.0078 419.349 65.0078 419.532 65.0078H420.171C427.661 64.8252 433.232 67.8393 436.886 73.7762ZM411.586 86.9286C412.316 93.1395 415.513 96.519 421.085 97.067C426.748 96.519 429.944 93.5962 430.492 88.2073C430.584 87.4766 430.675 86.8373 430.766 86.1979C430.858 85.5586 430.858 84.9192 430.858 84.2799C430.858 77.2469 427.387 73.5021 420.354 73.0455C414.417 74.5068 411.494 78.4343 411.494 84.8279C411.494 85.4672 411.494 86.1979 411.586 86.9286Z" fill="#FFC500"/>
<path d="M511.637 50H522V86.1942L530 86.0997V94.6048H522V105H512.809V94.6048H484V84.4931L484.189 84.2096L484.472 84.0206C484.85 83.2646 485.417 82.6031 486.078 82.0361L486.267 81.5636L486.739 81.2801C486.834 80.9966 487.023 80.7131 487.212 80.5241C487.4 80.3351 487.589 80.0515 487.778 79.8625L488.062 79.4845L488.345 79.201L488.534 78.9175C488.912 78.5395 489.195 78.1615 489.384 77.7835L489.667 77.5L490.706 76.177L490.99 75.799L491.273 75.5155L491.556 75.1375L491.745 74.854L492.312 74.2869C492.596 73.8144 492.879 73.3419 493.257 72.9639C493.54 72.5859 493.823 72.3024 494.201 72.0189L494.768 70.9794L495.524 70.2234L495.807 69.6564L496.09 69.4674L496.279 69.0893L496.563 68.9003L496.752 68.6168L498.168 66.7268L498.735 65.8763L499.302 65.3093C499.585 64.7423 499.963 64.2698 500.435 63.8918L500.624 63.5137C501.097 63.1357 501.474 62.5687 501.758 62.0962L502.041 61.6237L502.324 61.4347C502.608 60.8677 502.986 60.3952 503.458 60.0172L503.93 59.2612L504.497 58.5052L504.969 58.0326C505.253 57.5601 505.536 57.0876 506.008 56.7096L506.292 56.2371L506.575 55.6701L507.897 54.2526L508.086 53.7801L508.559 53.4966L508.747 53.0241L509.314 52.457L509.503 52.1735L509.786 51.89C510.07 51.512 510.353 51.134 510.542 50.8505L511.637 50ZM512.053 62.0962C511.77 62.8522 511.203 63.5137 510.637 63.9863L510.07 65.0258C509.786 65.3093 509.598 65.5928 509.314 65.8763L508.559 66.6323L508.086 67.4828L507.331 68.2388L505.63 70.6959L505.347 70.8849C504.969 71.6409 504.402 72.3024 503.741 72.8694L503.552 73.1529L502.419 74.7594L502.136 75.043L500.435 77.311L498.83 79.2955L498.263 80.1461L497.791 80.6186L497.507 80.9966L497.035 81.5636L496.752 82.0361L496.468 82.3196L495.24 84.0206L495.051 84.3041L493.635 86.1942H512.809V61.0664L512.053 62.0962Z" fill="white"/>
<path d="M52.6364 198H63.8182L64.0909 199.093C64.1818 199.275 64.2727 199.457 64.2727 199.548C64.2727 199.73 64.3636 199.912 64.3636 200.003L64.6364 200.55L65.0909 201.916L65.2727 202.189L65.4545 202.735L65.6364 203.191L65.8182 203.737L66.1818 204.739L66.3636 205.012V205.467C66.5455 205.741 66.6364 206.105 66.8182 206.469C66.9091 206.742 67 207.015 67.0909 207.289L67.2727 207.835L67.4545 208.108V208.473C67.6364 208.746 67.8182 209.11 67.9091 209.474C68 209.747 68.0909 210.021 68.1818 210.294L68.4545 211.387C68.7273 211.933 69 212.479 69 213.026L69.4545 214.027L69.7273 215.12L70 216.122C70.0909 216.213 70.1818 216.395 70.1818 216.577L70.4545 217.033L70.6364 217.579C70.6364 217.761 70.7273 218.034 70.8182 218.216C70.9091 218.399 71 218.49 71 218.672V219.127C71.4545 219.856 71.7273 220.766 71.8182 221.586C72 221.859 72.0909 222.132 72.0909 222.406C72.2727 222.679 72.3636 222.952 72.3636 223.225L72.9091 224.864L73.0909 225.137L73.2727 225.684L73.4545 226.139L73.6364 226.686L74.0909 227.596L74.2727 227.869V228.325C74.4545 228.598 74.6364 228.962 74.7273 229.235C74.8182 229.509 74.9091 229.782 75 230.055L75.1818 230.875C75.5455 231.512 75.7273 232.149 75.9091 232.787C76.2727 233.607 76.5455 234.517 76.7273 235.428C76.9091 235.701 77 235.974 77 236.247L77.3636 237.067L77.6364 237.887C77.7273 238.342 77.9091 238.797 78.0909 239.253L78.3636 240.527L78.8182 241.347L79.0909 242.622L79.3636 243.168L79.5455 243.715C79.8182 244.261 80 244.808 80.1818 245.445C80.3636 245.9 80.4545 246.447 80.5454 246.902L80.8182 247.357V247.813C80.9091 247.904 81 248.086 81 248.268C81.2727 248.632 81.3636 248.997 81.4545 249.361C81.7273 249.907 81.9091 250.454 82 251H72L71.8182 250.454L71.5455 249.907L71.3636 249.088C71.2727 248.997 71.1818 248.814 71.1818 248.632C70.8182 247.813 70.4545 246.993 70.3636 246.174L70.0909 245.718L69.9091 245.172C69.9091 244.99 69.8182 244.716 69.7273 244.534C69.6364 244.352 69.5455 244.17 69.4545 244.079V243.624C69.0909 242.804 68.7273 241.985 68.6364 241.074H47.7273L47.5455 241.62L47.2727 242.167L47.0909 242.986L46.9091 243.533L46.5455 244.261C46.4545 244.534 46.3636 244.808 46.2727 244.99L46.0909 245.445L45.8182 245.991C45.8182 246.174 45.7273 246.356 45.6364 246.538L45.4545 247.084L45.2727 247.54L45.0909 247.813L44.0909 251H35V250.545L35.2727 249.725L35.4545 249.179C35.6364 248.814 35.7273 248.45 35.9091 248.086L36.0909 247.813L36.3636 246.72L36.6364 245.718L37.4545 243.351L37.9091 241.985L38.1818 241.165C38.3636 240.801 38.4545 240.436 38.6364 240.072L39.1818 238.433L40.2727 234.973L41.0909 232.332C41.2727 231.876 41.4545 231.421 41.6364 230.966L41.9091 229.873L42.0909 229.326L42.3636 228.871C42.4545 228.325 42.5455 227.869 42.8182 227.323L43.0909 226.503L43.2727 225.957C43.4545 225.593 43.5455 225.229 43.7273 224.864L43.9091 224.591L44.1818 223.498L44.4545 222.497L44.9091 221.495L45.3636 220.129L45.8182 218.854L46 218.581L46.8182 215.94L47 215.393L48.0909 211.933C48.3636 211.387 48.5455 210.84 48.6364 210.294L50.1818 206.014V205.558L50.4545 204.83L50.6364 204.375L50.8182 203.828L51.0909 203.282L51.2727 202.826L51.4545 202.28L51.6364 201.825L51.8182 201.278L52.1818 200.277L52.6364 198.637V198ZM58.1818 209.656L57.3636 212.024L57.0909 213.026L56.6364 214.027L56.4545 214.847L56.1818 215.667L55.7273 216.486L55.5455 217.306L55.0909 218.125V218.49L54.8182 218.945C54.6364 219.947 54.3636 220.948 54 221.859L53.8182 222.406L53.5455 223.134L52.7273 225.502L52.2727 227.05L52 227.778L51.8182 228.325L51.5455 229.053L51.3636 229.6L50.9091 230.875L50.7273 231.148C50.5455 231.967 50.2727 232.878 49.9091 233.607H65.8182L65.5455 232.514L65.0909 231.512L64.8182 230.51L64.3636 229.509L63.6364 227.141L63.3636 226.048L62.9091 225.046L62.7273 224.318C62.6364 224.136 62.4545 223.863 62.4545 223.589L61.7273 221.677L61.5455 221.131L61.2727 220.584V220.129L60.4545 217.943L60.2727 217.124C60.0909 216.851 60 216.577 60 216.304L59.6364 215.485L59.9091 214.21C59.8182 214.119 59.7273 213.936 59.7273 213.754C59.6364 213.663 59.5455 213.481 59.5455 213.299L59.2727 212.844V212.388C59.0909 211.933 58.9091 211.478 58.8182 211.022L58.7273 210.931V210.84L58 209.201L58.1818 209.656Z" fill="#FFC500"/>
<path d="M106.911 196C109.681 196 112.362 196.634 114.864 197.903C117.545 199.171 119.957 201.074 121.834 203.521C123.889 206.239 125.409 209.32 126.391 212.582C127.464 216.115 128 219.83 128 223.545C128 227.17 127.464 230.794 126.391 234.328C125.409 237.499 123.889 240.489 121.834 243.117C119.957 245.563 117.634 247.466 114.953 248.916C112.54 250.275 109.86 251 107.089 251C104.409 251 101.728 250.275 99.3149 249.007C96.7234 247.647 94.4 245.654 92.5234 243.298C90.4681 240.671 88.8596 237.59 87.7872 234.418C86.6255 230.885 86 227.26 86 223.545C86 219.921 86.5362 216.206 87.6085 212.763C88.5915 209.501 90.1106 206.511 92.166 203.883C94.0426 201.527 96.366 199.534 99.1362 198.175C101.46 196.725 104.14 196 106.911 196ZM94.5787 226.898C96.1872 236.684 100.298 241.758 106.821 242.12C112.809 241.939 117.098 236.865 119.779 226.898H94.5787ZM94.6681 219.287H119.511C117.366 209.048 113.166 204.064 106.911 204.336C100.834 204.608 96.7234 209.591 94.6681 219.287Z" fill="#FFC500"/>
<path d="M169.457 219.826V220.283C169.729 220.832 169.91 221.381 170 221.93V263H161.589V226.32L161.499 225.497C160.323 222.021 158.424 220.192 155.711 220.192C154.806 220.192 153.811 220.375 152.907 220.74C150.736 221.655 148.928 223.302 147.933 225.497L147.39 227.875V251.017H139.16V221.381C138.346 220.466 137.713 220.1 137.171 220.283H135V212.782L138.256 212.508C140.065 212.325 142.235 213.606 144.767 216.258C147.3 213.972 151.008 212.508 155.801 212.051H156.434C162.584 212.051 166.925 214.612 169.457 219.826ZM151.641 189H160.142L155.891 202.812H150.194L151.641 189Z" fill="#FFC500"/>
<path d="M176 213H184.983L193.325 238.976L200.2 216.947V213H209V217.957L198.458 251H188.008L176 213Z" fill="#FFC500"/>
<path d="M244.376 216.372V210.462H251.952V239.642C251.767 241.581 252.783 242.689 255 242.874L253.337 251C248.718 250.723 246.039 248.137 245.115 243.243C243.915 246.106 241.697 248.322 238.834 249.523C237.91 249.984 236.986 250.261 235.97 250.538C235.046 250.723 234.122 250.908 233.106 250.908C229.688 250.908 226.363 249.892 223.591 248.045C218.141 244.259 215.277 239.273 215 232.993C215 232.624 215 232.347 215 232.07V231.146C215 219.419 220.358 212.401 231.074 210C231.259 210 231.536 210 231.721 210H232.367C239.942 210 243.915 212.124 244.376 216.372ZM223.776 232.347C224.515 238.626 227.748 242.043 233.383 242.597C239.111 242.043 242.344 239.088 242.991 233.547C243.083 232.809 243.176 232.162 243.268 231.516C243.36 230.869 243.36 230.223 243.36 229.577C243.36 222.466 239.85 218.68 232.737 218.218C226.732 219.696 223.776 223.667 223.776 230.131C223.684 230.869 223.684 231.608 223.776 232.347Z" fill="#FFC500"/>
<path d="M300 196H339V204.774L338.609 205.434C338.511 205.623 338.414 205.811 338.414 206L338.316 206.377L338.12 206.66C337.827 207.226 337.632 207.698 337.436 208.075C337.241 208.453 337.045 208.925 336.947 209.396L336.459 210.434L336.165 211L335.872 211.755L334.992 213.642L334.797 214.113C334.601 214.491 334.406 214.868 334.308 215.245L332.451 218.83L332.158 219.868L331.571 220.906C331.376 221.66 331.083 222.321 330.692 222.887L328.932 227.321L328.346 228.358L326.977 231.66L326.098 233.358C326 233.736 325.902 234.113 325.609 234.491L325.316 235.34L325.023 235.623V236.094L323.654 238.83L323.361 239.679L323.068 240.245L322.97 240.811L322.09 242.415C321.992 243.075 321.699 243.642 321.308 244.113C321.113 244.774 320.917 245.434 320.526 246L320.233 246.472L319.94 247.321L319.842 247.887L319.353 248.736L318.278 251H307.526C307.624 250.623 307.722 250.245 308.015 249.868L308.211 249.585L308.308 249.019L308.601 248.736C308.895 247.698 309.383 246.66 309.97 245.717V245.245L310.263 244.962C310.459 244.396 310.654 243.925 310.752 243.453C310.85 242.981 311.143 242.604 311.241 242.321L311.729 241.472L312.023 240.434C312.316 239.962 312.511 239.585 312.609 239.208C312.805 238.83 312.902 238.453 313 238.17L313.489 237.132L313.782 236.849C313.88 236.472 314.075 236.189 314.271 235.811C314.368 235.245 314.564 234.774 314.857 234.208L315.346 233.17C315.444 232.887 315.541 232.698 315.639 232.509C315.737 232.321 315.835 232.132 315.932 232.038C316.226 230.906 316.714 229.868 317.301 228.83C317.398 228.547 317.496 228.264 317.594 228.075C317.692 227.792 317.789 227.604 317.887 227.415L318.18 226.566L318.376 226.283C318.474 226 318.571 225.811 318.669 225.623C318.767 225.434 318.865 225.151 318.962 225.057C319.06 224.962 319.256 224.491 319.353 224.302C319.451 224.113 319.549 223.83 319.744 223.642L320.038 222.604L320.526 221.755L320.82 220.906L321.308 220.151L321.601 219.396L321.895 218.547L322.481 217.509C322.677 216.755 322.97 216 323.361 215.34L323.459 214.868L323.654 214.585L323.947 213.736C324.241 213.17 324.534 212.604 324.729 212.038L325.218 211.094C325.316 210.906 325.414 210.717 325.511 210.528L325.805 209.962L325.902 209.396L326.391 208.453C326.489 208.264 326.586 208.075 326.684 207.887L326.88 207.415L326.977 207.132C327.271 206.566 327.466 206.094 327.662 205.623C327.857 205.245 328.053 204.774 328.15 204.302H300V196Z" fill="white"/>
<path d="M184.105 345.873H195.356L195.63 346.97C195.722 347.153 195.813 347.245 195.813 347.428C195.813 347.611 195.905 347.794 195.905 347.885L196.179 348.434L196.545 349.806L196.728 350.08L196.82 350.629L196.911 351.087L197.002 351.635L197.46 352.642L197.551 352.916V353.373C197.734 353.648 197.826 354.014 198.009 354.288C198.1 354.562 198.192 354.837 198.283 355.111L198.466 355.66L198.557 355.934V356.392C198.74 356.666 198.832 357.032 199.015 357.307C199.106 357.672 199.198 357.947 199.289 358.13L199.564 359.227C199.93 359.685 200.112 360.325 200.112 360.874L200.57 361.88L200.844 362.978L201.119 363.984C201.21 364.075 201.302 364.258 201.21 364.441L201.485 364.899L201.576 365.447C201.576 365.63 201.667 365.905 201.759 366.088C201.85 366.271 201.942 366.454 201.942 366.545V367.002C202.399 367.826 202.674 368.649 202.765 369.564C202.948 369.838 203.04 370.112 203.04 370.387C203.223 370.661 203.314 370.936 203.314 371.21L203.863 372.857L203.954 373.131L204.046 373.68L204.229 374.137L204.32 374.686L204.778 375.692L204.869 375.967V376.424C205.052 376.698 205.235 377.064 205.326 377.339C205.418 377.613 205.509 377.888 205.601 378.162L205.692 378.985C206.058 379.625 206.241 380.266 206.424 380.906C206.79 381.729 207.064 382.644 207.247 383.559C207.43 383.833 207.522 384.108 207.522 384.382L207.979 385.205L208.253 386.028C208.345 386.486 208.528 386.943 208.711 387.4L208.985 388.681L209.351 389.504L209.625 390.785L209.9 391.334L209.991 391.883C210.266 392.431 210.449 392.98 210.632 393.621C210.815 394.078 210.906 394.627 210.998 395.084L211.272 395.541V395.999C211.363 396.09 211.455 396.273 211.363 396.456C211.638 396.822 211.729 397.188 211.821 397.554C212.095 398.103 212.278 398.651 212.37 399.2H203.223L203.131 398.651L202.857 398.103L202.765 397.279C202.674 397.188 202.582 397.005 202.674 396.822C202.308 395.999 201.942 395.176 201.85 394.352L201.576 393.895L201.485 393.346C201.485 393.163 201.393 392.889 201.302 392.706C201.21 392.523 201.119 392.34 201.027 392.248V391.791C200.661 390.968 200.295 390.145 200.204 389.321L189.685 357.581L179.257 389.321L179.166 389.87L178.891 390.419L178.8 391.151L178.708 391.7C178.617 391.974 178.525 392.248 178.342 392.431C178.251 392.706 178.159 392.889 178.068 393.163L177.977 393.621L177.702 394.169C177.702 394.352 177.611 394.535 177.611 394.718L177.519 395.267L177.336 395.724L177.245 395.999L176.239 399.2H167V398.743L167.274 397.92L167.366 397.371C167.549 397.005 167.64 396.639 167.823 396.273L167.915 395.999L168.189 394.901L168.464 393.895L169.287 391.517L169.744 390.145L170.019 389.321C170.201 388.956 170.293 388.59 170.476 388.224L171.025 386.577L172.122 383.101L172.946 380.449C173.129 379.991 173.312 379.534 173.494 379.077C173.586 378.619 173.677 378.253 173.86 377.979L173.952 377.43L174.226 376.973C174.318 376.424 174.409 375.967 174.684 375.418L174.958 374.595L175.141 374.046C175.324 373.68 175.415 373.314 175.507 372.948L175.69 372.674L175.964 371.576L176.239 370.57L176.604 369.564L177.062 368.192L177.519 366.911L177.611 366.637L178.434 363.984L178.617 363.435L179.714 359.959C179.989 359.41 180.172 358.862 180.263 358.221L181.818 353.922V353.465L182.093 352.733L182.276 352.276L182.367 351.727L182.642 351.178L182.824 350.721L182.916 350.172L183.007 349.714L183.099 349.166L183.556 348.159L184.014 346.513L184.105 345.873Z" fill="#FFC500"/>
<path d="M248.179 364.314V358.46H255.588V387.365C255.405 389.286 256.412 390.384 258.607 390.567L256.96 398.616C252.387 398.342 249.734 395.78 248.82 390.932C247.63 393.768 245.435 395.963 242.599 397.152C241.685 397.61 240.77 397.884 239.764 398.159C238.849 398.342 237.934 398.525 236.928 398.525C233.544 398.525 230.251 397.518 227.507 395.689C222.11 391.939 219.274 386.999 219 380.779C219 380.413 219 380.139 219 379.864V378.95C219 367.333 224.305 360.381 234.916 358.003C235.099 358.003 235.373 358.003 235.556 358.003H236.197C243.789 357.911 247.722 360.015 248.179 364.314ZM227.69 380.047C228.422 386.267 231.623 389.652 237.203 390.201C242.874 389.652 246.075 386.725 246.716 381.236C246.807 380.505 246.899 379.864 246.99 379.224C247.082 378.584 247.082 377.944 247.082 377.395C247.082 370.351 243.606 366.601 236.562 366.144C230.617 367.607 227.69 371.541 227.69 377.944C227.598 378.584 227.69 379.316 227.69 380.047Z" fill="#FFC500"/>
<path d="M274.954 410H266.447V360.057H274.954V384.754L275.046 385.577C276.235 389.053 278.156 390.883 280.9 390.883C281.815 390.883 282.729 390.7 283.644 390.334C285.839 389.419 287.669 387.773 288.675 385.577L289.224 383.199V360.057H297.548V389.693C298.371 390.608 299.011 390.974 299.56 390.791H301.755V398.292L298.554 398.658C296.724 398.841 294.529 397.56 291.968 394.907C289.407 397.194 285.656 398.658 280.808 399.115H280.168C278.43 399.115 276.601 398.932 274.954 398.383V410Z" fill="#FFC500"/>
<path d="M310 360.24H318.507V383.382C318.507 387.041 318.598 388.962 318.781 389.145C319.239 390.059 320.062 390.791 320.977 391.066V399.115C315.58 399.115 311.921 396.92 310.091 392.438C310.091 392.163 310.091 391.98 310.091 391.797C310.091 391.614 310.091 391.431 310 391.34V360.24ZM312.927 336H321.525L317.226 349.812H311.464L312.927 336Z" fill="#FFC500"/>
<path d="M358.179 364.314V358.46H365.588V387.365C365.405 389.286 366.412 390.384 368.607 390.567L366.96 398.616C362.387 398.342 359.734 395.78 358.82 390.932C357.63 393.768 355.435 395.963 352.599 397.152C351.685 397.61 350.77 397.884 349.764 398.159C348.849 398.342 347.934 398.525 346.928 398.525C343.544 398.525 340.251 397.518 337.507 395.689C332.11 391.939 329.274 386.999 329 380.779C329 380.413 329 380.139 329 379.864V378.95C329 367.333 334.305 360.381 344.916 358.003C345.099 358.003 345.373 358.003 345.556 358.003H346.197C353.697 357.911 357.722 360.015 358.179 364.314ZM337.69 380.047C338.422 386.267 341.623 389.652 347.203 390.201C352.874 389.652 356.075 386.725 356.716 381.236C356.807 380.505 356.899 379.864 356.99 379.224C357.082 378.584 357.082 377.944 357.082 377.395C357.082 370.351 353.606 366.601 346.562 366.144C340.617 367.607 337.69 371.541 337.69 377.944C337.598 378.584 337.598 379.316 337.69 380.047Z" fill="#FFC500"/>
<path d="M424.273 344H432V399H422.818V360.16H414V352.694H415L415.545 352.505H417.091L417.818 352.411H419.091C419.727 352.222 420.455 352.127 421.182 352.127C421.545 351.749 422 351.56 422.455 351.371C423.727 349.576 424.455 347.308 424.455 345.039C424.455 344.85 424.455 344.661 424.455 344.567C424.455 344.472 424.273 344.189 424.273 344Z" fill="white"/>
<path d="M477.972 367.874C478.063 368.972 478.063 369.978 478.063 371.075C478.063 379.948 475.593 387.632 470.562 394.035L470.288 394.309L469.831 394.583C469.099 395.315 468.276 395.956 467.452 396.504L466.446 397.053L465.44 397.511C464.434 398.059 463.336 398.425 462.239 398.608C460.501 398.974 458.763 399.157 457.025 399.157C449.158 399.157 443.579 395.224 440.377 387.357L441.109 387.266L441.658 386.991L443.03 386.534L443.853 386.26L444.402 386.077C444.493 385.985 444.676 385.894 444.859 385.985C444.951 385.894 445.042 385.894 445.134 385.894L445.591 385.802L446.597 385.528C446.872 385.345 447.237 385.162 447.512 385.07C447.786 384.979 448.061 384.888 448.335 384.796C450.53 389.095 453.64 391.199 457.757 391.199C458.031 391.199 458.397 391.199 458.763 391.199C459.129 391.199 459.403 391.108 459.769 391.108C465.349 389.461 468.367 385.436 468.733 379.125V377.387C468.733 376.838 468.733 376.289 468.55 375.74C464.983 379.216 461.049 380.954 456.75 380.954C455.195 380.954 453.64 380.771 452.085 380.314C445.042 378.119 440.926 373.545 439.828 366.776C439.645 365.404 439.645 364.124 439.645 362.843C439.645 352.324 445.042 346.012 455.836 344C469.556 344.274 476.965 352.141 477.972 367.874ZM448.701 364.49C449.433 368.331 451.445 370.984 454.647 372.447C455.287 372.63 456.019 372.722 456.75 372.813C457.391 372.905 458.031 372.905 458.671 372.905C463.885 372.905 467.087 369.978 468.093 364.215V363.849C468.093 356.257 464.434 352.507 457.116 352.415H456.933C451.354 353.97 448.609 357.355 448.609 362.569C448.518 363.3 448.609 363.941 448.701 364.49Z" fill="white"/>
<path d="M482 344.408H520V353.167L519.619 353.826C519.524 354.014 519.429 354.202 519.429 354.391L519.238 354.862L519.048 355.144C518.762 355.709 518.571 356.18 518.381 356.557C518.19 356.934 518 357.405 517.905 357.875L517.429 358.911L517.143 359.476L516.857 360.23L516 362.113L515.81 362.584C515.619 362.961 515.429 363.338 515.333 363.714L513.619 367.293L513.333 368.329L512.762 369.365C512.571 370.119 512.286 370.778 511.905 371.437L510.19 375.863L509.619 376.899L508.286 380.196L507.429 381.891C507.333 382.268 507.238 382.644 506.952 383.021L506.667 383.869L506.381 384.151V384.528L505.048 387.259L504.762 388.107L504.476 388.672L504.286 389.237L503.429 390.838C503.333 391.497 503.048 392.062 502.667 392.533C502.476 393.192 502.286 393.851 501.905 394.417L501.619 394.887L501.333 395.735L501.143 396.3L500.667 397.148L499.619 399.408H489.143C489.238 399.031 489.429 398.655 489.619 398.278L489.81 397.995L490 397.43L490.286 397.148C490.571 396.112 491.048 395.076 491.619 394.134V393.663L491.905 393.381C492.095 392.91 492.19 392.345 492.381 391.874C492.571 391.403 492.762 391.026 492.857 390.744L493.333 389.896L493.619 388.86C493.905 388.389 494.095 388.012 494.19 387.636C494.381 387.259 494.476 386.882 494.571 386.6L495.048 385.564L495.333 385.281C495.429 384.905 495.524 384.622 495.81 384.245C495.905 383.68 496.095 383.209 496.381 382.644L496.857 381.608C496.952 381.326 497.048 381.137 497.143 380.949C497.238 380.761 497.333 380.572 497.429 380.478C497.714 379.348 498.19 378.312 498.762 377.276C498.857 376.994 498.952 376.711 499.048 376.523C499.143 376.334 499.238 376.052 499.333 375.863L499.619 375.016L499.81 374.733C499.905 374.451 500 374.262 500.095 374.074C500.19 373.886 500.286 373.697 500.381 373.509C500.476 373.321 500.667 372.944 500.762 372.756C500.857 372.567 501.048 372.285 501.143 372.096L501.429 371.06L501.905 370.213L502.19 369.365L502.667 368.612L502.952 367.858L503.238 367.011L503.81 365.975C504 365.221 504.286 364.468 504.667 363.809L504.857 363.338L505.048 363.055L505.333 362.208C505.619 361.643 505.905 361.077 506.095 360.512L506.571 359.571C506.667 359.382 506.762 359.194 506.857 359.006L507.143 358.44L507.333 357.875L507.809 356.934C507.905 356.745 508 356.557 508.095 356.369L508.286 355.898L508.476 355.615C508.762 355.05 508.952 354.579 509.143 354.202C509.333 353.826 509.524 353.355 509.619 352.884H482.19L482 344.408Z" fill="white"/>
</svg>
