<?xml version="1.0" encoding="UTF-8" standalone="no"?>
<svg
   width="888.185"
   height="522.74982"
   viewBox="0 0 888.185 522.74982"
   fill="none"
   version="1.1"
   id="svg1078"
   sodipodi:docname="Traffic Sign GR - KOK 2009 - Π-30.svg"
   inkscape:version="1.1.1 (3bf5ae0d25, 2021-09-20)"
   xmlns:inkscape="http://www.inkscape.org/namespaces/inkscape"
   xmlns:sodipodi="http://sodipodi.sourceforge.net/DTD/sodipodi-0.dtd"
   xmlns="http://www.w3.org/2000/svg"
   xmlns:svg="http://www.w3.org/2000/svg">
  <defs
     id="defs1082" />
  <sodipodi:namedview
     id="namedview1080"
     pagecolor="#ffffff"
     bordercolor="#666666"
     borderopacity="1.0"
     inkscape:pageshadow="2"
     inkscape:pageopacity="0.0"
     inkscape:pagecheckerboard="0"
     showgrid="false"
     inkscape:zoom="0.5"
     inkscape:cx="-287"
     inkscape:cy="163"
     inkscape:window-width="1920"
     inkscape:window-height="1009"
     inkscape:window-x="-8"
     inkscape:window-y="-8"
     inkscape:window-maximized="1"
     inkscape:current-layer="svg1078"
     height="522.74984px" />
  <path
     d="M 176.736,520.528 C 56.425,498.397 37.112,416.582 16.494,285.857 -1.10497,174.281 63.404,31.9465 150.083,8.3594 c 8.994,-2.4477 17.47,-4.567 26.893,-4.2656 0,0 140.158,-16.1217 196.354,97.6172 1.649,7.229 36.365,68.395 35.782,151.084 -0.356,50.332 -11.531,104.273 -37.674,166.05 -18.883,44.627 -53.275,73.803 -90.901,88.044 -38.186,14.453 -79.648,13.639 -103.801,13.639 z"
     fill="#ffffff"
     id="path954" />
  <path
     d="M 230.2,516.614 C 438.274,533.64 491.729,35.716 238.459,6.0845 l -21.483,0.4949"
     stroke="#000000"
     stroke-width="10.405"
     id="path956" />
  <path
     d="m 263.257,34.267 c -5.283,-9.8803 14.691,-16.939 20.994,-5.1565 l 13.33,27.6005 c 3.865,7.221 -11.551,18.904 -18.57,5.776 z"
     fill="#ffffff"
     stroke="#000000"
     stroke-width="9.6964"
     id="path958" />
  <path
     d="m 295.04,261.809 c 0,60.026 -14.756,108.687 -32.955,108.687 -18.196,0 -32.951,-48.661 -32.951,-108.687 0,-60.027 14.755,-108.687 32.951,-108.687 18.201,10e-4 32.955,48.662 32.955,108.687 z"
     stroke="#000000"
     stroke-width="10"
     stroke-linecap="round"
     stroke-linejoin="round"
     id="path960" />
  <path
     d="m 280.005,261.328 c 0,54.113 -12.198,97.98 -27.25,97.98 -15.049,0 -27.247,-43.867 -27.247,-97.98 0,-54.111 12.198,-97.977 27.247,-97.977 15.052,0 27.25,43.866 27.25,97.977 z"
     fill="#ffffff"
     stroke="#000000"
     stroke-width="10"
     stroke-linecap="round"
     stroke-linejoin="round"
     id="path962" />
  <path
     d="m 203.196,429.612 c -9.847,6.526 -19.822,-12.209 -8.08,-19.989 l 27.683,-16.824 c 7.199,-4.77 21.521,8.853 8.441,17.522 z"
     fill="#ffffff"
     stroke="#000000"
     stroke-width="10"
     id="path964" />
  <path
     d="m 191.114,109.261 c -10.023,-6.253 2.872,-23.107 14.826,-15.654 l 26.793,18.21 c 7.323,4.57 0.885,23.26 -12.432,14.956 z"
     fill="#ffffff"
     stroke="#000000"
     stroke-width="10"
     id="path966" />
  <path
     d="m 363.828,260.935 c 0.015,91.098 -30.976,164.973 -69.216,165.001 -38.241,0.029 -69.25,-73.796 -69.262,-164.896 0,-0.034 0,-0.071 0,-0.105 -0.013,-91.098 30.976,-164.972 69.216,-165.002 38.241,-0.028 69.25,73.797 69.262,164.895 0,0.035 0,0.072 0,0.107 z"
     stroke="#000000"
     stroke-width="4.4453"
     stroke-linecap="round"
     stroke-linejoin="round"
     id="path968" />
  <path
     d="m 167.408,332.407 c -11.806,0.372 -10.445,-20.81 3.634,-21.255 l 32.39,0.25 c 8.628,-0.273 13.653,18.849 -2.032,19.344 z"
     fill="#ffffff"
     stroke="#000000"
     stroke-width="10"
     id="path970" />
  <path
     d="m 380.358,259.853 c 0.033,106.436 -38.685,192.786 -86.488,192.868 -47.8,0.08 -86.581,-86.136 -86.619,-192.575 0,-0.097 0,-0.195 0,-0.293 -0.033,-106.437 38.686,-192.786 86.488,-192.868 47.803,-0.081 86.581,86.137 86.619,192.574 0,0.098 0,0.196 0,0.294 z"
     stroke="#000000"
     stroke-width="8.0178"
     stroke-linecap="round"
     stroke-linejoin="round"
     id="path972" />
  <path
     d="M 240.22,491.783 C 97.687,412.308 113.789,92.624 243.791,28.6376"
     stroke="#000000"
     stroke-width="6"
     id="path974" />
  <path
     d="m 104.101,163.032 c -8.353,-8.358 8.016,-21.861 17.976,-11.897 l 21.988,23.793 c 6.105,6.107 -4.392,22.858 -15.488,11.758 z"
     fill="#ffffff"
     stroke="#000000"
     stroke-width="10"
     id="path976" />
  <path
     d="m 58.257,136.141 c -10.347,-5.698 1.615,-23.229 13.955,-16.433 l 27.74,16.728 c 7.563,4.165 2.144,23.178 -11.603,15.608 z"
     fill="#ffffff"
     stroke="#000000"
     stroke-width="10"
     id="path978" />
  <path
     d="M 89.18,225.053 C 78.121,229.205 72.599,208.71 85.788,203.76 l 30.75,-10.184 c 8.084,-3.035 18.988,13.454 4.295,18.968 z"
     fill="#ffffff"
     stroke="#000000"
     stroke-width="10"
     id="path980" />
  <path
     d="m 42.323,251.848 c -9.925,6.404 -19.669,-12.452 -7.831,-20.09 L 62.38,215.279 c 7.256,-4.682 21.41,9.115 8.222,17.624 z"
     fill="#ffffff"
     stroke="#000000"
     stroke-width="10"
     id="path982" />
  <path
     d="m 165.586,208.307 c -11.77,-1.009 -7.943,-21.887 6.091,-20.683 l 32.14,4.033 c 8.602,0.739 11.36,20.315 -4.276,18.975 z"
     fill="#ffffff"
     stroke="#000000"
     stroke-width="10"
     id="path984" />
  <path
     d="m 360.891,432.395 c 4.253,4.35 -4.569,11.071 -9.64,5.884 l -11.167,-12.368 c -3.109,-3.18 2.68,-11.618 8.33,-5.84 z"
     fill="#ffffff"
     stroke="#000000"
     stroke-width="10"
     id="path986" />
  <path
     d="m 373.712,159.929 c -5.649,2.591 -10.785,-7.903 -4.05,-10.995 l 15.846,-6.496 c 4.128,-1.893 11.811,6.302 4.307,9.746 z"
     fill="#ffffff"
     stroke="#000000"
     stroke-width="10"
     id="path988" />
  <path
     d="m 342.746,91.845 c -3.2,5.124 -11.825,-1.468 -8.011,-7.579 l 9.319,-13.698 c 2.339,-3.744 11.904,-0.452 7.654,6.356 z"
     fill="#ffffff"
     stroke="#000000"
     stroke-width="10"
     id="path990" />
  <path
     d="m 373.749,350.361 c -5.686,-1.273 -1.475,-14.396 5.306,-12.879 l 15.384,4.291 c 4.156,0.929 3.332,13.575 -4.221,11.884 z"
     fill="#ffffff"
     stroke="#000000"
     stroke-width="10"
     id="path992" />
  <path
     d="m 383.528,251.449 c -6.317,-0.655 -4.263,-14.198 3.269,-13.416 l 17.248,2.616 c 4.616,0.479 6.096,13.178 -2.295,12.308 z"
     fill="#ffffff"
     stroke="#000000"
     stroke-width="10"
     id="path994" />
  <path
     d="M 82.44,317.227 C 71.246,313.455 79.911,294.08 93.26,298.578 l 30.267,11.543 c 8.182,2.757 6.219,22.432 -8.652,17.419 z"
     fill="#ffffff"
     stroke="#000000"
     stroke-width="10"
     id="path996" />
  <path
     d="M 29.187,289.122 C 18.866,283.374 30.911,265.9 43.218,272.753 l 27.663,16.86 c 7.544,4.201 2.035,23.189 -11.677,15.552 z"
     fill="#ffffff"
     stroke="#000000"
     stroke-width="10"
     id="path998" />
  <path
     d="m 118.231,374.637 c -8.161,8.541 -22.03,-7.522 -12.298,-17.71 l 23.28,-22.531 c 5.965,-6.245 22.944,3.873 12.103,15.223 z"
     fill="#ffffff"
     stroke="#000000"
     stroke-width="10"
     id="path1000" />
  <path
     d="M 66.077,403.961 C 55.58,409.38 47.697,389.673 60.215,383.211 L 89.56,369.494 c 7.673,-3.961 20.433,11.137 6.488,18.337 z"
     fill="#ffffff"
     stroke="#000000"
     stroke-width="10"
     id="path1002" />
  <path
     d="m 55.411,423.897 c -11.427,-2.991 -4.115,-22.919 9.511,-19.349 l 30.99,9.429 c 8.353,2.186 7.749,21.948 -7.432,17.974 z"
     fill="#ffffff"
     stroke="#000000"
     stroke-width="10"
     id="path1004" />
  <path
     d="m 114.26,436.403 c -11.804,-0.439 -8.992,-21.477 5.085,-20.954 l 32.297,2.475 c 8.627,0.321 12.328,19.74 -3.355,19.158 z"
     fill="#ffffff"
     stroke="#000000"
     stroke-width="10"
     id="path1006" />
  <path
     d="m 158.957,467.872 c -5.485,7.718 -19.315,-2.025 -12.775,-11.232 L 162.1,435.995 c 4.01,-5.643 19.533,-0.852 12.246,9.403 z"
     fill="#ffffff"
     stroke="#000000"
     stroke-width="9.5115"
     id="path1008" />
  <path
     d="m 131.294,497.4 c -6.792,7.108 -19.617,-4.887 -11.516,-13.367 l 19.455,-18.831 c 4.965,-5.197 20.265,1.972 11.241,11.417 z"
     fill="#ffffff"
     stroke="#000000"
     stroke-width="9.5115"
     id="path1010" />
  <path
     d="m 230.193,516.81 -43.468,-0.512 C -9.73698,538.162 -75.2258,36.245 178.043,6.61369 l 10.93,-0.41771 3.452,0.3834"
     stroke="#000000"
     stroke-width="10.405"
     id="path1012" />
  <path
     d="m 141.208,514.87 c -10.646,-0.858 -6.979,-20.057 5.716,-19.036 l 29.061,3.51 c 7.781,0.627 10.087,18.594 -4.057,17.456 z"
     fill="#ffffff"
     stroke="#000000"
     stroke-width="9.6683"
     id="path1014" />
  <path
     d="m 194.618,517.961 c -11.255,0.874 -10.873,-19.215 2.551,-20.255 l 30.935,-1.193 c 8.228,-0.637 13.851,17.217 -1.102,18.378 z"
     fill="#ffffff"
     stroke="#000000"
     stroke-width="9.5107"
     id="path1016" />
  <path
     d="m 278.116,495.473 c -5.942,9.937 -21.615,-3.072 -14.535,-14.922 l 17.278,-26.549 c 4.342,-7.264 21.789,-0.671 13.899,12.528 z"
     fill="#ffffff"
     stroke="#000000"
     stroke-width="9.2525"
     id="path1018" />
  <path
     d="m 115.121,105.273 c -11.801,0.499 -10.67,-20.696 3.405,-21.293 l 32.391,-0.1 c 8.626,-0.366 13.856,18.7 -1.823,19.364 z"
     fill="#ffffff"
     stroke="#000000"
     stroke-width="10"
     id="path1020" />
  <path
     d="M 62.8,116.747 C 51.123,119.567 48.137,97.984 62.063,94.62 l 32.298,-6.458 c 8.536,-2.061 17.456,16.127 1.942,19.875 z"
     fill="#ffffff"
     stroke="#000000"
     stroke-width="10"
     id="path1022" />
  <path
     d="m 133.203,53.448 c -8.471,-8.46 7.199,-23.1214 17.301,-13.034 l 22.355,24.148 c 6.192,6.182 -3.604,24.044 -14.858,12.806 z"
     fill="#ffffff"
     stroke="#000000"
     stroke-width="9.4385"
     id="path1024" />
  <path
     d="m 141.534,34.378 c -10.902,1.441 -11.397,-20.0122 1.604,-21.7297 l 30.015,-2.66941 c 7.967,-1.0536 14.206,17.74851 -0.279,19.66201 z"
     fill="#ffffff"
     stroke="#000000"
     stroke-width="9.6954"
     id="path1026" />
  <path
     d="M 193.739,26.6812 C 181.927,26.5526 184.188,5.44621 198.274,5.60181 l 32.35,1.6281 c 8.632,0.0956 12.839,19.41209 -2.853,19.24059 z"
     fill="#ffffff"
     stroke="#000000"
     stroke-width="10"
     id="path1028" />
  <path
     d="m 157.539,322.239 c 0.006,7.348 -5.941,13.309 -13.285,13.316 -7.346,0.006 -13.306,-5.944 -13.312,-13.29 0,-0.009 0,-0.017 0,-0.026 -0.006,-7.347 5.941,-13.307 13.286,-13.314 7.345,-0.008 13.304,5.944 13.311,13.292 0,0.006 0,0.015 0,0.022 z"
     fill="#ffffff"
     stroke="#000000"
     stroke-width="10"
     stroke-linecap="round"
     stroke-linejoin="round"
     id="path1030" />
  <path
     d="m 31.596,260.418 c 0.006,7.348 -5.942,13.309 -13.286,13.316 -7.344,0.008 -13.30399,-5.944 -13.30999,-13.29 0,-0.009 0,-0.016 0,-0.026 -0.007,-7.348 5.93999,-13.309 13.28499,-13.316 7.346,-0.006 13.304,5.944 13.312,13.292 -0.001,0.008 -0.001,0.016 -0.001,0.024 z"
     fill="#ffffff"
     stroke="#000000"
     stroke-width="10"
     stroke-linecap="round"
     stroke-linejoin="round"
     id="path1032" />
  <path
     d="m 156.315,199.967 c 0.006,6.778 -5.482,12.277 -12.259,12.285 -6.775,0.006 -12.274,-5.485 -12.281,-12.263 0,-0.007 0,-0.016 0,-0.023 -0.006,-6.78 5.482,-12.28 12.258,-12.286 6.776,-0.005 12.274,5.483 12.28,12.262 0.002,0.01 0.002,0.019 0.002,0.025 z"
     fill="#ffffff"
     stroke="#000000"
     stroke-width="10"
     stroke-linecap="round"
     stroke-linejoin="round"
     id="path1034" />
  <path
     d="m 51.3951,120.93 c 0.006,6.941 -5.6121,12.573 -12.5511,12.582 -6.94,0.005 -12.569,-5.616 -12.575,-12.557 0,-0.009 0,-0.017 0,-0.025 -0.007,-6.941 5.6121,-12.572 12.5521,-12.58 6.938,-0.006 12.5689,5.615 12.5749,12.557 -10e-4,0.009 -9e-4,0.016 -9e-4,0.023 z"
     fill="#ffffff"
     stroke="#000000"
     stroke-width="10"
     stroke-linecap="round"
     stroke-linejoin="round"
     id="path1036" />
  <path
     d="m 131.907,29.58 c 0.006,6.941 -5.613,12.573 -12.551,12.581 -6.94,0.005 -12.57,-5.615 -12.576,-12.5565 0,-0.0085 0,-0.0171 0,-0.0245 -0.006,-6.9411 5.612,-12.5726 12.552,-12.58 6.939,-0.0061 12.57,5.6144 12.576,12.5568 -10e-4,0.0085 -10e-4,0.0159 -10e-4,0.0232 z"
     fill="#ffffff"
     stroke="#000000"
     stroke-width="10"
     stroke-linecap="round"
     stroke-linejoin="round"
     id="path1038" />
  <path
     d="m 186.871,95.302 c 0.008,6.696 -5.415,12.132 -12.11,12.138 -6.695,0.006 -12.127,-5.417 -12.133,-12.114 0,-0.009 0,-0.016 0,-0.024 -0.008,-6.698 5.415,-12.133 12.11,-12.139 6.695,-0.006 12.128,5.417 12.133,12.115 0,0.008 0,0.017 0,0.024 z"
     fill="#ffffff"
     stroke="#000000"
     stroke-width="10"
     stroke-linecap="round"
     stroke-linejoin="round"
     id="path1040" />
  <path
     d="m 264.02,20.1774 c 0.008,6.5357 -5.283,11.8377 -11.815,11.8438 -6.534,0.0074 -11.834,-5.2849 -11.842,-11.8205 0,-0.0061 0,-0.0147 0,-0.0233 -0.005,-6.5344 5.286,-11.83759 11.818,-11.84249 6.534,-0.0061 11.834,5.28729 11.839,11.82169 0,0.0074 0,0.0147 0,0.0208 z"
     fill="#ffffff"
     stroke="#000000"
     stroke-width="10"
     stroke-linecap="round"
     stroke-linejoin="round"
     id="path1042" />
  <path
     d="m 50.4171,402.254 c 0.005,6.616 -5.351,11.986 -11.965,11.991 -6.613,0.006 -11.98,-5.351 -11.986,-11.969 0,-0.007 0,-0.016 0,-0.023 -0.006,-6.616 5.35,-11.983 11.964,-11.991 6.613,-0.006 11.98,5.353 11.987,11.969 0,0.007 0,0.015 0,0.023 z"
     fill="#ffffff"
     stroke="#000000"
     stroke-width="10"
     stroke-linecap="round"
     stroke-linejoin="round"
     id="path1044" />
  <path
     d="m 185.453,425.339 c 0.005,6.454 -5.219,11.691 -11.67,11.697 -6.453,0.006 -11.687,-5.221 -11.693,-11.675 0,-0.007 0,-0.015 0,-0.022 -0.006,-6.455 5.219,-11.689 11.671,-11.697 6.451,-0.006 11.686,5.221 11.692,11.675 0,0.007 0,0.016 0,0.022 z"
     fill="#ffffff"
     stroke="#000000"
     stroke-width="10"
     stroke-linecap="round"
     stroke-linejoin="round"
     id="path1046" />
  <path
     d="m 133.143,503.697 c 0.005,6.453 -5.219,11.69 -11.67,11.697 -6.453,0.006 -11.687,-5.222 -11.693,-11.675 0,-0.008 0,-0.015 0,-0.022 -0.006,-6.455 5.219,-11.69 11.671,-11.697 6.451,-0.006 11.686,5.221 11.692,11.675 0,0.007 0,0.016 0,0.022 z"
     fill="#ffffff"
     stroke="#000000"
     stroke-width="10"
     stroke-linecap="round"
     stroke-linejoin="round"
     id="path1048" />
  <path
     d="m 263.337,501.44 c 0.007,6.374 -5.154,11.545 -11.524,11.551 -6.369,0.008 -11.538,-5.155 -11.545,-11.526 0,-0.009 0,-0.016 0,-0.025 -0.008,-6.371 5.154,-11.543 11.523,-11.548 6.37,-0.006 11.539,5.155 11.546,11.528 0,0.007 0,0.013 0,0.02 z"
     fill="#ffffff"
     stroke="#000000"
     stroke-width="10"
     stroke-linecap="round"
     stroke-linejoin="round"
     id="path1050" />
  <path
     d="M 651.183,520.528 C 530.665,498.397 511.319,416.582 490.665,285.857 473.036,174.281 537.656,31.9465 624.484,8.3594 c 9.01,-2.4477 17.501,-4.567 26.94,-4.2656 0,0 140.399,-16.1217 196.692,97.6172 1.652,7.229 36.428,68.395 35.844,151.084 -0.357,50.332 -11.551,104.273 -37.739,166.05 -18.916,44.627 -53.367,73.803 -91.058,88.044 -38.252,14.453 -79.785,13.639 -103.98,13.639 z"
     fill="#000000"
     id="path1052" />
  <path
     d="M 704.739,516.614 C 913.172,533.64 966.719,35.716 713.013,6.0845 l -21.52,0.4949"
     stroke="#000000"
     stroke-width="10.405"
     id="path1054" />
  <path
     d="m 855.156,259.853 c 0.033,106.436 -38.751,192.786 -86.637,192.868 -47.882,0.08 -86.73,-86.136 -86.768,-192.575 0,-0.097 0,-0.195 0,-0.293 -0.033,-106.437 38.753,-192.786 86.637,-192.868 47.885,-0.081 86.73,86.137 86.768,192.574 0,0.098 0,0.196 0,0.294 z"
     stroke="#000000"
     stroke-width="8.0178"
     stroke-linecap="round"
     stroke-linejoin="round"
     id="path1056" />
  <path
     d="M 714.777,491.783 C 571.998,412.308 588.128,92.624 718.354,28.6376"
     stroke="#ffffff"
     stroke-width="6"
     id="path1058" />
  <path
     d="M 639.777,491.783 C 496.998,412.308 513.128,92.624 643.354,28.6376"
     stroke="#ffffff"
     stroke-width="6"
     id="path1060" />
  <path
     d="M 704.732,516.81 661.19,516.298 C 464.389,538.162 398.787,36.245 652.493,6.61369 l 10.948,-0.41771 3.458,0.3834"
     stroke="#000000"
     stroke-width="10.405"
     id="path1062" />
  <path
     d="m 838.598,260.935 c 0.015,91.098 -31.03,164.973 -69.335,165.001 -38.307,0.029 -69.37,-73.796 -69.382,-164.896 0,-0.034 0,-0.071 0,-0.105 -0.013,-91.098 31.03,-164.972 69.335,-165.002 38.307,-0.028 69.37,73.797 69.382,164.895 0,0.035 0,0.072 0,0.107 z"
     fill="#ffffff"
     stroke="#ffffff"
     stroke-width="4.4453"
     stroke-linecap="round"
     stroke-linejoin="round"
     id="path1064" />
  <path
     d="M 732.038,435 C 862.088,374.769 847.396,132.493 728.78,84"
     stroke="#000000"
     stroke-width="6"
     id="path1066" />
  <path
     d="M 707.038,435 C 837.088,374.769 822.396,132.493 703.78,84"
     stroke="#000000"
     stroke-width="6"
     id="path1068" />
  <path
     d="M 682.038,435 C 812.088,374.769 797.396,132.493 678.78,84"
     stroke="#000000"
     stroke-width="6"
     id="path1070" />
  <path
     d="m 715.78,84 32.5,5 23,23.5 11.5,12.5 9,14 14,26.5 -48,9 -9.5,-20.5 -20,-31 z"
     fill="#000000"
     id="path1072" />
  <rect
     x="662.78003"
     y="1"
     width="44"
     height="10"
     fill="#000000"
     id="rect1074" />
  <rect
     x="648.78003"
     y="514"
     width="67"
     height="8"
     fill="#000000"
     id="rect1076" />
</svg>
