<svg width="460" height="655" viewBox="0 0 460 655" fill="none" xmlns="http://www.w3.org/2000/svg">
<path d="M460 0H0V655H460V0Z" fill="#0C479D"/>
<path d="M53 505V150H408V505H53Z" fill="white"/>
<path fill-rule="evenodd" clip-rule="evenodd" d="M186.942 281.255L180.119 276.152L171.702 261.485L163.301 253.106L152.803 235.285L153.857 225.865L159.113 220.621L169.612 215.393H176.966L189.569 219.576L194.825 225.865L196.922 244.725L201.115 256.241L197.969 273.001L186.948 281.255H186.942ZM239.986 234.238C237.511 240.75 235.777 247.514 233.681 254.15L230.937 271.954H214.767L209.526 267.773L210.58 252.059L204.276 240.527V221.683C206.34 208.992 225.079 208.661 235.353 214.265C236.896 220.922 246.885 216.171 239.993 234.238H239.986ZM247.339 234.238C247.793 230.87 249.212 227.682 250.151 224.406L276.752 219.576L293.553 225.12V234.238L278.848 259.394L267.301 273.001H259.948L243.13 265.682C242.779 263.928 241.724 262.184 242.076 260.438C243.159 255.357 245.586 250.668 247.333 245.771C247.333 241.925 246.821 238.058 247.333 234.238H247.339ZM327.168 266.727C319.962 275.392 309.387 280.604 300.507 287.544L283.057 279.289L279.895 275.108L293.553 255.196L303.019 236.331L307.212 231.107H314.559L333.473 247.862C331.361 254.15 331.414 261.629 327.168 266.727V266.727ZM143.322 240.357L151.756 249.952L160.156 268.819L174.909 284.677L167.509 290.821H161.205L114.796 261.676L135.985 241.573L143.322 240.358V240.357ZM370.684 292.974C368.079 295.05 365.838 297.679 362.886 299.2C352.311 304.682 341.466 309.686 330.314 313.868C325.918 315.529 321.088 315.707 316.469 316.638L311.419 306.535V293.958L327.168 278.245L336.16 264.16L339.778 267.773L351.324 270.91L359.726 277.198L370.684 292.974ZM109.734 271.954L143.353 288.731L153.851 296.063L156.996 301.291V306.535L153.851 312.823L147.547 322.249L137.048 314.914L121.28 311.777L105.525 305.489L88.4048 290.697L103.429 274.061L109.734 271.954V271.954ZM136.225 324.893C138.876 326.223 138.097 330.642 140.194 332.735V341.114L130.743 344.251L89.7711 343.205L84.5137 336.917V314.915L85.5828 310.733L89.7771 307.58L91.8727 309.687C95.0316 311.431 98.0529 313.439 101.336 314.915C105.069 316.591 109.023 317.75 112.884 319.113C119.889 321.581 129.586 321.581 136.231 324.893L136.225 324.893ZM371.017 309.686L373.382 337.962L369.191 346.356L328.217 349.493L319.962 348.111L318.775 333.78L324.017 328.538L356.589 314.915L371.024 309.687L371.017 309.686ZM141.242 365.201C141.242 371.588 140.451 377.939 140.056 384.306L123.399 386.159L103.436 385.113L89.7785 384.069L84.5209 377.78L85.7952 355.116L98.1816 352.647C105.883 353.691 113.521 355.528 121.29 355.782C124.179 355.87 126.815 353.784 129.706 353.691C133.104 353.56 136.436 354.639 139.804 355.13C140.302 358.49 141.225 361.819 141.254 365.202L141.242 365.201ZM321.04 380.915L319.484 362.34L349.228 358.918H368.142L373.382 364.162V373.582L369.191 378.824L321.04 380.915V380.915ZM374.575 417.902L362.886 421.784H322.088L320.858 398.736L329.26 392.447L366.026 391.402L371.28 393.494L373.378 396.646L374.564 417.903L374.575 417.902ZM90.8181 424.921C88.5966 424.62 87.3268 422.131 85.5768 420.738V402.917L88.7212 397.69L96.0757 394.538L113.925 393.494L141.242 397.043V424.036C137.743 425.029 134.381 426.964 130.743 427.027C117.418 427.266 104.015 426.758 90.8181 424.921V424.921ZM74 447L75.0692 438.542V386.159L77.1677 379.871V311.777L75.0692 304.443V296.063L78.231 285.577L84.5195 277.198L102.386 257.287L108.691 250.998L117.091 245.771L126.54 236.331L138.102 225.865L149.648 213.288L160.162 208.06L276.758 207L286.207 208.06L292.511 210.151L306.168 216.439L318.774 222.728L329.27 227.956L339.783 237.392C343.629 243.68 346.52 250.652 351.33 256.241C357.142 263.006 364.64 268.125 371.292 274.061L380.743 287.684L382.838 301.291V343.205L383.907 350.539L381.797 368.355L383.907 380.915L382.838 408.161L386 423.875V447H371.994C372.374 446.701 372.784 446.477 373.195 446.368C373.605 443.055 375.56 439.588 374.439 436.451C373.605 434.076 370.246 433.661 368.149 432.27L326.127 434.36L322.967 438.542C321.912 442.325 323.509 445.069 325.925 446.999H139.579C140.296 445.56 141.058 444.147 141.897 442.833L133.896 436.451L97.1317 435.407L86.6326 439.602C86.6326 441.963 86.0029 444.516 85.6368 446.999" fill="black"/>
</svg>
