<svg width="655" height="505" viewBox="0 0 655 505" fill="none" xmlns="http://www.w3.org/2000/svg">
<path d="M651.947 3.28412V501.713H3.0528V3.28412H651.947V3.28412Z" fill="white"/>
<path d="M3.05279 0C1.36596 0 0 1.47071 0 3.28411V501.713C0 503.529 1.36596 505 3.05279 505H651.947C653.634 505 655 503.529 655 501.713V3.28411C655 1.47071 653.634 0 651.947 0H3.05279V0ZM648.897 6.57128C648.897 13.0149 648.897 491.982 648.897 498.425C642.878 498.425 12.1244 498.425 6.10559 498.425C6.10559 491.982 6.10559 13.0149 6.10559 6.57128C12.1244 6.57128 642.879 6.57128 648.897 6.57128" fill="black"/>
<path d="M5.49234 11.538C4.65037 11.538 3.96722 12.2733 3.96722 13.1802C3.96722 14.0868 4.65037 14.8253 5.49234 14.8253H649.511C650.353 14.8253 651.036 14.0868 651.036 13.1802C651.036 12.2733 650.353 11.538 649.511 11.538H5.49234" fill="black"/>
<path d="M5.49234 21.4963C4.65037 21.4963 3.96722 22.2317 3.96722 23.1385C3.96722 24.0483 4.65037 24.7837 5.49234 24.7837H649.511C650.353 24.7837 651.036 24.0483 651.036 23.1385C651.036 22.2317 650.353 21.4963 649.511 21.4963H5.49234Z" fill="black"/>
<path d="M5.49234 31.4547C4.65037 31.4547 3.96722 32.19 3.96722 33.0969C3.96722 34.0067 4.65037 34.7421 5.49234 34.7421H649.511C650.353 34.7421 651.036 34.0067 651.036 33.0969C651.036 32.19 650.353 31.4547 649.511 31.4547H5.49234Z" fill="black"/>
<path d="M5.49234 41.413C4.65037 41.413 3.96722 42.1484 3.96722 43.0552C3.96722 43.9651 4.65037 44.7004 5.49234 44.7004H649.511C650.353 44.7004 651.036 43.9651 651.036 43.0552C651.036 42.1484 650.353 41.413 649.511 41.413H5.49234Z" fill="black"/>
<path d="M5.49234 51.3714C4.65037 51.3714 3.96722 52.1067 3.96722 53.0166C3.96722 53.9234 4.65037 54.6588 5.49234 54.6588H649.511C650.353 54.6588 651.036 53.9234 651.036 53.0166C651.036 52.1067 650.353 51.3714 649.511 51.3714H5.49234Z" fill="black"/>
<path d="M5.49234 61.3297C4.65037 61.3297 3.96722 62.0651 3.96722 62.9719C3.96722 63.8817 4.65037 64.6171 5.49234 64.6171H649.511C650.353 64.6171 651.036 63.8817 651.036 62.9719C651.036 62.0651 650.353 61.3297 649.511 61.3297H5.49234Z" fill="black"/>
<path d="M5.49234 71.2881C4.65037 71.2881 3.96722 72.0234 3.96722 72.9303C3.96722 73.8401 4.65037 74.5755 5.49234 74.5755H649.511C650.353 74.5755 651.036 73.8401 651.036 72.9303C651.036 72.0234 650.353 71.2881 649.511 71.2881H5.49234Z" fill="black"/>
<path d="M5.49234 81.2465C4.65037 81.2465 3.96722 81.9818 3.96722 82.8917C3.96722 83.7985 4.65037 84.5338 5.49234 84.5338H649.511C650.353 84.5338 651.036 83.7985 651.036 82.8917C651.036 81.9818 650.353 81.2465 649.511 81.2465H5.49234Z" fill="black"/>
<path d="M5.49234 91.2048C4.65037 91.2048 3.96722 91.9401 3.96722 92.85C3.96722 93.7569 4.65037 94.4922 5.49234 94.4922H649.511C650.353 94.4922 651.036 93.7569 651.036 92.85C651.036 91.9401 650.353 91.2048 649.511 91.2048H5.49234Z" fill="black"/>
<path d="M5.49234 180.833C4.65037 180.833 3.96722 181.569 3.96722 182.475C3.96722 183.382 4.65037 184.117 5.49234 184.117H649.511C650.353 184.117 651.036 183.382 651.036 182.475C651.036 181.569 650.353 180.833 649.511 180.833H5.49234Z" fill="black"/>
<path d="M5.49234 190.792C4.65037 190.792 3.96722 191.527 3.96722 192.434C3.96722 193.34 4.65037 194.076 5.49234 194.076H649.511C650.353 194.076 651.036 193.34 651.036 192.434C651.036 191.527 650.353 190.792 649.511 190.792H5.49234Z" fill="black"/>
<path d="M5.49234 200.75C4.65037 200.75 3.96722 201.485 3.96722 202.392C3.96722 203.299 4.65037 204.037 5.49234 204.037H649.511C650.353 204.037 651.036 203.299 651.036 202.392C651.036 201.485 650.353 200.75 649.511 200.75H5.49234Z" fill="black"/>
<path d="M5.49234 210.708C4.65037 210.708 3.96722 211.44 3.96722 212.35C3.96722 213.257 4.65037 213.992 5.49234 213.992H649.511C650.353 213.992 651.036 213.257 651.036 212.35C651.036 211.44 650.353 210.708 649.511 210.708H5.49234Z" fill="black"/>
<path d="M5.49234 220.667C4.65037 220.667 3.96722 221.402 3.96722 222.309C3.96722 223.218 4.65037 223.954 5.49234 223.954H649.511C650.353 223.954 651.036 223.218 651.036 222.309C651.036 221.402 650.353 220.667 649.511 220.667H5.49234Z" fill="black"/>
<path d="M5.49234 230.625C4.65037 230.625 3.96722 231.36 3.96722 232.267C3.96722 233.177 4.65037 233.912 5.49234 233.912H649.511C650.353 233.912 651.036 233.177 651.036 232.267C651.036 231.36 650.353 230.625 649.511 230.625H5.49234Z" fill="black"/>
<path d="M5.49234 240.583C4.65037 240.583 3.96722 241.319 3.96722 242.225C3.96722 243.135 4.65037 243.871 5.49234 243.871H649.511C650.353 243.871 651.036 243.135 651.036 242.225C651.036 241.319 650.353 240.583 649.511 240.583H5.49234Z" fill="black"/>
<path d="M5.49234 250.542C4.65037 250.542 3.96722 251.277 3.96722 252.184C3.96722 253.094 4.65037 253.829 5.49234 253.829H649.511C650.353 253.829 651.036 253.094 651.036 252.184C651.036 251.277 650.353 250.542 649.511 250.542H5.49234Z" fill="black"/>
<path d="M5.49234 260.5C4.65037 260.5 3.96722 261.235 3.96722 262.142C3.96722 263.052 4.65037 263.784 5.49234 263.784H649.511C650.353 263.784 651.036 263.052 651.036 262.142C651.036 261.235 650.353 260.5 649.511 260.5H5.49234Z" fill="black"/>
<path d="M5.49234 270.458C4.65037 270.458 3.96722 271.194 3.96722 272.1C3.96722 273.01 4.65037 273.746 5.49234 273.746H649.511C650.353 273.746 651.036 273.01 651.036 272.1C651.036 271.194 650.353 270.458 649.511 270.458H5.49234Z" fill="black"/>
<path d="M5.49234 280.417C4.65037 280.417 3.96722 281.152 3.96722 282.059C3.96722 282.969 4.65037 283.704 5.49234 283.704H649.511C650.353 283.704 651.036 282.969 651.036 282.059C651.036 281.152 650.353 280.417 649.511 280.417H5.49234Z" fill="black"/>
<path d="M5.49234 290.375C4.65037 290.375 3.96722 291.111 3.96722 292.02C3.96722 292.927 4.65037 293.662 5.49234 293.662H649.511C650.353 293.662 651.036 292.927 651.036 292.02C651.036 291.111 650.353 290.375 649.511 290.375H5.49234Z" fill="black"/>
<path d="M5.49234 300.334C4.65037 300.334 3.96722 301.069 3.96722 301.975C3.96722 302.885 4.65037 303.621 5.49234 303.621H649.511C650.353 303.621 651.036 302.885 651.036 301.975C651.036 301.069 650.353 300.334 649.511 300.334H5.49234Z" fill="black"/>
<path d="M5.49234 310.292C4.65037 310.292 3.96722 311.027 3.96722 311.937C3.96722 312.844 4.65037 313.579 5.49234 313.579H649.511C650.353 313.579 651.036 312.844 651.036 311.937C651.036 311.027 650.353 310.292 649.511 310.292H5.49234Z" fill="black"/>
<path d="M5.49234 320.25C4.65037 320.25 3.96722 320.986 3.96722 321.895C3.96722 322.802 4.65037 323.537 5.49234 323.537H649.511C650.353 323.537 651.036 322.802 651.036 321.895C651.036 320.986 650.353 320.25 649.511 320.25H5.49234Z" fill="black"/>
<path d="M5.49234 330.209C4.65037 330.209 3.96722 330.944 3.96722 331.854C3.96722 332.76 4.65037 333.496 5.49234 333.496H649.511C650.353 333.496 651.036 332.76 651.036 331.854C651.036 330.944 650.353 330.209 649.511 330.209H5.49234Z" fill="black"/>
<path d="M5.49234 340.167C4.65037 340.167 3.96722 340.902 3.96722 341.812C3.96722 342.719 4.65037 343.454 5.49234 343.454H649.511C650.353 343.454 651.036 342.719 651.036 341.812C651.036 340.902 650.353 340.167 649.511 340.167H5.49234Z" fill="black"/>
<path d="M5.49234 350.125C4.65037 350.125 3.96722 350.861 3.96722 351.767C3.96722 352.677 4.65037 353.412 5.49234 353.412H649.511C650.353 353.412 651.036 352.677 651.036 351.767C651.036 350.861 650.353 350.125 649.511 350.125H5.49234Z" fill="black"/>
<path d="M5.49234 360.084C4.65037 360.084 3.96722 360.819 3.96722 361.729C3.96722 362.635 4.65037 363.371 5.49234 363.371H649.511C650.353 363.371 651.036 362.635 651.036 361.729C651.036 360.819 650.353 360.084 649.511 360.084H5.49234Z" fill="black"/>
<path d="M5.49234 370.042C4.65037 370.042 3.96722 370.777 3.96722 371.687C3.96722 372.594 4.65037 373.329 5.49234 373.329H649.511C650.353 373.329 651.036 372.594 651.036 371.687C651.036 370.777 650.353 370.042 649.511 370.042H5.49234Z" fill="black"/>
<path d="M5.49234 380.003C4.65037 380.003 3.96722 380.736 3.96722 381.646C3.96722 382.552 4.65037 383.288 5.49234 383.288H649.511C650.353 383.288 651.036 382.552 651.036 381.646C651.036 380.736 650.353 380.003 649.511 380.003H5.49234Z" fill="black"/>
<path d="M5.49234 389.959C4.65037 389.959 3.96722 390.694 3.96722 391.604C3.96722 392.511 4.65037 393.246 5.49234 393.246H649.511C650.353 393.246 651.036 392.511 651.036 391.604C651.036 390.694 650.353 389.959 649.511 389.959H5.49234Z" fill="black"/>
<path d="M5.49234 399.92C4.65037 399.92 3.96722 400.655 3.96722 401.562C3.96722 402.472 4.65037 403.207 5.49234 403.207H649.511C650.353 403.207 651.036 402.472 651.036 401.562C651.036 400.655 650.353 399.92 649.511 399.92H5.49234Z" fill="black"/>
<path d="M5.49234 409.878C4.65037 409.878 3.96722 410.611 3.96722 411.521C3.96722 412.427 4.65037 413.163 5.49234 413.163H649.511C650.353 413.163 651.036 412.427 651.036 411.521C651.036 410.611 650.353 409.878 649.511 409.878H5.49234Z" fill="black"/>
<path d="M5.49234 419.834C4.65037 419.834 3.96722 420.569 3.96722 421.479C3.96722 422.386 4.65037 423.121 5.49234 423.121H649.511C650.353 423.121 651.036 422.386 651.036 421.479C651.036 420.569 650.353 419.834 649.511 419.834H5.49234Z" fill="black"/>
<path d="M5.49234 429.795C4.65037 429.795 3.96722 430.53 3.96722 431.437C3.96722 432.347 4.65037 433.079 5.49234 433.079H649.511C650.353 433.079 651.036 432.347 651.036 431.437C651.036 430.53 650.353 429.795 649.511 429.795H5.49234Z" fill="black"/>
<path d="M5.49234 439.75C4.65037 439.75 3.96722 440.486 3.96722 441.396C3.96722 442.302 4.65037 443.038 5.49234 443.038H649.511C650.353 443.038 651.036 442.302 651.036 441.396C651.036 440.486 650.353 439.75 649.511 439.75H5.49234Z" fill="black"/>
<path d="M5.49234 449.712C4.65037 449.712 3.96722 450.447 3.96722 451.354C3.96722 452.264 4.65037 452.999 5.49234 452.999H649.511C650.353 452.999 651.036 452.264 651.036 451.354C651.036 450.447 650.353 449.712 649.511 449.712H5.49234Z" fill="black"/>
<path d="M5.49234 459.67C4.65037 459.67 3.96722 460.405 3.96722 461.312C3.96722 462.222 4.65037 462.954 5.49234 462.954H649.511C650.353 462.954 651.036 462.222 651.036 461.312C651.036 460.405 650.353 459.67 649.511 459.67H5.49234Z" fill="black"/>
<path d="M5.49234 469.629C4.65037 469.629 3.96722 470.364 3.96722 471.271C3.96722 472.181 4.65037 472.916 5.49234 472.916H649.511C650.353 472.916 651.036 472.181 651.036 471.271C651.036 470.364 650.353 469.629 649.511 469.629H5.49234Z" fill="black"/>
<path d="M5.49234 479.587C4.65037 479.587 3.96722 480.322 3.96722 481.229C3.96722 482.139 4.65037 482.874 5.49234 482.874H649.511C650.353 482.874 651.036 482.139 651.036 481.229C651.036 480.322 650.353 479.587 649.511 479.587H5.49234Z" fill="black"/>
<path d="M5.49234 489.545C4.65037 489.545 3.96722 490.281 3.96722 491.19C3.96722 492.097 4.65037 492.833 5.49234 492.833H649.511C650.353 492.833 651.036 492.097 651.036 491.19C651.036 490.281 650.353 489.545 649.511 489.545H5.49234Z" fill="black"/>
<path d="M651.947 177.241V90.8778H489.724V3.28412H410.313V90.8778H244.687V3.28412H165.274V90.8778H3.04999V177.241H165.274V501.716H244.687V414.116H651.947V327.756H489.724V177.241H651.947V177.241ZM410.313 177.241V327.756H244.687V177.241H410.313Z" fill="white"/>
<path d="M410.313 1.64194C409.468 1.64194 408.785 2.37729 408.785 3.2841C408.785 3.2841 408.785 86.0698 408.785 89.2356C405.817 89.2356 249.181 89.2356 246.212 89.2356C246.212 86.0698 246.212 3.2841 246.212 3.2841C246.212 2.37729 245.529 1.64194 244.687 1.64194H165.273C164.432 1.64194 163.749 2.37729 163.749 3.2841C163.749 3.2841 163.749 86.0698 163.749 89.2356C160.754 89.2356 3.04994 89.2356 3.04994 89.2356C2.20802 89.2356 1.52509 89.9709 1.52509 90.8778V177.24C1.52509 178.147 2.20802 178.883 3.04994 178.883C3.04994 178.883 160.754 178.883 163.749 178.883C163.749 182.139 163.749 501.716 163.749 501.716C163.749 502.623 164.432 503.358 165.273 503.358H244.687C245.529 503.358 246.212 502.623 246.212 501.716C246.212 501.716 246.212 418.924 246.212 415.761C249.241 415.761 651.947 415.761 651.947 415.761C652.792 415.761 653.475 415.026 653.475 414.116V327.756C653.475 326.846 652.792 326.114 651.947 326.114C651.947 326.114 494.246 326.114 491.249 326.114C491.249 322.933 491.249 182.064 491.249 178.883C494.246 178.883 651.947 178.883 651.947 178.883C652.792 178.883 653.475 178.147 653.475 177.24V90.8778C653.475 89.9709 652.792 89.2356 651.947 89.2356C651.947 89.2356 494.246 89.2356 491.249 89.2356C491.249 86.0698 491.249 3.2841 491.249 3.2841C491.249 2.37729 490.566 1.64194 489.724 1.64194H410.313V1.64194ZM488.199 4.92932C488.199 8.09182 488.199 90.8778 488.199 90.8778C488.199 91.7876 488.879 92.5229 489.724 92.5229C489.724 92.5229 647.428 92.5229 650.422 92.5229C650.422 95.6231 650.422 172.495 650.422 175.599C647.428 175.599 489.724 175.599 489.724 175.599C488.879 175.599 488.199 176.334 488.199 177.24V327.756C488.199 328.663 488.879 329.398 489.724 329.398C489.724 329.398 647.428 329.398 650.422 329.398C650.422 332.502 650.422 409.371 650.422 412.474C647.393 412.474 244.687 412.474 244.687 412.474C243.842 412.474 243.159 413.209 243.159 414.116C243.159 414.116 243.159 496.908 243.159 500.071C240.283 500.071 169.678 500.071 166.801 500.071C166.801 496.818 166.801 177.24 166.801 177.24C166.801 176.334 166.118 175.599 165.273 175.599C165.273 175.599 7.57294 175.599 4.57788 175.599C4.57788 172.495 4.57788 95.6231 4.57788 92.5229C7.57294 92.5229 165.273 92.5229 165.273 92.5229C166.118 92.5229 166.801 91.7876 166.801 90.8778C166.801 90.8778 166.801 8.09182 166.801 4.92932C169.678 4.92932 240.283 4.92932 243.159 4.92932C243.159 8.09182 243.159 90.8778 243.159 90.8778C243.159 91.7876 243.842 92.5229 244.687 92.5229H410.313C411.155 92.5229 411.838 91.7876 411.838 90.8778C411.838 90.8778 411.838 8.09182 411.838 4.92932C414.717 4.92932 485.319 4.92932 488.199 4.92932" fill="black"/>
<path d="M244.687 175.599C243.842 175.599 243.159 176.334 243.159 177.241V327.756C243.159 328.663 243.842 329.398 244.687 329.398H410.313C411.155 329.398 411.838 328.663 411.838 327.756V177.241C411.838 176.334 411.155 175.599 410.313 175.599H244.687ZM408.785 178.883C408.785 182.064 408.785 322.933 408.785 326.114C405.817 326.114 249.181 326.114 246.212 326.114C246.212 322.933 246.212 182.064 246.212 178.883C249.181 178.883 405.817 178.883 408.785 178.883" fill="black"/>
<path d="M430.08 123.133H133.05V114.097L97.6 133.572L133.05 153.239V144.496H430.08C436.535 144.496 441.788 150.154 441.788 157.106V347.149C441.788 354.101 436.535 359.76 430.08 359.76H226.118C208.725 359.76 194.572 374.999 194.572 393.732V501.636H214.411V393.732C214.411 386.78 219.663 381.122 226.118 381.122H430.08C447.476 381.122 461.626 365.882 461.626 347.149V157.106C461.626 138.373 447.476 123.133 430.08 123.133Z" fill="black"/>
</svg>
