<svg width="500" height="655" viewBox="0 0 500 655" fill="none" xmlns="http://www.w3.org/2000/svg">
<path d="M500 0V655H0V0H500V0Z" fill="#0C479D"/>
<path d="M227.49 556.36L243.796 236.572H215.205L257.728 81.149L300.245 236.572H271.654L287.964 556.36H227.49Z" fill="white"/>
<path d="M31.3687 67.2304V130.885H20.755V67.2304H31.3687V67.2304Z" fill="white"/>
<path d="M31.3687 201.776V265.431H20.755V201.776H31.3687Z" fill="white"/>
<path d="M31.3687 336.319V399.974H20.755V336.319H31.3687V336.319Z" fill="white"/>
<path d="M31.3687 470.865V534.52H20.755V470.865H31.3687V470.865Z" fill="white"/>
<path d="M31.3687 605.411V654.6H20.755V605.411H31.3687Z" fill="white"/>
<path d="M185.068 67.2304V130.885H174.455V67.2304H185.068V67.2304Z" fill="white"/>
<path d="M185.068 201.776V265.431H174.455V201.776H185.068Z" fill="white"/>
<path d="M185.068 336.319V399.974H174.455V336.319H185.068V336.319Z" fill="white"/>
<path d="M185.068 470.865V534.52H174.455V470.865H185.068V470.865Z" fill="white"/>
<path d="M185.068 605.411V654.6H174.455V605.411H185.068Z" fill="white"/>
<path d="M336.552 67.2304V130.885H325.939V67.2304H336.552V67.2304Z" fill="white"/>
<path d="M336.552 201.776V265.431H325.939V201.776H336.552Z" fill="white"/>
<path d="M336.552 336.319V399.974H325.939V336.319H336.552V336.319Z" fill="white"/>
<path d="M336.552 470.865V534.52H325.939V470.865H336.552V470.865Z" fill="white"/>
<path d="M336.552 605.411V654.6H325.939V605.411H336.552Z" fill="white"/>
<path d="M477.201 67.2304V130.885H466.587V67.2304H477.201V67.2304Z" fill="white"/>
<path d="M477.201 201.776V265.431H466.587V201.776H477.201Z" fill="white"/>
<path d="M477.201 336.319V399.974H466.587V336.319H477.201V336.319Z" fill="white"/>
<path d="M477.201 470.865V534.52H466.587V470.865H477.201V470.865Z" fill="white"/>
<path d="M477.201 605.411V654.6H466.587V605.411H477.201Z" fill="white"/>
<path d="M366.599 556.265L374.756 296.29C374.756 254.724 378.252 224.537 383.437 206.568C388.232 189.955 410.922 187.825 415.455 187.825H428.618V129.961L459.758 214.889L428.618 299.823V244.309H415.455C410.375 244.309 405.924 252.378 406.624 296.29L416.086 556.265H366.599" fill="white"/>
<path d="M157.108 236.572L114.591 81.149L72.0705 236.572H100.662L97.2532 303.399H68.2983V246.629L37.1579 329.948L68.2983 413.27V358.811H94.428L84.3523 556.36H144.826L128.52 236.572H157.108" fill="white"/>
</svg>
