<svg width="510" height="150" viewBox="0 0 510 150" fill="none" xmlns="http://www.w3.org/2000/svg">
<path d="M5.80735 75.355L47.3673 5H490C498.284 5 505 11.7157 505 20V130C505 138.284 498.284 145 490 145H46.9558L5.80735 75.355Z" fill="#0C479D" stroke="white" stroke-width="10"/>
<path fill-rule="evenodd" clip-rule="evenodd" d="M61.6342 26H88L59.2565 75.3751L87.3878 124H61.242L31 75.3807" fill="white"/>
<path d="M106 43.0783H146.076V51.7883H130.834V98.6997H121.256V51.7883H106V43.0783Z" fill="#FFC500"/>
<path d="M171.923 58.176C172.512 58.1749 173.101 58.2056 173.686 58.2681C174.232 58.3273 174.706 58.3931 175.12 58.4655C184.484 61.8775 189.166 68.4845 189.166 78.2865C189.166 79.1549 189.133 80.0496 189.054 80.9706C188.4 89.4437 184.626 95.2043 177.732 98.2523C175.578 99.0884 173.293 99.5339 170.983 99.568C167.428 99.5795 163.992 98.2876 161.325 95.9367V111.067H152.615L152.576 74.0763C153.304 68.8968 155.058 65.1887 157.839 62.952C160.619 60.7153 164.496 59.1365 169.47 58.2155L171.923 58.176ZM161.437 76.1419C161.271 76.8505 161.211 77.58 161.26 78.3063C161.279 79.0147 161.333 79.7217 161.424 80.4245C161.424 83.8848 162.257 86.6325 163.924 88.6674C165.682 90.0066 167.813 90.7674 170.022 90.8449C171.662 90.826 173.267 90.372 174.673 89.5292C176.357 88.3724 177.726 86.8148 178.657 84.9968C179.589 83.1788 180.053 81.1576 180.008 79.1154C180.03 78.4524 179.968 77.7894 179.824 77.1419C178.07 69.9318 174.658 66.6162 169.588 67.1951C165.145 67.5241 162.428 70.5063 161.437 76.1419V76.1419Z" fill="#FFC500"/>
<path d="M201.323 59.2286H210.184V83.3323C210.184 87.1807 210.276 89.1608 210.473 89.2529C210.698 89.7283 211.021 90.1502 211.421 90.4906C211.822 90.831 212.29 91.0818 212.796 91.2265V99.647C207.186 99.647 203.412 97.3357 201.474 92.7132C201.448 92.4764 201.428 92.2571 201.415 92.0554C201.407 91.8831 201.376 91.7127 201.323 91.5488V59.2286ZM204.375 34H213.302L208.802 48.374H202.882L204.375 34Z" fill="#FFC500"/>
<path d="M235.333 58.6826C236.11 56.3406 235.215 54.1872 232.649 52.2225C232.43 51.2094 230.518 50.9682 226.913 51.4988L228.406 42.46C229.608 41.9512 231.801 42.0959 234.985 42.8941C239.485 44.0037 242.46 47.3324 243.912 52.8803C251.03 77.5366 254.896 90.0818 255.51 90.516C256.422 91.0373 257.453 91.3138 258.503 91.3186L257.562 99.5943C255.011 99.8155 252.442 99.4556 250.05 98.5418C248.839 98.0286 247.76 96.8314 246.813 94.9499L239.741 72.4448L227.472 98.8641H218.203L235.333 58.6826Z" fill="#FFC500"/>
<path d="M299.112 66.886C300.725 70.6135 301.575 74.6264 301.612 78.6878C301.619 81.0257 301.321 83.3545 300.724 85.615C299.053 92.8294 294.841 97.3313 288.087 99.1207C287.135 99.3808 286.165 99.5699 285.186 99.6864C284.245 99.7917 283.311 99.8575 282.39 99.8838C278.891 99.9084 275.466 98.8842 272.555 96.9432C266.963 93.0487 264.011 87.8692 263.7 81.4048C263.7 81.0693 263.661 80.7469 263.661 80.4114V79.4444C263.661 67.3487 269.191 60.0663 280.252 57.5971C280.47 57.5706 280.69 57.5574 280.91 57.5577H281.567C289.391 57.5577 295.24 60.6671 299.112 66.886ZM272.686 80.7009C273.48 87.1873 276.769 90.7199 282.554 91.2988C288.479 90.7462 291.768 87.65 292.422 82.01C292.514 81.2798 292.6 80.5824 292.672 79.9049C292.745 79.2497 292.769 78.59 292.744 77.9313C292.744 70.5941 289.102 66.6733 281.817 66.1689C275.647 67.6951 272.561 71.7957 272.561 78.4707C272.575 79.1681 272.614 79.9049 272.686 80.6811V80.7009Z" fill="#FFC500"/>
<path d="M337.564 42.4994V59.051C348.651 63.0639 354.144 69.6621 354.043 78.8457C353.942 88.0293 348.449 94.4609 337.564 98.1405V115.902H328.091L328.018 98.4036C316.501 95.36 310.633 88.5359 310.414 77.9313C310.971 68.274 316.835 61.9543 328.005 58.972V42.5258L337.564 42.4994ZM327.933 88.8319L327.86 68.103C323.036 70.0415 320.519 73.3307 320.308 77.9708C320.098 82.6108 322.639 86.2312 327.933 88.8319ZM337.511 88.9043C342.84 85.9483 345.502 82.4025 345.497 78.2668C345.493 74.1311 342.862 70.684 337.603 67.9254L337.511 88.9043Z" fill="#FFC500"/>
<path d="M396.112 66.886C397.727 70.6131 398.58 74.626 398.619 78.6878C398.623 81.0268 398.317 83.356 397.711 85.615C396.04 92.8294 391.83 97.3313 385.08 99.1207C384.126 99.3808 383.154 99.5699 382.173 99.6864C381.232 99.7917 380.298 99.8575 379.383 99.8838C375.874 99.9138 372.436 98.8894 369.515 96.9432C363.928 93.0487 360.977 87.8692 360.661 81.4048C360.661 81.0693 360.661 80.7469 360.661 80.4114V79.4444C360.661 67.3487 366.189 60.0663 377.245 57.5971C377.463 57.5706 377.683 57.5574 377.903 57.5577H378.561C386.407 57.5577 392.257 60.6671 396.112 66.886ZM369.687 80.7009C370.489 87.1873 373.778 90.7199 379.554 91.2988C385.479 90.7462 388.769 87.65 389.422 82.01C389.521 81.2798 389.606 80.5824 389.679 79.9049C389.748 79.2495 389.773 78.59 389.751 77.9313C389.751 70.5941 386.109 66.6733 378.824 66.1689C372.675 67.682 369.601 71.7804 369.601 78.4642C369.601 79.1681 369.634 79.9049 369.706 80.6811L369.687 80.7009Z" fill="#FFC500"/>
<path d="M438.272 45.8479H478V55.0973L477.618 55.8143C477.525 56.0274 477.448 56.2473 477.388 56.4722L477.237 56.9261L477.086 57.2287C476.809 57.7879 476.572 58.301 476.369 58.7681C476.177 59.196 476.012 59.6354 475.875 60.0838L475.421 61.1495L475.119 61.7547L474.816 62.5178L473.902 64.4914L473.75 64.9453C473.528 65.3185 473.374 65.7285 473.296 66.1558L471.481 69.945L471.178 71.0107L470.566 72.0698C470.408 72.8315 470.1 73.5539 469.658 74.1947L467.836 78.8918L467.231 79.9509L465.869 83.4441L464.961 85.2598C464.882 85.6878 464.726 86.098 464.501 86.4702L464.198 87.3846L463.896 87.6872V88.174L462.534 91.0554L462.231 91.9633L461.929 92.5685L461.777 93.1803L460.896 94.8183C460.755 95.4662 460.499 96.0835 460.139 96.6406C459.963 97.325 459.709 97.987 459.383 98.6141L459.08 99.0681L458.778 99.9825L458.626 100.588L458.166 101.496L457.107 103.923H446.16C446.254 103.5 446.406 103.093 446.614 102.713L446.765 102.403L446.917 101.798L447.219 101.496C447.513 100.372 447.974 99.2983 448.587 98.3115V97.8576L448.89 97.555C449.044 97.0279 449.226 96.5096 449.436 96.0025C449.627 95.5485 449.798 95.1538 449.949 94.8249L450.403 93.9171L450.706 92.8514C450.962 92.3974 451.173 91.9698 451.364 91.5686C451.527 91.1982 451.668 90.8181 451.785 90.4305L452.239 89.3648L452.541 89.0621C452.629 88.6851 452.783 88.3266 452.995 88.003C453.124 87.4224 453.328 86.8608 453.6 86.3321L454.054 85.2729C454.179 84.9966 454.284 84.7532 454.357 84.5559C454.422 84.372 454.525 84.204 454.659 84.0625C454.98 82.9 455.44 81.7802 456.028 80.7272C456.126 80.4246 456.225 80.1417 456.33 79.8917C456.436 79.6417 456.534 79.4115 456.633 79.2338L456.949 78.3063L457.1 78.0037C457.225 77.7537 457.343 77.5103 457.442 77.28C457.541 77.0498 457.633 76.8393 457.705 76.6222C457.778 76.4051 457.962 76.0433 458.087 75.7933C458.201 75.5668 458.328 75.3471 458.468 75.1354L458.771 74.0763L459.225 73.1619L459.528 72.254L459.981 71.4975L460.284 70.741L460.587 69.8266L461.192 68.7674C461.413 67.9732 461.711 67.2022 462.08 66.465L462.231 66.011L462.383 65.7084L462.685 64.8006C463.03 64.2359 463.285 63.6212 463.442 62.9783L463.935 61.9587C464.053 61.7526 464.141 61.5312 464.198 61.3008L464.501 60.6956L464.652 60.0838L465.146 59.0641C465.265 58.8581 465.356 58.6368 465.415 58.4063L465.567 57.9524L465.718 57.6497C465.994 57.0906 466.238 56.5775 466.435 56.1104C466.627 55.6825 466.791 55.2431 466.928 54.7947H438.272V45.8479Z" fill="white"/>
</svg>
