<svg width="707" height="174" viewBox="0 0 707 174" fill="none" xmlns="http://www.w3.org/2000/svg">
<g clip-path="url(#clip0_0_3)">
<path d="M21.8 1H684.7C687.429 0.997374 690.132 1.53226 692.654 2.57413C695.176 3.61599 697.468 5.14443 699.4 7.07218C701.331 8.99992 702.864 11.2892 703.911 13.8094C704.957 16.3295 705.497 19.0311 705.5 21.76V21.76V500.4C705.503 503.129 704.968 505.832 703.926 508.354C702.884 510.876 701.356 513.168 699.428 515.1C697.5 517.031 695.211 518.564 692.691 519.611C690.17 520.657 687.469 521.197 684.74 521.2H21.8C19.0711 521.203 16.3685 520.668 13.8463 519.626C11.3242 518.584 9.03193 517.056 7.10047 515.128C5.16901 513.2 3.63616 510.911 2.58944 508.391C1.54273 505.871 1.00263 503.169 1.00001 500.44V500.44V21.8C0.997382 19.0711 1.53227 16.3685 2.57414 13.8463C3.616 11.3242 5.14444 9.03192 7.07219 7.10046C8.99993 5.169 11.2892 3.63616 13.8094 2.58944C16.3295 1.54272 19.0311 1.00263 21.76 1V1H21.8Z" fill="white" stroke="#231F20" stroke-width="2" stroke-miterlimit="10"/>
<path d="M24.6 7.7H683C687.774 7.7 692.352 9.59642 695.728 12.9721C699.104 16.3477 701 20.9261 701 25.7V156C701 160.774 699.104 165.352 695.728 168.728C692.352 172.104 687.774 174 683 174H24.6C19.8261 174 15.2477 172.104 11.8721 168.728C8.49643 165.352 6.60001 160.774 6.60001 156V25.7C6.6132 20.9302 8.51386 16.3594 11.8867 12.9867C15.2595 9.61385 19.8302 7.71319 24.6 7.7Z" fill="#1B75BC" stroke="#231F20" stroke-width="2" stroke-miterlimit="10"/>
<path d="M60.3 153.9H85.5V75.3L114.9 104.1V68.3L72.8 27.1L30.9 68.1V104.1L60.3 75.3V153.9" fill="white"/>
<path d="M60.3 153.9H85.5V75.3L114.9 104.1V68.3L72.8 27.1L30.9 68.1V104.1L60.3 75.3V153.9" stroke="white" stroke-miterlimit="10"/>
<path d="M147 64.2H157.1V86.9H183V64.2H193V122.4H183V95.9H157.1V122.4H147V64.2Z" fill="#FDC630"/>
<path d="M229 79.7C229.635 79.6884 230.27 79.7218 230.9 79.8C231.5 79.9 232 79.9 232.4 80C242.2 83.6 247.1 90.5 247.1 100.8C247.117 101.734 247.083 102.669 247 103.6C246.3 112.5 242.4 118.5 235.1 121.7C232.828 122.559 230.428 123.032 228 123.1C224.28 123.123 220.683 121.769 217.9 119.3V135.1H208.8V96.4C209.6 91 211.4 87.1 214.3 84.7C217.2 82.3 221.3 80.7 226.5 79.7H229ZM218 98.6C217.829 99.3539 217.761 100.128 217.8 100.9C217.797 101.638 217.864 102.375 218 103.1C217.85 106.181 218.769 109.218 220.6 111.7C222.448 113.103 224.682 113.906 227 114C228.729 113.982 230.422 113.498 231.9 112.6C233.661 111.387 235.095 109.757 236.072 107.855C237.049 105.953 237.54 103.838 237.5 101.7C237.534 100.994 237.466 100.287 237.3 99.6C235.5 92 231.9 88.6 226.6 89.2C221.9 89.6 219 92.7 218 98.6Z" fill="#FDC630"/>
<path d="M287.3 86.1V79.7H295.4V111.3C295.2 113.4 296.3 114.6 298.7 114.8L297 123.5C292 123.2 289.1 120.4 288.1 115.1C286.822 118.177 284.377 120.622 281.3 121.9C280.307 122.372 279.268 122.74 278.2 123C277.183 123.238 276.144 123.372 275.1 123.4C271.429 123.452 267.832 122.369 264.8 120.3C258.9 116.2 255.8 110.8 255.5 104V102C255.5 89.3 261.3 81.7 272.9 79.1H274.3C282.5 79.1 286.8 81.4 287.3 86.1ZM264.9 103.3C265.7 110.1 269.2 113.8 275.3 114.4C281.5 113.8 285 110.6 285.7 104.6C285.8 103.8 285.9 103.1 286 102.4C286.083 101.703 286.117 101.001 286.1 100.3C286.1 92.6 282.3 88.5 274.6 88C268.1 89.6 264.9 93.9 264.9 100.9C264.85 101.699 264.85 102.501 264.9 103.3V103.3ZM273.3 54.3H282.7L278 69.5H271.7L273.3 54.3ZM273.3 54.3H282.7L278 69.5H271.7L273.3 54.3Z" fill="#FDC630"/>
<path d="M311.1 80.7H320.4V100.7L328 92C329.87 89.2575 332.051 86.7407 334.5 84.5C336.83 82.3101 339.75 80.8501 342.9 80.3L348.9 80.1V89.2C347.157 88.9821 345.389 89.1181 343.7 89.6C342.129 90.2601 340.677 91.1721 339.4 92.3C337.854 93.546 336.446 94.954 335.2 96.5L332 100L348.3 122.2H338.4L326.8 107L320.4 115.4V122.3L311.1 122.2V80.7Z" fill="#FDC630"/>
<path d="M370.7 80.3C371.5 77.8 370.6 75.6 367.9 73.5C367.7 72.4 365.7 72.2 361.9 72.7L363.5 63.2C364.8 62.7 367.1 62.8 370.4 63.7C375.1 64.9 378.2 68.3 379.8 74.2C387.3 100.1 391.3 113.2 392 113.7C392.956 114.207 394.018 114.481 395.1 114.5L394.1 123.2C391.417 123.438 388.716 123.062 386.2 122.1C384.676 121.246 383.48 119.909 382.8 118.3L375.4 94.7L362.5 122.4H352.7L370.7 80.3Z" fill="#FDC630"/>
<path d="M436.6 87.7L429.7 93.4C426.2 89.5 422.4 87.9 418.3 88.5C415.5 89.1 414.1 90.2 414 91.7C413.9 93.2 414.8 94.1 416.5 94.5H422.7V103.7H415.1C411.9 104.7 411 106.9 412.4 110.2C413.6 112.9 416.6 114.2 421.2 113.9C426.5 113.5 430 111.5 431.7 107.9L440.3 113.2C435.6 120.1 428.9 123.4 420.4 123.2C411.9 123 406.5 120.5 404.4 115.8C401.6 108.5 402.6 103 407.4 99.2C403.7 96.3 402.5 92.4 404 87.8C405.5 83.2 410.1 80.5 417.9 79.8C425.9 80 432.2 82.7 436.6 87.7Z" fill="#FDC630"/>
<path d="M448.5 80.8H457.8V106.1C457.8 110.1 457.9 112.2 458.1 112.4C458.342 112.891 458.678 113.329 459.09 113.69C459.502 114.05 459.981 114.326 460.5 114.5V123.3C454.6 123.3 450.7 120.9 448.6 116V115.3C448.627 115.127 448.592 114.95 448.5 114.8V80.8Z" fill="#FDC630"/>
<path d="M506 88.9C507.711 92.8103 508.596 97.0318 508.6 101.3C508.619 103.769 508.282 106.227 507.6 108.6C505.9 116.2 501.4 120.9 494.4 122.8C493.422 123.099 492.417 123.3 491.4 123.4C490.4 123.5 489.4 123.6 488.5 123.6C484.829 123.652 481.232 122.569 478.2 120.5C472.3 116.4 469.2 111 468.9 104.2V102.2C468.9 89.5 474.7 81.9 486.3 79.3H487.7C495.9 79.1 502 82.4 506 88.9ZM478.3 103.3C479.1 110.1 482.6 113.8 488.7 114.4C494.9 113.8 498.4 110.6 499 104.7C499.1 103.9 499.2 103.2 499.3 102.5C499.383 101.803 499.417 101.101 499.4 100.4C499.4 92.7 495.6 88.6 487.9 88.1C481.4 89.7 478.2 94 478.2 101C478.188 101.768 478.222 102.536 478.3 103.3V103.3Z" fill="#FDC630"/>
<path d="M617.3 64H629.6V102.2H637.8V111.2H629.6V122.2H619.4V111.2H589.1V100.5L589.3 100.2L589.6 100C590.02 99.193 590.598 98.4789 591.3 97.9L591.5 97.4L592 97.1C592.11 96.8016 592.28 96.5293 592.5 96.3C592.7 96.1 592.9 95.8 593.1 95.6L593.4 95.2L593.7 94.9L593.9 94.6C594.264 94.2519 594.568 93.8465 594.8 93.4L595.1 93.1L596.2 91.7L596.5 91.3L596.8 91L597.1 90.6L597.3 90.3L597.9 89.7C598.171 89.1918 598.507 88.7211 598.9 88.3C599.181 87.9185 599.519 87.5815 599.9 87.3L600.5 86.2L601.3 85.4L601.6 84.8L601.9 84.6L602.1 84.2L602.4 84L602.6 83.7L604.1 81.7L604.7 80.8L605.3 80.2C605.59 79.6211 605.999 79.11 606.5 78.7L606.7 78.3C607.181 77.8703 607.586 77.3633 607.9 76.8L608.2 76.3L608.5 76.1C608.79 75.5211 609.199 75.01 609.7 74.6L610.2 73.8L610.8 73L611.3 72.5C611.577 71.9693 611.95 71.4946 612.4 71.1L612.7 70.6L613 70L614.4 68.5L614.6 68L615.1 67.7L615.3 67.2L615.9 66.6L616.1 66.3L616.4 66C616.7 65.6 617 65.2 617.2 64.9C617.4 64.6 617 64.3 617.3 64ZM618.8 76.8C618.477 77.5829 617.961 78.2711 617.3 78.8L616.7 79.9C616.4 80.2 616.2 80.5 615.9 80.8L615.1 81.6L614.6 82.5L613.8 83.3L612 85.9L611.7 86.1C611.28 86.907 610.702 87.6211 610 88.2L609.8 88.5L608.6 90.2L608.3 90.5L606.5 92.9L604.8 95L604.2 95.9L603.7 96.4L603.4 96.8L602.9 97.4L602.6 97.9L602.3 98.2L601 100L600.8 100.3L599.3 102.3H619.6V77.9C619.629 77.2932 619.561 76.6857 619.4 76.1L618.8 76.8Z" fill="#FDC630"/>
</g>
<defs>
<clipPath id="clip0_0_3">
<rect width="706.5" height="174" fill="white"/>
</clipPath>
</defs>
</svg>
