<svg width="655" height="573" viewBox="0 0 655 573" fill="none" xmlns="http://www.w3.org/2000/svg">
<path d="M327.499 539.655L50 34.6552H605L327.499 539.655Z" fill="#FFC500"/>
<path d="M2.70376 10.0908C6.30878 3.84684 12.9696 -8.16591e-06 20.1809 -8.16591e-06H634.822C642.03 -8.16591e-06 648.694 3.84684 652.296 10.0908C655.901 16.3347 655.901 24.0271 652.296 30.271L344.977 562.566C341.373 568.81 334.709 572.655 327.501 572.655C320.291 572.655 313.628 568.807 310.025 562.566L2.70376 30.271C-0.901255 24.0284 -0.901255 16.3347 2.70376 10.0908ZM327.501 471.754L564.913 60.5409H90.0883L327.501 471.754Z" fill="#CC0000"/>
</svg>
