<svg width="655" height="655" viewBox="0 0 655 655" fill="none" xmlns="http://www.w3.org/2000/svg">
<path d="M327.5 617.5C487.663 617.5 617.5 487.663 617.5 327.5C617.5 167.337 487.663 37.5 327.5 37.5C167.337 37.5 37.5 167.337 37.5 327.5C37.5 487.663 167.337 617.5 327.5 617.5Z" fill="white" stroke="#CC0000" stroke-width="75"/>
<path fill-rule="evenodd" clip-rule="evenodd" d="M296.457 178.189L349.457 175.189C349.457 175.189 349.457 144.067 379.957 141.189C410.457 138.312 412.957 169.189 412.957 169.189L407.457 172.689L409.957 182.689L402.957 186.189V195.689L401.957 199.689L388.457 198.689C379.594 211.437 366.432 229.004 358.957 240.689C357.676 243.217 358.212 243.455 360.957 244.189C382.753 248.548 409.931 254.246 430.957 257.689C438.957 239.689 458.112 238.48 471.957 238.189V278.189L450.457 274.689L452.457 285.689L485.957 282.189L486.457 276.189C486.457 276.189 499.727 277.963 507.457 280.689C515.28 283.449 526.457 290.189 526.457 290.189L523.957 296.189C523.957 296.189 533.087 305.246 538.457 311.689C543.826 318.133 551.457 329.189 551.457 329.189L541.457 332.189C541.457 332.189 568 398.736 515 431.5C462 464.264 418.957 416.689 418.957 416.689L410.457 421.189C410.457 421.189 405.496 417.336 402.457 412.189C395.074 399.689 396.457 390.189 393.957 390.189C391.457 390.189 393.957 398.189 381.957 409.689C377.543 413.919 370.957 415.689 370.957 415.689L231.457 426.689C231.457 426.689 224.286 431.519 218.957 434.189C213.153 437.096 203.457 440.189 203.457 440.189C203.457 440.189 178.973 447.924 154.957 435.689C128.457 422.189 119.957 400.689 119.957 400.689L106.957 402.689L107.457 388.689L116 386L113.457 370.689L102.957 372.189C102.957 372.189 95.4567 347.614 122.457 313.189C142.457 287.689 174.457 283.689 174.457 283.689C174.457 283.689 220.457 282.189 225.457 281.189C225.457 281.189 227.96 280.197 229.457 277.189C232.36 271.354 231.169 263.957 232.957 257.689C234.953 250.689 237.457 245.189 237.457 245.189L309.457 201.189L260.457 204.689C260.457 204.689 258.385 200.56 257.957 197.689C257.495 194.593 258.457 189.689 258.457 189.689C258.457 189.689 269.363 187.372 276.457 186.689C283.456 186.015 294.457 186.189 294.457 186.189L296.457 178.189Z" fill="black"/>
<path fill-rule="evenodd" clip-rule="evenodd" d="M284.919 333.488C284.518 333.406 284.268 333.908 284.574 334.179L300.613 348.385C300.795 348.546 301.077 348.509 301.211 348.307L307.627 338.684C307.784 338.448 307.652 338.127 307.374 338.07L284.919 333.488ZM158.957 376.189C158.957 376.189 155.957 360.189 164.957 349.189C175.948 335.756 196.457 341.189 196.457 341.189L209.957 321.189C209.957 321.189 180.419 302.069 151.457 327.689C125.457 350.689 136.457 383.689 136.457 383.689L158.957 376.189ZM377.248 280.173C377.634 280.178 377.789 280.671 377.477 280.897L360.695 293.017C360.553 293.119 360.361 293.118 360.221 293.013L343.439 280.426C343.13 280.194 343.298 279.701 343.685 279.706L377.248 280.173ZM434.457 397.689L458.457 384.689C458.457 384.689 471.715 398.109 488.957 387.189C503.957 377.689 495.457 354.189 495.457 354.189L512.957 331.189C512.957 331.189 542.957 362.689 519.957 397.189C519.957 397.189 506.457 421.689 475.957 421.689C445.457 421.689 434.457 397.689 434.457 397.689ZM391.888 367.714C391.917 367.965 391.721 368.189 391.468 368.189H390.65C390.528 368.189 390.412 368.134 390.337 368.038L377.162 351.448C377.043 351.298 377.047 351.084 377.172 350.939L423.909 296.543C423.94 296.506 423.978 296.475 424.021 296.452L436.304 289.772C436.401 289.719 436.516 289.709 436.622 289.744L437.957 290.189L438.312 290.9C438.396 291.069 438.354 291.271 438.208 291.39C436.574 292.705 427.294 300.207 421.957 305.189C416.103 310.654 406.957 319.016 401.957 329.689C390.964 353.156 391.598 365.252 391.888 367.714ZM451.457 323.689L461.457 351.189C461.457 351.189 456.913 357.562 455.457 362.689C454.172 367.213 453.957 374.189 453.957 374.189L428.957 389.189C428.957 389.189 420.457 373.189 426.957 352.189C433.457 331.189 451.457 323.689 451.457 323.689ZM474.457 344.189L465.457 318.189C465.457 318.189 473.957 314.953 483.957 316.689C499.957 319.468 503.957 324.689 503.957 324.689L486.957 348.189C486.957 348.189 483.732 348.751 481.457 348.189C478.563 347.475 474.457 344.189 474.457 344.189ZM200.957 391.689L219.957 407.689C219.957 407.689 204.957 423.689 177.957 420.189C152.957 416.949 140.457 393.689 140.457 393.689L163.457 385.534C163.457 385.534 172.853 394.281 180.457 395.689C188.477 397.174 200.957 391.689 200.957 391.689ZM206.457 347.689L219.457 327.689C219.457 327.689 234.876 337.689 237.957 361.689C241.165 386.689 227.457 400.189 227.457 400.189L208.457 385.189C208.457 385.189 214.483 374.084 213.957 366.189C213.45 358.591 206.457 347.689 206.457 347.689Z" fill="white"/>
</svg>
