<svg width="655" height="655" viewBox="0 0 655 655" fill="none" xmlns="http://www.w3.org/2000/svg">
<path d="M327.5 617.5C487.663 617.5 617.5 487.663 617.5 327.5C617.5 167.337 487.663 37.5 327.5 37.5C167.337 37.5 37.5 167.337 37.5 327.5C37.5 487.663 167.337 617.5 327.5 617.5Z" fill="white" stroke="#CC0000" stroke-width="75"/>
<path fill-rule="evenodd" clip-rule="evenodd" d="M508.006 232.124C483.275 232.124 458.972 232.093 434.856 232.061C387.175 232 340.222 231.939 292.123 232.124C284.095 232.155 279.824 238.918 276.687 243.885C274.895 246.723 273.473 248.975 271.932 249.047C270.218 249.142 268.01 249.203 265.47 249.274C253.03 249.62 232.641 250.187 223.506 256C218.226 259.36 215.506 262.5 211.979 272C210.605 275.701 208.232 283.169 206.249 289.407L206.249 289.407L206.249 289.407C204.73 294.19 203.44 298.249 203.006 299.334C201.302 301.677 195.396 303.251 188.637 305.052C179.527 307.481 168.866 310.322 164.852 316.016C159.453 323.631 158.532 342.159 157.999 352.899C157.837 356.156 157.711 358.697 157.506 360C157.212 361.883 155.568 362.088 153.61 362.332C149.703 362.819 144.547 363.462 146.383 377.907C147.665 387.83 157.506 388.673 157.506 388.673H172.016C172.009 388.948 172.006 389.224 172.006 389.5C172.006 407.449 186.557 422 204.506 422C222.455 422 237.006 407.449 237.006 389.5C237.006 389.224 237.002 388.948 236.995 388.673H417.016C417.009 388.948 417.006 389.224 417.006 389.5C417.006 407.449 431.557 422 449.506 422C467.455 422 482.006 407.449 482.006 389.5C482.006 389.224 482.002 388.948 481.995 388.673H508.006V232.124ZM272.094 258.328V299.334H211.979C211.979 299.334 215.374 286.571 216.693 282.812C222.066 259.566 230.86 259.37 256.821 258.792C261.362 258.691 266.429 258.578 272.094 258.328Z" fill="black"/>
</svg>
