<svg width="655" height="655" viewBox="0 0 655 655" fill="none" xmlns="http://www.w3.org/2000/svg">
<path d="M327 602C478.878 602 602 478.878 602 327C602 175.122 478.878 52 327 52C175.122 52 52 175.122 52 327C52 478.878 175.122 602 327 602Z" fill="white"/>
<path d="M297.5 394.5H255.324C255.768 396.773 256 399.113 256 401.497C256 421.936 238.936 439 218.499 439C198.064 439 181 421.936 181 401.497C181 399.113 181.232 396.773 181.676 394.5H67V215H297.5V366H404V255H587.5V394.5H504.324C504.768 396.773 505 399.113 505 401.497C505 421.936 487.936 439 467.499 439C447.064 439 430 421.936 430 401.497C430 399.113 430.232 396.773 430.676 394.5H404V383H297.5V394.5Z" fill="black"/>
<path d="M327.5 617.5C487.663 617.5 617.5 487.663 617.5 327.5C617.5 167.337 487.663 37.5 327.5 37.5C167.337 37.5 37.5 167.337 37.5 327.5C37.5 487.663 167.337 617.5 327.5 617.5Z" stroke="#CC0000" stroke-width="75"/>
</svg>
