<svg width="655" height="655" viewBox="0 0 655 655" fill="none" xmlns="http://www.w3.org/2000/svg">
<path d="M327.5 617.5C487.663 617.5 617.5 487.663 617.5 327.5C617.5 167.337 487.663 37.5 327.5 37.5C167.337 37.5 37.5 167.337 37.5 327.5C37.5 487.663 167.337 617.5 327.5 617.5Z" fill="white" stroke="#CC0000" stroke-width="75"/>
<path fill-rule="evenodd" clip-rule="evenodd" d="M321.192 200.52C321.662 202.873 321.662 205.226 320.722 209.462C313.665 212.285 304.424 214.042 299.551 216.991C294.678 219.941 287.128 229.973 285.908 232.051C263.992 269.361 271.324 256.522 264.933 269.361C249.41 288.662 214.869 303.582 213.928 304.523C212.987 305.465 212.987 311.582 208.908 311.456C206.871 311.456 201.909 314.884 200.285 318.171C198.964 320.854 195.544 325.585 196.051 329.936C196.357 332.56 197.462 334.323 198.874 336.054C202.161 340.739 207.286 343.156 212.915 341.23C215.446 340.398 217.069 338.775 216.162 335.902C214.8 331.824 215.521 330.159 218.656 327.78C221.187 325.813 219.825 326.041 222.623 326.761C225.869 327.552 241.133 321.162 243.78 319.503C249.368 315.948 244.647 319.503 257.227 310.584C271.279 300.647 284.03 291.459 293.435 276.758C296.796 271.47 297.88 273.948 298.14 276.287C299.081 284.758 301.903 310.584 301.903 310.584C302.374 313.935 303.203 331.818 291.553 350.642C285.729 360.054 271.862 384.843 268.501 391.114C265.14 397.427 259.348 408.056 258.151 417.468C258.151 417.468 252.327 449.288 242.995 469.068C241.943 471.298 240.24 473.168 236.879 478.951C233.518 484.734 237.454 483.093 236.408 485.069C235.436 486.906 232.174 488.363 232.174 488.363C226.748 491.359 224.648 490.031 218.112 490.411C215.167 490.561 203.527 490.451 203.527 494.647C202.536 498.716 215.726 501.834 219.052 502.176C227.05 503.117 235.518 503.588 239.282 503.588C243.046 503.588 239.988 506.788 242.105 507.353C244.222 507.918 262.173 512.115 264.216 512.529C267.509 513.198 268.45 509.235 269.862 498.882C269.862 497 272.119 497.434 274.045 497.775C275.331 498.003 277.389 494.176 278.8 488.999C278.8 488.999 293.435 431.115 301.433 404.291C316.572 388.37 329.47 371.809 333.517 366.503C334.038 365.821 335.12 366.071 335.302 366.911L345.656 414.644C347.537 425.939 348.076 428.13 354.124 436.292C354.124 436.292 372.472 464.057 385.644 486.176C387.327 489.001 394.289 485.241 392.701 488.529C391.114 491.816 389.408 495.117 384.233 498.411C378.548 502.03 373.276 502.176 371.531 507.353C370.59 510.647 373.883 513 379.058 513C391.29 513 395.524 512.529 398.347 510.176C400.699 508.972 402.11 507.823 403.051 506.412C403.992 505 408.697 497.47 411.049 496.058C411.99 496.058 412.931 497.941 414.813 497.941C416.694 497.941 418.449 495.34 420.928 492.81C422.34 491.37 427.643 487.033 427.985 483.518C428.327 480.004 418.447 476.427 416.694 469.705C415.967 466.917 419.054 468.859 415.729 462.815C412.403 456.77 394.508 431.682 387.056 406.644C380.94 376.055 382.351 366.643 378.117 344.525C380.469 344.054 383.292 342.172 383.292 338.877C384.233 328.524 381.951 315.572 379.999 300.759C378.072 286.14 373.412 267.816 374.353 263.581C401.64 290.876 406.198 300.084 419.517 327.112C421.256 330.641 421.444 332.226 422.81 334.171C423.427 335.05 424.692 336.054 427.044 336.054C428.926 336.054 426.84 348.516 431.749 351.047C435.191 352.787 443.913 351.59 447.274 350.642C452.374 349.17 462.724 343.906 457.624 336.995C456.213 335.583 452.211 334.954 448.394 335.257C443.51 335.257 446.333 324.759 446.333 322.877C446.333 313.465 441.158 310.171 439.175 306.502C420.985 272.851 383.292 227.815 383.292 227.815C380.046 223.545 374.404 217.755 371.531 215.109C366.738 210.727 360.526 212.54 354.594 209.932C350.831 207.579 350.36 204.563 350.36 201.462C349.757 193.269 350.36 190.767 350.36 185.932C350.36 182.638 356.476 168.049 356.476 162.402C356.476 156.754 354.571 158.008 353.653 156.284C352.591 154.288 353.307 153.46 351.434 151.107C346.849 145.345 340.767 142.771 334.835 142.166C328.904 141.561 323.334 142.636 318.369 144.989C313.65 147.226 308.019 152.519 307.549 153.46C307.078 154.401 308.49 157.696 308.019 158.166C308.019 158.166 304.843 164.118 305.146 166.942C305.861 173.627 308.96 173.225 306.137 176.52C302.844 180.363 300.918 184.52 301.838 184.991C304.675 185.766 305.146 186.237 305.146 190.001C305.146 193.766 304.205 193.931 304.205 195.649C304.205 197.06 303.734 200.05 307.078 200.05C311.797 199.709 317.899 199.579 321.192 200.52Z" fill="black"/>
</svg>
