<svg width="655" height="655" viewBox="0 0 655 655" fill="none" xmlns="http://www.w3.org/2000/svg">
<path d="M327.5 617.5C487.663 617.5 617.5 487.663 617.5 327.5C617.5 167.337 487.663 37.5 327.5 37.5C167.337 37.5 37.5 167.337 37.5 327.5C37.5 487.663 167.337 617.5 327.5 617.5Z" fill="white" stroke="#CC0000" stroke-width="75"/>
<path fill-rule="evenodd" clip-rule="evenodd" d="M534.734 406.125H497.133C502.615 401.529 506.095 394.901 506.095 387.675C506.095 381.303 503.394 375.45 499.02 371.005L530.953 370.893L531.103 301.359C522.841 302.21 519.471 304.769 514.172 298.247C509.395 292.359 504.28 293.208 498.427 288.727C494.167 285.428 496.355 285.911 492.352 285.911C485.906 285.911 490.536 286.394 480.831 278.614C476.832 275.427 468.088 266.832 461.419 266.832C458.196 266.832 460.052 267.24 456.566 264.017C450.935 258.796 436.451 260.572 430.488 265.127C425.448 269.019 428.451 267.943 421.41 267.943C413.484 267.943 417.004 266.576 411.705 273.576C405.891 281.244 409.446 277.835 400.777 283.654C398.001 285.54 394.258 290.393 391.7 290.393C386.329 290.393 380.737 298.283 377.142 301.618C370.252 290.468 370.398 278.504 363.176 267.391C359.546 261.758 354.803 256.981 359.546 251.127C362.733 247.2 362.879 242.679 359.613 237.64C358.02 235.16 344.015 228.16 340.791 234.753C333.198 234.235 332.754 236.975 338.497 237.64C331.051 247.642 342.199 249.09 332.866 264.017C330.717 267.462 331.347 264.981 329.234 270.206C326.197 277.689 328.828 273.761 318.901 280.28C316.899 281.651 310.453 288.134 308.008 288.134C304.005 288.134 306.193 287.692 301.933 290.951L244.922 302.174C224.324 306.063 207.246 307.656 186.536 308.436C177.499 299.026 169.941 288.245 157.605 282.542C150.787 279.394 149.786 276.242 145.492 271.278L139.416 271.87L129.117 284.206C126.634 296.135 114.967 312.584 120.449 315.475C125.894 318.327 126.151 322.143 136.378 317.326C140.156 315.546 141.674 313.621 144.27 310.583L147.9 312.845L152.048 328.144L150.345 330.774H135.785L135.228 342.702L155.79 342.556C166.974 348.777 147.9 363.189 147.9 371.19C147.9 380.378 155.751 383.858 160.05 390.823C162.68 395.083 166.864 403.938 167.311 405.975H121.227V421.685H534.798" fill="black"/>
<path fill-rule="evenodd" clip-rule="evenodd" d="M335.91 303.175L321.351 307.214L312.868 334.144L297.088 340.887C287.307 328.551 279.712 317.956 262.524 315.068C251.446 313.213 241.222 315.361 229.776 315.658C225.406 315.725 216.551 316.883 212.181 316.215L214.624 311.735C227.036 310.065 282.122 297.876 294.94 299.359C307.164 300.767 307.571 301.954 317.091 297.136C325.611 292.842 321.351 294.396 329.835 292.172L335.91 290.544V303.175V303.175ZM263.117 374.56C260.151 387.71 260.412 406.014 243.741 405.975L202.51 405.908C202.51 396.871 195.435 383.866 194.62 374.568C193.88 366.642 193.247 369.976 195.213 364.455C198.914 354.156 219.144 361.528 230.405 358.305C236.108 356.641 231.813 356.826 241.484 354.75L250.148 352.899L263.117 374.568L263.117 374.56ZM183.693 386.341C188.953 395.49 195.028 397.752 182.173 403.012L162.24 373.635L173.132 363.557C178.282 370.708 179.172 378.451 183.693 386.341V386.341ZM277.082 399.789C274.709 406.422 274.599 404.828 267.97 404.828C268.861 398.491 269.153 395.937 272.969 390.305C277.712 383.265 276.268 382.564 277.822 389.752C279.27 396.491 279.491 393.121 277.083 399.789L277.082 399.789ZM458.976 371.154C454.716 375.56 452.086 381.379 452.086 387.675C452.086 394.901 455.566 401.494 461.048 406.086L391.404 406.041C397.479 401.446 401.405 394.445 401.405 386.777C401.405 380.998 399.223 375.22 395.552 370.96L458.976 371.145V371.154ZM313.758 371.598L353.099 371.554C349.543 375.813 347.396 381.073 347.396 386.777C347.396 394.445 351.322 401.41 357.397 406.041L295.865 406.008C288.79 402.08 289.9 404.932 289.197 395.302C288.602 386.854 291.605 370.404 297.717 371.183C304.978 372.109 301.94 364.143 301.94 357.701H313.758" fill="white"/>
</svg>
