<svg width="655" height="655" viewBox="0 0 655 655" fill="none" xmlns="http://www.w3.org/2000/svg">
<path d="M327.5 617.5C487.663 617.5 617.5 487.663 617.5 327.5C617.5 167.337 487.663 37.5 327.5 37.5C167.337 37.5 37.5 167.337 37.5 327.5C37.5 487.663 167.337 617.5 327.5 617.5Z" fill="white" stroke="#CC0000" stroke-width="75"/>
<path d="M571.382 531.035L123.128 82.7812L83.8735 122.035L532.128 570.289L571.382 531.035Z" fill="#CC0000"/>
<path fill-rule="evenodd" clip-rule="evenodd" d="M229.24 352.333L256.833 350.773C256.833 350.773 256.833 334.594 272.712 333.098C288.591 331.603 289.893 347.654 289.893 347.654L287.029 349.474L288.331 354.672L284.687 356.491V361.43L284.166 363.509L277.138 362.989C272.523 369.616 265.671 378.749 261.779 384.823C261.112 386.137 261.391 386.261 262.82 386.642C274.168 388.908 288.317 391.87 299.264 393.66C303.429 384.303 313.402 383.675 320.61 383.523V404.317L309.416 402.498L310.458 408.216L327.899 406.396L328.159 403.277C328.159 403.277 335.068 404.199 339.092 405.617C343.165 407.051 348.984 410.555 348.984 410.555L347.683 413.674C347.683 413.674 352.436 418.382 355.232 421.732C358.027 425.082 362 430.829 362 430.829L356.794 432.389C356.794 432.389 370.613 466.983 343.02 484.015C315.426 501.047 293.017 476.316 293.017 476.316L288.591 478.655C288.591 478.655 286.009 476.652 284.426 473.976C280.583 467.478 281.303 462.54 280.001 462.54C278.699 462.54 280.001 466.698 273.753 472.677C271.456 474.875 268.027 475.796 268.027 475.796L195.399 481.514C195.399 481.514 191.666 484.025 188.891 485.413C185.87 486.924 180.821 488.532 180.821 488.532C180.821 488.532 168.074 492.553 155.571 486.193C141.774 479.175 137.349 467.998 137.349 467.998L130.581 469.038L130.841 461.76L135.289 460.362L133.965 452.403L128.498 453.182C128.498 453.182 124.593 440.407 138.65 422.512C149.063 409.256 165.723 407.176 165.723 407.176C165.723 407.176 189.672 406.396 192.275 405.877C192.275 405.877 193.578 405.361 194.358 403.797C195.869 400.764 195.249 396.918 196.18 393.66C197.219 390.021 198.523 387.162 198.523 387.162L236.008 364.289L210.497 366.109C210.497 366.109 209.418 363.962 209.196 362.47C208.955 360.86 209.456 358.311 209.456 358.311C209.456 358.311 215.134 357.106 218.827 356.751C222.471 356.401 228.198 356.491 228.198 356.491L229.24 352.333Z" fill="black"/>
<path fill-rule="evenodd" clip-rule="evenodd" d="M223.233 433.064C223.024 433.021 222.894 433.282 223.053 433.423L231.404 440.808C231.498 440.892 231.645 440.873 231.715 440.768L235.055 435.765C235.137 435.642 235.068 435.475 234.924 435.446L223.233 433.064ZM157.653 455.262C157.653 455.262 156.091 446.944 160.777 441.226C166.499 434.243 177.177 437.067 177.177 437.067L184.205 426.67C184.205 426.67 168.827 416.731 153.749 430.049C140.212 442.006 145.939 459.161 145.939 459.161L157.653 455.262ZM271.302 405.348C271.503 405.351 271.584 405.607 271.421 405.725L262.684 412.025C262.61 412.078 262.51 412.078 262.437 412.023L253.7 405.48C253.539 405.359 253.627 405.103 253.828 405.106L271.302 405.348ZM301.086 466.439L313.582 459.681C313.582 459.681 320.484 466.657 329.461 460.98C337.27 456.042 332.845 443.825 332.845 443.825L341.956 431.869C341.956 431.869 357.575 448.244 345.6 466.179C345.6 466.179 338.572 478.915 322.693 478.915C306.813 478.915 301.086 466.439 301.086 466.439ZM278.924 450.856C278.939 450.986 278.837 451.103 278.705 451.103H278.279C278.216 451.103 278.156 451.074 278.116 451.024L271.257 442.4C271.195 442.322 271.197 442.211 271.262 442.135L295.595 413.858C295.611 413.839 295.631 413.823 295.653 413.811L302.048 410.338C302.099 410.311 302.159 410.306 302.214 410.324L302.909 410.555L303.094 410.925C303.138 411.013 303.116 411.118 303.039 411.179C302.189 411.863 297.358 415.763 294.579 418.353C291.531 421.194 286.769 425.541 284.166 431.089C278.443 443.288 278.773 449.576 278.924 450.856ZM309.937 427.97L315.143 442.266C315.143 442.266 312.778 445.579 312.02 448.244C311.351 450.596 311.239 454.222 311.239 454.222L298.223 462.02C298.223 462.02 293.798 453.702 297.182 442.786C300.566 431.869 309.937 427.97 309.937 427.97ZM321.912 438.627L317.226 425.111C317.226 425.111 321.651 423.428 326.858 424.331C335.188 425.775 337.27 428.49 337.27 428.49L328.42 440.706C328.42 440.706 326.74 440.998 325.556 440.706C324.049 440.335 321.912 438.627 321.912 438.627ZM179.52 463.319L189.412 471.637C189.412 471.637 181.602 479.954 167.545 478.135C154.53 476.45 148.022 464.359 148.022 464.359L159.996 460.12C159.996 460.12 164.888 464.667 168.847 465.399C173.022 466.171 179.52 463.319 179.52 463.319ZM182.383 440.446L189.151 430.049C189.151 430.049 197.179 435.248 198.783 447.724C200.453 460.72 193.316 467.738 193.316 467.738L183.424 459.94C183.424 459.94 186.562 454.167 186.288 450.063C186.024 446.113 182.383 440.446 182.383 440.446Z" fill="white"/>
<path fill-rule="evenodd" clip-rule="evenodd" d="M434.318 275.483H370.934V291.828C370.934 295.789 367.758 299 363.84 299H353.772C349.854 299 346.678 295.789 346.678 291.828V275.483H340.481L332.339 225.079C331.103 217.43 333.284 209.62 338.294 203.754L342.96 198.289L366.37 161.893C368.333 158.841 371.69 157 375.291 157H434.318H434.672H493.821C497.428 157 500.789 158.847 502.751 161.907L526.073 198.289L530.735 203.767C535.721 209.627 537.892 217.415 536.664 225.045L528.543 275.483H522.367V291.828C522.367 295.789 519.191 299 515.273 299H505.287C501.37 299 498.193 295.789 498.193 291.828V275.483H434.672H434.318ZM531.862 224.773C531.862 231.704 526.303 237.323 519.447 237.323C512.59 237.323 507.032 231.704 507.032 224.773C507.032 217.841 512.59 212.222 519.447 212.222C526.303 212.222 531.862 217.841 531.862 224.773ZM349.898 237.323C356.754 237.323 362.313 231.704 362.313 224.773C362.313 217.841 356.754 212.222 349.898 212.222C343.041 212.222 337.483 217.841 337.483 224.773C337.483 231.704 343.041 237.323 349.898 237.323ZM412.681 225.848V255.97H455.955V225.848H412.681ZM405.409 255.97V225.848H380.225L371.18 255.97H405.409ZM463.049 225.848V255.97H497.278L488.233 225.848H463.049ZM353.445 193.217H515.545L496.036 162.737H372.954L353.445 193.217Z" fill="black"/>
</svg>
