<svg xmlns="http://www.w3.org/2000/svg" width="655" height="655" fill="none">
  <path fill="#C00" stroke="#fff" stroke-width="30" d="M15 198.058 198.058 15h258.884L640 198.058v258.884L456.942 640H198.058L15 456.942V198.058Z"/>
  <path fill="#fff" fill-rule="evenodd" d="M65 388.786v26.89c.1134 9.284 1.7924 18.09 5.1902 26.425 12.2584 28.147 37.8968 37.461 62.7978 37.857 28.871-.352 62.132-22.699 62.801-61.165v-46.901c-.114-4.993-.829-9.67-2.091-14.407-3.126-10.336-8.473-16.487-15.713-23.012l-59.957-53.141c-4.719-4.253-7.067-7.767-7.167-15.002v-24.186c0-3.77.408-7.289 1.479-10.832 3.115-8.323 11.01-11.157 18.061-11.286 5.221.102 10.181 1.644 13.936 6.208 3.826 5.134 4.863 11.742 4.98 18.435v21.393h42.52v-27.039c-.124-10.532-2.632-20.246-6.927-29.392-11.717-23.136-32.153-34.282-54.265-34.594-16.215.185-32.3251 5.118-45.1112 17.525-11.3207 11.554-17.4799 27.464-17.692 45.27v40.241c0 5.514 1.0096 10.861 2.5887 16.019 2.5331 7.73 6.2032 13.189 11.6324 18.263l59.4601 53.298c5.873 5.429 9.314 12.391 9.514 21.379v24.347c0 3.771-.499 7.303-1.607 10.833-3.285 8.956-10.664 12.532-18.418 12.772-5.744-.101-11.505-1.419-15.825-6.268-3.812-4.721-4.978-10.917-5.066-17.337v-22.593H65Zm173.768 91.213h42.038V219.688l41.41-.155V175l-124.988.157.125 44.377h41.414V480l.001-.001Zm151.069-44.132h-.238c-11.763-.258-19.484-10.665-19.781-24.488V243.632c.216-13.924 8.091-24.119 19.781-24.499h.499c11.746.27 19.482 10.676 19.78 24.499v167.747c-.216 13.907-8.102 24.102-19.78 24.488h-.261Zm0 44.091h.261c16.44-.169 32.707-5.302 44.996-18.968 11.263-13.246 15.998-30.984 16.195-49.611V243.632c-.169-19.057-5.19-37.191-16.935-50.445-12.243-13.089-28.146-17.921-44.256-18.15h-.499c-16.44.185-32.721 5.301-45.008 18.984-11.265 13.244-15.986 30.967-16.183 49.611v167.747c.158 19.04 5.188 37.187 16.921 50.433 12.257 13.1 28.159 17.934 44.27 18.146h.238ZM511.5 310.093v-91.298h20.391c11.15.229 16.496 9.57 16.694 22.274v46.762c-.159 12.749-5.587 21.977-16.694 22.262H511.5Zm-41.428 169.865H511.5v-126.07h33.985c25.372-.509 43.959-30.755 44.515-59.381v-60.131c-.329-28.895-19.326-58.499-44.515-59.364l-75.413-.011" clip-rule="evenodd"/>
</svg>