<svg width="655" height="655" viewBox="0 0 655 655" fill="none" xmlns="http://www.w3.org/2000/svg">
<path d="M327 602C478.878 602 602 478.878 602 327C602 175.122 478.878 52 327 52C175.122 52 52 175.122 52 327C52 478.878 175.122 602 327 602Z" fill="white"/>
<path fill-rule="evenodd" clip-rule="evenodd" d="M643.956 354.769H618.093C621.863 351.608 624.257 347.049 624.257 342.079C624.257 337.696 622.399 333.67 619.391 330.613L641.355 330.535L641.458 282.708C635.776 283.293 633.458 285.053 629.813 280.567C626.527 276.517 623.009 277.101 618.983 274.019C616.053 271.75 617.558 272.082 614.804 272.082C610.37 272.082 613.555 272.414 606.88 267.063C604.129 264.871 598.115 258.959 593.527 258.959C591.311 258.959 592.587 259.239 590.189 257.022C586.316 253.431 576.354 254.653 572.252 257.786C568.785 260.463 570.851 259.723 566.008 259.723C560.556 259.723 562.977 258.783 559.332 263.597C555.333 268.872 557.779 266.527 551.816 270.529C549.906 271.827 547.332 275.165 545.572 275.165C541.878 275.165 538.032 280.592 535.559 282.886C530.82 275.216 530.92 266.987 525.952 259.343C523.456 255.469 520.193 252.183 523.456 248.156C525.648 245.455 525.748 242.345 523.502 238.879C522.406 237.174 512.773 232.359 510.555 236.894C505.333 236.537 505.027 238.422 508.977 238.879C503.856 245.759 511.524 246.755 505.104 257.022C503.626 259.392 504.059 257.686 502.606 261.279C500.517 266.427 502.327 263.725 495.499 268.209C494.122 269.152 489.688 273.611 488.006 273.611C485.253 273.611 486.758 273.307 483.827 275.549L444.613 283.268C430.445 285.943 418.698 287.039 404.453 287.575C398.237 281.103 393.039 273.687 384.554 269.765C379.864 267.599 379.175 265.431 376.222 262.017L372.043 262.424L364.959 270.909C363.251 279.114 355.226 290.429 358.996 292.417C362.742 294.379 362.918 297.004 369.953 293.69C372.552 292.466 373.596 291.142 375.381 289.052L377.878 290.608L380.731 301.131L379.56 302.94H369.545L369.162 311.145L383.305 311.044C390.998 315.323 377.878 325.236 377.878 330.74C377.878 337.06 383.278 339.453 386.235 344.244C388.044 347.174 390.922 353.265 391.23 354.666H359.532V365.472H644" fill="black"/>
<path fill-rule="evenodd" clip-rule="evenodd" d="M507.198 283.957L497.184 286.735L491.349 305.258L480.495 309.896C473.767 301.411 468.543 294.124 456.72 292.137C449.101 290.861 442.068 292.339 434.195 292.543C431.189 292.589 425.099 293.386 422.093 292.926L423.773 289.845C432.311 288.696 470.201 280.312 479.017 281.332C487.425 282.3 487.705 283.117 494.254 279.803C500.114 276.849 497.184 277.918 503.019 276.388L507.198 275.269V283.957ZM457.128 333.058C455.088 342.103 455.268 354.693 443.801 354.666L415.441 354.62C415.441 348.404 410.574 339.459 410.014 333.063C409.505 327.611 409.069 329.905 410.422 326.107C412.967 319.023 426.882 324.094 434.628 321.877C438.551 320.732 435.596 320.86 442.248 319.432L448.208 318.159L457.128 333.063V333.058ZM402.498 341.161C406.116 347.454 410.294 349.01 401.452 352.628L387.742 332.422L395.234 325.49C398.776 330.408 399.388 335.734 402.498 341.161ZM466.734 350.411C465.102 354.974 465.026 353.877 460.466 353.877C461.079 349.518 461.28 347.762 463.905 343.888C467.167 339.045 466.174 338.563 467.243 343.507C468.239 348.143 468.391 345.825 466.735 350.411H466.734ZM591.847 330.715C588.917 333.746 587.108 337.748 587.108 342.079C587.108 347.049 589.501 351.584 593.272 354.742L545.369 354.711C549.547 351.551 552.248 346.735 552.248 341.461C552.248 337.486 550.747 333.512 548.222 330.582L591.847 330.709V330.715ZM491.961 331.02L519.021 330.99C516.575 333.92 515.098 337.538 515.098 341.461C515.098 346.735 517.799 351.526 521.977 354.711L479.654 354.689C474.787 351.987 475.551 353.949 475.067 347.325C474.658 341.514 476.723 330.199 480.927 330.735C485.922 331.372 483.832 325.893 483.832 321.462H491.961" fill="white"/>
<path d="M327.5 617.5C487.663 617.5 617.5 487.663 617.5 327.5C617.5 167.337 487.663 37.5 327.5 37.5C167.337 37.5 37.5 167.337 37.5 327.5C37.5 487.663 167.337 617.5 327.5 617.5Z" stroke="#CC0000" stroke-width="75"/>
<path d="M571.382 531.035L123.128 82.7812L83.874 122.035L532.128 570.289L571.382 531.035Z" fill="#CC0000"/>
<path fill-rule="evenodd" clip-rule="evenodd" d="M229.24 352.333L256.833 350.773C256.833 350.773 256.833 334.594 272.712 333.098C288.591 331.603 289.893 347.654 289.893 347.654L287.029 349.474L288.331 354.672L284.687 356.491V361.43L284.166 363.509L277.138 362.989C272.523 369.616 265.671 378.749 261.779 384.823C261.112 386.137 261.391 386.261 262.82 386.642C274.168 388.908 288.317 391.87 299.264 393.66C303.429 384.303 313.402 383.675 320.61 383.523V404.317L309.416 402.498L310.458 408.216L327.899 406.396L328.159 403.277C328.159 403.277 335.068 404.199 339.092 405.617C343.165 407.051 348.984 410.555 348.984 410.555L347.683 413.674C347.683 413.674 352.436 418.382 355.232 421.732C358.027 425.082 362 430.829 362 430.829L356.794 432.389C356.794 432.389 370.613 466.983 343.02 484.015C315.426 501.047 293.017 476.316 293.017 476.316L288.591 478.655C288.591 478.655 286.009 476.652 284.426 473.976C280.583 467.478 281.303 462.54 280.001 462.54C278.699 462.54 280.001 466.698 273.753 472.677C271.456 474.875 268.027 475.796 268.027 475.796L195.399 481.514C195.399 481.514 191.666 484.025 188.891 485.413C185.87 486.924 180.821 488.532 180.821 488.532C180.821 488.532 168.074 492.553 155.571 486.193C141.774 479.175 137.349 467.998 137.349 467.998L130.581 469.038L130.841 461.76L135.289 460.362L133.965 452.403L128.498 453.182C128.498 453.182 124.593 440.407 138.65 422.512C149.063 409.256 165.723 407.176 165.723 407.176C165.723 407.176 189.672 406.396 192.275 405.877C192.275 405.877 193.578 405.361 194.358 403.797C195.869 400.764 195.249 396.918 196.18 393.66C197.219 390.021 198.523 387.162 198.523 387.162L236.008 364.289L210.497 366.109C210.497 366.109 209.418 363.962 209.196 362.47C208.955 360.86 209.456 358.311 209.456 358.311C209.456 358.311 215.134 357.106 218.827 356.751C222.471 356.401 228.198 356.491 228.198 356.491L229.24 352.333Z" fill="black"/>
<path fill-rule="evenodd" clip-rule="evenodd" d="M223.233 433.064C223.024 433.021 222.894 433.282 223.053 433.423L231.404 440.808C231.498 440.892 231.645 440.873 231.715 440.768L235.055 435.765C235.137 435.642 235.068 435.475 234.924 435.446L223.233 433.064ZM157.653 455.262C157.653 455.262 156.091 446.944 160.777 441.226C166.499 434.243 177.177 437.067 177.177 437.067L184.205 426.67C184.205 426.67 168.827 416.731 153.749 430.049C140.212 442.006 145.939 459.161 145.939 459.161L157.653 455.262ZM271.302 405.348C271.503 405.351 271.584 405.607 271.421 405.725L262.684 412.025C262.61 412.078 262.51 412.078 262.437 412.023L253.7 405.48C253.539 405.359 253.627 405.103 253.828 405.106L271.302 405.348ZM301.086 466.439L313.582 459.681C313.582 459.681 320.484 466.657 329.461 460.98C337.27 456.042 332.845 443.825 332.845 443.825L341.956 431.869C341.956 431.869 357.575 448.244 345.6 466.179C345.6 466.179 338.572 478.915 322.693 478.915C306.813 478.915 301.086 466.439 301.086 466.439ZM278.924 450.856C278.939 450.986 278.837 451.103 278.705 451.103H278.279C278.216 451.103 278.156 451.074 278.116 451.024L271.257 442.4C271.195 442.322 271.197 442.211 271.262 442.135L295.595 413.858C295.611 413.839 295.631 413.823 295.653 413.811L302.048 410.338C302.099 410.311 302.159 410.306 302.214 410.324L302.909 410.555L303.094 410.925C303.138 411.013 303.116 411.118 303.039 411.179C302.189 411.863 297.358 415.763 294.579 418.353C291.531 421.194 286.769 425.541 284.166 431.089C278.443 443.288 278.773 449.576 278.924 450.856ZM309.937 427.97L315.143 442.266C315.143 442.266 312.778 445.579 312.02 448.244C311.351 450.596 311.239 454.222 311.239 454.222L298.223 462.02C298.223 462.02 293.798 453.702 297.182 442.786C300.566 431.869 309.937 427.97 309.937 427.97ZM321.912 438.627L317.226 425.111C317.226 425.111 321.651 423.428 326.858 424.331C335.188 425.775 337.27 428.49 337.27 428.49L328.42 440.706C328.42 440.706 326.74 440.998 325.556 440.706C324.049 440.335 321.912 438.627 321.912 438.627ZM179.52 463.319L189.412 471.637C189.412 471.637 181.602 479.954 167.545 478.135C154.53 476.45 148.022 464.359 148.022 464.359L159.996 460.12C159.996 460.12 164.888 464.667 168.847 465.399C173.022 466.171 179.52 463.319 179.52 463.319ZM182.383 440.446L189.151 430.049C189.151 430.049 197.179 435.248 198.783 447.724C200.453 460.72 193.316 467.738 193.316 467.738L183.424 459.94C183.424 459.94 186.562 454.167 186.288 450.063C186.024 446.113 182.383 440.446 182.383 440.446Z" fill="white"/>
<path fill-rule="evenodd" clip-rule="evenodd" d="M361.826 211.477H301.225V227.131C301.225 230.925 298.188 234 294.442 234H284.816C281.07 234 278.033 230.925 278.033 227.131V211.477H272.109L264.324 163.202C263.142 155.876 265.227 148.397 270.017 142.778L274.479 137.545L296.861 102.687C298.738 99.7634 301.947 98 305.391 98H361.826H362.165H418.717C422.165 98 425.379 99.7691 427.254 102.7L449.552 137.545L454.01 142.791C458.778 148.403 460.853 155.863 459.678 163.17L451.915 211.477H446.01V227.131C446.01 230.925 442.973 234 439.227 234H429.68C425.934 234 422.897 230.925 422.897 227.131V211.477H362.165H361.826ZM455.087 162.909C455.087 169.548 449.773 174.929 443.217 174.929C436.662 174.929 431.348 169.548 431.348 162.909C431.348 156.271 436.662 150.889 443.217 150.889C449.773 150.889 455.087 156.271 455.087 162.909ZM281.112 174.929C287.668 174.929 292.982 169.548 292.982 162.909C292.982 156.271 287.668 150.889 281.112 150.889C274.557 150.889 269.243 156.271 269.243 162.909C269.243 169.548 274.557 174.929 281.112 174.929ZM341.139 163.939V192.788H382.513V163.939H341.139ZM334.186 192.788V163.939H310.108L301.46 192.788H334.186ZM389.295 163.939V192.788H422.022L413.374 163.939H389.295ZM284.503 132.687H439.487L420.835 103.495H303.156L284.503 132.687Z" fill="black"/>
</svg>
