<svg width="655" height="655" viewBox="0 0 655 655" fill="none" xmlns="http://www.w3.org/2000/svg">
<path d="M327.5 617.5C487.663 617.5 617.5 487.663 617.5 327.5C617.5 167.337 487.663 37.5 327.5 37.5C167.337 37.5 37.5 167.337 37.5 327.5C37.5 487.663 167.337 617.5 327.5 617.5Z" fill="white" stroke="#CC0000" stroke-width="75"/>
<path d="M483 164V183H445V307H426V183H388V164H483Z" fill="#060606"/>
<path d="M275.797 492C259.191 492 243.707 488.653 229.345 481.959C215.133 475.116 202.94 465.744 192.767 453.845C182.594 441.796 175.339 427.962 171 412.343L216.106 400.294C218.649 409.815 222.987 418.071 229.121 425.061C235.404 432.052 242.735 437.483 251.113 441.35C259.49 445.069 268.168 446.928 277.144 446.928C288.962 446.928 299.659 444.101 309.234 438.449C318.958 432.797 326.588 425.211 332.123 415.69C337.808 406.169 340.65 395.682 340.65 384.229C340.65 372.477 337.733 361.841 331.899 352.321C326.214 342.801 318.509 335.289 308.785 329.785C299.21 324.133 288.663 321.306 277.144 321.306C263.979 321.306 252.833 323.909 243.707 329.116C234.582 334.322 227.475 340.346 222.389 347.189L181.547 332.909L191.421 164H365.784V207.956H215.432L234.507 190.329L226.653 316.844L217.452 305.018C225.979 296.539 236.152 290.068 247.971 285.605C259.79 281.143 271.534 278.912 283.203 278.912C303.25 278.912 321.127 283.523 336.836 292.746C352.693 301.968 365.185 314.538 374.311 330.454C383.437 346.222 388 364.147 388 384.229C388 404.161 382.839 422.31 372.516 438.672C362.193 454.887 348.505 467.828 331.45 477.497C314.395 487.165 295.844 492 275.797 492Z" fill="black"/>
</svg>
