<svg width="655" height="655" viewBox="0 0 655 655" fill="none" xmlns="http://www.w3.org/2000/svg">
<path d="M327.5 617.5C487.663 617.5 617.5 487.663 617.5 327.5C617.5 167.337 487.663 37.5 327.5 37.5C167.337 37.5 37.5 167.337 37.5 327.5C37.5 487.663 167.337 617.5 327.5 617.5Z" fill="white" stroke="#CC0000" stroke-width="75"/>
<path fill-rule="evenodd" clip-rule="evenodd" d="M508.006 180.124C483.275 180.124 458.972 180.093 434.856 180.061C387.175 180 340.222 179.939 292.123 180.124C284.095 180.155 279.824 186.918 276.687 191.885C274.895 194.723 273.473 196.975 271.932 197.047C270.218 197.142 268.01 197.203 265.47 197.274C253.03 197.62 232.641 198.187 223.506 204C218.226 207.36 215.506 210.5 211.979 220C210.605 223.701 208.232 231.169 206.249 237.407C204.73 242.19 203.44 246.249 203.006 247.334C201.302 249.677 195.396 251.251 188.637 253.052C179.527 255.481 168.866 258.322 164.852 264.016C159.453 271.631 158.532 290.159 157.999 300.899C157.837 304.156 157.711 306.697 157.506 308C157.212 309.883 155.568 310.088 153.61 310.332C149.703 310.819 144.547 311.462 146.383 325.907C147.665 335.83 157.506 336.673 157.506 336.673H172.016C172.009 336.948 172.006 337.224 172.006 337.5C172.006 355.449 186.557 370 204.506 370C222.455 370 237.006 355.449 237.006 337.5C237.006 337.224 237.002 336.948 236.995 336.673H417.016C417.009 336.948 417.006 337.224 417.006 337.5C417.006 355.449 431.557 370 449.506 370C467.455 370 482.006 355.449 482.006 337.5C482.006 337.224 482.002 336.948 481.995 336.673H508.006V180.124ZM272.094 206.328V247.334H211.979C211.979 247.334 215.374 234.571 216.693 230.812C222.066 207.566 230.86 207.37 256.821 206.792C261.362 206.691 266.429 206.578 272.094 206.328Z" fill="black"/>
<path d="M186.215 395L146 426.5L186.215 458V439H260V413H186.215V395Z" fill="black"/>
<path d="M467.785 395L508 426.5L467.785 458V439H394V413H467.785V395Z" fill="black"/>
<path d="M359.313 408.528C359.313 412.341 360.956 414.248 364.243 414.248C366.443 414.248 368.064 413.582 369.104 412.251C370.144 410.904 370.664 408.656 370.664 405.508V393H376V418.108H371.862L371.094 414.771H370.8C370.076 416.027 369.172 416.973 368.086 417.608C367.016 418.244 365.697 418.562 364.129 418.562C362.019 418.562 360.369 417.881 359.178 416.518H359.087C359.133 416.942 359.178 417.828 359.223 419.175C359.283 420.521 359.313 421.467 359.313 422.012V429.277H354V393H359.313V408.528Z" fill="black"/>
<path fill-rule="evenodd" clip-rule="evenodd" d="M284.605 393.369H274.885C274.729 395.463 273.733 397.188 271.156 397.973L271 407.446H274.833V458.632C274.833 458.632 284.555 458.632 284.555 458.57V393.357L284.605 393.369ZM289.809 414.409C289.809 408.755 292.169 403.315 296.164 399.335C300.212 395.357 305.729 393 311.4 393C317.078 393 322.593 395.357 326.642 399.335C330.633 403.315 333 408.755 333 414.409V437.592C333 443.192 330.633 448.685 326.642 452.665C322.593 456.642 317.078 459 311.4 459C305.729 459 300.212 456.642 296.164 452.665C292.169 448.685 289.809 443.192 289.809 437.592V414.409ZM299.473 416.029C299.473 412.942 300.78 409.908 302.999 407.71C305.207 405.458 308.25 404.149 311.4 404.149C314.556 404.149 317.602 405.458 319.807 407.71C322.016 409.908 323.332 412.942 323.332 416.029V435.916C323.332 439.058 322.009 442.092 319.807 444.291C317.602 446.488 314.556 447.802 311.4 447.802C308.25 447.802 305.207 446.486 302.999 444.291C300.787 442.092 299.473 439.058 299.473 435.916" fill="black"/>
<path d="M370.582 459H366.383V443.858C366.383 441.978 366.098 440.579 365.529 439.662C364.959 438.729 364.07 438.263 362.86 438.263C361.247 438.263 360.061 438.922 359.302 440.239C358.554 441.541 358.181 443.717 358.181 446.766V459H354V434.444H357.274L357.861 437.664H358.074C358.62 436.494 359.409 435.591 360.44 434.955C361.484 434.318 362.629 434 363.874 434C366.899 434 368.903 435.288 369.888 437.863H370.172C370.754 436.649 371.572 435.702 372.628 435.021C373.683 434.341 374.893 434 376.257 434C378.606 434 380.314 434.74 381.381 436.22C382.46 437.7 383 439.958 383 442.992V459H378.819V443.858C378.819 441.978 378.528 440.579 377.947 439.662C377.378 438.729 376.488 438.263 375.279 438.263C373.653 438.263 372.462 438.899 371.702 440.172C370.955 441.43 370.582 443.37 370.582 445.989V459Z" fill="black"/>
</svg>
