<svg width="655" height="655" viewBox="0 0 655 655" fill="none" xmlns="http://www.w3.org/2000/svg">
<path d="M327 602C478.878 602 602 478.878 602 327C602 175.122 478.878 52 327 52C175.122 52 52 175.122 52 327C52 478.878 175.122 602 327 602Z" fill="white"/>
<path d="M413.98 372.246L403.391 438.275H427.051C425.597 426.505 434.694 413 449.623 408.375C462.433 404.36 475.247 408.1 484.168 417.388C490.249 423.648 491.521 427.866 492.175 438.275H597.892C612.016 412.829 603.026 389.423 608.738 361.939C612.234 345.27 607.24 328.908 608.335 312H526.325C520.136 312.886 511.362 332.004 506.518 340.951L494.833 365.172L413.98 372.246ZM56.1782 363.401C61.4942 387.556 55.8906 375.409 64.9132 397.451C71.03 412.388 72.6677 425.281 80.969 439.228H152.427C152.427 425.924 159.27 416.334 172.269 410.753C188.684 403.643 207.288 411.298 215.297 426.232C216.568 428.615 218.645 435.281 218.171 439.228H253.047C251.044 425.686 249.551 414.156 244.889 402.181C238.445 385.579 228.618 371.124 215.95 358.06L194.618 339.518C177.184 326.489 157.304 317.133 135.171 315.333C112.276 313.461 125.78 312.952 94.545 312.952H43C44.0928 330.132 52.4639 346.459 56.1782 363.401ZM577.467 366.125H504.479L526.324 321.491H582.201C583.983 336.495 579.832 351.256 577.467 366.125ZM98.5851 369.186H77.6949C74.1604 353.501 72.5947 338.196 70.956 322.445H98.5851V369.186ZM109.763 324.213L125.524 326.22C143.473 330.266 167.026 338.025 179.365 351.868C183.478 356.495 187.994 369.186 177.435 369.186H109.763V324.213ZM459.631 409.396C443.686 409.396 430.399 421.844 430.399 436.714C430.399 451.61 443.685 464.062 459.631 464.062C475.576 464.062 488.863 451.61 488.863 436.714C488.861 421.843 475.575 409.396 459.631 409.396ZM184.937 411.334C168.991 411.334 155.705 423.783 155.705 438.684C155.705 453.584 168.991 466 184.937 466C200.877 466 214.169 453.584 214.169 438.684C214.169 423.783 200.877 411.334 184.937 411.334ZM459.631 425.008C452.244 425.008 446.054 430.79 446.054 437.698C446.054 444.601 452.244 450.385 459.631 450.385C467.022 450.385 473.211 444.637 473.211 437.698C473.211 430.79 467.022 425.008 459.631 425.008ZM459.631 427.933C454.502 427.933 450.241 431.948 450.241 436.713C450.241 441.505 454.502 445.519 459.631 445.519C464.765 445.519 469.026 441.504 469.026 436.713C469.025 431.947 464.764 427.933 459.631 427.933ZM184.937 427.933C178.672 427.933 173.465 432.834 173.465 438.684C173.465 444.534 178.672 449.434 184.937 449.434C191.198 449.412 196.437 444.534 196.437 438.684C196.437 432.834 191.198 427.933 184.937 427.933ZM184.937 430.858C180.386 430.858 176.563 434.431 176.563 438.685C176.563 442.938 180.386 446.474 184.937 446.474C189.483 446.474 193.307 442.938 193.307 438.685C193.307 434.43 189.483 430.858 184.937 430.858Z" fill="black"/>
<path d="M400 221V130H415.325V176.268C418.185 180.596 422.703 183.471 428.042 183.592C434.082 183.512 438.724 179.683 441.072 174.556V130H456.461V175.17C456.461 176.997 456.671 178.828 457.531 180.419C458.81 182.187 460.966 182.494 463 182.618V197.328H462.182C460.085 197.328 458.052 196.957 456.077 196.411C452.452 195.254 449.213 193.356 446.537 190.733C441.709 195.125 435.795 197.693 429.117 197.814C424.291 197.774 419.713 196.594 415.323 194.705V221" fill="black"/>
<path d="M446.071 243.487C451.584 238.532 457.45 236.055 463.673 236.055C465.17 236.055 466.666 236.202 468.163 236.495C469.66 236.789 471.195 237.21 472.769 237.762C477.376 239.559 480.921 242.203 483.401 245.69L483.638 246.13L484.11 247.452L484.347 247.892L485.765 252.076C485.844 252.922 485.903 253.709 485.941 254.444C485.98 255.178 486 255.856 486 256.481V297H471.823V259.564L471.351 255.82C470.839 255.014 470.525 254.206 470.406 253.398C468.082 249.91 465.327 248.167 462.136 248.167C460.207 248.167 458.08 248.809 455.757 250.094C453.433 251.71 451.78 253.543 450.796 255.599L450.323 258.243V297H435.912V258.02L435.675 256.038L435.203 255.156V254.495C434.81 253.908 434.474 253.366 434.198 252.872C433.922 252.377 433.706 251.89 433.548 251.412C431.342 249.467 428.901 248.44 426.224 248.329C421.067 248.99 417.365 251.265 415.121 255.155L414.649 256.696L414.412 259.118C414.529 259.413 414.608 259.677 414.649 259.917C414.687 260.156 414.707 260.404 414.707 260.661C414.707 260.955 414.687 261.176 414.649 261.321V296.995H400V236.88H414.649V241.285C419.02 238.239 423.587 236.478 428.351 236H428.588C436.228 235.998 442.054 238.496 446.071 243.487Z" fill="black"/>
<path d="M173 163H263V183.067L262.142 184.63C261.912 185.124 261.74 185.59 261.627 186.029L261.284 187.015L260.939 187.674C260.309 188.88 259.765 189.99 259.309 191.004C258.849 192.019 258.477 192.992 258.191 193.924L257.161 196.227L256.474 197.544L255.786 199.187L253.726 203.464L253.381 204.451C252.866 205.272 252.523 206.151 252.351 207.082L248.23 215.307L247.542 217.609L246.167 219.913C245.71 221.778 245.022 223.313 244.107 224.519L239.984 234.718L238.611 237.021L235.518 244.588L233.458 248.535C233.171 249.741 232.826 250.619 232.427 251.166L231.74 253.141L231.053 253.799V254.786L227.96 261.036L227.274 263.011L226.587 264.326L226.244 265.643L224.182 269.261C223.782 270.853 223.207 272.168 222.464 273.21C221.949 274.965 221.376 276.39 220.746 277.486L220.059 278.473L219.373 280.447L219.029 281.763L217.998 283.737L215.593 289H190.861C191.147 287.903 191.491 287.025 191.892 286.368L192.236 285.711L192.579 284.395L193.266 283.737C194.067 280.996 195.097 278.693 196.357 276.828V275.841L197.045 275.183C197.445 273.923 197.861 272.798 198.291 271.811C198.719 270.825 199.107 269.975 199.45 269.261L200.48 267.288L201.167 264.985C201.738 263.998 202.226 263.066 202.628 262.188C203.028 261.311 203.343 260.489 203.573 259.721L204.603 257.418L205.29 256.76C205.518 255.883 205.861 255.115 206.321 254.456C206.721 252.923 207.179 251.716 207.694 250.838L208.726 248.535C209.011 247.933 209.241 247.411 209.412 246.973C209.584 246.534 209.812 246.178 210.099 245.903C211.014 242.943 212.045 240.529 213.191 238.666C213.419 238.008 213.649 237.404 213.877 236.856C214.105 236.308 214.335 235.814 214.565 235.376L215.252 233.401L215.595 232.743C215.882 232.196 216.14 231.674 216.368 231.181C216.596 230.688 216.797 230.222 216.97 229.783C217.255 229.124 217.541 228.523 217.828 227.973C218.115 227.426 218.4 226.932 218.687 226.493L219.375 224.189L220.405 222.216L221.092 220.242L222.123 218.597L222.81 216.952L223.496 214.978L224.871 212.676C225.501 210.701 226.187 209.056 226.931 207.741L227.276 206.754L227.619 206.096L228.306 204.121C229.222 202.587 229.794 201.271 230.024 200.174L231.14 197.952C231.427 197.459 231.625 196.994 231.742 196.554L232.429 195.239L232.772 193.922L233.888 191.702C234.175 191.209 234.373 190.744 234.49 190.304L234.833 189.317L235.177 188.659C235.805 187.454 236.35 186.342 236.808 185.327C237.266 184.314 237.638 183.34 237.925 182.407H173V163Z" fill="black" stroke="black" stroke-width="2" stroke-miterlimit="10"/>
<path d="M374.678 193.404C378.892 205.405 381 216.998 381 228.179C381 242.308 377.638 255.807 370.921 268.681C360.84 284.228 347.655 292 331.368 292C327.495 292 323.366 291.537 318.981 290.609C299.446 285.264 287.599 272.934 283.442 253.625L282.759 252.643V251.334L282.417 250.025C281.848 248.715 281.505 247.516 281.392 246.425L281.05 244.789C280.594 243.043 280.368 241.625 280.368 240.534C279.911 239.116 279.684 237.916 279.684 236.934L279 231.371V222.206L279.341 221.223V218.605C279.512 216.205 279.854 214.132 280.368 212.386V210.422L280.709 209.113L281.05 208.132L281.392 205.84L282.076 203.222L282.759 200.93C282.985 199.894 283.229 198.967 283.486 198.148C283.742 197.33 284.069 196.622 284.467 196.02C291.074 175.784 304.4 164.109 324.448 161H326.669C351.784 161.001 367.786 171.801 374.678 193.404ZM311.121 188.822L310.778 189.476C310.152 190.457 309.554 191.331 308.985 192.094C308.415 192.86 307.875 193.513 307.362 194.059L307.02 195.04C306.622 196.131 306.237 197.141 305.867 198.068C305.496 198.996 305.083 199.841 304.627 200.605C304.513 201.641 304.329 202.596 304.073 203.469C303.817 204.341 303.545 205.133 303.261 205.841C303.204 207.314 302.976 208.624 302.578 209.77V211.078L302.236 211.733C302.178 212.879 302.108 213.915 302.022 214.842C301.937 215.77 301.78 216.588 301.553 217.298V235.625C302.236 252.535 308.955 264.318 321.714 270.973H322.739L323.764 271.299L324.448 271.628L328.549 272.609C348.368 270.21 358.278 256.872 358.278 232.598V231.697C358.39 230.17 358.477 228.698 358.534 227.278C358.589 225.861 358.62 224.443 358.62 223.024C358.62 195.586 348.14 181.349 327.183 180.311C320.743 182.002 315.392 184.839 311.121 188.822Z" fill="black" stroke="black" stroke-width="2" stroke-miterlimit="10"/>
<path d="M327.5 617.5C487.663 617.5 617.5 487.663 617.5 327.5C617.5 167.337 487.663 37.5 327.5 37.5C167.337 37.5 37.5 167.337 37.5 327.5C37.5 487.663 167.337 617.5 327.5 617.5Z" stroke="#CC0000" stroke-width="75"/>
</svg>
