<svg width="655" height="655" viewBox="0 0 655 655" fill="none" xmlns="http://www.w3.org/2000/svg">
<path d="M327.5 617.5C487.663 617.5 617.5 487.663 617.5 327.5C617.5 167.337 487.663 37.5 327.5 37.5C167.337 37.5 37.5 167.337 37.5 327.5C37.5 487.663 167.337 617.5 327.5 617.5Z" fill="white" stroke="#CC0000" stroke-width="75"/>
<path fill-rule="evenodd" clip-rule="evenodd" d="M443 530V308.286C443 256.226 413.007 199 340.94 199H147.011L112 234.076L147.011 269.153H340.94C362.602 269.095 372.985 287.287 372.89 308.286V530L407.945 495L443 530Z" fill="black"/>
<path d="M571.382 531.035L123.128 82.7812L83.8737 122.035L532.128 570.289L571.382 531.035Z" fill="#CC0000"/>
</svg>
