<svg width="655" height="655" viewBox="0 0 655 655" fill="none" xmlns="http://www.w3.org/2000/svg">
<path d="M327.5 617.5C487.663 617.5 617.5 487.663 617.5 327.5C617.5 167.337 487.663 37.5 327.5 37.5C167.337 37.5 37.5 167.337 37.5 327.5C37.5 487.663 167.337 617.5 327.5 617.5Z" fill="white" stroke="#CC0000" stroke-width="75"/>
<path fill-rule="evenodd" clip-rule="evenodd" d="M212 530V308.286C212 256.226 241.993 199 314.06 199H507.989L543 234.076L507.989 269.153H314.06C292.398 269.095 282.015 287.287 282.11 308.286V530L247.055 495L212 530Z" fill="black"/>
<path d="M571.382 531.035L123.128 82.7812L83.8737 122.035L532.128 570.289L571.382 531.035Z" fill="#CC0000"/>
</svg>
