<svg width="655" height="655" viewBox="0 0 655 655" fill="none" xmlns="http://www.w3.org/2000/svg">
<path d="M327.5 617.5C487.663 617.5 617.5 487.663 617.5 327.5C617.5 167.337 487.663 37.5 327.5 37.5C167.337 37.5 37.5 167.337 37.5 327.5C37.5 487.663 167.337 617.5 327.5 617.5Z" fill="white" stroke="#CC0000" stroke-width="75"/>
<path fill-rule="evenodd" clip-rule="evenodd" d="M396.544 520.601V280.151C396.544 196.5 257.416 194.5 257.416 279.1V454.591H276.5L222 514L167.5 454.591H186.437V278.253C186.437 102 467.189 102 467.189 278.253V520.663L432.244 485.417L396.544 520.601Z" fill="black"/>
<path d="M571.382 531.035L123.128 82.7812L83.8737 122.035L532.128 570.289L571.382 531.035Z" fill="#CC0000"/>
</svg>
