<svg width="655" height="655" viewBox="0 0 655 655" fill="none" xmlns="http://www.w3.org/2000/svg">
<path d="M327.5 617.5C487.663 617.5 617.5 487.663 617.5 327.5C617.5 167.337 487.663 37.5 327.5 37.5C167.337 37.5 37.5 167.337 37.5 327.5C37.5 487.663 167.337 617.5 327.5 617.5Z" fill="white" stroke="#CC0000" stroke-width="75"/>
<path d="M218.762 465C205.184 465 192.523 462.25 180.779 456.75C169.158 451.127 159.188 443.427 150.87 433.65C142.552 423.75 136.619 412.383 133.072 399.55L169.953 389.65C172.033 397.473 175.58 404.256 180.596 410C185.734 415.744 191.727 420.206 198.578 423.383C205.428 426.44 212.523 427.967 219.863 427.967C229.526 427.967 238.273 425.644 246.102 421C254.053 416.356 260.292 410.123 264.818 402.3C269.466 394.477 271.791 385.86 271.791 376.45C271.791 366.794 269.405 358.056 264.634 350.233C259.986 342.411 253.686 336.239 245.735 331.717C237.906 327.072 229.282 324.75 219.863 324.75C209.098 324.75 199.984 326.889 192.523 331.167C185.061 335.444 179.25 340.394 175.091 346.017L141.696 334.283L149.769 195.5H292.342V231.617H169.403L185 217.133L178.577 321.083L171.054 311.367C178.027 304.4 186.345 299.083 196.009 295.417C205.673 291.75 215.275 289.917 224.817 289.917C241.209 289.917 255.827 293.706 268.671 301.283C281.638 308.861 291.852 319.189 299.314 332.267C306.776 345.222 310.507 359.95 310.507 376.45C310.507 392.827 306.287 407.74 297.846 421.183C289.406 434.506 278.213 445.14 264.267 453.083C250.322 461.027 235.154 465 218.762 465ZM428.128 465C410.146 465 394.243 461.09 380.42 453.267C366.596 445.323 355.71 434.444 347.759 420.633C339.93 406.823 336.016 390.933 336.016 372.967V282.033C336.016 264.067 339.93 248.178 347.759 234.367C355.71 220.556 366.596 209.739 380.42 201.917C394.243 193.972 410.146 190 428.128 190C446.11 190 462.011 193.972 475.836 201.917C489.658 209.739 500.484 220.556 508.313 234.367C516.264 248.178 520.24 264.067 520.24 282.033V372.967C520.24 390.933 516.264 406.823 508.313 420.633C500.484 434.444 489.658 445.323 475.836 453.267C462.011 461.09 446.11 465 428.128 465ZM428.128 428.333C437.914 428.333 446.782 426.01 454.734 421.367C462.808 416.6 469.23 410.244 474.001 402.3C478.771 394.233 481.157 385.25 481.157 375.35V279.283C481.157 269.506 478.771 260.644 474.001 252.7C469.23 244.633 462.808 238.278 454.734 233.633C446.782 228.867 437.914 226.483 428.128 226.483C418.341 226.483 409.412 228.867 401.338 233.633C393.386 238.278 387.026 244.633 382.255 252.7C377.485 260.644 375.099 269.506 375.099 279.283V375.35C375.099 385.25 377.485 394.233 382.255 402.3C387.026 410.244 393.386 416.6 401.338 421.367C409.412 426.01 418.341 428.333 428.128 428.333Z" fill="black"/>
</svg>
