<svg width="655" height="655" viewBox="0 0 655 655" fill="none" xmlns="http://www.w3.org/2000/svg">
<path d="M327.5 617.5C487.663 617.5 617.5 487.663 617.5 327.5C617.5 167.337 487.663 37.5 327.5 37.5C167.337 37.5 37.5 167.337 37.5 327.5C37.5 487.663 167.337 617.5 327.5 617.5Z" fill="white" stroke="#CC0000" stroke-width="75"/>
<path d="M202.878 459.5V258.75H178V229.417C178 229.417 192.804 229.865 198.122 226.667C203.44 223.469 202.878 218.417 202.878 218.417V195.5H241.841V459.5H202.878ZM384.845 465C366.918 465 351.065 461.09 337.283 453.267C323.503 445.323 312.65 434.444 304.723 420.633C296.918 406.823 293.015 390.933 293.015 372.967V282.033C293.015 264.067 296.918 248.178 304.723 234.367C312.65 220.556 323.503 209.739 337.283 201.917C351.065 193.972 366.918 190 384.845 190C402.771 190 418.626 193.972 432.405 201.917C446.187 209.739 456.98 220.556 464.784 234.367C472.712 248.178 476.674 264.067 476.674 282.033V372.967C476.674 390.933 472.712 406.823 464.784 420.633C456.98 434.444 446.187 445.323 432.405 453.267C418.626 461.09 402.771 465 384.845 465ZM384.845 428.333C394.602 428.333 403.443 426.01 411.369 421.367C419.418 416.6 425.82 410.244 430.576 402.3C435.332 394.233 437.71 385.25 437.71 375.35V279.283C437.71 269.506 435.332 260.644 430.576 252.7C425.82 244.633 419.418 238.278 411.369 233.633C403.443 228.867 394.602 226.483 384.845 226.483C375.089 226.483 366.186 228.867 358.137 233.633C350.21 238.278 343.868 244.633 339.112 252.7C334.357 260.644 331.979 269.506 331.979 279.283V375.35C331.979 385.25 334.357 394.233 339.112 402.3C343.868 410.244 350.21 416.6 358.137 421.367C366.186 426.01 375.089 428.333 384.845 428.333Z" fill="black"/>
</svg>
