<svg width="655" height="655" viewBox="0 0 655 655" fill="none" xmlns="http://www.w3.org/2000/svg">
<path d="M327.5 617.5C487.663 617.5 617.5 487.663 617.5 327.5C617.5 167.337 487.663 37.5 327.5 37.5C167.337 37.5 37.5 167.337 37.5 327.5C37.5 487.663 167.337 617.5 327.5 617.5Z" fill="white" stroke="#CC0000" stroke-width="75"/>
<path d="M220.296 465C203.041 465 187.744 461.577 174.404 454.733C161.187 447.767 150.785 438.111 143.198 425.767C135.733 413.423 132 399.123 132 382.867C132 367.711 135.549 353.839 142.647 341.25C149.745 328.661 160.331 318.761 174.404 311.55L173.67 324.75C162.411 317.783 153.722 309.106 147.603 298.717C141.607 288.206 138.608 276.472 138.608 263.517C138.608 248.483 142.096 235.467 149.072 224.467C156.047 213.467 165.654 204.972 177.892 198.983C190.252 192.994 204.387 190 220.296 190C236.206 190 250.279 192.994 262.517 198.983C274.755 204.972 284.362 213.467 291.337 224.467C298.313 235.467 301.8 248.483 301.8 263.517C301.8 276.472 298.925 288.144 293.173 298.533C287.421 308.922 278.61 317.661 266.739 324.75L266.188 311.917C280.139 318.761 290.725 328.539 297.946 341.25C305.166 353.839 308.776 367.711 308.776 382.867C308.776 399.123 304.982 413.423 297.395 425.767C289.807 438.111 279.344 447.767 266.005 454.733C252.665 461.577 237.429 465 220.296 465ZM220.296 428.517C234.492 428.517 245.996 424.667 254.807 416.967C263.618 409.144 268.024 397.777 268.024 382.867C268.024 367.956 263.618 356.589 254.807 348.767C246.118 340.822 234.615 336.85 220.296 336.85C205.978 336.85 194.413 340.822 185.602 348.767C176.913 356.589 172.569 367.956 172.569 382.867C172.569 397.777 176.974 409.144 185.785 416.967C194.597 424.667 206.1 428.517 220.296 428.517ZM220.296 300.183C232.412 300.183 242.202 297.189 249.667 291.2C257.255 285.089 261.048 275.861 261.048 263.517C261.048 251.172 257.255 241.944 249.667 235.833C242.202 229.6 232.412 226.483 220.296 226.483C208.181 226.483 198.329 229.6 190.742 235.833C183.154 241.944 179.361 251.172 179.361 263.517C179.361 275.861 183.154 285.089 190.742 291.2C198.329 297.189 208.181 300.183 220.296 300.183ZM430.321 465C412.331 465 396.421 461.09 382.593 453.267C368.765 445.323 357.872 434.444 349.918 420.633C342.085 406.823 338.17 390.933 338.17 372.967V282.033C338.17 264.067 342.085 248.178 349.918 234.367C357.872 220.556 368.765 209.739 382.593 201.917C396.421 193.972 412.331 190 430.321 190C448.311 190 464.22 193.972 478.049 201.917C491.877 209.739 502.707 220.556 510.54 234.367C518.494 248.178 522.472 264.067 522.472 282.033V372.967C522.472 390.933 518.494 406.823 510.54 420.633C502.707 434.444 491.877 445.323 478.049 453.267C464.22 461.09 448.311 465 430.321 465ZM430.321 428.333C440.111 428.333 448.984 426.01 456.938 421.367C465.015 416.6 471.44 410.244 476.213 402.3C480.986 394.233 483.372 385.25 483.372 375.35V279.283C483.372 269.506 480.986 260.644 476.213 252.7C471.44 244.633 465.015 238.278 456.938 233.633C448.984 228.867 440.111 226.483 430.321 226.483C420.531 226.483 411.597 228.867 403.52 233.633C395.566 238.278 389.202 244.633 384.429 252.7C379.656 260.644 377.27 269.506 377.27 279.283V375.35C377.27 385.25 379.656 394.233 384.429 402.3C389.202 410.244 395.566 416.6 403.52 421.367C411.597 426.01 420.531 428.333 430.321 428.333Z" fill="black"/>
</svg>
