<svg width="655" height="655" viewBox="0 0 655 655" fill="none" xmlns="http://www.w3.org/2000/svg">
<path d="M327.5 617.5C487.663 617.5 617.5 487.663 617.5 327.5C617.5 167.337 487.663 37.5 327.5 37.5C167.337 37.5 37.5 167.337 37.5 327.5C37.5 487.663 167.337 617.5 327.5 617.5Z" fill="white" stroke="#CC0000" stroke-width="75"/>
<path d="M218.954 464.45C205.932 464.45 193.702 462.006 182.262 457.117C165.261 449.849 160.074 445.719 152.507 435.85C130.577 407.25 134.228 381.583 134.228 366.917H173.476C173.476 393.133 180.984 413.24 189.747 419.35C198.509 425.34 208.245 428.273 218.954 428.15C228.568 428.027 237.026 425.767 244.328 421.367C251.63 416.967 257.35 411.04 261.488 403.583C265.625 396.006 267.694 387.327 267.694 377.55C267.694 362.883 263.131 350.783 254.003 341.25C244.997 331.717 233.193 326.95 218.589 326.95C214.451 326.95 210.192 327.561 205.811 328.783C201.551 330.006 197.535 331.594 193.763 333.55L175.873 303.3L268.607 220.983L272.623 231.983H144.84V195.5H302.926V231.983L225.891 306.417L225.526 293.95C242.077 293.95 256.437 297.678 268.607 305.133C280.777 312.467 290.147 322.489 296.719 335.2C303.413 347.789 306.759 361.906 306.759 377.55C306.759 394.417 302.804 409.39 294.894 422.467C287.105 435.544 276.578 445.811 263.313 453.267C250.17 460.723 235.383 464.45 218.954 464.45ZM427.702 465C409.812 465 393.992 461.09 380.239 453.267C366.488 445.323 355.657 434.444 347.746 420.633C339.958 406.823 336.063 390.933 336.063 372.967V282.033C336.063 264.067 339.958 248.178 347.746 234.367C355.657 220.556 366.488 209.739 380.239 201.917C393.992 193.972 409.812 190 427.702 190C445.591 190 461.413 193.972 475.164 201.917C488.917 209.739 499.687 220.556 507.475 234.367C515.386 248.178 519.34 264.067 519.34 282.033V372.967C519.34 390.933 515.386 406.823 507.475 420.633C499.687 434.444 488.917 445.323 475.164 453.267C461.413 461.09 445.591 465 427.702 465ZM427.702 428.333C437.439 428.333 446.261 426.01 454.171 421.367C462.203 416.6 468.592 410.244 473.338 402.3C478.085 394.233 480.458 385.25 480.458 375.35V279.283C480.458 269.506 478.085 260.644 473.338 252.7C468.592 244.633 462.203 238.278 454.171 233.633C446.261 228.867 437.439 226.483 427.702 226.483C417.966 226.483 409.082 228.867 401.05 233.633C393.14 238.278 386.811 244.633 382.065 252.7C377.319 260.644 374.945 269.506 374.945 279.283V375.35C374.945 385.25 377.319 394.233 382.065 402.3C386.811 410.244 393.14 416.6 401.05 421.367C409.082 426.01 417.966 428.333 427.702 428.333Z" fill="black"/>
</svg>
