<svg width="655" height="655" viewBox="0 0 655 655" fill="none" xmlns="http://www.w3.org/2000/svg">
<path d="M327.5 617.5C487.663 617.5 617.5 487.663 617.5 327.5C617.5 167.337 487.663 37.5 327.5 37.5C167.337 37.5 37.5 167.337 37.5 327.5C37.5 487.663 167.337 617.5 327.5 617.5Z" fill="white" stroke="#CC0000" stroke-width="75"/>
<path fill-rule="evenodd" clip-rule="evenodd" d="M124.012 200.144C123.985 198.012 123.972 197.035 124.334 197.001C124.633 196.973 125.193 197.586 126.226 198.716C133.107 206.245 160.95 236.706 272.026 253.327H343.551C385.026 253.327 420.703 278.18 436.536 313.823H461.232L461.789 313.721C466.112 312.934 470.037 310.693 472.915 307.369L473.598 306.58C483.103 292.592 499.305 283.368 517.316 283.368C545.86 283.368 569 306.535 569 335.113C569 363.691 545.86 386.858 517.316 386.858C498.514 386.858 481.683 376.806 472.385 361.777C469.564 358.775 465.852 356.751 461.789 356.011L459.887 355.665H445.265C444.995 411.677 399.56 457 343.551 457H301.057C261.566 457 229.553 424.949 229.553 385.411C229.553 345.874 261.567 313.823 301.057 313.823H386.976C376.06 302.332 360.641 295.169 343.551 295.169H254.32C158.312 300.522 124.031 343.986 124.031 343.986V202.566C124.031 201.634 124.021 200.83 124.012 200.144ZM403.471 355.665H301.057C284.648 355.665 271.346 368.983 271.346 385.411C271.346 401.84 284.648 415.157 301.057 415.157H343.551C376.478 415.157 403.202 388.568 403.471 355.665Z" fill="black"/>
<path d="M571.382 531.035L123.128 82.7812L83.8737 122.035L532.128 570.289L571.382 531.035Z" fill="#CC0000"/>
</svg>
