<svg width="655" height="655" viewBox="0 0 655 655" fill="none" xmlns="http://www.w3.org/2000/svg">
<g clip-path="url(#clip0_1_2)">
<path d="M617.51 327.489C617.51 487.652 487.673 617.489 327.51 617.489C167.347 617.489 37.5096 487.652 37.5096 327.489C37.5096 167.326 167.347 37.4894 327.51 37.4894C487.673 37.4894 617.51 167.326 617.51 327.489Z" fill="#0C479D" stroke="#0C479D" stroke-width="75"/>
<path fill-rule="evenodd" clip-rule="evenodd" d="M254.124 98.5068C251.858 98.8651 246.449 111.588 242.586 118.131C243.259 125.161 241.859 136.286 247.066 141.489C254.332 148.754 250.155 158.387 247.551 166.831C235.008 169.64 223.29 172.808 210.439 172.808L182.444 245.875C171.371 273.998 176.135 256.406 175.003 300.06L174 337.817C176.602 340.419 177.274 339.929 175.984 343.793C172.329 354.765 190.794 368.748 199.344 360.198C206.065 353.476 192.469 346.188 198.363 340.317C207.25 331.43 199.777 339.52 202.328 307.505L204.827 276.187L213.765 254.913L215.745 255.324C215.745 275.468 214.152 292.155 211.781 312.967L207.788 347.762C210.288 347.762 210.597 347.013 211.265 349.77L211.783 351.754V440.219L220.951 530.982L203.826 528.716L195.327 535.77C203.978 542.185 214.95 555.085 226.18 554.059C234.754 553.286 229.888 555.781 236.122 557.043C240.602 557.921 245.109 556.348 249.565 555.551C249.72 552.411 248.738 538.27 252.039 537.16L253.532 536.646L250.543 440.22L255.281 384.668L268.444 436.256C267.363 460.595 266.05 484.132 262.984 508.314C259.43 536.259 256.597 532.939 260.975 536.646C264.066 539.275 263.215 548.801 263.472 552.563C267.878 552.848 275.757 553.619 280.859 552.074C285.187 550.761 281.785 550.195 288.327 554.547C297.186 560.446 305.041 557.921 315.42 557.355L314.185 548.598L294.454 533.275L308.209 425.31C304.681 403.881 296.283 370.863 296.283 349.255C296.283 341.298 300.252 350.594 300.252 341.322C300.252 316.107 289.202 292.592 291.315 267.25L293.299 265.269C297.83 281.159 302.339 289.503 310.681 306.526C324.513 334.649 320.545 336.427 326.599 334.856C332.446 333.314 328.528 346.189 331.566 351.262C333.551 354.586 336.926 360.692 341.019 360.692C350.085 360.692 342.644 360.148 354.438 378.589C366.698 397.776 358.944 394.944 370.331 397.468C377.514 399.065 383.491 395.562 390.342 393.295C384.264 406.921 379.034 419.615 370.331 431.775C362.112 443.309 360.75 438.493 364.869 445.68C369.014 452.969 377.363 457.836 383.748 463.09L380.788 486.94L393.689 535.668L377.257 532.372L375.378 535.747C384.006 547.258 389.854 556.531 405.126 556.531C420.013 556.531 418.235 552.125 414.575 538.142C410.431 522.225 411.306 530.645 412.595 512.799C413.727 496.725 416.072 502.803 410.095 493.405C405.177 485.652 408.626 484.03 412.595 476.354C412.595 497.604 427.274 516.97 436.442 535.668L420.551 551.559C433.688 564.719 448.882 550.527 460.316 541.618C454.78 529.9 452.258 523.666 450.866 510.298C449.113 493.299 452.129 499.87 444.891 489.437C439.148 481.121 441.207 478.311 442.805 468.707C448.395 467.316 456.89 468.062 457.82 461.597C458.515 456.805 457.302 458.711 461.785 456.137C467.143 453.07 465.186 455.469 465.776 447.688C466.857 433.498 474.948 419.54 480.201 406.431C473.967 389.92 471.136 365.84 454.832 357.211C446.926 353.04 444.789 350.801 439.378 344.337L453.339 333.853C452.153 323.732 451.508 317.24 446.898 307.994C441.258 296.714 435.668 295.683 424.645 290.171C411.873 296.147 401.443 298.311 397.681 312.475C395.338 321.283 393.87 318.115 398.684 322.908C403.68 327.93 403.371 335.013 404.633 341.809L418.542 345.778V351.754L396.677 356.723L377.771 374.57C370.51 367.309 358.377 359.918 357.425 349.255C356.708 341.477 343.105 332.024 346.479 326.412C352.916 315.669 348.335 324.813 337.542 297.077C323.328 260.555 318.329 223.186 311.196 184.733L276.4 166.832C275.837 161.735 273.799 158.954 278.384 155.914C284.411 151.868 280.986 155.037 284.849 143.474C289.486 129.592 287.293 117.716 286.342 103.217C276.967 98.1711 274.802 96.0849 263.78 97.3706C260.561 97.7564 256.416 98.1434 254.123 98.5074L254.124 98.5068ZM449.371 418.353L453.339 420.337L458.308 405.423L448.495 390.151C441.207 393.603 448.374 411.837 449.366 418.353" fill="white"/>
</g>
<defs>
<clipPath id="clip0_1_2">
<rect width="655" height="655" fill="white"/>
</clipPath>
</defs>
</svg>
