<svg width="655" height="655" viewBox="0 0 655 655" fill="none" xmlns="http://www.w3.org/2000/svg">
<path d="M617.5 327.5C617.5 487.663 487.663 617.5 327.5 617.5C167.337 617.5 37.5 487.663 37.5 327.5C37.5 167.337 167.337 37.5 327.5 37.5C487.663 37.5 617.5 167.337 617.5 327.5Z" fill="#0C479D" stroke="#0C479D" stroke-width="75"/>
<path d="M222.115 460.464C209.376 460.464 197.409 458.082 186.218 453.317C169.584 446.235 164.51 442.21 157.106 432.592C135.651 404.72 139.223 379.707 139.223 365.413H177.621C177.621 390.963 184.967 410.557 193.54 416.512C202.113 422.349 211.638 425.208 222.115 425.088C231.521 424.968 239.796 422.765 246.94 418.477C254.084 414.189 259.68 408.413 263.728 401.147C267.777 393.762 269.801 385.304 269.801 375.776C269.801 361.483 265.336 349.691 256.406 340.4C247.595 331.109 236.046 326.464 221.758 326.464C217.71 326.464 213.543 327.059 209.256 328.251C205.089 329.442 201.16 330.99 197.469 332.896L179.967 303.416L270.694 223.195L274.623 233.915H149.605V198.36H304.27V233.915L228.902 306.453L228.545 294.304C244.738 294.304 258.787 297.937 270.694 305.203C282.6 312.349 291.768 322.116 298.197 334.504C304.746 346.772 308.02 360.53 308.02 375.776C308.02 392.213 304.15 406.805 296.411 419.549C288.791 432.294 278.492 442.299 265.514 449.565C252.655 456.832 238.189 460.464 222.115 460.464ZM426.345 461C408.842 461 393.365 457.189 379.91 449.565C366.456 441.824 355.86 431.222 348.12 417.763C340.501 404.304 336.689 388.819 336.689 371.309V282.691C336.689 265.181 340.501 249.697 348.12 236.237C355.86 222.778 366.456 212.237 379.91 204.613C393.365 196.871 408.842 193 426.345 193C443.847 193 459.326 196.871 472.78 204.613C486.235 212.237 496.772 222.778 504.391 236.237C512.132 249.697 516 265.181 516 282.691V371.309C516 388.819 512.132 404.304 504.391 417.763C496.772 431.222 486.235 441.824 472.78 449.565C459.326 457.189 443.847 461 426.345 461ZM426.345 425.267C435.871 425.267 444.503 423.003 452.241 418.477C460.099 413.832 466.35 407.638 470.994 399.896C475.637 392.035 477.959 383.28 477.959 373.632V280.011C477.959 270.482 475.637 261.846 470.994 254.104C466.35 246.243 460.099 240.049 452.241 235.523C444.503 230.877 435.871 228.555 426.345 228.555C416.82 228.555 408.128 230.877 400.27 235.523C392.531 240.049 386.339 246.243 381.696 254.104C377.052 261.846 374.73 270.482 374.73 280.011V373.632C374.73 383.28 377.052 392.035 381.696 399.896C386.339 407.638 392.531 413.832 400.27 418.477C408.128 423.003 416.82 425.267 426.345 425.267Z" fill="white"/>
<path d="M116 577.5L578 116.5L574 112L570 107.5L564.5 101.5L560 97L554 91L550 87.5L545 83L543 81L540.5 79L76 537L81 543L86.5002 549L92.5003 555.5L97.5 560.5L100 563L107.5 570L112.5 574.5L116 577.5Z" fill="#CC0000"/>
</svg>
