<svg width="655" height="655" viewBox="0 0 655 655" fill="none" xmlns="http://www.w3.org/2000/svg">
<path d="M327.5 617.5C487.663 617.5 617.5 487.663 617.5 327.5C617.5 167.337 487.663 37.5 327.5 37.5C167.337 37.5 37.5 167.337 37.5 327.5C37.5 487.663 167.337 617.5 327.5 617.5Z" fill="white" stroke="#CC0000" stroke-width="75"/>
<path fill-rule="evenodd" clip-rule="evenodd" d="M205.492 459.103H446.091V479.524H205.492V459.103Z" fill="black"/>
<path fill-rule="evenodd" clip-rule="evenodd" d="M205.492 439.387H227.925V502.945H205.492V439.387Z" fill="black"/>
<path fill-rule="evenodd" clip-rule="evenodd" d="M424.829 439.387H447.261V502.945H424.829V439.387Z" fill="black"/>
<path fill-rule="evenodd" clip-rule="evenodd" d="M326.382 450.603C336.672 450.603 345.07 458.999 345.07 469.292C345.07 479.594 336.672 487.99 326.382 487.99C316.083 487.99 307.683 479.594 307.683 469.292C307.683 458.999 316.083 450.603 326.382 450.603Z" fill="black"/>
<path fill-rule="evenodd" clip-rule="evenodd" d="M203 154H450.43V401.423H203V154V154Z" fill="#E87819"/>
<path fill-rule="evenodd" clip-rule="evenodd" d="M203 410.724H451V430.663H203V410.724Z" fill="black"/>
</svg>
