<svg width="655" height="655" viewBox="0 0 655 655" fill="none" xmlns="http://www.w3.org/2000/svg">
<g clip-path="url(#clip0_1_2)">
<path d="M617.51 327.489C617.51 487.652 487.673 617.489 327.51 617.489C167.347 617.489 37.5096 487.652 37.5096 327.489C37.5096 167.326 167.347 37.4894 327.51 37.4894C487.673 37.4894 617.51 167.326 617.51 327.489Z" fill="#0C479D" stroke="#0C479D" stroke-width="75"/>
<path fill-rule="evenodd" clip-rule="evenodd" d="M105.77 300.226L153.686 344.812C152.039 347.554 151.077 350.748 151.077 354.136C151.077 364.109 159.332 372.434 169.193 372.434C170.212 372.434 171.211 372.335 172.191 372.178L173.015 375.038H169.116L169.644 377.585H181.916V375.038H177.232L175.84 371.121C181.369 368.889 185.624 363.932 186.917 357.957L202.171 357.98C204.424 381.096 223.911 399.648 246.967 399.648C271.512 399.648 292 378.648 292 353.477C292 328.303 271.512 307.304 246.967 307.304C240.046 307.304 233.441 308.969 227.518 311.945L212.129 284.246L215.814 276.137H229.539C229.951 276.137 231.949 270.358 229.48 270.358C220.599 270.358 217.325 272.043 202.798 270.358C198.975 269.907 191.603 275.236 192.701 276.137H209.464L205.757 282.092H113.026L116.732 272.356C114.066 270.376 106.322 260.916 108.027 258.017C110.439 253.902 124.926 259.838 130.926 262.013L130.572 262.775L139.179 266.204C142.022 267.381 142.886 264.774 140.14 263.463L132.18 259.583L131.808 260.406C124.496 258.468 110.754 251.688 106.989 256.978C104.341 260.72 107.753 264.735 109.852 267.4C113.183 271.611 112.516 269.848 104.949 288.85L96.068 310.693C89.6578 307.322 82.4435 305.424 74.8367 305.424C49.3115 305.424 28 326.932 28 352.71C28 378.47 49.3115 400 74.8367 400C100.362 400 121.653 378.47 121.653 352.71C121.653 336.669 113.401 322.27 100.99 313.688L105.773 300.23L105.77 300.226ZM180.348 339.681L208.659 290.334L222.44 315.213C210.52 323.363 202.267 336.977 201.933 352.454L187.229 352.43L201.933 352.454L187.229 352.43C186.741 347.278 184.229 342.577 180.348 339.678V339.681ZM164.31 336.545L163.114 332.216H166.664L166.449 329.59L154.312 329.728L154.841 332.12L158.253 332.085L160.763 338.021C159.585 338.647 158.469 339.431 157.468 340.311L108.632 294.531L111.28 287.322H202.814L174.8 336.786C173.036 336.179 171.154 335.846 169.193 335.846C167.507 335.846 165.88 336.099 164.31 336.549V336.545ZM99.2429 320.486C108.731 327.931 114.946 339.547 114.946 352.399C114.946 374.436 96.7133 392.83 74.8937 392.83C53.0722 392.83 34.8597 374.436 34.8597 352.399C34.8597 330.361 53.0722 311.967 74.8937 311.967C81.7542 311.967 88.2627 313.787 93.9491 316.961L80.8518 345.131C77.6173 350.419 78.5008 350.047 74.6176 348.833C71.9111 347.992 70.441 348.774 71.1088 352.909C71.5039 355.219 73.0293 355.357 73.5581 355.61C78.2247 358.001 86.8918 347.186 98.7917 319.861L99.2446 320.486H99.2429ZM250.692 356.748C250.337 353.338 251.238 351.85 248.398 349.773L229.929 317.588C242.613 314.472 249.005 312.259 261.043 317.215C290.019 329.106 294.568 369.813 266.296 386.739C243.829 400.178 216.716 388.933 210.108 364.055L208.207 356.884L250.692 356.749V356.748ZM242.713 352.732H208.403C208.403 344.132 214.48 327.345 225.519 321.466L242.713 352.732ZM173.742 340.547L168.369 348.776L165.447 340.41C167.155 338.549 173.898 339.292 173.742 340.547ZM183.191 352.868L172.681 351.888L178.288 343.251C181.132 343.681 184.054 350.557 183.191 352.868ZM167.762 358.413L170.663 368.149C156.979 368.795 152.626 355.905 156.489 347.581L167.762 358.413ZM175.27 367.208L171.583 357.846L182.74 357.822C182.467 360.997 178.113 365.305 175.27 367.206V367.208ZM161.704 341.429L160.057 342.936L165.057 350.107" fill="white"/>
<path fill-rule="evenodd" clip-rule="evenodd" d="M429.878 159.094C428.206 159.369 424.231 168.718 421.405 173.527C421.895 178.691 420.856 186.851 424.68 190.69C430.016 196.009 426.955 203.099 425.052 209.311C415.837 211.355 407.23 213.695 397.778 213.695L377.209 267.379C369.066 288.045 372.571 275.11 371.735 307.196L371 334.952C372.909 336.86 373.416 336.493 372.462 339.335C369.772 347.4 383.35 357.666 389.624 351.391C394.571 346.445 384.579 341.087 388.9 336.784C395.424 330.239 389.95 336.197 391.821 312.668L393.65 289.662L400.237 274.021L401.678 274.313C401.678 289.118 400.508 301.41 398.755 316.68L395.834 342.257C397.666 342.257 397.898 341.712 398.385 343.718L398.757 345.18V410.181L405.497 476.875L392.912 475.204L386.679 480.402C393.031 485.097 401.096 494.564 409.353 493.825C415.645 493.26 412.081 495.092 416.659 496.004C419.932 496.667 423.264 495.519 426.515 494.914C426.652 492.618 425.908 482.213 428.348 481.397L429.438 481.047L427.259 410.182L430.726 369.372L440.406 407.259C439.602 425.142 438.636 442.439 436.373 460.221C433.763 480.752 431.697 478.299 434.911 481.047C437.192 482.956 436.57 489.967 436.743 492.732C439.995 492.927 445.782 493.492 449.523 492.364C452.698 491.41 450.189 490.98 455.018 494.194C461.503 498.518 467.289 496.668 474.924 496.241L474.013 489.811L459.523 478.552L469.633 399.235C467.041 383.476 460.866 359.225 460.866 343.348C460.866 337.504 463.789 344.323 463.789 337.504C463.789 318.999 455.646 301.702 457.204 283.081L458.666 281.619C462.014 293.324 465.308 299.443 471.445 311.947C481.594 332.617 478.692 333.922 483.13 332.752C487.437 331.642 484.554 341.089 486.796 344.808C488.253 347.263 490.727 351.743 493.73 351.743C500.39 351.743 494.938 351.336 503.587 364.892C512.608 378.996 506.918 376.91 515.276 378.781C520.554 379.95 524.956 377.379 529.981 375.701C525.5 385.714 521.665 395.026 515.276 403.969C509.238 412.441 508.241 408.914 511.261 414.194C514.321 419.551 520.436 423.115 525.132 426.993L522.949 444.521L532.434 480.306L520.361 477.89L518.976 480.364C525.327 488.818 529.631 495.655 540.851 495.655C551.78 495.655 550.476 492.403 547.786 482.137C544.728 470.432 545.391 476.626 546.324 463.514C547.167 451.691 548.896 456.171 544.495 449.255C540.871 443.567 543.423 442.38 546.324 436.73C546.324 452.333 557.118 466.572 563.837 480.326L552.169 491.994C561.832 501.655 572.993 491.234 581.392 484.688C577.338 476.078 575.468 471.501 574.453 461.682C573.15 449.179 575.375 454.009 570.074 446.332C565.846 440.239 567.347 438.174 568.533 431.122C572.642 430.088 578.88 430.637 579.559 425.882C580.068 422.356 579.186 423.758 582.481 421.87C586.417 419.629 584.973 421.401 585.405 415.655C586.208 405.232 592.144 394.988 596 385.347C591.422 373.227 589.339 355.522 577.376 349.192C571.553 346.113 569.974 344.478 566 339.725L576.266 332.031C575.414 324.59 574.923 319.818 571.534 313.04C567.384 304.741 563.292 303.982 555.188 299.95C545.801 304.333 538.143 305.909 535.357 316.33C533.643 322.799 532.574 320.461 536.102 323.986C539.783 327.668 539.546 332.887 540.485 337.875L550.71 340.797V345.18L534.639 348.82L520.729 361.953C515.391 356.615 506.488 351.181 505.788 343.348C505.269 337.642 495.268 330.687 497.742 326.558C502.477 318.669 499.107 325.388 491.176 304.995C480.737 278.172 477.075 250.725 471.814 222.462L446.256 209.312C445.834 205.572 444.347 203.527 447.717 201.289C452.139 198.325 449.626 200.643 452.45 192.151C455.859 181.944 454.263 173.237 453.561 162.562C446.666 158.862 445.087 157.322 436.982 158.276C434.608 158.551 431.567 158.842 429.892 159.095L429.878 159.094ZM573.334 394.108L576.253 395.57L579.918 384.624L572.709 373.404C567.35 375.937 572.611 389.32 573.336 394.108" fill="white"/>
<rect x="315" width="25" height="655" fill="white"/>
</g>
<defs>
<clipPath id="clip0_1_2">
<rect width="655" height="655" fill="white"/>
</clipPath>
</defs>
</svg>
