<svg width="655" height="655" viewBox="0 0 655 655" fill="none" xmlns="http://www.w3.org/2000/svg">
<g clip-path="url(#clip0_1_10)">
<path d="M617.51 327.489C617.51 487.652 487.673 617.489 327.51 617.489C167.347 617.489 37.5096 487.652 37.5096 327.489C37.5096 167.326 167.347 37.4894 327.51 37.4894C487.673 37.4894 617.51 167.326 617.51 327.489Z" fill="#0C479D" stroke="#0C479D" stroke-width="75"/>
<path fill-rule="evenodd" clip-rule="evenodd" d="M272.77 456.226L320.686 500.812C319.039 503.554 318.077 506.748 318.077 510.136C318.077 520.109 326.332 528.434 336.193 528.434C337.212 528.434 338.211 528.335 339.191 528.178L340.015 531.038H336.116L336.644 533.585H348.916V531.038H344.232L342.84 527.121C348.369 524.889 352.624 519.932 353.917 513.957L369.171 513.98C371.424 537.096 390.911 555.648 413.967 555.648C438.512 555.648 459 534.648 459 509.477C459 484.303 438.512 463.304 413.967 463.304C407.046 463.304 400.441 464.969 394.518 467.945L379.129 440.246L382.814 432.137H396.539C396.951 432.137 398.949 426.358 396.48 426.358C387.599 426.358 384.325 428.043 369.798 426.358C365.975 425.907 358.603 431.236 359.701 432.137H376.464L372.757 438.092H280.026L283.732 428.356C281.066 426.376 273.322 416.916 275.027 414.017C277.439 409.902 291.926 415.838 297.926 418.013L297.572 418.775L306.179 422.204C309.022 423.381 309.886 420.774 307.14 419.463L299.18 415.583L298.808 416.406C291.496 414.468 277.754 407.688 273.989 412.978C271.341 416.72 274.753 420.735 276.852 423.4C280.183 427.611 279.516 425.848 271.949 444.85L263.068 466.693C256.658 463.322 249.444 461.424 241.837 461.424C216.312 461.424 195 482.932 195 508.71C195 534.47 216.312 556 241.837 556C267.362 556 288.653 534.47 288.653 508.71C288.653 492.669 280.401 478.27 267.99 469.688L272.773 456.23L272.77 456.226ZM347.348 495.681L375.659 446.334L389.44 471.213C377.52 479.363 369.267 492.977 368.933 508.454L354.229 508.43L368.933 508.454L354.229 508.43C353.741 503.278 351.229 498.577 347.348 495.678V495.681ZM331.31 492.545L330.114 488.216H333.664L333.449 485.59L321.312 485.728L321.841 488.12L325.253 488.085L327.763 494.021C326.585 494.647 325.469 495.431 324.468 496.311L275.632 450.531L278.28 443.322H369.814L341.8 492.786C340.036 492.179 338.154 491.846 336.193 491.846C334.507 491.846 332.88 492.099 331.31 492.549V492.545ZM266.243 476.486C275.731 483.931 281.946 495.547 281.946 508.399C281.946 530.436 263.713 548.83 241.894 548.83C220.072 548.83 201.86 530.436 201.86 508.399C201.86 486.361 220.072 467.967 241.894 467.967C248.754 467.967 255.263 469.787 260.949 472.961L247.852 501.131C244.617 506.419 245.501 506.047 241.618 504.833C238.911 503.992 237.441 504.774 238.109 508.909C238.504 511.219 240.029 511.357 240.558 511.61C245.225 514.001 253.892 503.186 265.792 475.861L266.245 476.486H266.243ZM417.692 512.748C417.337 509.338 418.238 507.85 415.398 505.773L396.929 473.588C409.613 470.472 416.005 468.259 428.043 473.215C457.019 485.106 461.568 525.813 433.296 542.739C410.829 556.178 383.716 544.933 377.108 520.055L375.207 512.884L417.692 512.749V512.748ZM409.713 508.732H375.403C375.403 500.132 381.48 483.345 392.519 477.466L409.713 508.732ZM340.742 496.547L335.369 504.776L332.447 496.41C334.155 494.549 340.898 495.292 340.742 496.547ZM350.191 508.868L339.681 507.888L345.288 499.251C348.132 499.681 351.054 506.557 350.191 508.868ZM334.762 514.413L337.663 524.149C323.979 524.795 319.626 511.905 323.489 503.581L334.762 514.413ZM342.27 523.208L338.583 513.846L349.74 513.822C349.467 516.997 345.113 521.305 342.27 523.206V523.208ZM328.704 497.429L327.057 498.936L332.057 506.107" fill="white"/>
<path fill-rule="evenodd" clip-rule="evenodd" d="M283.149 58.894C281.782 59.1187 278.531 66.7578 276.22 70.6873C276.621 74.9069 275.771 81.5745 278.898 84.7114C283.262 89.0576 280.759 94.8509 279.203 99.9268C271.667 101.597 264.628 103.509 256.898 103.509L240.078 147.375C233.418 164.261 236.285 153.692 235.601 179.91L235 202.589C236.561 204.148 236.976 203.848 236.196 206.171C233.996 212.761 245.1 221.149 250.23 216.022C254.276 211.98 246.105 207.602 249.638 204.086C254.973 198.738 250.497 203.606 252.027 184.381L253.523 165.582L258.909 152.802L260.088 153.04C260.088 165.138 259.131 175.182 257.697 187.659L255.309 208.558C256.807 208.558 256.997 208.113 257.395 209.752L257.699 210.947V264.059L263.211 318.556L252.919 317.19L247.822 321.438C253.016 325.274 259.612 333.01 266.364 332.406C271.51 331.944 268.595 333.441 272.339 334.186C275.015 334.728 277.74 333.79 280.399 333.296C280.511 331.42 279.903 322.917 281.898 322.251L282.789 321.965L281.007 264.06L283.843 230.714L291.759 261.672C291.101 276.284 290.311 290.418 288.461 304.948C286.326 321.724 284.637 319.719 287.265 321.965C289.13 323.525 288.622 329.253 288.763 331.513C291.423 331.672 296.155 332.134 299.214 331.212C301.811 330.432 299.759 330.081 303.708 332.707C309.011 336.24 313.743 334.729 319.987 334.38L319.242 329.126L307.392 319.926L315.66 255.115C313.54 242.239 308.49 222.423 308.49 209.45C308.49 204.674 310.881 210.246 310.881 204.674C310.881 189.554 304.222 175.42 305.496 160.205L306.691 159.01C309.429 168.575 312.123 173.574 317.142 183.792C325.441 200.681 323.068 201.748 326.697 200.792C330.22 199.885 327.862 207.604 329.695 210.643C330.887 212.649 332.91 216.309 335.366 216.309C340.812 216.309 336.354 215.977 343.427 227.053C350.804 238.578 346.151 236.873 352.986 238.402C357.302 239.357 360.902 237.257 365.011 235.886C361.347 244.067 358.21 251.676 352.986 258.984C348.048 265.906 347.233 263.024 349.702 267.339C352.205 271.716 357.205 274.628 361.046 277.797L359.26 292.119L367.017 321.359L357.144 319.385L356.011 321.407C361.205 328.315 364.725 333.901 373.9 333.901C382.838 333.901 381.771 331.244 379.572 322.855C377.071 313.291 377.613 318.352 378.376 307.638C379.065 297.978 380.479 301.638 376.88 295.987C373.917 291.339 376.004 290.37 378.376 285.753C378.376 298.502 387.203 310.137 392.698 321.376L383.156 330.91C391.058 338.804 400.185 330.289 407.054 324.94C403.739 317.905 402.209 314.165 401.379 306.141C400.314 295.925 402.133 299.872 397.798 293.599C394.341 288.62 395.568 286.933 396.538 281.171C399.898 280.326 405 280.774 405.555 276.889C405.971 274.008 405.25 275.153 407.944 273.611C411.163 271.78 409.982 273.227 410.336 268.532C410.992 260.016 415.847 251.645 419 243.767C415.256 233.864 413.553 219.397 403.77 214.225C399.008 211.709 397.717 210.373 394.467 206.489L402.862 200.202C402.165 194.122 401.764 190.223 398.992 184.685C395.598 177.903 392.252 177.283 385.625 173.989C377.948 177.57 371.686 178.858 369.407 187.373C368.006 192.659 367.132 190.748 370.017 193.629C373.027 196.637 372.833 200.902 373.601 204.978L381.963 207.365V210.947L368.82 213.921L357.445 224.652C353.08 220.29 345.799 215.85 345.227 209.45C344.802 204.787 336.624 199.104 338.647 195.73C342.519 189.284 339.763 194.774 333.277 178.111C324.74 156.194 321.746 133.767 317.443 110.673L296.543 99.9276C296.198 96.8716 294.982 95.2006 297.737 93.3719C301.354 90.95 299.299 92.844 301.608 85.9052C304.396 77.5649 303.091 70.4504 302.517 61.7277C296.878 58.7044 295.587 57.4461 288.959 58.2256C287.017 58.4503 284.53 58.6881 283.161 58.8948L283.149 58.894ZM400.464 250.926L402.851 252.121L405.849 243.177L399.953 234.009C395.571 236.078 399.873 247.014 400.466 250.926" fill="white"/>
</g>
<defs>
<clipPath id="clip0_1_10">
<rect width="655" height="655" fill="white"/>
</clipPath>
</defs>
</svg>
