<svg width="655" height="655" viewBox="0 0 655 655" fill="none" xmlns="http://www.w3.org/2000/svg">
<g clip-path="url(#clip0_1_2)">
<path d="M617.51 327.489C617.51 487.652 487.673 617.489 327.51 617.489C167.347 617.489 37.5096 487.652 37.5096 327.489C37.5096 167.326 167.347 37.4894 327.51 37.4894C487.673 37.4894 617.51 167.326 617.51 327.489Z" fill="#0C479D" stroke="#0C479D" stroke-width="75"/>
<path fill-rule="evenodd" clip-rule="evenodd" d="M101.289 240.285C92.1191 240.717 90.344 236.483 93.3288 250.356L90.3863 267.467C88.0965 280.089 86.2329 295.95 82.168 313.667C72.9505 316.388 74.2475 316.171 72.2156 325.204L72 384.97H148.193C148.193 361.374 166.321 344.265 186.741 344.175C207.123 344.126 223.821 362.541 223.603 384.581L445.479 384.629C446.304 360.426 461.442 346.207 481.693 345.432C504.45 344.568 521.02 360.728 520.894 384.583H576.012C582.158 384.534 582.808 382.899 582.983 375.595V348.411V312.239V276.068V253.211C583.149 238.604 582.288 240.244 572.249 240.244L101.289 240.293V240.285ZM132.529 262.543V313.45L235.763 313.586V262.55H132.529V262.543ZM103.02 262.543L91.1213 313.577H126.169V262.543H103.02ZM185.878 348.456C167.445 348.456 152.042 363.837 152.042 382.249C152.042 400.614 167.445 416 185.878 416C204.266 416 219.671 400.614 219.671 382.249C219.671 363.837 204.266 348.456 185.878 348.456ZM483.34 348.456C464.905 348.456 449.543 363.837 449.543 382.249C449.543 400.614 464.905 416 483.34 416C501.768 416 517.173 400.614 517.173 382.249C517.173 363.837 501.768 348.456 483.34 348.456ZM241.733 262.543V313.45L344.97 313.586V262.55H241.733V262.543ZM350.94 262.543V313.45L454.173 313.586V262.55H350.94V262.543ZM460.143 262.543V313.45L563.122 313.586V262.55" fill="white"/>
</g>
<defs>
<clipPath id="clip0_1_2">
<rect width="655" height="655" fill="white"/>
</clipPath>
</defs>
</svg>
