<svg width="450" height="655" viewBox="0 0 450 655" fill="none" xmlns="http://www.w3.org/2000/svg">
<rect width="450" height="655" fill="#0C479D"/>
<path d="M176.35 317H127V40H239.648C293.183 40 324 75.6887 324 122.767C324 163.437 298.427 207.271 239.914 207.271H176.35V317ZM224.902 161.949C269.338 161.949 278.371 140.859 278.371 124.19C278.371 106.328 271.198 85.1902 224.902 85.1902H175.751V161.947L224.902 161.949Z" fill="white"/>
<rect x="41" y="433" width="368" height="106" fill="white"/>
<path d="M54 510V462H68.6189L77.3969 494.742L86.0758 462H100.728V510H91.6528V472.216L82.0499 510H72.6449L63.075 472.216V510H54ZM110.43 510V462H146.301V470.12H120.198V480.761H144.485V488.849H120.198V501.913H147.224V510H110.43ZM174.449 510V462H184.217V483.315L203.951 462H217.085L198.869 480.696L218.075 510H205.436L192.137 487.473L184.217 495.495V510H174.449ZM266.783 510H256.157L251.933 499.097H232.595L228.602 510H218.24L237.083 462H247.412L266.783 510ZM248.798 491.01L242.132 473.198L235.598 491.01H248.798ZM271.997 510V462H287.671C293.612 462 297.484 462.24 299.288 462.72C302.06 463.441 304.381 465.012 306.251 467.435C308.121 469.836 309.055 472.947 309.055 476.767C309.055 479.714 308.517 482.191 307.439 484.199C306.36 486.207 304.986 487.79 303.314 488.947C301.664 490.082 299.98 490.835 298.264 491.206C295.933 491.664 292.556 491.894 288.134 491.894H281.765V510H271.997ZM281.765 470.12V483.741H287.11C290.961 483.741 293.535 483.49 294.833 482.988C296.131 482.486 297.143 481.7 297.868 480.63C298.617 479.561 298.991 478.317 298.991 476.898C298.991 475.151 298.474 473.711 297.44 472.576C296.406 471.441 295.097 470.731 293.513 470.447C292.347 470.229 290.004 470.12 286.484 470.12H281.765ZM327.965 510V470.12H313.609V462H352.054V470.12H337.733V510H327.965ZM397 510H386.374L382.15 499.097H362.812L358.819 510H348.457L367.3 462H377.629L397 510ZM379.015 491.01L372.349 473.198L365.816 491.01H379.015Z" fill="black"/>
</svg>
