<svg width="450" height="655" viewBox="0 0 450 655" fill="none" xmlns="http://www.w3.org/2000/svg">
<rect width="450" height="655" fill="#0C479D"/>
<path d="M176.35 317H127V40H239.648C293.183 40 324 75.6887 324 122.767C324 163.437 298.427 207.271 239.914 207.271H176.35V317ZM224.902 161.949C269.338 161.949 278.371 140.859 278.371 124.19C278.371 106.328 271.198 85.1902 224.902 85.1902H175.751V161.947L224.902 161.949Z" fill="white"/>
<rect x="41" y="433" width="368" height="106" fill="white"/>
<path d="M133.557 522V462.527H112.316V450.418H169.201V462.527H148.01V522H133.557ZM241.205 522H225.482L219.232 505.74H190.619L184.711 522H169.379L197.26 450.418H212.543L241.205 522ZM214.594 493.68L204.73 467.117L195.062 493.68H214.594ZM253.492 450.418H305.201V462.527H253.492V450.418ZM256.178 478.25H302.516V490.359H256.178V478.25ZM252.125 509.939H306.568V522H252.125V509.939ZM323.836 522V450.418H338.289V522H323.836Z" fill="black"/>
</svg>
