<svg width="450" height="655" viewBox="0 0 450 655" fill="none" xmlns="http://www.w3.org/2000/svg">
<rect width="450" height="655" fill="#0C479D"/>
<path fill-rule="evenodd" clip-rule="evenodd" d="M186.067 411.725L195.056 411.743C196.268 441.747 197.553 447.467 201.544 452.246C204.13 455.332 210.211 457.49 213.231 464.163C215.721 469.692 217.599 475.376 217.903 477.768C218.185 480.159 218.185 480.159 218.185 480.159L256.205 480.231V500.007L218.19 499.971V515.522L265.13 515.594L317.58 570.31L328.515 556.922L340 567.944L310.982 601.49L255.876 545.026L185.938 544.918L186.116 411.745L186.067 411.725ZM190.456 365.058C200.249 365.854 207.774 374.755 206.979 384.61C206.195 394.473 197.35 402.052 187.556 401.25C177.766 400.456 170.253 391.553 171.044 381.69C171.829 371.829 180.673 364.261 190.456 365.058ZM177.223 477.276C155.59 484.111 139.043 504.078 137.781 527.951C136.159 558.527 160.158 585.41 190.514 587.026C214.836 588.33 236.796 573.087 245.403 551.278L264.878 574.055C249.326 599.755 220.512 616.572 189.048 614.884C143.617 612.459 107.707 572.234 110.114 526.476C112.189 487.305 141.775 455.151 178.795 448.256" fill="white"/>
<path d="M176.35 317H127V40H239.648C293.183 40 324 75.6887 324 122.767C324 163.437 298.427 207.271 239.914 207.271H176.35V317ZM224.902 161.949C269.338 161.949 278.371 140.859 278.371 124.19C278.371 106.328 271.198 85.1902 224.902 85.1902H175.751V161.947L224.902 161.949Z" fill="white"/>
</svg>
