<svg width="457" height="686" viewBox="0 0 457 686" fill="none" xmlns="http://www.w3.org/2000/svg">
<g clip-path="url(#clip0_1_2)">
<path d="M457 0H0.000244141V685.5H457V0Z" fill="#0C479D"/>
<path d="M401.309 667.428C421.774 667.428 438.42 651.268 438.42 631.361V54.064C438.42 34.175 421.774 17.996 401.309 17.996H55.6172C35.1512 17.996 18.52 34.177 18.52 54.064V631.361C18.52 651.268 35.1512 667.428 55.6172 667.428H401.309Z" stroke="#F7FBF5" stroke-width="6.7258"/>
<path fill-rule="evenodd" clip-rule="evenodd" d="M76 70H381.603V375.598H76" fill="white"/>
<path d="M247.095 279.321C237.93 286.763 218.343 286.8 209.244 279.321L145.41 276.793V294.239C145.41 298.741 139.014 302.349 131.035 302.349H128.859C120.945 302.386 114.483 298.741 114.483 294.239V248.781C114.483 244.316 120.946 240.672 128.859 240.672H128.924H131.035C139.014 240.672 145.41 244.317 145.41 248.781V267.047L209.244 264.517C218.344 257.078 237.93 257.078 247.095 264.554L310.863 267.047V248.781C310.863 244.316 317.327 240.672 325.238 240.672C325.238 240.672 325.238 240.672 325.304 240.672H327.414C335.394 240.672 341.79 244.317 341.79 248.781V294.239C341.79 298.741 335.394 302.349 327.414 302.349H325.238C317.324 302.386 310.863 298.741 310.863 294.239V276.793L247.095 279.321Z" fill="black"/>
<path fill-rule="evenodd" clip-rule="evenodd" d="M353.571 213.35H335.543C345.453 203.228 351.112 191.561 351.112 179.135C351.112 140.4 296.209 109 228.482 109C160.757 109 105.854 140.4 105.854 179.135C105.854 191.561 111.511 203.229 121.422 213.35H103.395V229.801H143.692C165.716 241.861 195.586 249.271 228.483 249.271C261.38 249.271 291.25 241.861 313.274 229.801H353.571V213.35H353.571Z" fill="#F5AF09"/>
<path d="M138.11 306.508C115.063 306.508 103.989 314.811 93 314.811V322.443C110.714 322.443 115.064 314.139 138.11 314.139C160.28 314.139 160.701 321.772 182.452 322.357V322.443C182.837 322.443 183.155 322.449 183.526 322.443C184.048 322.449 184.523 322.443 185.068 322.443V322.357C200.588 321.567 205.739 314.139 227.56 314.139C249.682 314.139 250.147 321.741 271.75 322.357V322.443C272.168 322.443 272.572 322.452 272.979 322.443C273.496 322.449 273.978 322.443 274.518 322.443V322.357C290.02 321.558 295.2 314.139 317.012 314.139C340.061 314.139 339.543 322.443 363.967 322.443V314.811C345.655 314.811 340.061 306.508 317.012 306.508C294.69 306.508 283.49 314.235 272.825 314.728C255.883 314.217 249.854 306.508 227.56 306.508C205.294 306.508 194.17 314.201 183.526 314.728C166.468 314.261 160.467 306.508 138.11 306.508Z" fill="#0C479D"/>
<path d="M138.11 321.061C115.063 321.061 103.989 329.364 93 329.364V336.995C110.714 336.995 115.064 328.692 138.11 328.692C160.28 328.692 160.701 336.328 182.452 336.911V336.995C182.837 336.995 183.155 337.001 183.526 336.995C184.048 337.001 184.523 336.995 185.068 336.995V336.911C200.588 336.12 205.739 328.692 227.56 328.692C249.682 328.692 250.147 336.294 271.75 336.911V336.995C272.168 336.995 272.572 337.006 272.979 336.995C273.496 337.001 273.978 336.995 274.518 336.995V336.911C290.02 336.114 295.2 328.692 317.012 328.692C340.061 328.692 339.543 336.995 363.967 336.995V329.364C345.655 329.364 340.061 321.061 317.012 321.061C294.69 321.061 283.49 328.788 272.825 329.28C255.883 328.768 249.854 321.061 227.56 321.061C205.294 321.061 194.17 328.754 183.526 329.28C166.468 328.815 160.467 321.061 138.11 321.061Z" fill="#0C479D"/>
<path d="M179.032 480.695V507H175.563V483.55H162.592V507H159.105V480.695H179.032ZM192.157 496.395H196.132V498.346H192.428C191.428 498.346 190.585 498.461 189.899 498.689C189.224 498.906 188.712 499.25 188.363 499.719C188.014 500.177 187.839 500.773 187.839 501.508C187.839 501.929 187.941 502.333 188.146 502.718C188.363 503.092 188.676 503.423 189.086 503.712C189.507 504.001 190.013 504.23 190.603 504.398C191.205 504.567 191.886 504.651 192.645 504.651C193.62 504.651 194.469 504.489 195.192 504.164C195.915 503.838 196.475 503.417 196.872 502.899C197.282 502.369 197.487 501.809 197.487 501.219H200.811C200.811 502.279 200.576 503.2 200.106 503.983C199.636 504.754 199.01 505.392 198.227 505.898C197.444 506.392 196.565 506.759 195.59 507C194.626 507.241 193.644 507.361 192.645 507.361C191.464 507.361 190.374 507.229 189.375 506.964C188.387 506.699 187.526 506.313 186.791 505.808C186.057 505.302 185.484 504.688 185.075 503.965C184.677 503.23 184.479 502.405 184.479 501.49C184.479 500.671 184.647 499.948 184.985 499.322C185.334 498.683 185.834 498.147 186.484 497.714C187.147 497.28 187.954 496.955 188.905 496.738C189.857 496.509 190.94 496.395 192.157 496.395ZM196.132 497.66H192.157C191.049 497.66 190.043 497.533 189.14 497.28C188.237 497.027 187.46 496.678 186.809 496.232C186.171 495.775 185.677 495.251 185.328 494.661C184.991 494.07 184.822 493.444 184.822 492.782C184.822 491.854 185.003 491.041 185.364 490.343C185.737 489.632 186.267 489.042 186.954 488.572C187.64 488.09 188.465 487.729 189.429 487.488C190.392 487.235 191.464 487.109 192.645 487.109C193.717 487.109 194.722 487.241 195.662 487.506C196.601 487.771 197.432 488.157 198.155 488.663C198.89 489.168 199.462 489.777 199.871 490.487C200.281 491.198 200.486 491.999 200.486 492.89H197.161C197.161 492.312 196.957 491.794 196.547 491.336C196.15 490.867 195.608 490.499 194.921 490.234C194.247 489.957 193.488 489.819 192.645 489.819C191.621 489.819 190.778 489.963 190.115 490.252C189.453 490.529 188.959 490.897 188.634 491.354C188.321 491.8 188.164 492.276 188.164 492.782C188.164 493.203 188.243 493.595 188.399 493.956C188.568 494.305 188.821 494.612 189.158 494.877C189.495 495.13 189.935 495.329 190.477 495.474C191.019 495.618 191.669 495.69 192.428 495.69H196.132V497.66ZM205.661 514.516V496.54C205.661 494.986 205.872 493.625 206.294 492.457C206.715 491.276 207.299 490.289 208.046 489.494C208.793 488.699 209.648 488.103 210.611 487.705C211.587 487.296 212.623 487.091 213.719 487.091C215.116 487.091 216.332 487.35 217.368 487.868C218.416 488.374 219.289 489.096 219.988 490.036C220.699 490.963 221.228 492.065 221.578 493.342C221.927 494.618 222.102 496.028 222.102 497.569V497.949C222.102 499.322 221.939 500.586 221.614 501.743C221.289 502.887 220.807 503.881 220.169 504.724C219.53 505.567 218.741 506.217 217.802 506.675C216.874 507.132 215.809 507.361 214.604 507.361C213.352 507.361 212.249 507.157 211.298 506.747C210.346 506.338 209.54 505.747 208.877 504.977C208.215 504.194 207.685 503.254 207.287 502.158C206.902 501.062 206.643 499.822 206.51 498.437C206.534 498.449 206.679 498.569 206.944 498.798C207.209 499.015 207.474 499.231 207.739 499.448C208.004 499.665 208.136 499.773 208.136 499.773C208.377 500.617 208.708 501.411 209.13 502.158C209.564 502.893 210.142 503.489 210.864 503.947C211.587 504.392 212.496 504.615 213.592 504.615C214.496 504.615 215.273 504.447 215.923 504.109C216.573 503.76 217.103 503.284 217.513 502.682C217.934 502.068 218.241 501.357 218.434 500.55C218.639 499.743 218.741 498.876 218.741 497.949V497.569C218.741 496.521 218.651 495.534 218.47 494.606C218.29 493.667 218.001 492.842 217.603 492.131C217.206 491.421 216.688 490.861 216.049 490.451C215.411 490.042 214.634 489.837 213.719 489.837C212.876 489.837 212.153 490.048 211.551 490.469C210.961 490.879 210.479 491.421 210.106 492.095C209.732 492.77 209.455 493.504 209.275 494.299C209.106 495.082 209.022 495.841 209.022 496.576L209.004 514.516H205.661ZM227.91 487.452H231.27V502.014C231.27 502.676 231.372 503.176 231.577 503.513C231.782 503.85 232.047 504.079 232.372 504.2C232.697 504.308 233.047 504.362 233.42 504.362C233.697 504.362 233.986 504.338 234.287 504.29C234.6 504.23 234.835 504.182 234.992 504.146L235.01 506.855C234.745 506.94 234.396 507.024 233.962 507.108C233.54 507.193 233.028 507.235 232.426 507.235C231.607 507.235 230.854 507.072 230.168 506.747C229.481 506.41 228.933 505.862 228.524 505.103C228.114 504.332 227.91 503.296 227.91 501.996V487.452ZM238.415 497.443V497.027C238.415 495.618 238.62 494.311 239.029 493.107C239.439 491.89 240.029 490.837 240.8 489.945C241.571 489.042 242.504 488.343 243.6 487.85C244.696 487.344 245.925 487.091 247.286 487.091C248.659 487.091 249.893 487.344 250.989 487.85C252.097 488.343 253.037 489.042 253.807 489.945C254.59 490.837 255.187 491.89 255.596 493.107C256.006 494.311 256.21 495.618 256.21 497.027V497.443C256.21 498.852 256.006 500.159 255.596 501.363C255.187 502.568 254.59 503.622 253.807 504.525C253.037 505.416 252.103 506.115 251.007 506.621C249.923 507.114 248.695 507.361 247.322 507.361C245.949 507.361 244.714 507.114 243.618 506.621C242.522 506.115 241.583 505.416 240.8 504.525C240.029 503.622 239.439 502.568 239.029 501.363C238.62 500.159 238.415 498.852 238.415 497.443ZM241.757 497.027V497.443C241.757 498.418 241.872 499.34 242.1 500.207C242.329 501.062 242.673 501.821 243.13 502.483C243.6 503.146 244.184 503.67 244.883 504.055C245.581 504.429 246.394 504.615 247.322 504.615C248.237 504.615 249.038 504.429 249.724 504.055C250.423 503.67 251.001 503.146 251.459 502.483C251.917 501.821 252.26 501.062 252.489 500.207C252.73 499.34 252.85 498.418 252.85 497.443V497.027C252.85 496.064 252.73 495.154 252.489 494.299C252.26 493.432 251.911 492.667 251.441 492.005C250.983 491.33 250.405 490.8 249.706 490.415C249.02 490.03 248.213 489.837 247.286 489.837C246.37 489.837 245.563 490.03 244.865 490.415C244.178 490.8 243.6 491.33 243.13 492.005C242.673 492.667 242.329 493.432 242.1 494.299C241.872 495.154 241.757 496.064 241.757 497.027ZM277.14 487.452L263.951 514.516H260.392L273.761 487.452H277.14ZM261.747 487.181C262.615 487.181 263.343 487.344 263.933 487.669C264.524 487.982 265.011 488.392 265.397 488.897C265.794 489.391 266.125 489.915 266.39 490.469C266.655 491.023 266.89 491.535 267.095 492.005L274.574 509.132C274.815 509.65 275.062 510.113 275.315 510.523C275.568 510.932 275.845 511.252 276.146 511.48C276.447 511.721 276.785 511.842 277.158 511.842C277.351 511.842 277.628 511.836 277.989 511.824C278.362 511.812 278.645 511.788 278.838 511.751L277.971 514.624C277.851 514.708 277.676 514.769 277.447 514.805C277.218 514.853 277.025 514.877 276.869 514.877C276.17 514.877 275.562 514.769 275.044 514.552C274.538 514.347 274.093 514.04 273.707 513.63C273.322 513.221 272.961 512.709 272.623 512.095C272.298 511.493 271.961 510.794 271.612 509.999L264.349 493.342C264.12 492.764 263.855 492.228 263.554 491.734C263.265 491.228 262.922 490.819 262.524 490.505C262.127 490.192 261.651 490.036 261.097 490.036C260.952 490.036 260.748 490.048 260.483 490.072C260.23 490.096 260.025 490.114 259.868 490.126L259.85 487.434C260.055 487.374 260.344 487.32 260.718 487.271C261.103 487.211 261.446 487.181 261.747 487.181ZM285.098 491.625V507H281.755V487.452H284.755L285.098 491.625ZM284.411 496.594L283.002 496.63C283.002 495.245 283.177 493.974 283.526 492.818C283.875 491.65 284.381 490.638 285.044 489.783C285.718 488.928 286.531 488.265 287.483 487.795C288.446 487.326 289.53 487.091 290.734 487.091C291.746 487.091 292.662 487.211 293.481 487.452C294.3 487.693 294.992 488.097 295.558 488.663C296.136 489.229 296.576 489.987 296.877 490.939C297.19 491.878 297.347 493.053 297.347 494.462V514.498H294.005V494.516C294.005 493.625 293.908 492.878 293.715 492.276C293.535 491.674 293.258 491.198 292.884 490.849C292.523 490.487 292.077 490.228 291.547 490.072C291.03 489.915 290.427 489.837 289.741 489.837C288.789 489.837 287.976 490.018 287.302 490.379C286.627 490.728 286.073 491.216 285.64 491.842C285.218 492.469 284.905 493.191 284.7 494.01C284.508 494.817 284.411 495.678 284.411 496.594ZM288.332 484.309L289.307 478.238H292.451L290.355 484.309H288.332ZM76.3173 520.695V547H72.8486V523.55H59.8769V547H56.3901V520.695H76.3173ZM82.5951 554.516V536.54C82.5951 534.986 82.8058 533.625 83.2274 532.457C83.6489 531.276 84.2331 530.289 84.9798 529.494C85.7266 528.699 86.5817 528.103 87.5452 527.705C88.5208 527.296 89.5566 527.091 90.6527 527.091C92.0498 527.091 93.2663 527.35 94.3021 527.868C95.3499 528.374 96.2231 529.096 96.9217 530.036C97.6323 530.963 98.1623 532.065 98.5116 533.342C98.8608 534.618 99.0355 536.028 99.0355 537.569V537.949C99.0355 539.322 98.8729 540.586 98.5477 541.743C98.2225 542.887 97.7407 543.881 97.1024 544.724C96.464 545.567 95.6751 546.217 94.7357 546.675C93.8083 547.132 92.7424 547.361 91.5379 547.361C90.2853 547.361 89.1833 547.157 88.2318 546.747C87.2803 546.338 86.4733 545.747 85.8109 544.977C85.1484 544.194 84.6185 543.254 84.221 542.158C83.8356 541.062 83.5767 539.822 83.4442 538.437C83.4683 538.449 83.6128 538.569 83.8778 538.798C84.1427 539.015 84.4077 539.231 84.6727 539.448C84.9377 539.665 85.0702 539.773 85.0702 539.773C85.311 540.617 85.6423 541.411 86.0638 542.158C86.4974 542.893 87.0755 543.489 87.7982 543.947C88.5208 544.392 89.4302 544.615 90.5262 544.615C91.4295 544.615 92.2064 544.447 92.8568 544.109C93.5072 543.76 94.0371 543.284 94.4466 542.682C94.8682 542.068 95.1753 541.357 95.368 540.55C95.5728 539.743 95.6751 538.876 95.6751 537.949V537.569C95.6751 536.521 95.5848 535.534 95.4041 534.606C95.2235 533.667 94.9344 532.842 94.5369 532.131C94.1395 531.421 93.6216 530.861 92.9832 530.451C92.3449 530.042 91.568 529.837 90.6527 529.837C89.8096 529.837 89.0869 530.048 88.4847 530.469C87.8945 530.879 87.4128 531.421 87.0394 532.095C86.666 532.77 86.389 533.504 86.2083 534.299C86.0397 535.082 85.9554 535.841 85.9554 536.576L85.9373 554.516H82.5951ZM102.983 537.443V537.027C102.983 535.618 103.187 534.311 103.597 533.107C104.006 531.89 104.597 530.837 105.367 529.945C106.138 529.042 107.072 528.343 108.168 527.85C109.264 527.344 110.492 527.091 111.853 527.091C113.226 527.091 114.461 527.344 115.557 527.85C116.665 528.343 117.604 529.042 118.375 529.945C119.158 530.837 119.754 531.89 120.164 533.107C120.573 534.311 120.778 535.618 120.778 537.027V537.443C120.778 538.852 120.573 540.159 120.164 541.363C119.754 542.568 119.158 543.622 118.375 544.525C117.604 545.416 116.671 546.115 115.575 546.621C114.491 547.114 113.262 547.361 111.889 547.361C110.516 547.361 109.282 547.114 108.186 546.621C107.09 546.115 106.15 545.416 105.367 544.525C104.597 543.622 104.006 542.568 103.597 541.363C103.187 540.159 102.983 538.852 102.983 537.443ZM106.325 537.027V537.443C106.325 538.418 106.439 539.34 106.668 540.207C106.897 541.062 107.24 541.821 107.698 542.483C108.168 543.146 108.752 543.67 109.45 544.055C110.149 544.429 110.962 544.615 111.889 544.615C112.805 544.615 113.606 544.429 114.292 544.055C114.991 543.67 115.569 543.146 116.027 542.483C116.484 541.821 116.828 541.062 117.056 540.207C117.297 539.34 117.418 538.418 117.418 537.443V537.027C117.418 536.064 117.297 535.154 117.056 534.299C116.828 533.432 116.478 532.667 116.009 532.005C115.551 531.33 114.973 530.8 114.274 530.415C113.588 530.03 112.781 529.837 111.853 529.837C110.938 529.837 110.131 530.03 109.432 530.415C108.746 530.8 108.168 531.33 107.698 532.005C107.24 532.667 106.897 533.432 106.668 534.299C106.439 535.154 106.325 536.064 106.325 537.027ZM124.545 537.443V537.027C124.545 535.666 124.737 534.408 125.123 533.251C125.52 532.083 126.092 531.065 126.839 530.198C127.598 529.331 128.513 528.657 129.585 528.175C130.669 527.693 131.892 527.452 133.253 527.452C133.626 527.488 133.963 527.621 134.264 527.85C134.565 528.066 134.903 528.313 135.276 528.59C135.661 528.855 136.161 529.072 136.775 529.241C137.884 529.759 138.829 530.439 139.612 531.282C140.395 532.113 140.991 533.071 141.4 534.155C141.81 535.239 142.015 536.425 142.015 537.714V538.111C142.015 539.316 141.816 540.472 141.419 541.58C141.033 542.688 140.461 543.676 139.702 544.543C138.955 545.41 138.04 546.097 136.956 546.603C135.884 547.108 134.662 547.361 133.289 547.361C131.916 547.361 130.687 547.114 129.603 546.621C128.531 546.115 127.616 545.416 126.857 544.525C126.098 543.622 125.52 542.568 125.123 541.363C124.737 540.159 124.545 538.852 124.545 537.443ZM127.887 537.027V537.443C127.887 538.418 127.995 539.34 128.212 540.207C128.429 541.062 128.754 541.821 129.188 542.483C129.633 543.146 130.193 543.67 130.868 544.055C131.554 544.429 132.361 544.615 133.289 544.615C134.216 544.615 135.017 544.429 135.691 544.055C136.366 543.67 136.92 543.146 137.354 542.483C137.787 541.821 138.112 541.062 138.329 540.207C138.546 539.34 138.654 538.418 138.654 537.443V537.027C138.654 536.124 138.546 535.263 138.329 534.444C138.112 533.625 137.781 532.896 137.336 532.258C136.902 531.619 136.342 531.12 135.655 530.758C134.981 530.397 134.18 530.216 133.253 530.216C132.337 530.216 131.536 530.397 130.85 530.758C130.175 531.12 129.621 531.619 129.188 532.258C128.754 532.896 128.429 533.625 128.212 534.444C127.995 535.263 127.887 536.124 127.887 537.027ZM143.532 527.452V530.216H133.234V527.452H143.532ZM162.149 527.452V530.162H145.799V527.452H162.149ZM152.086 527.452H155.429V542.122C155.429 542.772 155.513 543.272 155.682 543.622C155.862 543.971 156.097 544.212 156.386 544.344C156.675 544.465 156.988 544.525 157.326 544.525C157.663 544.525 157.976 544.477 158.265 544.38C158.554 544.284 158.801 544.176 159.006 544.055L159.747 546.422C159.193 546.819 158.651 547.072 158.121 547.181C157.591 547.301 157.043 547.361 156.477 547.361C155.561 547.361 154.772 547.181 154.11 546.819C153.459 546.458 152.96 545.88 152.61 545.085C152.261 544.29 152.086 543.242 152.086 541.941V527.452ZM165.374 537.949V537.569C165.374 536.028 165.542 534.618 165.88 533.342C166.217 532.065 166.705 530.963 167.343 530.036C167.993 529.096 168.794 528.374 169.746 527.868C170.697 527.35 171.787 527.091 173.016 527.091C173.955 527.091 174.799 527.229 175.545 527.506C176.304 527.783 176.973 528.193 177.551 528.735C178.129 529.265 178.623 529.915 179.032 530.686C179.442 531.445 179.773 532.312 180.026 533.288C180.279 534.263 180.459 535.335 180.568 536.503V538.003C180.435 539.448 180.188 540.749 179.827 541.905C179.466 543.049 178.978 544.031 178.364 544.85C177.749 545.669 176.997 546.295 176.105 546.729C175.214 547.163 174.172 547.379 172.98 547.379C171.775 547.379 170.697 547.151 169.746 546.693C168.806 546.223 168.012 545.567 167.361 544.724C166.711 543.881 166.217 542.887 165.88 541.743C165.542 540.586 165.374 539.322 165.374 537.949ZM168.734 537.569V537.949C168.734 538.876 168.831 539.743 169.023 540.55C169.216 541.357 169.511 542.068 169.909 542.682C170.318 543.296 170.842 543.778 171.48 544.127C172.131 544.465 172.908 544.633 173.811 544.633C174.69 544.633 175.443 544.453 176.069 544.091C176.695 543.73 177.219 543.242 177.641 542.628C178.075 542.002 178.43 541.291 178.707 540.496C178.996 539.701 179.237 538.876 179.43 538.021V536.829C179.285 535.949 179.074 535.094 178.797 534.263C178.532 533.432 178.177 532.685 177.731 532.023C177.298 531.348 176.762 530.819 176.123 530.433C175.485 530.036 174.726 529.837 173.847 529.837C172.932 529.837 172.149 530.042 171.498 530.451C170.86 530.861 170.336 531.421 169.927 532.131C169.517 532.842 169.216 533.667 169.023 534.606C168.831 535.534 168.734 536.521 168.734 537.569ZM178.924 527.452H181.76V541.67C181.76 542.224 181.796 542.676 181.868 543.025C181.941 543.375 182.043 543.652 182.176 543.856C182.32 544.049 182.477 544.188 182.645 544.272C182.826 544.344 183.013 544.38 183.205 544.38C183.326 544.38 183.434 544.368 183.531 544.344C183.639 544.32 183.735 544.296 183.82 544.272L184.235 546.765C183.862 547.03 183.494 547.199 183.133 547.271C182.772 547.343 182.398 547.379 182.013 547.379C181.447 547.379 180.941 547.271 180.495 547.054C180.05 546.849 179.67 546.524 179.357 546.079C179.044 545.621 178.803 545.031 178.635 544.308C178.478 543.573 178.4 542.694 178.4 541.67V531.698L178.924 527.452ZM186.611 537.443V537.027C186.611 535.666 186.803 534.408 187.189 533.251C187.586 532.083 188.158 531.065 188.905 530.198C189.664 529.331 190.579 528.657 191.651 528.175C192.735 527.693 193.958 527.452 195.319 527.452C195.692 527.488 196.029 527.621 196.33 527.85C196.631 528.066 196.969 528.313 197.342 528.59C197.727 528.855 198.227 529.072 198.842 529.241C199.95 529.759 200.895 530.439 201.678 531.282C202.461 532.113 203.057 533.071 203.467 534.155C203.876 535.239 204.081 536.425 204.081 537.714V538.111C204.081 539.316 203.882 540.472 203.485 541.58C203.099 542.688 202.527 543.676 201.768 544.543C201.022 545.41 200.106 546.097 199.022 546.603C197.95 547.108 196.728 547.361 195.355 547.361C193.982 547.361 192.753 547.114 191.669 546.621C190.597 546.115 189.682 545.416 188.923 544.525C188.164 543.622 187.586 542.568 187.189 541.363C186.803 540.159 186.611 538.852 186.611 537.443ZM189.953 537.027V537.443C189.953 538.418 190.061 539.34 190.278 540.207C190.495 541.062 190.82 541.821 191.254 542.483C191.699 543.146 192.259 543.67 192.934 544.055C193.62 544.429 194.427 544.615 195.355 544.615C196.282 544.615 197.083 544.429 197.758 544.055C198.432 543.67 198.986 543.146 199.42 542.483C199.853 541.821 200.178 541.062 200.395 540.207C200.612 539.34 200.72 538.418 200.72 537.443V537.027C200.72 536.124 200.612 535.263 200.395 534.444C200.178 533.625 199.847 532.896 199.402 532.258C198.968 531.619 198.408 531.12 197.721 530.758C197.047 530.397 196.246 530.216 195.319 530.216C194.403 530.216 193.602 530.397 192.916 530.758C192.241 531.12 191.687 531.619 191.254 532.258C190.82 532.896 190.495 533.625 190.278 534.444C190.061 535.263 189.953 536.124 189.953 537.027ZM205.598 527.452V530.216H195.301V527.452H205.598ZM209.708 527.452H213.068V542.014C213.068 542.676 213.171 543.176 213.376 543.513C213.58 543.85 213.845 544.079 214.171 544.2C214.496 544.308 214.845 544.362 215.218 544.362C215.495 544.362 215.784 544.338 216.086 544.29C216.399 544.23 216.634 544.182 216.79 544.146L216.808 546.855C216.543 546.94 216.194 547.024 215.76 547.108C215.339 547.193 214.827 547.235 214.225 547.235C213.406 547.235 212.653 547.072 211.966 546.747C211.28 546.41 210.732 545.862 210.322 545.103C209.913 544.332 209.708 543.296 209.708 541.996V527.452ZM210.268 524.688L211.244 518.618H214.387L212.292 524.688H210.268ZM220.358 537.949V537.569C220.358 536.028 220.527 534.618 220.864 533.342C221.201 532.065 221.689 530.963 222.327 530.036C222.978 529.096 223.778 528.374 224.73 527.868C225.681 527.35 226.771 527.091 228 527.091C228.939 527.091 229.783 527.229 230.529 527.506C231.288 527.783 231.957 528.193 232.535 528.735C233.113 529.265 233.607 529.915 234.016 530.686C234.426 531.445 234.757 532.312 235.01 533.288C235.263 534.263 235.443 535.335 235.552 536.503V538.003C235.419 539.448 235.172 540.749 234.811 541.905C234.45 543.049 233.962 544.031 233.348 544.85C232.733 545.669 231.981 546.295 231.089 546.729C230.198 547.163 229.156 547.379 227.964 547.379C226.759 547.379 225.681 547.151 224.73 546.693C223.791 546.223 222.996 545.567 222.345 544.724C221.695 543.881 221.201 542.887 220.864 541.743C220.527 540.586 220.358 539.322 220.358 537.949ZM223.718 537.569V537.949C223.718 538.876 223.815 539.743 224.007 540.55C224.2 541.357 224.495 542.068 224.893 542.682C225.302 543.296 225.826 543.778 226.464 544.127C227.115 544.465 227.892 544.633 228.795 544.633C229.674 544.633 230.427 544.453 231.053 544.091C231.68 543.73 232.203 543.242 232.625 542.628C233.059 542.002 233.414 541.291 233.691 540.496C233.98 539.701 234.221 538.876 234.414 538.021V536.829C234.269 535.949 234.058 535.094 233.781 534.263C233.516 533.432 233.161 532.685 232.715 532.023C232.282 531.348 231.746 530.819 231.107 530.433C230.469 530.036 229.71 529.837 228.831 529.837C227.916 529.837 227.133 530.042 226.482 530.451C225.844 530.861 225.32 531.421 224.911 532.131C224.501 532.842 224.2 533.667 224.007 534.606C223.815 535.534 223.718 536.521 223.718 537.569ZM233.908 527.452H236.744V541.67C236.744 542.224 236.78 542.676 236.853 543.025C236.925 543.375 237.027 543.652 237.16 543.856C237.304 544.049 237.461 544.188 237.629 544.272C237.81 544.344 237.997 544.38 238.189 544.38C238.31 544.38 238.418 544.368 238.515 544.344C238.623 544.32 238.719 544.296 238.804 544.272L239.219 546.765C238.846 547.03 238.479 547.199 238.117 547.271C237.756 547.343 237.382 547.379 236.997 547.379C236.431 547.379 235.925 547.271 235.479 547.054C235.034 546.849 234.654 546.524 234.341 546.079C234.028 545.621 233.787 545.031 233.619 544.308C233.462 543.573 233.384 542.694 233.384 541.67V531.698L233.908 527.452ZM250.212 527.091C251.67 527.091 252.97 527.368 254.115 527.922C255.259 528.476 256.156 529.283 256.807 530.343C257.469 531.391 257.8 532.667 257.8 534.173H254.62C254.62 533.366 254.458 532.637 254.133 531.987C253.807 531.324 253.314 530.8 252.651 530.415C252.001 530.03 251.188 529.837 250.212 529.837C249.297 529.837 248.508 530.042 247.846 530.451C247.195 530.849 246.659 531.391 246.238 532.077C245.828 532.752 245.521 533.504 245.316 534.335C245.124 535.154 245.027 535.992 245.027 536.847V537.605C245.027 538.689 245.262 539.665 245.732 540.532C246.214 541.387 246.93 542.128 247.882 542.754C248.833 543.381 250.02 543.887 251.441 544.272C252.392 544.525 253.241 544.79 253.988 545.067C254.747 545.332 255.343 545.723 255.777 546.241C256.222 546.747 256.445 547.494 256.445 548.481C256.433 549.108 256.252 549.764 255.903 550.451C255.554 551.137 255.132 551.77 254.639 552.348C254.157 552.938 253.705 553.408 253.284 553.757L251.513 552.239C251.886 551.818 252.2 551.444 252.453 551.119C252.705 550.794 252.898 550.463 253.031 550.125C253.163 549.788 253.229 549.385 253.229 548.915C253.229 548.554 253.133 548.259 252.94 548.03C252.748 547.801 252.446 547.608 252.037 547.452C251.627 547.295 251.092 547.145 250.429 547C248.538 546.578 246.942 545.958 245.641 545.139C244.341 544.308 243.353 543.266 242.679 542.014C242.004 540.761 241.667 539.292 241.667 537.605V536.847C241.667 535.534 241.854 534.293 242.227 533.125C242.612 531.945 243.166 530.903 243.889 530C244.624 529.096 245.521 528.386 246.581 527.868C247.641 527.35 248.851 527.091 250.212 527.091ZM273.933 520.695L280.762 533.902L287.609 520.695H291.566L282.496 537.172V547H279.009V537.172L269.94 520.695H273.933ZM295.928 524.074C295.928 522.978 296.205 522.032 296.759 521.237C297.313 520.43 298.096 519.81 299.108 519.376C300.132 518.943 301.354 518.726 302.775 518.726C303.727 518.726 304.582 518.81 305.341 518.979C306.1 519.136 306.882 519.389 307.689 519.738L307.671 522.61C307.117 522.406 306.395 522.177 305.503 521.924C304.624 521.671 303.691 521.544 302.703 521.544C302.017 521.544 301.42 521.647 300.915 521.852C300.409 522.044 300.017 522.327 299.74 522.701C299.463 523.062 299.325 523.49 299.325 523.983C299.325 524.224 299.385 524.483 299.505 524.76C299.626 525.037 299.837 525.32 300.138 525.609C300.439 525.898 300.86 526.194 301.402 526.495C301.944 526.784 302.643 527.073 303.498 527.362C305.22 527.952 306.648 528.723 307.78 529.674C308.912 530.614 309.755 531.734 310.309 533.035C310.875 534.323 311.158 535.781 311.158 537.407V537.804C311.158 539.165 310.959 540.43 310.562 541.598C310.177 542.754 309.604 543.766 308.846 544.633C308.099 545.488 307.184 546.157 306.1 546.639C305.028 547.12 303.811 547.361 302.45 547.361C301.065 547.361 299.831 547.12 298.747 546.639C297.663 546.157 296.741 545.488 295.982 544.633C295.236 543.766 294.664 542.754 294.266 541.598C293.881 540.43 293.688 539.165 293.688 537.804V537.407C293.688 535.973 293.965 534.673 294.519 533.504C295.073 532.336 295.802 531.361 296.705 530.578C297.62 529.795 298.608 529.277 299.668 529.024L299.65 528.934C298.867 528.62 298.193 528.223 297.626 527.741C297.072 527.259 296.651 526.705 296.362 526.079C296.073 525.453 295.928 524.784 295.928 524.074ZM297.048 537.407V537.804C297.048 538.732 297.157 539.605 297.374 540.424C297.59 541.243 297.916 541.972 298.349 542.61C298.795 543.236 299.355 543.73 300.029 544.091C300.716 544.453 301.523 544.633 302.45 544.633C303.366 544.633 304.154 544.453 304.817 544.091C305.491 543.73 306.045 543.236 306.479 542.61C306.925 541.972 307.25 541.243 307.455 540.424C307.671 539.605 307.78 538.732 307.78 537.804V537.407C307.78 536.636 307.653 535.877 307.4 535.13C307.147 534.384 306.786 533.691 306.316 533.053C305.847 532.414 305.287 531.878 304.636 531.445C303.998 530.999 303.281 530.698 302.486 530.542C301.571 530.542 300.77 530.728 300.083 531.102C299.397 531.463 298.831 531.963 298.385 532.601C297.94 533.239 297.602 533.974 297.374 534.805C297.157 535.624 297.048 536.491 297.048 537.407ZM315.105 537.949V537.569C315.105 536.028 315.274 534.618 315.611 533.342C315.948 532.065 316.436 530.963 317.075 530.036C317.725 529.096 318.526 528.374 319.477 527.868C320.429 527.35 321.519 527.091 322.747 527.091C323.687 527.091 324.53 527.229 325.277 527.506C326.036 527.783 326.704 528.193 327.282 528.735C327.86 529.265 328.354 529.915 328.764 530.686C329.173 531.445 329.504 532.312 329.757 533.288C330.01 534.263 330.191 535.335 330.299 536.503V538.003C330.167 539.448 329.92 540.749 329.558 541.905C329.197 543.049 328.709 544.031 328.095 544.85C327.481 545.669 326.728 546.295 325.837 546.729C324.946 547.163 323.904 547.379 322.711 547.379C321.507 547.379 320.429 547.151 319.477 546.693C318.538 546.223 317.743 545.567 317.093 544.724C316.442 543.881 315.948 542.887 315.611 541.743C315.274 540.586 315.105 539.322 315.105 537.949ZM318.466 537.569V537.949C318.466 538.876 318.562 539.743 318.755 540.55C318.947 541.357 319.243 542.068 319.64 542.682C320.05 543.296 320.573 543.778 321.212 544.127C321.862 544.465 322.639 544.633 323.542 544.633C324.422 544.633 325.174 544.453 325.801 544.091C326.427 543.73 326.951 543.242 327.372 542.628C327.806 542.002 328.161 541.291 328.438 540.496C328.727 539.701 328.968 538.876 329.161 538.021V536.829C329.016 535.949 328.806 535.094 328.529 534.263C328.264 533.432 327.908 532.685 327.463 532.023C327.029 531.348 326.493 530.819 325.855 530.433C325.217 530.036 324.458 529.837 323.578 529.837C322.663 529.837 321.88 530.042 321.23 530.451C320.592 530.861 320.068 531.421 319.658 532.131C319.249 532.842 318.947 533.667 318.755 534.606C318.562 535.534 318.466 536.521 318.466 537.569ZM328.655 527.452H331.492V541.67C331.492 542.224 331.528 542.676 331.6 543.025C331.672 543.375 331.775 543.652 331.907 543.856C332.052 544.049 332.208 544.188 332.377 544.272C332.557 544.344 332.744 544.38 332.937 544.38C333.057 544.38 333.166 544.368 333.262 544.344C333.37 544.32 333.467 544.296 333.551 544.272L333.967 546.765C333.593 547.03 333.226 547.199 332.865 547.271C332.503 547.343 332.13 547.379 331.745 547.379C331.178 547.379 330.673 547.271 330.227 547.054C329.781 546.849 329.402 546.524 329.089 546.079C328.776 545.621 328.535 545.031 328.366 544.308C328.21 543.573 328.131 542.694 328.131 541.67V531.698L328.655 527.452ZM323.362 524.309L324.337 518.238H327.481L325.385 524.309H323.362ZM352.403 527.452V530.162H336.053V527.452H352.403ZM342.34 527.452H345.682V542.122C345.682 542.772 345.767 543.272 345.935 543.622C346.116 543.971 346.351 544.212 346.64 544.344C346.929 544.465 347.242 544.525 347.579 544.525C347.917 544.525 348.23 544.477 348.519 544.38C348.808 544.284 349.055 544.176 349.26 544.055L350 546.422C349.446 546.819 348.904 547.072 348.374 547.181C347.844 547.301 347.296 547.361 346.73 547.361C345.815 547.361 345.026 547.181 344.364 546.819C343.713 546.458 343.213 545.88 342.864 545.085C342.515 544.29 342.34 543.242 342.34 541.941V527.452ZM376.512 527.452H380.017C380.451 528.211 380.854 529.06 381.228 530C381.601 530.939 381.902 531.981 382.131 533.125C382.36 534.257 382.474 535.504 382.474 536.865C382.474 538.25 382.342 539.575 382.077 540.839C381.824 542.104 381.414 543.23 380.848 544.218C380.294 545.193 379.56 545.964 378.644 546.53C377.729 547.096 376.621 547.379 375.32 547.379C374.284 547.379 373.363 547.187 372.556 546.801C371.749 546.404 371.062 545.826 370.496 545.067C369.942 544.308 369.521 543.375 369.232 542.267C368.943 541.159 368.798 539.888 368.798 538.455V533.089H371.147V538.491C371.147 539.611 371.243 540.562 371.436 541.345C371.64 542.116 371.923 542.748 372.285 543.242C372.646 543.724 373.068 544.079 373.549 544.308C374.043 544.525 374.573 544.633 375.139 544.633C375.862 544.633 376.476 544.429 376.982 544.019C377.488 543.61 377.897 543.049 378.211 542.339C378.524 541.616 378.753 540.791 378.897 539.864C379.042 538.924 379.114 537.925 379.114 536.865C379.078 535.227 378.813 533.625 378.319 532.059C377.837 530.481 377.235 528.946 376.512 527.452ZM358.916 527.452H362.421C361.698 528.946 361.09 530.481 360.596 532.059C360.114 533.625 359.855 535.227 359.819 536.865C359.819 537.708 359.861 538.515 359.945 539.286C360.042 540.056 360.186 540.767 360.379 541.417C360.572 542.056 360.819 542.622 361.12 543.116C361.433 543.597 361.806 543.971 362.24 544.236C362.686 544.501 363.197 544.633 363.776 544.633C364.354 544.633 364.884 544.525 365.365 544.308C365.859 544.079 366.287 543.724 366.648 543.242C367.009 542.748 367.286 542.116 367.479 541.345C367.684 540.562 367.786 539.611 367.786 538.491V533.089H370.135V538.455C370.135 539.888 369.99 541.159 369.701 542.267C369.412 543.375 368.985 544.308 368.419 545.067C367.865 545.826 367.184 546.404 366.377 546.801C365.57 547.187 364.649 547.379 363.613 547.379C362.565 547.379 361.644 547.199 360.849 546.837C360.066 546.464 359.391 545.946 358.825 545.284C358.271 544.621 357.82 543.85 357.47 542.971C357.121 542.08 356.862 541.116 356.693 540.081C356.537 539.045 356.459 537.973 356.459 536.865C356.459 535.504 356.573 534.257 356.802 533.125C357.031 531.981 357.332 530.939 357.705 530C358.079 529.06 358.482 528.211 358.916 527.452ZM393.395 543.983L398.743 527.452H402.157L395.129 547H392.889L393.395 543.983ZM388.933 527.452L394.443 544.073L394.822 547H392.582L385.5 527.452H388.933Z" fill="white"/>
</g>
<defs>
<clipPath id="clip0_1_2">
<rect width="457" height="686" fill="white"/>
</clipPath>
</defs>
</svg>
