<svg width="655" height="655" viewBox="0 0 655 655" fill="none" xmlns="http://www.w3.org/2000/svg">
<g clip-path="url(#clip0_2_8)">
<path d="M617.51 327.489C617.51 487.652 487.673 617.489 327.51 617.489C167.347 617.489 37.5095 487.652 37.5095 327.489C37.5095 167.326 167.347 37.4894 327.51 37.4894C487.673 37.4894 617.51 167.326 617.51 327.489Z" fill="#0C479D" stroke="#0C479D" stroke-width="75"/>
<path fill-rule="evenodd" clip-rule="evenodd" d="M97.7223 267.666L178.897 267.469L182.76 263.509L218.074 263.186L166.078 229.009L230.408 185.221L293.605 227.808L243.588 263.605L275.653 263.282L282.211 267.793L563.392 266.949L562.963 281.525L555.107 281.593L585.781 343.426C585.667 356.311 585.589 369.163 585.487 382.018C584.606 390.227 579.614 395.128 570.458 396.69C410.898 396.667 251.337 396.667 91.7412 396.622C82.2337 399.125 74.6027 386.466 74.6388 382.279L74.9326 343.687L105.766 283.865L97.8795 283.933L97.7212 267.672L97.7223 267.666ZM178.51 228.227L230.508 193.728L281.855 227.904L229.856 263.053L178.51 228.227ZM150.886 283.438L170.525 283.241C174.841 283.219 178.413 286.813 178.444 291.228L179.258 377.792C179.258 382.24 175.815 385.907 171.499 385.938L151.863 386.135C147.543 386.158 143.977 382.565 143.94 378.149L143.127 291.553C143.127 287.137 146.566 283.47 150.882 283.438H150.886ZM199.963 282.986L258.808 282.434C264.945 282.366 269.973 287.333 270.04 293.434L270.424 333.976C270.424 340.108 265.524 345.14 259.388 345.205L200.542 345.758C194.41 345.826 189.377 340.854 189.313 334.753L188.929 294.183C188.816 288.077 193.83 283.017 199.963 282.986ZM290.229 282.789L349.075 282.205C355.207 282.183 360.239 287.106 360.304 293.242L360.689 333.781C360.689 339.913 355.787 344.946 349.654 345.01L290.81 345.562C284.673 345.63 279.644 340.663 279.576 334.562L279.192 293.987C279.078 287.886 284.093 282.823 290.229 282.79V282.789ZM381.789 281.913L440.639 281.36C446.74 281.292 451.804 286.261 451.868 292.365L452.252 332.935C452.252 339.037 447.351 344.099 441.215 344.132L382.369 344.685C376.237 344.752 371.204 339.785 371.141 333.684L370.756 293.142C370.643 287.01 375.656 281.976 381.758 281.913H381.789ZM470.724 282.369L504.092 282.076C509.835 282.009 514.607 286.685 514.64 292.43L515.453 375.486C515.453 381.267 510.84 386.004 505.065 386.067L471.731 386.36C465.956 386.428 461.216 381.752 461.151 376.008L460.371 292.95C460.258 287.17 464.978 282.434 470.724 282.369ZM115.573 283.114L132.583 282.95L133.171 344.458C124.211 344.526 115.252 344.621 106.328 344.685C95.2278 338.26 92.1771 334.2 94.9984 322.551L115.576 283.113L115.573 283.114ZM542.943 283.012L525.934 283.174L526.521 344.649C535.45 344.581 544.41 344.487 553.365 344.387C564.306 337.733 567.291 333.611 564.241 322.057" fill="white"/>
<path fill-rule="evenodd" clip-rule="evenodd" d="M262.866 402.105C263.747 402.105 263.058 403.822 263.058 404.699C263.058 416.06 252.639 425.312 239.884 425.312C227.124 425.312 215.735 416.029 216.708 404.699L216.968 401.584" fill="white"/>
<path fill-rule="evenodd" clip-rule="evenodd" d="M167.472 401.453C168.342 401.486 167.664 403.205 167.664 404.082C167.664 415.444 157.25 424.696 144.491 424.696C131.736 424.696 120.342 415.379 121.315 404.082L121.575 400.936" fill="white"/>
<path fill-rule="evenodd" clip-rule="evenodd" d="M176.171 401.78H208.242L211.973 416.188H172.275" fill="white"/>
<path fill-rule="evenodd" clip-rule="evenodd" d="M444.141 401.453C445.022 401.486 444.333 403.205 444.333 404.082C444.333 415.444 433.913 424.696 421.158 424.696C408.403 424.696 397.01 415.379 397.982 404.082L398.242 400.936" fill="white"/>
<path fill-rule="evenodd" clip-rule="evenodd" d="M452.841 401.78H484.875L488.643 416.188H448.946" fill="white"/>
<path fill-rule="evenodd" clip-rule="evenodd" d="M539.537 402.105C540.418 402.105 539.729 403.822 539.729 404.699C539.729 416.06 529.312 425.312 516.554 425.312C503.799 425.312 492.405 416.029 493.382 404.699L493.642 401.584" fill="white"/>
<path d="M116 577.5L578 116.5L574 112L570 107.5L564.5 101.5L560 97L554 91L550 87.5L545 83L543 81L540.5 79L76 537L81 543L86.5002 549L92.5003 555.5L97.5 560.5L100 563L107.5 570L112.5 574.5L116 577.5Z" fill="#CC0000"/>
</g>
<defs>
<clipPath id="clip0_2_8">
<rect width="655" height="655" fill="white"/>
</clipPath>
</defs>
</svg>
