<svg width="655" height="655" viewBox="0 0 655 655" fill="none" xmlns="http://www.w3.org/2000/svg">
<path d="M327.5 617.5C487.663 617.5 617.5 487.663 617.5 327.5C617.5 167.337 487.663 37.5 327.5 37.5C167.337 37.5 37.5 167.337 37.5 327.5C37.5 487.663 167.337 617.5 327.5 617.5Z" fill="white" stroke="#CC0000" stroke-width="75"/>
<path fill-rule="evenodd" clip-rule="evenodd" d="M326.664 413.94H209.791V443.869C209.791 451.121 203.934 457 196.71 457H178.145C170.921 457 165.065 451.121 165.065 443.869V413.94H153.638L138.625 321.651C136.346 307.646 140.367 293.347 149.605 282.606L158.209 272.6L201.375 205.959C204.995 200.371 211.184 197 217.825 197H326.664H327.318H436.382C443.033 197 449.23 200.382 452.847 205.985L495.851 272.6L504.447 282.63C513.642 293.359 517.645 307.619 515.38 321.589L500.407 413.94H489.019V443.869C489.019 451.121 483.162 457 475.938 457H457.525C450.301 457 444.444 451.121 444.444 443.869V413.94H327.318H326.664ZM506.525 321.091C506.525 333.782 496.276 344.071 483.634 344.071C470.991 344.071 460.742 333.782 460.742 321.091C460.742 308.399 470.991 298.111 483.634 298.111C496.276 298.111 506.525 308.399 506.525 321.091ZM171.002 344.071C183.645 344.071 193.893 333.782 193.893 321.091C193.893 308.399 183.645 298.111 171.002 298.111C158.359 298.111 148.111 308.399 148.111 321.091C148.111 333.782 158.359 344.071 171.002 344.071ZM286.767 323.061V378.212H366.56V323.061H286.767ZM273.359 378.212V323.061H226.923L210.245 378.212H273.359ZM379.641 323.061V378.212H442.756L426.078 323.061H379.641ZM177.542 263.313H476.439L440.467 207.505H213.515L177.542 263.313Z" fill="black"/>
</svg>
